<?xml version="1.0" encoding="utf-8"?>
<!-- Generator: Adobe Illustrator 24.1.0, SVG Export Plug-In . SVG Version: 6.00 Build 0)  -->
<svg version="1.1" id="Layer_1" xmlns="http://www.w3.org/2000/svg" xmlns:xlink="http://www.w3.org/1999/xlink" x="0px" y="0px"
	 viewBox="0 0 595.28 841.89" style="enable-background:new 0 0 595.28 841.89;" xml:space="preserve">
<style type="text/css">
	.st0{fill:#010101;}
	.st1{fill:#3E9AD5;}
	.st2{fill:#3E99D5;}
	.st3{fill:#0D0D0D;}
	.st4{fill:#3F99D4;}
	.st5{fill:#0B0B0B;}
</style>
<g>
	<path class="st0" d="M250.95,233.05c-3.24,0-5.87-2.63-5.87-5.87v-67.49c0-3.24,2.63-5.87,5.87-5.87c3.24,0,5.87,2.63,5.87,5.87
		v67.49C256.82,230.43,254.2,233.05,250.95,233.05z"/>
	<path class="st0" d="M151.93,342.06H74.45c-3.24,0-5.87-2.63-5.87-5.87c0-3.24,2.63-5.87,5.87-5.87h77.48
		c3.24,0,5.87,2.63,5.87,5.87C157.8,339.44,155.17,342.06,151.93,342.06z"/>
	<path class="st4" d="M263.44,402.38c-16.77,0-32.54-6.53-44.39-18.39c-24.48-24.48-24.48-64.31,0-88.79
		c11.86-11.86,27.62-18.39,44.39-18.39c16.77,0,32.54,6.53,44.39,18.39c11.86,11.86,18.39,27.62,18.39,44.39
		c0,16.77-6.53,32.54-18.39,44.39C295.98,395.85,280.21,402.38,263.44,402.38z M263.44,288.55c-13.64,0-26.45,5.31-36.1,14.95
		c-19.9,19.9-19.9,52.28,0,72.19c9.64,9.64,22.46,14.95,36.1,14.95c13.63,0,26.45-5.31,36.09-14.95
		c9.64-9.64,14.95-22.46,14.95-36.09c0-13.64-5.31-26.45-14.95-36.09C289.89,293.86,277.08,288.55,263.44,288.55z"/>
	<path class="st0" d="M394.43,497.61c-7.22,0-14-2.81-19.1-7.91l-71.35-71.34c-34.06,17.57-75.91,11.25-103.23-16.07
		c-34.57-34.57-34.57-90.81,0-125.37c34.56-34.56,90.81-34.56,125.37,0c27.32,27.32,33.64,69.17,16.07,103.23l71.35,71.34
		c5.1,5.1,7.91,11.88,7.91,19.11c0,7.22-2.81,14-7.91,19.1C408.44,494.8,401.65,497.61,394.43,497.61z M305.02,405.22
		c1.52,0,3.02,0.59,4.15,1.72l74.46,74.46c5.77,5.78,15.84,5.77,21.61,0c2.89-2.88,4.48-6.72,4.48-10.8c0-4.09-1.59-7.92-4.48-10.81
		l-74.46-74.46c-1.88-1.88-2.26-4.8-0.92-7.1c17.54-30.13,12.6-68.39-12.03-93.02c-14.53-14.53-33.84-22.53-54.39-22.53
		c-20.55,0-39.86,8-54.39,22.53c-29.99,29.99-29.99,78.79,0,108.78c24.63,24.63,62.88,29.57,93.01,12.03
		C302.99,405.48,304.01,405.22,305.02,405.22z"/>
	<path class="st0" d="M328.43,440.37c-1.5,0-3-0.57-4.15-1.72c-2.29-2.29-2.29-6.01,0-8.3l29.91-29.91c2.29-2.29,6.01-2.29,8.3,0
		c2.29,2.29,2.29,6.01,0,8.3l-29.91,29.91C331.44,439.8,329.94,440.37,328.43,440.37z"/>
	<path class="st0" d="M250.95,518.56c-3.24,0-5.87-2.63-5.87-5.87V445.2c0-3.24,2.63-5.87,5.87-5.87c3.24,0,5.87,2.63,5.87,5.87
		v67.49C256.82,515.93,254.2,518.56,250.95,518.56z"/>
	<path class="st0" d="M427.46,345.47h-81.23c-3.24,0-5.87-2.63-5.87-5.87c0-3.24,2.63-5.87,5.87-5.87h81.23
		c3.24,0,5.87,2.63,5.87,5.87C433.32,342.84,430.7,345.47,427.46,345.47z"/>
	<path class="st0" d="M250.95,518.56c-18.66,0-37.09-2.82-54.77-8.38c-0.89-0.28-1.7-0.77-2.36-1.42
		c-35.62-35.13-57.75-101.25-57.75-172.57c0-71.32,22.13-137.44,57.75-172.56c0.66-0.66,1.47-1.14,2.36-1.42
		c35.36-11.12,74.18-11.12,109.54,0c0.89,0.28,1.7,0.77,2.36,1.42c26.85,26.48,46.61,71.41,54.21,123.28
		c0.47,3.21-1.75,6.19-4.96,6.66c-3.23,0.5-6.19-1.75-6.66-4.95c-7.14-48.74-25.27-90.77-49.84-115.63
		c-32.25-9.84-67.53-9.84-99.78,0c-32.88,33.26-53.25,95.61-53.25,163.21c0,67.61,20.38,129.95,53.25,163.21
		c32.24,9.85,67.52,9.85,99.78,0c7.56-7.66,14.59-17.02,20.91-27.85c1.63-2.8,5.23-3.74,8.03-2.11c2.8,1.63,3.75,5.23,2.11,8.03
		c-7.12,12.2-15.13,22.73-23.81,31.29c-0.66,0.66-1.47,1.14-2.36,1.42C288.04,515.74,269.62,518.56,250.95,518.56z"/>
	<path class="st0" d="M250.95,451.07c-71.32,0-137.44-22.13-172.57-57.74c-0.65-0.66-1.14-1.47-1.42-2.36
		c-5.56-17.69-8.38-36.12-8.38-54.77s2.82-37.08,8.38-54.77c0.28-0.89,0.77-1.7,1.42-2.36c35.12-35.62,101.25-57.74,172.57-57.74
		c71.32,0,137.44,22.13,172.57,57.74c0.65,0.67,1.14,1.47,1.42,2.36c5.56,17.69,8.38,36.12,8.38,54.77
		c0,18.66-2.82,37.08-8.38,54.77c-0.28,0.89-0.77,1.7-1.42,2.36c-7.35,7.45-16.22,14.44-26.36,20.78c-2.75,1.71-6.37,0.89-8.09-1.87
		c-1.72-2.75-0.88-6.37,1.87-8.08c8.91-5.57,16.71-11.64,23.22-18.07c4.92-16.13,7.42-32.91,7.42-49.89
		c0-16.98-2.5-33.76-7.42-49.89c-33.26-32.88-95.6-53.25-163.21-53.25c-67.61,0-129.96,20.38-163.21,53.25
		c-4.92,16.13-7.42,32.91-7.42,49.89c0,16.98,2.5,33.76,7.42,49.89c33.26,32.88,95.6,53.25,163.21,53.25
		c17.43,0,34.7-1.35,51.33-4.01c3.21-0.52,6.21,1.67,6.72,4.87c0.51,3.2-1.67,6.21-4.87,6.72C286.9,449.67,269,451.07,250.95,451.07
		z"/>
	<path class="st0" d="M318.18,403.8c-1.5,0-3-0.57-4.15-1.72c-2.29-2.29-2.29-6.01,0-8.3l16.75-16.75c2.29-2.29,6.01-2.29,8.3,0
		c2.29,2.29,2.29,6.01,0,8.3l-16.75,16.75C321.19,403.22,319.69,403.8,318.18,403.8z"/>
	<path class="st0" d="M250.95,518.56c-100.56,0-182.37-81.81-182.37-182.37c0-100.55,81.81-182.37,182.37-182.37
		c100.56,0,182.37,81.81,182.37,182.37c0,38.8-12.06,75.88-34.87,107.21c-1.01,1.39-2.58,2.26-4.29,2.4
		c-1.74,0.15-3.4-0.49-4.61-1.7l-58.77-58.77c-1.88-1.88-2.26-4.8-0.92-7.1c17.54-30.13,12.6-68.39-12.03-93.02
		c-14.53-14.53-33.84-22.53-54.39-22.53c-20.55,0-39.86,8-54.39,22.53c-14.53,14.53-22.53,33.84-22.53,54.39
		c0,20.55,8,39.86,22.53,54.39c24.63,24.63,62.88,29.57,93.01,12.03c2.3-1.34,5.22-0.97,7.1,0.92l59.86,59.86
		c1.16,1.16,1.78,2.75,1.72,4.39c-0.07,1.64-0.82,3.18-2.07,4.24C335.82,503.24,294.01,518.56,250.95,518.56z M250.95,165.56
		c-94.09,0-170.63,76.54-170.63,170.63s76.55,170.63,170.63,170.63c38.15,0,75.25-12.86,105.19-36.32l-52.16-52.16
		c-34.06,17.57-75.91,11.25-103.23-16.07c-16.74-16.74-25.97-39.01-25.97-62.69c0-23.68,9.22-45.94,25.97-62.69
		c16.74-16.74,39.01-25.97,62.69-25.97c23.68,0,45.94,9.22,62.69,25.97c27.32,27.32,33.64,69.17,16.07,103.23l50.71,50.71
		c18.79-28.08,28.68-60.66,28.68-94.66C421.59,242.11,345.04,165.56,250.95,165.56z"/>
</g>
</svg>
