<svg xmlns="http://www.w3.org/2000/svg" xmlns:xlink="http://www.w3.org/1999/xlink" width="364.74" height="364.738" viewBox="0 0 364.74 364.738">
  <defs>
    <linearGradient id="linear-gradient" x1="0.5" x2="0.5" y2="1" gradientUnits="objectBoundingBox">
      <stop offset="0" stop-color="#3f99d4"/>
      <stop offset="1" stop-color="#703a96"/>
    </linearGradient>
  </defs>
  <g id="Group_8" data-name="Group 8" transform="translate(-68.584 -153.824)">
    <path id="Path_41" data-name="Path 41" d="M250.955,233.054a5.868,5.868,0,0,1-5.869-5.868V159.693a5.869,5.869,0,0,1,11.738,0v67.493A5.868,5.868,0,0,1,250.955,233.054Z" fill="url(#linear-gradient)"/>
    <path id="Path_42" data-name="Path 42" d="M151.931,342.064H74.453a5.869,5.869,0,1,1,0-11.738h77.478a5.869,5.869,0,1,1,0,11.738Z" fill="url(#linear-gradient)"/>
    <path id="Path_43" data-name="Path 43" d="M263.442,402.381a62.786,62.786,0,1,1,44.394-18.391A62.354,62.354,0,0,1,263.442,402.381Zm0-113.829A51.046,51.046,0,1,0,299.536,303.5,50.711,50.711,0,0,0,263.442,288.552Z" fill="url(#linear-gradient)"/>
    <path id="Path_44" data-name="Path 44" d="M394.433,497.608a26.838,26.838,0,0,1-19.1-7.914l-71.346-71.343a88.653,88.653,0,1,1,38.209-38.208l71.347,71.344a27.018,27.018,0,0,1-19.107,46.121ZM305.02,405.219a5.858,5.858,0,0,1,4.152,1.719L383.629,481.4a15.647,15.647,0,0,0,21.612,0,15.282,15.282,0,0,0,0-21.61l-74.457-74.457a5.866,5.866,0,0,1-.922-7.1,76.92,76.92,0,1,0-27.793,27.79A5.847,5.847,0,0,1,305.02,405.219Z" fill="url(#linear-gradient)"/>
    <path id="Path_45" data-name="Path 45" d="M328.434,440.373a5.869,5.869,0,0,1-4.15-10.019L354.2,400.441a5.868,5.868,0,0,1,8.3,8.3l-29.913,29.913A5.847,5.847,0,0,1,328.434,440.373Z" fill="url(#linear-gradient)"/>
    <path id="Path_46" data-name="Path 46" d="M250.955,518.562a5.868,5.868,0,0,1-5.869-5.869V445.2a5.869,5.869,0,0,1,11.738,0v67.492A5.868,5.868,0,0,1,250.955,518.562Z" fill="url(#linear-gradient)"/>
    <path id="Path_47" data-name="Path 47" d="M427.455,345.467H346.226a5.869,5.869,0,0,1,0-11.738h81.229a5.869,5.869,0,1,1,0,11.738Z" fill="url(#linear-gradient)"/>
    <path id="Path_48" data-name="Path 48" d="M250.955,518.562a182.292,182.292,0,0,1-54.771-8.382,5.854,5.854,0,0,1-2.361-1.421c-35.619-35.126-57.747-101.248-57.747-172.568S158.2,198.754,193.823,163.627a5.854,5.854,0,0,1,2.361-1.421,183.955,183.955,0,0,1,109.542,0,5.84,5.84,0,0,1,2.359,1.421C334.94,190.106,354.7,235.039,362.3,286.906a5.869,5.869,0,0,1-11.614,1.706c-7.139-48.74-25.273-90.771-49.84-115.632a172.258,172.258,0,0,0-99.776,0c-32.877,33.261-53.253,95.608-53.253,163.211S168.19,466.146,201.067,499.4a172.158,172.158,0,0,0,99.776,0,139.485,139.485,0,0,0,20.91-27.854,5.87,5.87,0,1,1,10.14,5.915,149.845,149.845,0,0,1-23.806,31.293,5.848,5.848,0,0,1-2.361,1.421A182.311,182.311,0,0,1,250.955,518.562Z" fill="url(#linear-gradient)"/>
    <path id="Path_49" data-name="Path 49" d="M250.955,451.07c-71.321,0-137.444-22.128-172.568-57.745a5.866,5.866,0,0,1-1.419-2.361,183.1,183.1,0,0,1,0-109.542,5.872,5.872,0,0,1,1.419-2.361c35.124-35.617,101.247-57.745,172.568-57.745S388.4,243.444,423.524,279.061a5.9,5.9,0,0,1,1.419,2.361,183.158,183.158,0,0,1,0,109.542,5.888,5.888,0,0,1-1.419,2.361A144.657,144.657,0,0,1,397.169,414.1a5.867,5.867,0,1,1-6.222-9.949,134.27,134.27,0,0,0,23.22-18.07,171.419,171.419,0,0,0,0-99.776c-33.257-32.875-95.6-53.251-163.212-53.251S121,253.43,87.742,286.3a171.42,171.42,0,0,0,0,99.776c33.256,32.875,95.6,53.251,163.213,53.251a325.6,325.6,0,0,0,51.333-4.012,5.869,5.869,0,0,1,1.856,11.591A337.632,337.632,0,0,1,250.955,451.07Z" fill="url(#linear-gradient)"/>
    <path id="Path_50" data-name="Path 50" d="M318.184,403.8a5.87,5.87,0,0,1-4.149-10.019l16.749-16.749a5.868,5.868,0,0,1,8.3,8.3l-16.749,16.749A5.847,5.847,0,0,1,318.184,403.8Z" fill="url(#linear-gradient)"/>
    <path id="Path_51" data-name="Path 51" d="M250.955,518.562c-100.56,0-182.371-81.811-182.371-182.371S150.4,153.824,250.955,153.824s182.369,81.812,182.369,182.367A181,181,0,0,1,398.45,443.4a5.868,5.868,0,0,1-4.287,2.4,5.784,5.784,0,0,1-4.608-1.7l-58.771-58.771a5.866,5.866,0,0,1-.922-7.1,76.92,76.92,0,1,0-27.793,27.79,5.859,5.859,0,0,1,7.1.921L369.034,466.8a5.865,5.865,0,0,1-.357,8.629A182.435,182.435,0,0,1,250.955,518.562Zm0-353c-94.088,0-170.633,76.543-170.633,170.629s76.545,170.634,170.633,170.634a170.73,170.73,0,0,0,105.187-36.319l-52.158-52.155a88.653,88.653,0,1,1,38.209-38.208L392.9,430.849a169.231,169.231,0,0,0,28.685-94.658C421.587,242.1,345.041,165.562,250.955,165.562Z" fill="url(#linear-gradient)"/>
  </g>
</svg>
