<svg xmlns="http://www.w3.org/2000/svg" xmlns:xlink="http://www.w3.org/1999/xlink" width="494.208" height="340.617" viewBox="0 0 494.208 340.617">
  <defs>
    <linearGradient id="linear-gradient" x1="0.5" x2="0.5" y2="1" gradientUnits="objectBoundingBox">
      <stop offset="0" stop-color="#3f99d4"/>
      <stop offset="1" stop-color="#703a96"/>
    </linearGradient>
  </defs>
  <g id="Group_6" data-name="Group 6" transform="translate(-63.262 -261.522)">
    <path id="Path_23" data-name="Path 23" d="M416.017,448.221a19.535,19.535,0,1,1-19.535-19.535A19.535,19.535,0,0,1,416.017,448.221Z" fill="url(#linear-gradient)"/>
    <path id="Path_24" data-name="Path 24" d="M85.767,562.925a7.618,7.618,0,0,1-7.126-10.315L108.4,473.876c-29.158-23.388-45.138-53.543-45.138-85.445,0-69.978,77.867-126.909,173.585-126.909s173.586,56.931,173.586,126.909S332.565,515.34,236.847,515.34c-6.424,0-12.908-.265-19.279-.786a78.934,78.934,0,0,0-39.238,6.731L88.941,562.231A7.571,7.571,0,0,1,85.767,562.925Zm151.08-286.16c-87.311,0-158.343,50.092-158.343,111.666,0,28.6,15.475,55.853,43.572,76.748a7.62,7.62,0,0,1,2.579,8.81l-25.2,66.662,72.527-33.221a94.32,94.32,0,0,1,46.823-8.068c5.961.489,12.027.735,18.041.735,87.311,0,158.344-50.091,158.344-111.666S324.158,276.765,236.847,276.765Z" fill="url(#linear-gradient)"/>
    <path id="Path_25" data-name="Path 25" d="M536.66,602.139a7.585,7.585,0,0,1-3.173-.694l-76.916-35.233a76.262,76.262,0,0,0-37.4-6.865,212.6,212.6,0,0,1-50.985-2.209A7.621,7.621,0,0,1,370.7,542.1a197.251,197.251,0,0,0,47.293,2.048,91.01,91.01,0,0,1,44.93,8.205l60.059,27.511-21.572-57.083a7.617,7.617,0,0,1,2.578-8.809c24.662-18.344,38.243-42.247,38.243-67.3,0-54.073-62.536-98.061-139.409-98.061-.351,0-.7,0-1.06,0a96.17,96.17,0,0,1,8.675,39.812c0,54.31-47.008,102.134-115.968,119.767a140.808,140.808,0,0,0,41.625,24.519,7.623,7.623,0,0,1-5.5,14.219c-23.06-8.917-42.816-22.076-57.13-38.053a7.621,7.621,0,0,1,4.257-12.575c69.169-13.063,117.475-57.425,117.475-107.877,0-14.894-4.145-29.386-12.307-43.075a7.621,7.621,0,0,1,6.049-11.512c4.9-.315,9.437-.471,13.885-.471,85.275,0,154.652,50.828,154.652,113.3,0,28.356-14.094,55.15-39.827,75.984l26.144,69.163a7.618,7.618,0,0,1-7.127,10.315Z" fill="url(#linear-gradient)"/>
    <path id="Path_26" data-name="Path 26" d="M256.385,392.688a19.536,19.536,0,1,1-19.536-19.536A19.536,19.536,0,0,1,256.385,392.688Z" fill="url(#linear-gradient)"/>
    <path id="Path_27" data-name="Path 27" d="M336.662,392.688a19.535,19.535,0,1,1-19.536-19.536A19.536,19.536,0,0,1,336.662,392.688Z" fill="url(#linear-gradient)"/>
    <path id="Path_28" data-name="Path 28" d="M488.07,448.221a19.536,19.536,0,1,1-19.535-19.535A19.534,19.534,0,0,1,488.07,448.221Z" fill="url(#linear-gradient)"/>
    <path id="Path_29" data-name="Path 29" d="M176.107,392.688a19.535,19.535,0,1,1-19.535-19.536A19.535,19.535,0,0,1,176.107,392.688Z" fill="url(#linear-gradient)"/>
  </g>
</svg>
