<?xml version="1.0" encoding="utf-8"?>
<!-- Generator: Adobe Illustrator 24.1.0, SVG Export Plug-In . SVG Version: 6.00 Build 0)  -->
<svg version="1.1" id="Layer_1" xmlns="http://www.w3.org/2000/svg" xmlns:xlink="http://www.w3.org/1999/xlink" x="0px" y="0px"
	 viewBox="0 0 595.28 841.89" style="enable-background:new 0 0 595.28 841.89;" xml:space="preserve">
<style type="text/css">
	.st0{fill:#010101;}
	.st1{fill:#3E9AD5;}
	.st2{fill:#3E99D5;}
	.st3{fill:#0D0D0D;}
	.st4{fill:#3F99D4;}
	.st5{fill:#0B0B0B;}
</style>
<g>
	<path class="st1" d="M416.02,448.22c0,10.79-8.75,19.54-19.54,19.54c-10.79,0-19.54-8.75-19.54-19.54s8.75-19.54,19.54-19.54
		C407.27,428.69,416.02,437.43,416.02,448.22z"/>
	<path class="st0" d="M85.77,562.92c-1.89,0-3.76-0.71-5.2-2.05c-2.26-2.11-3.02-5.37-1.92-8.26l29.76-78.73
		c-29.16-23.39-45.14-53.54-45.14-85.44c0-69.98,77.87-126.91,173.59-126.91s173.59,56.93,173.59,126.91
		c0,69.98-77.87,126.91-173.59,126.91c-6.42,0-12.91-0.26-19.28-0.79c-13.67-1.11-27.2,1.22-39.24,6.73l-89.39,40.95
		C87.92,562.7,86.85,562.92,85.77,562.92z M236.85,276.76c-87.31,0-158.34,50.09-158.34,111.67c0,28.6,15.47,55.85,43.57,76.75
		c2.73,2.03,3.78,5.63,2.58,8.81l-25.2,66.66l72.53-33.22c14.4-6.6,30.56-9.38,46.82-8.07c5.96,0.49,12.03,0.74,18.04,0.74
		c87.31,0,158.34-50.09,158.34-111.67S324.16,276.76,236.85,276.76z"/>
	<path class="st0" d="M536.66,602.14c-1.08,0-2.16-0.23-3.17-0.69l-76.92-35.23c-11.93-5.46-24.85-7.82-37.4-6.87
		c-17.02,1.32-34.44,0.56-50.98-2.21c-4.15-0.69-6.95-4.62-6.26-8.77c0.69-4.16,4.67-6.95,8.77-6.26
		c15.33,2.56,31.48,3.27,47.29,2.05c15.12-1.19,30.66,1.66,44.93,8.21l60.06,27.51l-21.57-57.08c-1.2-3.18-0.15-6.78,2.58-8.81
		c24.66-18.34,38.24-42.25,38.24-67.3c0-54.07-62.54-98.06-139.41-98.06c-0.35,0-0.7,0-1.06,0c5.76,12.79,8.68,26.13,8.68,39.81
		c0,54.31-47.01,102.13-115.97,119.77c11.47,9.97,25.63,18.34,41.63,24.52c3.92,1.52,5.88,5.93,4.36,9.86
		c-1.52,3.93-5.95,5.87-9.86,4.36c-23.06-8.92-42.82-22.08-57.13-38.05c-1.84-2.05-2.43-4.93-1.54-7.53c0.88-2.6,3.1-4.53,5.8-5.04
		c69.17-13.06,117.47-57.42,117.47-107.88c0-14.89-4.14-29.39-12.31-43.07c-1.36-2.28-1.43-5.1-0.2-7.45
		c1.24-2.35,3.6-3.89,6.25-4.06c4.9-0.32,9.44-0.47,13.89-0.47c85.27,0,154.65,50.83,154.65,113.3c0,28.36-14.09,55.15-39.83,75.98
		l26.14,69.16c1.1,2.89,0.33,6.15-1.92,8.26C540.42,601.43,538.55,602.14,536.66,602.14z"/>
	<path class="st1" d="M256.38,392.69c0,10.79-8.75,19.54-19.54,19.54s-19.54-8.75-19.54-19.54s8.75-19.54,19.54-19.54
		S256.38,381.9,256.38,392.69z"/>
	<path class="st1" d="M336.66,392.69c0,10.79-8.75,19.54-19.54,19.54c-10.79,0-19.54-8.75-19.54-19.54s8.75-19.54,19.54-19.54
		C327.92,373.15,336.66,381.9,336.66,392.69z"/>
	<path class="st1" d="M488.07,448.22c0,10.79-8.75,19.54-19.54,19.54S449,459.01,449,448.22s8.75-19.54,19.54-19.54
		S488.07,437.43,488.07,448.22z"/>
	<path class="st1" d="M176.11,392.69c0,10.79-8.75,19.54-19.54,19.54c-10.79,0-19.54-8.75-19.54-19.54s8.75-19.54,19.54-19.54
		C167.36,373.15,176.11,381.9,176.11,392.69z"/>
</g>
</svg>
