<svg xmlns="http://www.w3.org/2000/svg" xmlns:xlink="http://www.w3.org/1999/xlink" width="265.664" height="380.59" viewBox="0 0 265.664 380.59">
  <defs>
    <linearGradient id="linear-gradient" x1="0.5" x2="0.5" y2="1" gradientUnits="objectBoundingBox">
      <stop offset="0" stop-color="#3f99d4"/>
      <stop offset="1" stop-color="#703a96"/>
    </linearGradient>
  </defs>
  <g id="Group_7" data-name="Group 7" transform="translate(-169.982 -212.146)">
    <path id="Path_30" data-name="Path 30" d="M370.1,592.736a6.247,6.247,0,0,1-6.246-6.246V544.5a6.246,6.246,0,0,1,6.246-6.247h59.3a6.246,6.246,0,0,1,3.62,11.336c-17.008,12.1-39.047,27.692-59.315,42A6.234,6.234,0,0,1,370.1,592.736Zm6.246-41.988v23.684c11.326-8,22.857-16.157,33.47-23.684Z" fill="url(#linear-gradient)"/>
    <path id="Path_31" data-name="Path 31" d="M370.1,592.736H176.227a6.246,6.246,0,0,1-6.245-6.246V279.545a6.246,6.246,0,1,1,12.492,0v300.7h185.64l55.039-38.972V512.521a6.246,6.246,0,1,1,12.492,0V544.5a6.247,6.247,0,0,1-2.638,5.1l-59.3,41.987A6.227,6.227,0,0,1,370.1,592.736Z" fill="url(#linear-gradient)"/>
    <path id="Path_32" data-name="Path 32" d="M429.4,487.537a6.245,6.245,0,0,1-6.246-6.247V224.638H182.474v22.22a6.246,6.246,0,1,1-12.492,0V218.392a6.245,6.245,0,0,1,6.245-6.246H429.4a6.245,6.245,0,0,1,6.246,6.246v262.9A6.246,6.246,0,0,1,429.4,487.537Z" fill="url(#linear-gradient)"/>
    <path id="Path_33" data-name="Path 33" d="M239.937,311.4a29.356,29.356,0,1,1,29.357-29.356A29.39,29.39,0,0,1,239.937,311.4Zm0-46.22A16.864,16.864,0,1,0,256.8,282.043,16.884,16.884,0,0,0,239.937,265.179Z" fill="url(#linear-gradient)"/>
    <path id="Path_34" data-name="Path 34" d="M239.937,391.668a29.356,29.356,0,1,1,29.357-29.357A29.391,29.391,0,0,1,239.937,391.668Zm0-46.221A16.865,16.865,0,1,0,256.8,362.311,16.884,16.884,0,0,0,239.937,345.447Z" fill="url(#linear-gradient)"/>
    <path id="Path_35" data-name="Path 35" d="M239.937,471.936a29.356,29.356,0,1,1,29.357-29.356A29.39,29.39,0,0,1,239.937,471.936Zm0-46.22A16.864,16.864,0,1,0,256.8,442.58,16.884,16.884,0,0,0,239.937,425.716Z" fill="url(#linear-gradient)"/>
    <path id="Path_36" data-name="Path 36" d="M239.937,552.205a29.357,29.357,0,1,1,29.357-29.357A29.391,29.391,0,0,1,239.937,552.205Zm0-46.221A16.865,16.865,0,1,0,256.8,522.848,16.884,16.884,0,0,0,239.937,505.984Z" fill="url(#linear-gradient)"/>
    <path id="Path_37" data-name="Path 37" d="M370.1,288.289H321.135a6.246,6.246,0,1,1,0-12.492H370.1a6.246,6.246,0,1,1,0,12.492Z" fill="url(#linear-gradient)"/>
    <path id="Path_38" data-name="Path 38" d="M370.1,368.557H321.135a6.245,6.245,0,1,1,0-12.491H370.1a6.245,6.245,0,1,1,0,12.491Z" fill="url(#linear-gradient)"/>
    <path id="Path_39" data-name="Path 39" d="M370.1,448.826H321.135a6.246,6.246,0,1,1,0-12.492H370.1a6.246,6.246,0,1,1,0,12.492Z" fill="url(#linear-gradient)"/>
    <path id="Path_40" data-name="Path 40" d="M370.1,529.095H321.135a6.246,6.246,0,1,1,0-12.492H370.1a6.246,6.246,0,1,1,0,12.492Z" fill="url(#linear-gradient)"/>
  </g>
</svg>
