<?xml version="1.0" encoding="utf-8"?>
<!-- Generator: Adobe Illustrator 24.1.0, SVG Export Plug-In . SVG Version: 6.00 Build 0)  -->
<svg version="1.1" id="Layer_1" xmlns="http://www.w3.org/2000/svg" xmlns:xlink="http://www.w3.org/1999/xlink" x="0px" y="0px"
	 viewBox="0 0 595.28 841.89" style="enable-background:new 0 0 595.28 841.89;" xml:space="preserve">
<style type="text/css">
	.st0{fill:#010101;}
	.st1{fill:#3E9AD5;}
	.st2{fill:#3E99D5;}
	.st3{fill:#0D0D0D;}
	.st4{fill:#3F99D4;}
	.st5{fill:#0B0B0B;}
</style>
<g>
	<path class="st0" d="M370.1,592.74c-0.98,0-1.97-0.23-2.87-0.7c-2.07-1.07-3.37-3.21-3.37-5.55V544.5c0-3.45,2.8-6.25,6.25-6.25
		h59.3c2.72,0,5.12,1.76,5.95,4.35c0.83,2.59-0.11,5.41-2.33,6.99c-17.01,12.1-39.05,27.69-59.31,42
		C372.63,592.35,371.37,592.74,370.1,592.74z M376.35,550.75v23.68c11.33-8,22.86-16.16,33.47-23.68H376.35z"/>
	<path class="st0" d="M370.1,592.74H176.23c-3.45,0-6.25-2.8-6.25-6.25V279.54c0-3.45,2.8-6.25,6.25-6.25c3.45,0,6.25,2.8,6.25,6.25
		v300.7h185.64l55.04-38.97v-28.75c0-3.45,2.8-6.25,6.25-6.25c3.45,0,6.25,2.8,6.25,6.25v31.98c0,2.02-0.98,3.93-2.64,5.1
		l-59.3,41.99C372.66,592.34,371.4,592.74,370.1,592.74z"/>
	<path class="st0" d="M429.4,487.54c-3.45,0-6.25-2.8-6.25-6.25V224.64H182.47v22.22c0,3.45-2.8,6.25-6.25,6.25
		c-3.45,0-6.25-2.8-6.25-6.25v-28.47c0-3.45,2.8-6.25,6.25-6.25H429.4c3.45,0,6.25,2.8,6.25,6.25v262.9
		C435.64,484.74,432.85,487.54,429.4,487.54z"/>
	<path class="st0" d="M239.94,311.4c-16.19,0-29.36-13.17-29.36-29.36c0-16.19,13.17-29.36,29.36-29.36s29.36,13.17,29.36,29.36
		C269.29,298.23,256.12,311.4,239.94,311.4z M239.94,265.18c-9.3,0-16.86,7.57-16.86,16.86s7.57,16.86,16.86,16.86
		c9.3,0,16.86-7.57,16.86-16.86S249.24,265.18,239.94,265.18z"/>
	<path class="st0" d="M239.94,391.67c-16.19,0-29.36-13.17-29.36-29.36c0-16.19,13.17-29.36,29.36-29.36s29.36,13.17,29.36,29.36
		C269.29,378.5,256.12,391.67,239.94,391.67z M239.94,345.45c-9.3,0-16.86,7.57-16.86,16.86s7.57,16.86,16.86,16.86
		c9.3,0,16.86-7.57,16.86-16.86S249.24,345.45,239.94,345.45z"/>
	<path class="st0" d="M239.94,471.94c-16.19,0-29.36-13.17-29.36-29.36c0-16.19,13.17-29.36,29.36-29.36s29.36,13.17,29.36,29.36
		C269.29,458.77,256.12,471.94,239.94,471.94z M239.94,425.72c-9.3,0-16.86,7.57-16.86,16.86s7.57,16.86,16.86,16.86
		c9.3,0,16.86-7.57,16.86-16.86S249.24,425.72,239.94,425.72z"/>
	<path class="st0" d="M239.94,552.2c-16.19,0-29.36-13.17-29.36-29.36c0-16.19,13.17-29.36,29.36-29.36s29.36,13.17,29.36,29.36
		C269.29,539.03,256.12,552.2,239.94,552.2z M239.94,505.98c-9.3,0-16.86,7.57-16.86,16.86s7.57,16.86,16.86,16.86
		c9.3,0,16.86-7.57,16.86-16.86S249.24,505.98,239.94,505.98z"/>
	<path class="st2" d="M370.1,288.29h-48.97c-3.45,0-6.25-2.8-6.25-6.25c0-3.45,2.8-6.25,6.25-6.25h48.97c3.45,0,6.25,2.8,6.25,6.25
		C376.35,285.49,373.55,288.29,370.1,288.29z"/>
	<path class="st2" d="M370.1,368.56h-48.97c-3.45,0-6.25-2.8-6.25-6.25c0-3.45,2.8-6.25,6.25-6.25h48.97c3.45,0,6.25,2.8,6.25,6.25
		C376.35,365.76,373.55,368.56,370.1,368.56z"/>
	<path class="st2" d="M370.1,448.83h-48.97c-3.45,0-6.25-2.8-6.25-6.25c0-3.45,2.8-6.25,6.25-6.25h48.97c3.45,0,6.25,2.8,6.25,6.25
		C376.35,446.03,373.55,448.83,370.1,448.83z"/>
	<path class="st2" d="M370.1,529.09h-48.97c-3.45,0-6.25-2.8-6.25-6.25c0-3.45,2.8-6.25,6.25-6.25h48.97c3.45,0,6.25,2.8,6.25,6.25
		C376.35,526.3,373.55,529.09,370.1,529.09z"/>
</g>
</svg>
