<?xml version="1.0" encoding="utf-8"?>
<!-- Generator: Adobe Illustrator 24.1.0, SVG Export Plug-In . SVG Version: 6.00 Build 0)  -->
<svg version="1.1" id="Layer_1" xmlns="http://www.w3.org/2000/svg" xmlns:xlink="http://www.w3.org/1999/xlink" x="0px" y="0px"
	 viewBox="0 0 595.28 841.89" style="enable-background:new 0 0 595.28 841.89;" xml:space="preserve">
<style type="text/css">
	.st0{fill:#010101;}
	.st1{fill:#3E9AD5;}
	.st2{fill:#3E99D5;}
	.st3{fill:#0D0D0D;}
	.st4{fill:#3F99D4;}
	.st5{fill:#0B0B0B;}
</style>
<g>
	<path class="st1" d="M302.29,327.07c-33.06,2.87-59.75,29.89-58.09,63.93c1.69,34.75,30.9,61.14,65.25,61.5
		C394.96,453.4,385.91,317.01,302.29,327.07z M309.44,442.04c-28.71,0.07-53.05-22.29-54.79-51.04
		c-1.69-27.96,20.27-51.09,47.63-53.47C372.34,329.1,381.61,441.86,309.44,442.04z"/>
	<path class="st3" d="M487.76,392.9c-0.29-8.84,2.84-26.58-5.09-33.24c-7.6-6.38-25.59-4.91-36.91-5.07
		c-2.64-8.85-4.67-18.1-8.18-26.57c-1.39-3.35-7.04-10.08-6-13.22c1.54-4.66,16.83-11.66,20.21-16.57
		c2.76-4.01,4.37-7.95,3.11-12.87c-2.13-8.36-12.32-14.81-18.09-20.21c-5.81-5.44-13.26-15.67-20.91-18.76
		c-12.33-4.97-24.46,11.93-32.65,21.3c-9.92-5.79-19.96-8.94-30.32-13.81c-7.39-3.47-8.77-3.63-10.32-11.08
		c-1.25-6.05,1.01-12.96-0.46-19.31c-4.29-18.53-23.66-12.92-38.26-11.74c-14.96,1.21-31.77-1.58-32.56,17.06
		c-0.25,5.95,2.81,13.75,0.71,19.48c-1.81,4.92-3.17,3.67-9.87,6.1c-10.37,3.77-19.9,8.29-29.15,14.13
		c-7.2-8.85-15.49-21.04-27.65-20.46c-12.94,0.63-25.3,17.14-33.46,25.51c-16.75,17.2,0.77,28.97,13.5,42.05
		c-8.96,12.37-15.21,25.6-19.09,40.32c-11.45-2.19-27.53-3.81-35.54,4.15c-8.33,8.27-4.43,29.59-3.64,39.69
		c0.69,8.85,0.32,20.28,8.81,25.07c8.37,4.72,22.24,2.52,32.35,1.09c2.39,9.2,5.27,18.22,9.08,26.95c0.89,2.05,4.91,7.67,4.63,9.59
		c-0.08,0.53-2.4,2.24-3.27,3.77c-4.87,8.53-22.04,16.33-17.82,28.9c3.96,11.8,28.53,32.94,40.29,37.48
		c13.07,5.05,24.02-8.89,32.85-18.01c12.37,8.84,25.59,14.27,40.66,16.49c-0.63,11.57-5.07,27.66,2.04,36
		c5.33,6.25,17.95,4.87,24.79,5.04c9.19,0.23,20.98,1.56,29.72-1.92c6.31-2.51,9.56-6.15,10.93-12.72
		c1.42-6.81-4.68-19.14-1.63-24.62c2.55-4.59,17.87-7.31,23.49-10.3c9.33-4.95,17.11-14.12,26.88-5.37
		c10.31,9.23,14.92,25.2,29.72,16.23c10.85-6.58,22.92-19.29,29.38-29.97c7.3-12.07,1.98-16.74-7.52-25.28
		c-9.65-8.68-13.29-8.15-7.59-21.14c4.68-10.66,7.97-21.62,11.41-32.7c11.14,0.59,27.51,3.24,36.17-2.3
		C491.48,416.35,488.04,401.4,487.76,392.9z M470.78,413.62c-7.6,2.39-20.31,0.14-28.26,0.2c-1.75,0.01-3.04,0.74-3.88,1.79
		c-0.49,0.54-0.9,1.21-1.16,2.05c-4.65,14.77-11.4,28.37-16.6,42.63c-2.33,6.39-1.52,9.8,2.53,15.01
		c4.53,5.83,15.55,9.66,18.28,16.42c2.89,7.13-11.3,19.39-15.76,23.83c-2.35,2.33-6.45,7.38-9.71,8.25
		c-6.39,1.71-8.66-2.83-13.19-8.11c-4.6-5.35-9.3-13.8-17.14-14.77c-5.48-0.68-11.46,3.66-16.03,6.21
		c-11.83,6.58-22.06,11.86-35.58,14.14c-1.57,0.27-3.43,2.04-3.65,3.65c-0.92,6.72,0.62,12.86,0.64,19.56
		c0.07,17.76-15.43,17.62-29.71,17.26c-12.7-0.32-17.48-0.3-16.99-13.56c0.26-7.13,1.15-14.45,0.62-21.57
		c-0.22-3.03-2.23-4.94-5.23-5.23c-16-1.53-30.06-7.24-42.72-17.22c-0.66-0.52-1.35-0.86-2.05-1.04c-1.68-0.64-3.65-0.5-5.34,1.04
		c-4.59,4.18-13.16,15.7-19.01,17.41c-10.16,2.97-19.36-8.87-25.85-15.05c-5.17-4.92-14.44-10.95-11.81-19.02
		c1.83-5.63,10.23-11.11,14.46-15.12c4.61-4.38,6.31-5.7,4.86-11.95c-1.62-7.01-6.64-13.83-9.14-20.66
		c-2.5-6.85-4.38-13.84-6.09-20.93c-0.48-2.01-2.85-4.1-5.04-3.84c-5.48,0.65-10.97,1.22-16.49,1.41
		c-9.93,0.34-15.24,1.47-17.3-9.56c-1.49-7.95-2.38-17.97-1.36-25.96c0.58-4.52,0.95-12,5.43-14.84c5.09-3.23,21.22-0.04,26.29,1.09
		c2.66,0.59,5.79-0.79,6.43-3.65c3.83-17,10.85-31.83,21.46-45.62c1.46-1.9,0.58-4.74-0.82-6.34c-7.54-8.62-24.76-18.31-16.55-30.54
		c3.05-4.53,12.7-14.47,17.62-16.77c15.52-7.25,21.66,3.63,30.26,13.59c1.15,2.63,4.07,4.37,7.1,2.3
		c11.5-7.86,23.54-12.38,36.41-17.31c2.72-1.04,6.76-2.13,8.78-4.37c2.98-3.3,3.23-8.77,3.43-12.97c0.21-4.42-1.92-9.62-0.92-13.87
		c2.05-8.75,11-8.5,18.73-9.12c4.94-0.4,10.92-0.94,15.93-1.28c6.39-0.51,9.45,0.45,13.05,2.35c4.49,2.53,2.43,7.42,2.91,13.31
		c0.79,6.39-2.44,12.69,1.11,18.68c2.63,4.43,6.06,5.33,10.73,6.98c12.91,4.55,24.72,8.48,36.38,15.95
		c0.43,0.27,0.85,0.46,1.27,0.59c1.77,0.91,3.97,0.87,5.8-0.94c5.58-5.54,12.04-15.35,18.95-18.82c8.61-4.32,13.37,4.66,20.21,11.06
		c7.15,6.69,19.99,14.1,13.06,24.98c-3.4,5.35-11.58,7.36-15.92,12.1c-4.3,4.69-4.47,7.27-2.47,12.91
		c1.95,5.5,5.61,10.24,7.55,15.88c2.81,8.17,4.82,16.64,7.52,24.86c0.77,2.35,2.63,3.65,5.04,3.84c8.13,0.62,18.14-0.18,25.97,2
		c12.44,3.46,9.15,15.21,9.5,26C477.6,401.73,480.19,410.65,470.78,413.62z"/>
	<path class="st3" d="M283.07,301.03c6.36-2.05,12.72-3.05,19.39-2.99c6.73,0.06,6.74-10.4,0-10.46
		c-7.54-0.07-14.99,1.04-22.17,3.36C273.91,293.01,276.64,303.11,283.07,301.03z"/>
	<path class="st3" d="M341.27,304.05c5.5,1.44,10.49,3.93,14.81,7.64c5.08,4.37,12.51-3,7.4-7.4c-5.69-4.89-12.15-8.43-19.42-10.33
		C337.53,292.26,334.75,302.34,341.27,304.05z"/>
	<path class="st3" d="M403.16,352.16c-2.31-6.52-5.44-12.58-9.64-18.08c-1.7-2.23-4.51-3.44-7.15-1.88c-2.2,1.3-3.61,4.89-1.88,7.15
		c3.63,4.76,6.58,9.93,8.58,15.58C395.3,361.24,405.41,358.53,403.16,352.16z"/>
	<path class="st3" d="M399.07,395.08c-0.56,6.14-1.63,12.17-3.13,18.15c-1.64,6.53,8.44,9.31,10.08,2.78
		c1.73-6.88,2.87-13.86,3.51-20.93C410.14,388.38,399.68,388.42,399.07,395.08z"/>
	<path class="st3" d="M384.98,446.09c-2.26-1.32-5.97-0.7-7.15,1.88c-2.45,5.32-6.17,9.47-11.29,12.33
		c-5.88,3.28-0.61,12.31,5.28,9.03c6.54-3.65,11.9-9.27,15.04-16.08C388.04,450.68,387.58,447.61,384.98,446.09z"/>
	<path class="st3" d="M330.67,478.33c-5.98,1.08-11.97,1.88-18.02,2.41c-6.65,0.58-6.71,11.05,0,10.46
		c6.97-0.61,13.91-1.54,20.8-2.79C340.06,487.22,337.26,477.14,330.67,478.33z"/>
	<path class="st3" d="M274.38,474.81c-6.22-1.73-11.77-4.51-16.97-8.34c-2.29-1.69-5.81-0.36-7.15,1.88
		c-1.58,2.64-0.39,5.49,1.88,7.15c5.87,4.32,12.45,7.44,19.47,9.39C278.09,486.7,280.86,476.61,274.38,474.81z"/>
	<path class="st3" d="M221.79,422.86c-1.79-6.48-11.88-3.73-10.09,2.78c2.07,7.5,5.62,14.14,10.44,20.22c1.77,2.23,5.54,1.81,7.4,0
		c2.21-2.16,1.74-5.19,0-7.4C225.87,433.84,223.35,428.53,221.79,422.86z"/>
	<path class="st3" d="M217.02,384.7c-0.07-6.37,0.35-12.69,1.41-18.98c1.11-6.58-8.97-9.41-10.08-2.78
		c-1.22,7.21-1.86,14.44-1.79,21.76C206.63,391.43,217.09,391.44,217.02,384.7z"/>
	<path class="st3" d="M244.2,310.64c-6.33,3.9-11.98,8.75-16.65,14.55c-1.77,2.2-2.15,5.25,0,7.4c1.83,1.83,5.62,2.21,7.4,0
		c4.13-5.13,8.92-9.46,14.53-12.91C255.2,316.16,249.95,307.11,244.2,310.64z"/>
</g>
</svg>
