<svg xmlns="http://www.w3.org/2000/svg" xmlns:xlink="http://www.w3.org/1999/xlink" width="363.092" height="362.577" viewBox="0 0 363.092 362.577">
  <defs>
    <linearGradient id="linear-gradient" x1="0.5" x2="0.5" y2="1" gradientUnits="objectBoundingBox">
      <stop offset="0" stop-color="#3f99d4"/>
      <stop offset="1" stop-color="#703a96"/>
    </linearGradient>
  </defs>
  <g id="Group_9" data-name="Group 9" transform="translate(-125.546 -210.041)">
    <path id="Path_52" data-name="Path 52" d="M302.286,327.071c-33.059,2.875-59.75,29.89-58.091,63.929,1.694,34.75,30.9,61.136,65.247,61.5C394.956,453.4,385.908,317.005,302.286,327.071Zm7.156,114.968c-28.712.069-53.047-22.3-54.788-51.039-1.693-27.964,20.268-51.091,47.632-53.471C372.34,329.1,381.609,441.864,309.442,442.039Z" fill="url(#linear-gradient)"/>
    <path id="Path_53" data-name="Path 53" d="M487.763,392.9c-.291-8.839,2.841-26.581-5.089-33.236-7.6-6.376-25.59-4.911-36.908-5.07-2.642-8.852-4.675-18.1-8.185-26.566-1.387-3.347-7.035-10.082-6-13.222,1.539-4.664,16.833-11.656,20.215-16.568,2.761-4.011,4.367-7.946,3.113-12.871-2.13-8.364-12.323-14.81-18.09-20.206-5.808-5.435-13.259-15.674-20.91-18.758-12.334-4.973-24.461,11.931-32.655,21.3-9.918-5.794-19.959-8.943-30.322-13.809-7.39-3.469-8.774-3.631-10.318-11.083-1.254-6.049,1.012-12.96-.459-19.313-4.29-18.53-23.655-12.921-38.261-11.744-14.965,1.206-31.768-1.584-32.557,17.06-.252,5.955,2.813,13.754.711,19.479-1.805,4.92-3.172,3.666-9.871,6.1a149.022,149.022,0,0,0-29.145,14.135c-7.2-8.855-15.489-21.045-27.649-20.457-12.944.626-25.3,17.137-33.463,25.514-16.753,17.2.768,28.967,13.5,42.052a119.816,119.816,0,0,0-19.094,40.319c-11.448-2.192-27.533-3.808-35.543,4.15-8.327,8.273-4.426,29.589-3.644,39.691.685,8.848.315,20.277,8.807,25.073,8.365,4.725,22.241,2.518,32.353,1.094a179.88,179.88,0,0,0,9.085,26.955c.894,2.046,4.912,7.67,4.626,9.585-.08.533-2.4,2.243-3.268,3.77-4.865,8.527-22.043,16.327-17.821,28.9,3.963,11.8,28.531,32.942,40.289,37.484,13.074,5.051,24.021-8.892,32.846-18.007a91.113,91.113,0,0,0,40.661,16.485c-.628,11.572-5.073,27.665,2.038,36,5.33,6.247,17.946,4.874,24.793,5.044,9.189.227,20.977,1.555,29.715-1.923,6.308-2.511,9.565-6.149,10.93-12.715,1.415-6.806-4.684-19.136-1.632-24.623,2.552-4.588,17.871-7.313,23.491-10.3,9.331-4.953,17.11-14.125,26.881-5.375,10.306,9.23,14.922,25.2,29.715,16.228,10.848-6.579,22.925-19.29,29.38-29.968,7.3-12.07,1.982-16.745-7.517-25.285-9.651-8.677-13.293-8.146-7.593-21.139,4.677-10.662,7.971-21.624,11.412-32.7,11.139.586,27.507,3.241,36.174-2.3C491.475,416.351,488.043,401.4,487.763,392.9Zm-16.984,20.717c-7.6,2.395-20.308.144-28.261.2a4.812,4.812,0,0,0-3.878,1.794,5.353,5.353,0,0,0-1.164,2.045c-4.655,14.768-11.4,28.374-16.6,42.628-2.331,6.385-1.524,9.8,2.528,15.009,4.534,5.825,15.545,9.665,18.285,16.419,2.893,7.133-11.3,19.392-15.758,23.829-2.345,2.334-6.452,7.378-9.71,8.248-6.386,1.706-8.659-2.835-13.194-8.111-4.6-5.354-9.3-13.8-17.144-14.769-5.479-.675-11.457,3.664-16.032,6.208-11.828,6.577-22.058,11.857-35.584,14.138a5.023,5.023,0,0,0-3.653,3.652c-.922,6.718.619,12.859.645,19.556.07,17.757-15.432,17.616-29.708,17.259-12.7-.318-17.484-.3-16.995-13.559.262-7.126,1.145-14.45.623-21.574a5.4,5.4,0,0,0-5.229-5.229,79.508,79.508,0,0,1-42.719-17.22,5.622,5.622,0,0,0-2.051-1.04,5,5,0,0,0-5.345,1.04c-4.592,4.182-13.159,15.7-19.006,17.412-10.16,2.966-19.363-8.868-25.854-15.047-5.17-4.922-14.441-10.946-11.808-19.021,1.835-5.629,10.234-11.113,14.457-15.125,4.609-4.379,6.311-5.7,4.864-11.946-1.624-7.008-6.645-13.827-9.14-20.659a190.825,190.825,0,0,1-6.086-20.927c-.483-2.006-2.852-4.1-5.043-3.839-5.477.655-10.973,1.224-16.489,1.415-9.934.342-15.237,1.474-17.3-9.562-1.487-7.952-2.381-17.968-1.36-25.959.577-4.518.952-12,5.431-14.836,5.092-3.226,21.22-.045,26.286,1.087,2.656.594,5.786-.785,6.432-3.652a114.39,114.39,0,0,1,21.463-45.619c1.462-1.9.578-4.741-.818-6.337-7.535-8.618-24.758-18.314-16.547-30.541,3.046-4.534,12.7-14.468,17.619-16.767,15.515-7.252,21.656,3.633,30.257,13.587,1.151,2.626,4.068,4.374,7.1,2.3,11.5-7.857,23.54-12.38,36.407-17.3,2.723-1.042,6.756-2.129,8.776-4.369,2.981-3.3,3.232-8.775,3.428-12.974.206-4.416-1.921-9.623-.924-13.867,2.054-8.748,11-8.5,18.727-9.119,4.936-.4,10.918-.935,15.929-1.283,6.39-.507,9.45.452,13.051,2.346,4.493,2.532,2.429,7.423,2.908,13.3.786,6.387-2.436,12.7,1.114,18.676,2.63,4.432,6.059,5.329,10.732,6.976,12.908,4.548,24.723,8.476,36.382,15.954a5.481,5.481,0,0,0,1.267.593,4.784,4.784,0,0,0,5.8-.943c5.577-5.541,12.037-15.354,18.946-18.825,8.607-4.324,13.367,4.658,20.209,11.061,7.154,6.694,19.988,14.1,13.064,24.982-3.4,5.349-11.583,7.359-15.923,12.1-4.3,4.691-4.472,7.272-2.468,12.913,1.953,5.5,5.612,10.238,7.551,15.879,2.81,8.174,4.816,16.64,7.517,24.858a5.445,5.445,0,0,0,5.042,3.839c8.128.625,18.143-.18,25.975,2,12.44,3.456,9.145,15.207,9.5,26C477.6,401.732,480.191,410.65,470.779,413.617Z" fill="url(#linear-gradient)"/>
    <path id="Path_54" data-name="Path 54" d="M283.069,301.034a60.473,60.473,0,0,1,19.394-2.986c6.731.061,6.737-10.4,0-10.459a69.927,69.927,0,0,0-22.175,3.359C273.909,293.007,276.637,303.109,283.069,301.034Z" fill="url(#linear-gradient)"/>
    <path id="Path_55" data-name="Path 55" d="M341.266,304.05a36.612,36.612,0,0,1,14.808,7.643c5.078,4.369,12.508-3,7.4-7.395a48.376,48.376,0,0,0-19.424-10.333C337.53,292.256,334.75,302.341,341.266,304.05Z" fill="url(#linear-gradient)"/>
    <path id="Path_56" data-name="Path 56" d="M403.156,352.159a65.591,65.591,0,0,0-9.636-18.082c-1.7-2.234-4.513-3.438-7.155-1.877-2.2,1.3-3.6,4.889-1.876,7.155a57.08,57.08,0,0,1,8.582,15.584C395.3,361.241,405.41,358.527,403.156,352.159Z" fill="url(#linear-gradient)"/>
    <path id="Path_57" data-name="Path 57" d="M399.071,395.085a118.1,118.1,0,0,1-3.135,18.146c-1.641,6.529,8.443,9.314,10.085,2.78a136.1,136.1,0,0,0,3.508-20.926C410.138,388.384,399.675,388.425,399.071,395.085Z" fill="url(#linear-gradient)"/>
    <path id="Path_58" data-name="Path 58" d="M384.981,446.085c-2.257-1.32-5.965-.7-7.155,1.876a26.342,26.342,0,0,1-11.291,12.329c-5.88,3.277-.612,12.314,5.279,9.031a35.688,35.688,0,0,0,15.043-16.081C388.04,450.677,387.582,447.606,384.981,446.085Z" fill="url(#linear-gradient)"/>
    <path id="Path_59" data-name="Path 59" d="M330.668,478.329c-5.976,1.081-11.97,1.882-18.019,2.412-6.654.581-6.715,11.046,0,10.458q10.461-.915,20.8-2.785C340.061,487.218,337.259,477.137,330.668,478.329Z" fill="url(#linear-gradient)"/>
    <path id="Path_60" data-name="Path 60" d="M274.378,474.81a51.4,51.4,0,0,1-16.971-8.335c-2.291-1.688-5.813-.364-7.155,1.876-1.58,2.638-.385,5.489,1.876,7.155a59.571,59.571,0,0,0,19.469,9.389C278.093,486.7,280.865,476.61,274.378,474.81Z" fill="url(#linear-gradient)"/>
    <path id="Path_61" data-name="Path 61" d="M221.791,422.862c-1.788-6.48-11.881-3.729-10.086,2.78a56.4,56.4,0,0,0,10.436,20.221c1.768,2.231,5.542,1.813,7.395,0,2.211-2.163,1.745-5.194,0-7.4A43.586,43.586,0,0,1,221.791,422.862Z" fill="url(#linear-gradient)"/>
    <path id="Path_62" data-name="Path 62" d="M217.016,384.7a107.144,107.144,0,0,1,1.412-18.981c1.109-6.584-8.968-9.413-10.085-2.781a122.852,122.852,0,0,0-1.785,21.762C206.627,391.427,217.086,391.444,217.016,384.7Z" fill="url(#linear-gradient)"/>
    <path id="Path_63" data-name="Path 63" d="M244.2,310.644a64.94,64.94,0,0,0-16.647,14.55c-1.769,2.2-2.147,5.247,0,7.395,1.832,1.832,5.616,2.211,7.4,0a56.667,56.667,0,0,1,14.53-12.914C255.2,316.155,249.955,307.105,244.2,310.644Z" fill="url(#linear-gradient)"/>
  </g>
</svg>
