<svg xmlns="http://www.w3.org/2000/svg" xmlns:xlink="http://www.w3.org/1999/xlink" width="389.119" height="392.43" viewBox="0 0 389.119 392.43">
  <defs>
    <linearGradient id="linear-gradient" x1="0.5" x2="0.5" y2="1" gradientUnits="objectBoundingBox">
      <stop offset="0" stop-color="#3f99d4"/>
      <stop offset="1" stop-color="#703a96"/>
    </linearGradient>
  </defs>
  <g id="Group_10" data-name="Group 10" transform="translate(-166.163 -224.73)">
    <path id="Path_64" data-name="Path 64" d="M541.405,260.683c-33.68-45.23-93.375-44.547-137.279-15.917C380.589,260.115,360.1,280.495,342,301.837c-15.666,18.474-34.2,40.2-42.489,63.2-.472,1.31-.89,2.627-1.264,3.95-25.056,10.766-46.018,26.418-64.61,46.366-20.39,21.877-42.441,46.528-56.306,73.188-20.521,39.456-12.782,87.232,23.31,115.586,41.2,32.364,98.631-2.384,131.792-30.04,24.264-20.237,44.422-44.8,62.459-70.62,8.051-11.527,15.746-23.334,21.6-35.914,48.475-7.742,82.69-45.088,108.345-84.8C548.058,346.806,570.675,299.991,541.405,260.683ZM368.2,356.209c4.1-6.183,8.319-11.726,11.563-15.883,19.853-25.432,41.616-55.531,74.561-64.27,23.143-6.139,45.545,7.141,43.772,32.482-.982,14.036-8.235,27.545-16.41,38.641-15.88,21.557-33.832,43.516-57.112,57.174C418,376.8,397.992,353.63,368.2,356.209Zm-18.646,109.4c-7.973,10.753-15.81,19.917-18.792,23.886-15.061,20.047-30.481,43.478-53.383,55.381-12,6.237-36.106,13.021-46.1.667-13.765-17.018,1.559-44.171,11.685-58.413,17.891-25.164,39.484-44.8,63.469-63.712C316.4,441.6,332.382,457.063,349.557,465.612Zm-77.27,134.613c-30.792,11.8-59.993,8.37-80.2-19.574-15.6-21.563-21.876-46.016-13.217-71.8,9.613-28.63,31.756-52.438,51.1-75.008,18.918-22.075,39.95-41.066,66.238-53.466-.057.7-.077,1.4-.111,2.1-2.724,1.092-5.415,2.263-8.041,3.577-2.31,1.157-2.961,4.42-1.717,6.548a4.88,4.88,0,0,0,6.547,1.716c1.15-.575,2.345-1.043,3.515-1.568.024.224.061.447.087.671-2,1.191-4.007,2.383-5.979,3.627-5.2,3.28-.4,11.565,4.83,8.264,1.006-.635,2.037-1.23,3.052-1.851.086.331.176.661.267.992l-3.581,2.586c-2.093,1.51-3.111,4.163-1.717,6.547,1.209,2.066,4.44,3.237,6.547,1.716l1.982-1.431c.11.269.213.54.325.808-.088.062-.179.1-.267.17-32.256,25.216-80.845,63.476-84.752,108.017-1.277,14.55,3.2,32.779,18.225,36.978,15.22,4.254,33.146.54,46.8-6.7,33.612-17.82,53.978-56.624,77.891-84.7,15-17.609,36.858-65.917-4.917-68.149-.118-.271-.2-.555-.306-.831.167,0,.332-.016.5-.013,6.16.1,6.163-9.474,0-9.57-.557-.009-1.112.039-1.667.043.021-.268.041-.537.069-.808,2.143.115,4.281.279,6.414.548,2.568.323,4.785-2.432,4.785-4.786,0-2.855-2.21-4.461-4.785-4.785-1.41-.178-2.821-.311-4.233-.421.227-.663.46-1.328.713-1.995l3.792.438c2.571.3,4.785-2.412,4.785-4.785,0-2.709-2.031-4.3-4.461-4.7q.44-.84.9-1.675c27.81-6.86,46.515,12.311,53.461,37.8,6.818,25.018-1.629,50.794-14.387,72.406C371.5,526.725,327.458,579.08,272.287,600.225Zm148.505-143c.2-.536.367-1.08.554-1.619a4.85,4.85,0,0,0,2.273-.575l7.765-4.082c5.453-2.867.622-11.13-4.83-8.264l-1.79.941c.2-.892.362-1.8.535-2.7,3.079-1.261,6.147-2.549,9.167-3.947,2.345-1.086,2.932-4.469,1.716-6.547-1.407-2.406-4.193-2.807-6.547-1.717-.947.438-1.917.82-2.87,1.243.051-.767.077-1.536.107-2.3l5.719-2.147a4.917,4.917,0,0,0,3.342-5.886c-.638-2.322-3.454-4.255-5.886-3.342l-3.373,1.265c-.083-1.041-.178-2.082-.3-3.12,20.6-11.174,33.945-26.7,48.8-44.59,11.641-14.019,23.126-27.121,29.038-44.762,11.052-32.977-9.517-66.394-46.565-59.609-43.8,8.021-75.576,52.884-99.218,86.98-16.875,24.337-24.869,61.231,12.515,69.545a18.041,18.041,0,0,1,0,1.918,17.267,17.267,0,0,0-6.455-.931c-2.572.25-4.785,2.021-4.785,4.785,0,2.395,2.2,5.037,4.785,4.785a11.027,11.027,0,0,1,4.291.673c-.3.82-.616,1.646-.967,2.486-1.841-.466-3.686-.917-5.505-1.469-5.907-1.791-8.432,7.444-2.544,9.229,1.233.374,2.488.661,3.731,1q-.78,1.406-1.614,2.819c-1.945-.689-3.895-1.36-5.886-1.911-5.945-1.644-8.482,7.586-2.544,9.229,1.071.3,2.11.692,3.167,1.028q-.73,1.09-1.479,2.169c-22.759-10.18-39.333-31.172-46.151-55.039-6.708-23.478.959-39.734,13.673-59.285,29.246-44.972,77-101.328,133.422-109.152,32.767-4.544,68.732,11.826,83.928,42.113,12.867,25.647,3.089,55.16-9.728,78.615C506.668,398.273,471.707,446.62,420.792,457.229Z" fill="url(#linear-gradient)"/>
    <path id="Path_65" data-name="Path 65" d="M438.506,242.775A171.384,171.384,0,0,0,393.87,269.7c-4.7,3.993,2.1,10.735,6.767,6.768,12.747-10.827,27.341-18.938,42.7-25.434C448.99,248.648,444.118,240.4,438.506,242.775Z" fill="url(#linear-gradient)"/>
    <path id="Path_66" data-name="Path 66" d="M458.03,238.658c-6.159,0-6.169,9.571,0,9.571S464.2,238.658,458.03,238.658Z" fill="url(#linear-gradient)"/>
    <path id="Path_67" data-name="Path 67" d="M274.941,582.482a84.786,84.786,0,0,1-49.552,7.73c-6.024-.874-8.625,8.347-2.544,9.228a96.213,96.213,0,0,0,56.927-8.694C285.316,588.068,280.468,579.813,274.941,582.482Z" fill="url(#linear-gradient)"/>
    <path id="Path_68" data-name="Path 68" d="M292.922,573.693c-6.158,0-6.168,9.57,0,9.57S299.09,573.693,292.922,573.693Z" fill="url(#linear-gradient)"/>
  </g>
</svg>
