<?xml version="1.0" encoding="utf-8"?>
<!-- Generator: Adobe Illustrator 24.1.0, SVG Export Plug-In . SVG Version: 6.00 Build 0)  -->
<svg version="1.1" id="Layer_1" xmlns="http://www.w3.org/2000/svg" xmlns:xlink="http://www.w3.org/1999/xlink" x="0px" y="0px"
	 viewBox="0 0 595.28 841.89" style="enable-background:new 0 0 595.28 841.89;" xml:space="preserve">
<style type="text/css">
	.st0{fill:#010101;}
	.st1{fill:#3E9AD5;}
	.st2{fill:#3E99D5;}
	.st3{fill:#0D0D0D;}
	.st4{fill:#3F99D4;}
	.st5{fill:#0B0B0B;}
</style>
<g>
	<path class="st5" d="M541.41,260.68c-33.68-45.23-93.38-44.55-137.28-15.92c-23.54,15.35-44.03,35.73-62.12,57.07
		c-15.67,18.47-34.2,40.2-42.49,63.2c-0.47,1.31-0.89,2.63-1.26,3.95c-25.06,10.77-46.02,26.42-64.61,46.37
		c-20.39,21.88-42.44,46.53-56.31,73.19c-20.52,39.46-12.78,87.23,23.31,115.59c41.2,32.36,98.63-2.38,131.79-30.04
		c24.26-20.24,44.42-44.8,62.46-70.62c8.05-11.53,15.75-23.33,21.6-35.91c48.48-7.74,82.69-45.09,108.34-84.8
		C548.06,346.81,570.68,299.99,541.41,260.68z M368.2,356.21c4.1-6.18,8.32-11.73,11.56-15.88c19.85-25.43,41.62-55.53,74.56-64.27
		c23.14-6.14,45.55,7.14,43.77,32.48c-0.98,14.04-8.24,27.54-16.41,38.64c-15.88,21.56-33.83,43.52-57.11,57.17
		C418,376.8,397.99,353.63,368.2,356.21z M349.56,465.61c-7.97,10.75-15.81,19.92-18.79,23.89c-15.06,20.05-30.48,43.48-53.38,55.38
		c-12,6.24-36.11,13.02-46.1,0.67c-13.76-17.02,1.56-44.17,11.69-58.41c17.89-25.16,39.48-44.8,63.47-63.71
		C316.4,441.6,332.38,457.06,349.56,465.61z M272.29,600.22c-30.79,11.8-59.99,8.37-80.2-19.57c-15.6-21.56-21.88-46.02-13.22-71.8
		c9.61-28.63,31.76-52.44,51.1-75.01c18.92-22.08,39.95-41.07,66.24-53.47c-0.06,0.7-0.08,1.4-0.11,2.1
		c-2.72,1.09-5.42,2.26-8.04,3.58c-2.31,1.16-2.96,4.42-1.72,6.55c1.38,2.35,4.23,2.88,6.55,1.72c1.15-0.58,2.34-1.04,3.51-1.57
		c0.02,0.22,0.06,0.45,0.09,0.67c-2,1.19-4.01,2.38-5.98,3.63c-5.19,3.28-0.4,11.56,4.83,8.26c1.01-0.64,2.04-1.23,3.05-1.85
		c0.09,0.33,0.18,0.66,0.27,0.99c-1.19,0.86-2.39,1.72-3.58,2.59c-2.09,1.51-3.11,4.16-1.72,6.55c1.21,2.07,4.44,3.24,6.55,1.72
		c0.66-0.48,1.32-0.95,1.98-1.43c0.11,0.27,0.21,0.54,0.32,0.81c-0.09,0.06-0.18,0.1-0.27,0.17
		c-32.26,25.22-80.85,63.48-84.75,108.02c-1.28,14.55,3.2,32.78,18.23,36.98c15.22,4.25,33.15,0.54,46.8-6.7
		c33.61-17.82,53.98-56.62,77.89-84.7c15-17.61,36.86-65.92-4.92-68.15c-0.12-0.27-0.2-0.55-0.31-0.83c0.17,0,0.33-0.02,0.5-0.01
		c6.16,0.1,6.16-9.47,0-9.57c-0.56-0.01-1.11,0.04-1.67,0.04c0.02-0.27,0.04-0.54,0.07-0.81c2.14,0.12,4.28,0.28,6.41,0.55
		c2.57,0.32,4.79-2.43,4.79-4.79c0-2.85-2.21-4.46-4.79-4.79c-1.41-0.18-2.82-0.31-4.23-0.42c0.23-0.66,0.46-1.33,0.71-1.99
		c1.26,0.15,2.53,0.29,3.79,0.44c2.57,0.3,4.79-2.41,4.79-4.79c0-2.71-2.03-4.3-4.46-4.7c0.29-0.56,0.59-1.12,0.9-1.68
		c27.81-6.86,46.52,12.31,53.46,37.79c6.82,25.02-1.63,50.79-14.39,72.41C371.5,526.72,327.46,579.08,272.29,600.22z M420.79,457.23
		c0.19-0.54,0.37-1.08,0.55-1.62c0.73,0,1.49-0.16,2.27-0.57c2.59-1.36,5.18-2.72,7.76-4.08c5.45-2.87,0.62-11.13-4.83-8.26
		c-0.6,0.31-1.19,0.63-1.79,0.94c0.2-0.89,0.36-1.8,0.53-2.7c3.08-1.26,6.15-2.55,9.17-3.95c2.35-1.09,2.93-4.47,1.72-6.55
		c-1.41-2.41-4.19-2.81-6.55-1.72c-0.95,0.44-1.92,0.82-2.87,1.24c0.05-0.77,0.08-1.54,0.11-2.3c1.91-0.72,3.81-1.43,5.72-2.15
		c2.42-0.91,4.07-3.23,3.34-5.89c-0.64-2.32-3.45-4.25-5.89-3.34c-1.12,0.42-2.25,0.84-3.37,1.27c-0.08-1.04-0.18-2.08-0.3-3.12
		c20.6-11.17,33.94-26.7,48.8-44.59c11.64-14.02,23.13-27.12,29.04-44.76c11.05-32.98-9.52-66.39-46.57-59.61
		c-43.8,8.02-75.58,52.88-99.22,86.98c-16.87,24.34-24.87,61.23,12.52,69.54c0.03,0.63,0.04,1.26,0,1.92
		c-2.11-0.62-4.27-1.14-6.46-0.93c-2.57,0.25-4.79,2.02-4.79,4.79c0,2.39,2.2,5.04,4.79,4.79c1.45-0.14,2.88,0.24,4.29,0.67
		c-0.3,0.82-0.62,1.65-0.97,2.49c-1.84-0.47-3.69-0.92-5.5-1.47c-5.91-1.79-8.43,7.44-2.54,9.23c1.23,0.37,2.49,0.66,3.73,1
		c-0.52,0.94-1.06,1.88-1.61,2.82c-1.95-0.69-3.89-1.36-5.89-1.91c-5.94-1.64-8.48,7.59-2.54,9.23c1.07,0.3,2.11,0.69,3.17,1.03
		c-0.49,0.73-0.98,1.45-1.48,2.17c-22.76-10.18-39.33-31.17-46.15-55.04c-6.71-23.48,0.96-39.73,13.67-59.29
		c29.25-44.97,77-101.33,133.42-109.15c32.77-4.54,68.73,11.83,83.93,42.11c12.87,25.65,3.09,55.16-9.73,78.61
		C506.67,398.27,471.71,446.62,420.79,457.23z"/>
	<path class="st1" d="M438.51,242.78c-16.16,6.84-31.24,15.55-44.64,26.93c-4.7,3.99,2.1,10.73,6.77,6.77
		c12.75-10.83,27.34-18.94,42.7-25.43C448.99,248.65,444.12,240.4,438.51,242.78z"/>
	<path class="st5" d="M458.03,238.66c-6.16,0-6.17,9.57,0,9.57C464.19,248.23,464.2,238.66,458.03,238.66z"/>
	<path class="st5" d="M274.94,582.48c-15.55,7.51-32.44,10.21-49.55,7.73c-6.02-0.87-8.63,8.35-2.54,9.23
		c19.88,2.88,38.82,0.05,56.93-8.69C285.32,588.07,280.47,579.81,274.94,582.48z"/>
	<path class="st1" d="M292.92,573.69c-6.16,0-6.17,9.57,0,9.57C299.08,583.26,299.09,573.69,292.92,573.69z"/>
</g>
</svg>
