<svg xmlns="http://www.w3.org/2000/svg" xmlns:xlink="http://www.w3.org/1999/xlink" width="358.334" height="386.401" viewBox="0 0 358.334 386.401">
  <defs>
    <linearGradient id="linear-gradient" x1="0.5" y1="-0.093" x2="0.5" y2="1" gradientUnits="objectBoundingBox">
      <stop offset="0" stop-color="#3f99d4"/>
      <stop offset="1" stop-color="#703a96"/>
    </linearGradient>
  </defs>
  <g id="Group_4" data-name="Group 4" transform="translate(-118.471 -172.694)">
    <path id="Path_13" data-name="Path 13" d="M438.609,559.095H143.884a25.443,25.443,0,0,1-25.413-25.415V310.527a5.96,5.96,0,1,1,11.92,0V533.68a13.509,13.509,0,0,0,13.493,13.494H432.649V477.832a5.96,5.96,0,0,1,11.92,0v75.3A5.96,5.96,0,0,1,438.609,559.095Z" fill="url(#linear-gradient)"/>
    <path id="Path_14" data-name="Path 14" d="M438.609,414.359a5.96,5.96,0,0,1-5.96-5.961V335.939H143.884a25.413,25.413,0,0,1,0-50.827h71.449a5.96,5.96,0,0,1,0,11.921H143.884a13.493,13.493,0,0,0,0,26.986H434.2a10.376,10.376,0,0,1,10.365,10.365V408.4A5.96,5.96,0,0,1,438.609,414.359Z" fill="url(#linear-gradient)"/>
    <path id="Path_15" data-name="Path 15" d="M467.972,532.667H438.609a5.96,5.96,0,1,1,0-11.92h23.4V299.883a2.852,2.852,0,0,0-2.847-2.85H446.709a5.96,5.96,0,0,1,0-11.921h12.456a14.785,14.785,0,0,1,14.767,14.771V526.707A5.959,5.959,0,0,1,467.972,532.667Z" fill="url(#linear-gradient)"/>
    <path id="Path_16" data-name="Path 16" d="M467.972,483.789H384.134a40.674,40.674,0,1,1,0-81.348h83.838a5.96,5.96,0,0,1,5.96,5.96v69.428A5.959,5.959,0,0,1,467.972,483.789Zm-83.838-69.428a28.754,28.754,0,1,0,0,57.508h77.878V414.361Z" fill="url(#linear-gradient)"/>
    <path id="Path_17" data-name="Path 17" d="M385.941,463.527a20.412,20.412,0,1,1,20.411-20.411A20.434,20.434,0,0,1,385.941,463.527Zm0-28.9a8.492,8.492,0,1,0,8.491,8.493A8.5,8.5,0,0,0,385.941,434.623Z" fill="url(#linear-gradient)"/>
    <path id="Path_18" data-name="Path 18" d="M467.972,483.789H384.134a40.674,40.674,0,1,1,0-81.348h83.838a5.96,5.96,0,0,1,5.96,5.96v69.428A5.959,5.959,0,0,1,467.972,483.789Zm-83.838-69.428a28.754,28.754,0,1,0,0,57.508h77.878V414.361Z" fill="url(#linear-gradient)"/>
    <path id="Path_19" data-name="Path 19" d="M337.206,335.939H199.37a5.959,5.959,0,0,1-5.512-8.223L244.619,203.99a16.916,16.916,0,0,1,21.868-9.5l97.1,37.987a16.927,16.927,0,0,1,9.587,21.906l-30.422,77.763A5.96,5.96,0,0,1,337.206,335.939Zm-128.949-11.92H333.138l5.246-13.411,5.55,2.172-5.55-2.172,23.693-60.562a4.992,4.992,0,0,0-2.828-6.464l-97.1-37.986a5,5,0,0,0-6.463,2.831Z" fill="url(#linear-gradient)"/>
    <path id="Path_20" data-name="Path 20" d="M266.11,335.939H231.4a5.963,5.963,0,0,1-5.551-8.133L274.3,203.953a5.963,5.963,0,0,1,7.723-3.379l30.1,11.776a5.962,5.962,0,0,1,3.378,7.723L271.661,332.151A5.961,5.961,0,0,1,266.11,335.939Zm-25.978-11.92h21.911l40.189-102.74-19-7.432Z" fill="url(#linear-gradient)"/>
    <path id="Path_21" data-name="Path 21" d="M431.415,335.941a5.965,5.965,0,0,1-5.546-8.144l38.676-98.39a4.989,4.989,0,0,0-2.831-6.452l-97.1-37.986a4.984,4.984,0,0,0-6.461,2.826l-16.612,42.461a5.96,5.96,0,0,1-11.1-4.344l16.611-42.459a16.907,16.907,0,0,1,21.906-9.585l97.1,37.986a16.928,16.928,0,0,1,9.585,21.9l-38.678,98.4A5.964,5.964,0,0,1,431.415,335.941Z" fill="url(#linear-gradient)"/>
    <path id="Path_22" data-name="Path 22" d="M360.5,335.941a5.965,5.965,0,0,1-5.548-8.135L404.7,200.649l-19-7.432-18.428,47.109a5.96,5.96,0,1,1-11.1-4.345l20.6-52.658a5.958,5.958,0,0,1,7.723-3.378l30.1,11.775a5.963,5.963,0,0,1,3.378,7.722L366.056,332.151A5.962,5.962,0,0,1,360.5,335.941Z" fill="url(#linear-gradient)"/>
  </g>
</svg>
