<?xml version="1.0" encoding="utf-8"?>
<!-- Generator: Adobe Illustrator 24.1.0, SVG Export Plug-In . SVG Version: 6.00 Build 0)  -->
<svg version="1.1" id="Layer_1" xmlns="http://www.w3.org/2000/svg" xmlns:xlink="http://www.w3.org/1999/xlink" x="0px" y="0px"
	 viewBox="0 0 595.28 841.89" style="enable-background:new 0 0 595.28 841.89;" xml:space="preserve">
<style type="text/css">
	.st0{fill:#010101;}
	.st1{fill:#3E9AD5;}
	.st2{fill:#3E99D5;}
	.st3{fill:#0D0D0D;}
	.st4{fill:#3F99D4;}
	.st5{fill:#0B0B0B;}
</style>
<g>
	<path class="st0" d="M438.61,559.09H143.88c-14.01,0-25.41-11.4-25.41-25.41V310.53c0-3.29,2.67-5.96,5.96-5.96
		s5.96,2.67,5.96,5.96v223.15c0,7.44,6.05,13.49,13.49,13.49h288.77v-69.34c0-3.29,2.67-5.96,5.96-5.96s5.96,2.67,5.96,5.96v75.3
		C444.57,556.43,441.9,559.09,438.61,559.09z"/>
	<path class="st0" d="M438.61,414.36c-3.29,0-5.96-2.67-5.96-5.96v-72.46H143.88c-14.01,0-25.41-11.4-25.41-25.41
		s11.4-25.41,25.41-25.41h71.45c3.29,0,5.96,2.67,5.96,5.96c0,3.29-2.67,5.96-5.96,5.96h-71.45c-7.44,0-13.49,6.05-13.49,13.49
		c0,7.44,6.05,13.49,13.49,13.49H434.2c5.72,0,10.36,4.65,10.36,10.37v74.01C444.57,411.69,441.9,414.36,438.61,414.36z"/>
	<path class="st0" d="M467.97,532.67h-29.36c-3.29,0-5.96-2.67-5.96-5.96s2.67-5.96,5.96-5.96h23.4V299.88
		c0-1.57-1.28-2.85-2.85-2.85h-12.46c-3.29,0-5.96-2.67-5.96-5.96c0-3.29,2.67-5.96,5.96-5.96h12.46c8.14,0,14.77,6.63,14.77,14.77
		v226.82C473.93,530,471.26,532.67,467.97,532.67z"/>
	<path class="st0" d="M467.97,483.79h-83.84c-22.43,0-40.68-18.25-40.68-40.67c0-22.43,18.25-40.68,40.68-40.68h83.84
		c3.29,0,5.96,2.67,5.96,5.96v69.43C473.93,481.12,471.26,483.79,467.97,483.79z M384.13,414.36c-15.85,0-28.75,12.9-28.75,28.76
		s12.9,28.75,28.75,28.75h77.88v-57.51H384.13z"/>
	<path class="st0" d="M385.94,463.53c-11.25,0-20.41-9.16-20.41-20.41c0-11.26,9.16-20.41,20.41-20.41
		c11.25,0,20.41,9.16,20.41,20.41C406.35,454.37,397.2,463.53,385.94,463.53z M385.94,434.62c-4.68,0-8.49,3.81-8.49,8.49
		c0,4.68,3.81,8.49,8.49,8.49c4.68,0,8.49-3.81,8.49-8.49C394.43,438.43,390.62,434.62,385.94,434.62z"/>
	<path class="st1" d="M467.97,483.79h-83.84c-22.43,0-40.68-18.25-40.68-40.67c0-22.43,18.25-40.68,40.68-40.68h83.84
		c3.29,0,5.96,2.67,5.96,5.96v69.43C473.93,481.12,471.26,483.79,467.97,483.79z M384.13,414.36c-15.85,0-28.75,12.9-28.75,28.76
		s12.9,28.75,28.75,28.75h77.88v-57.51H384.13z"/>
	<path class="st0" d="M337.21,335.94H199.37c-1.99,0-3.84-0.99-4.95-2.64c-1.11-1.65-1.32-3.74-0.56-5.58l50.76-123.73
		c3.36-8.59,13.19-12.88,21.87-9.49l97.1,37.99c8.68,3.39,12.98,13.22,9.59,21.91l-30.42,77.76
		C341.86,334.43,339.66,335.94,337.21,335.94z M208.26,324.02h124.88l5.25-13.41l5.55,2.17l-5.55-2.17l23.69-60.56
		c0.48-1.24,0.46-2.6-0.08-3.82c-0.53-1.22-1.51-2.16-2.75-2.65l-97.1-37.99c-2.56-1-5.46,0.27-6.46,2.83L208.26,324.02z"/>
	<path class="st0" d="M266.11,335.94H231.4c-1.97,0-3.81-0.97-4.92-2.6c-1.11-1.62-1.35-3.7-0.63-5.53l48.45-123.85
		c0.58-1.47,1.71-2.65,3.16-3.29c1.45-0.63,3.09-0.66,4.56-0.09l30.1,11.78c3.06,1.2,4.58,4.66,3.38,7.72l-43.84,112.08
		C270.77,334.43,268.56,335.94,266.11,335.94z M240.13,324.02h21.91l40.19-102.74l-19-7.43L240.13,324.02z"/>
	<path class="st0" d="M431.42,335.94c-0.72,0-1.46-0.13-2.18-0.41c-3.06-1.21-4.57-4.67-3.37-7.73l38.68-98.39
		c1-2.55-0.27-5.45-2.83-6.45l-97.1-37.99c-1.24-0.48-2.59-0.46-3.82,0.07c-1.22,0.53-2.16,1.51-2.64,2.75l-16.61,42.46
		c-1.2,3.07-4.65,4.58-7.72,3.38c-3.06-1.2-4.58-4.66-3.38-7.72l16.61-42.46c1.64-4.2,4.83-7.52,8.97-9.33
		c4.14-1.81,8.73-1.9,12.94-0.26l97.1,37.99c8.68,3.4,12.98,13.22,9.59,21.9l-38.68,98.4C436.04,334.51,433.79,335.94,431.42,335.94
		z"/>
	<path class="st0" d="M360.5,335.94c-0.72,0-1.46-0.13-2.17-0.41c-3.06-1.2-4.58-4.66-3.38-7.72l49.74-127.16l-19-7.43l-18.43,47.11
		c-1.2,3.07-4.65,4.58-7.72,3.38c-3.06-1.2-4.58-4.66-3.38-7.72l20.6-52.66c1.2-3.06,4.65-4.58,7.72-3.38l30.1,11.78
		c1.47,0.58,2.65,1.71,3.29,3.16c0.63,1.45,0.67,3.09,0.09,4.56l-51.92,132.71C365.14,334.5,362.89,335.94,360.5,335.94z"/>
</g>
</svg>
