<svg width="612" height="612" xmlns="http://www.w3.org/2000/svg">

 <g>
  <title>background</title>
  <rect fill="none" id="canvas_background" height="402" width="582" y="-1" x="-1"/>
 </g>
 <g>
  <title>Layer 1</title>
  <path fill="#5d29ba" stroke="#000000" stroke-width="3.408" id="path3322" d="m82.4318,17.9239c-41.335,0 -64.571,21.371 -64.571,65.036l0,450.1221c0,40.843 20.891,62.228 62.192,62.228l452.0242,0c41.303,0 62.226,-20.32 62.226,-62.228l0,-450.1221c0,-42.6 -20.923,-65.036 -63.523,-65.036c0,0 -448.4912,-0.142 -448.3482,0z"/>
  <path fill="#ffffff" id="path3326" d="m306.124,452.721l-0.059,0l-104.732,0l0,33.069c0,40.257 -58.239,40.736 -58.239,0l0,-33.069l-30.996,0l0,-103.56c0,-27.796 22.358,-42.485 34.984,-44.088l31.874,-81.397c6,-15.5 19,-28.748 43.5,-28.748l45.538,0l0,-21.252c0,-8.5 4.61,-12.816 12.11,-12.816l25.961,0l0.059,0l-0.062,0l0.059,0l26.461,0c7.5,0 12.11,4.316 12.11,12.816l0,21.252l45.016,0c24.5,0 37.5,13.248 43.5,28.748l31.874,81.397c12.626,1.603 35.007,16.292 35.007,44.088l0,103.56l-30.997,0l0,33.069c0,40.736 -58.238,40.257 -58.238,0l0,-33.069l-104.733,0l-0.059,0l0.062,0z"/>
  <path fill="#5d29ba" id="path3330" d="m306.062,303.156l-0.059,0l-125.921,0l23.998,-62.98c3,-9 7.502,-15.5 18.002,-15.597l83.921,0l0.059,0l0.059,0l83.963,0c10.5,0.097 15,6.597 18,15.597l23.998,62.98l-125.961,0l-0.059,0z"/>
  <path fill="#5d29ba" id="path3336" d="m173.141,389.412c-14.857,0 -26.901,-12.291 -26.901,-27.45c0,-15.159 12.044,-27.449 26.901,-27.449c14.855,0 26.9,12.29 26.9,27.449c0,15.159 -12.045,27.45 -26.9,27.45z"/>
  <path fill="#000000" id="path3338"/>
  <path fill="#5d29ba" id="path3342" d="m439.025,389.412c14.855,0 26.899,-12.291 26.899,-27.45c0,-15.159 -12.044,-27.449 -26.899,-27.449c-14.856,0 -26.902,12.29 -26.902,27.449c0,15.159 12.046,27.45 26.902,27.45z"/>
  <path fill="#000000" id="path3344"/>
 </g>
</svg>