<?xml version="1.0" standalone="no"?>
<!DOCTYPE svg PUBLIC "-//W3C//DTD SVG 20010904//EN"
 "http://www.w3.org/TR/2001/REC-SVG-20010904/DTD/svg10.dtd">
<svg version="1.0" xmlns="http://www.w3.org/2000/svg"
 width="2300.000000pt" height="2300.000000pt" viewBox="0 0 2300.000000 2300.000000"
 preserveAspectRatio="xMidYMid meet">
<metadata>
Created by potrace 1.15, written by Peter Selinger 2001-2017
</metadata>
<g transform="translate(0.000000,2300.000000) scale(0.100000,-0.100000)"
fill="#000000" stroke="none">
<path d="M10975 22739 c-2427 -117 -4736 -1004 -6610 -2540 -463 -379 -940
-841 -1336 -1294 -1793 -2053 -2779 -4680 -2779 -7405 0 -2051 555 -4048 1613
-5805 867 -1440 2038 -2660 3447 -3590 691 -457 1482 -858 2260 -1147 2536
-944 5324 -944 7860 0 908 338 1810 816 2595 1377 1496 1068 2689 2456 3515
4090 1416 2801 1598 6059 502 9005 -884 2377 -2568 4405 -4742 5710 -597 358
-1233 666 -1870 902 -1101 410 -2239 641 -3435 698 -237 11 -780 11 -1020 -1z
m663 -1679 c393 -42 743 -187 1052 -437 97 -79 270 -257 341 -353 153 -205
262 -435 329 -697 17 -64 29 -118 26 -120 -2 -2 -332 -16 -732 -31 l-728 -27
-71 70 c-147 147 -341 204 -546 161 -197 -42 -367 -210 -414 -407 -17 -75 -19
-206 -4 -281 6 -29 29 -90 50 -135 72 -151 208 -260 375 -303 270 -69 494 40
625 304 l53 106 45 0 c25 0 334 11 686 25 352 14 652 25 668 25 33 0 34 -14
12 -169 -78 -531 -312 -963 -700 -1289 -380 -319 -829 -468 -1350 -449 -188 7
-317 26 -475 68 -691 184 -1259 779 -1413 1480 -40 179 -51 289 -51 494 0 269
33 460 120 692 199 533 691 1002 1241 1183 262 86 584 119 861 90z m-5374
-3135 c352 -46 696 -196 977 -426 452 -369 695 -839 741 -1432 44 -578 -155
-1117 -577 -1556 -294 -307 -646 -496 -1070 -577 -188 -35 -500 -45 -678 -20
-442 62 -840 272 -1173 618 -343 358 -515 779 -531 1298 -10 337 48 626 186
915 305 638 828 1050 1481 1164 188 33 462 40 644 16z m11131 -116 c553 -47
1038 -293 1374 -694 171 -205 357 -533 440 -777 139 -407 144 -792 17 -1173
-120 -357 -373 -689 -725 -951 -147 -109 -1783 -1156 -1792 -1146 -4 4 -181
278 -392 610 l-386 602 52 33 c1161 742 1482 948 1528 983 90 69 186 179 224
258 45 94 58 160 53 267 -4 81 -8 96 -50 181 -103 206 -289 322 -518 321 -149
-1 -278 -58 -397 -175 -175 -173 -203 -424 -73 -643 44 -73 150 -180 218 -220
28 -16 52 -33 52 -37 0 -13 -1242 -799 -1255 -794 -35 13 -175 203 -265 359
-251 439 -331 915 -234 1397 111 554 422 987 936 1306 261 161 566 266 853
293 130 12 204 12 340 0z m-5435 -1614 c1365 -150 2558 -854 3344 -1975 595
-848 891 -1904 826 -2945 -57 -900 -369 -1763 -896 -2475 -218 -294 -559 -650
-829 -865 -725 -578 -1523 -907 -2456 -1012 -216 -24 -722 -24 -938 0 -814 92
-1536 359 -2183 807 -400 277 -808 673 -1102 1070 -642 868 -965 1967 -896
3045 68 1049 462 2003 1155 2795 51 58 166 177 257 266 796 776 1831 1231
2973 1308 129 8 606 -4 745 -19z m10000 -4700 l0 -725 -2640 0 -2640 0 0 725
0 725 2640 0 2640 0 0 -725z m-15540 -20 l0 -725 -2640 0 -2640 0 0 725 0 725
2640 0 2640 0 0 -725z m11148 -2915 c525 -55 983 -333 1338 -809 109 -147
1156 -1783 1146 -1792 -4 -4 -278 -181 -610 -392 l-602 -386 -33 52 c-742
1161 -948 1482 -983 1528 -69 90 -179 186 -258 224 -100 47 -151 58 -260 53
-89 -4 -101 -7 -188 -50 -206 -103 -322 -289 -321 -518 1 -149 58 -278 175
-397 173 -175 424 -203 643 -73 73 44 180 150 220 218 17 28 33 52 37 52 13 0
799 -1242 794 -1255 -13 -35 -203 -175 -359 -265 -357 -205 -752 -299 -1134
-270 -591 45 -1092 316 -1436 778 -380 511 -509 1048 -391 1630 132 656 518
1137 1169 1457 362 178 716 250 1053 215z m-11547 -115 c360 -47 688 -186 999
-421 522 -396 790 -944 790 -1621 0 -454 -152 -880 -441 -1234 -369 -452 -839
-695 -1432 -741 -578 -44 -1117 155 -1556 577 -344 330 -547 746 -600 1227
-16 141 -13 399 5 529 57 409 246 785 559 1108 320 330 683 512 1153 576 130
17 393 18 523 0z m5617 -2685 c393 -42 743 -187 1052 -437 97 -79 270 -257
341 -353 153 -205 262 -435 329 -697 17 -64 29 -118 26 -120 -2 -2 -332 -16
-732 -31 l-728 -27 -71 70 c-147 147 -341 204 -546 161 -197 -42 -367 -210
-414 -407 -17 -75 -19 -206 -4 -281 6 -29 29 -90 50 -135 72 -151 208 -260
375 -303 270 -69 494 40 625 304 l53 106 45 0 c25 0 334 11 686 25 352 14 652
25 668 25 33 0 34 -14 12 -169 -78 -531 -312 -963 -700 -1289 -380 -319 -829
-468 -1350 -449 -188 7 -317 26 -475 68 -691 184 -1259 779 -1413 1480 -40
179 -51 289 -51 494 0 269 33 460 120 692 199 533 691 1002 1241 1183 262 86
584 119 861 90z"/>
<path d="M5862 16479 c-199 -30 -369 -173 -439 -369 -28 -79 -31 -224 -8 -314
47 -181 194 -340 380 -412 62 -25 84 -28 190 -28 101 -1 131 3 187 22 392 136
495 627 193 927 -139 138 -322 201 -503 174z"/>
<path d="M11210 14436 c-412 -59 -763 -242 -1058 -551 -203 -212 -338 -431
-422 -684 -208 -625 -75 -1314 349 -1798 134 -153 418 -380 443 -355 6 6 160
277 343 603 l332 594 -38 44 c-62 70 -92 141 -97 230 -5 102 20 171 93 249 91
99 194 134 336 114 143 -21 216 -67 260 -167 30 -66 31 -193 2 -280 -11 -33
-419 -808 -906 -1723 -488 -914 -887 -1664 -887 -1667 0 -3 767 -5 1705 -5
l1705 0 0 765 0 765 -439 2 -439 3 149 290 c514 993 570 1112 619 1306 66 258
67 617 1 890 -78 329 -237 604 -502 867 -267 265 -582 430 -949 497 -128 23
-470 29 -600 11z"/>
<path d="M5661 6994 c-177 -48 -336 -195 -407 -379 -25 -62 -28 -84 -28 -190
-1 -101 3 -131 22 -187 136 -392 627 -495 927 -193 76 77 131 170 161 270 20
69 22 205 5 280 -41 172 -186 330 -360 391 -79 28 -232 32 -320 8z"/>
</g>
</svg>
