<svg id="Layer_1" data-name="Layer 1" xmlns="http://www.w3.org/2000/svg" viewBox="0 0 1172.24 948.1"><defs><style>.cls-1{fill:#757bff;}.cls-2{fill:#595ff1;}.cls-3{fill:#393bb2;}.cls-4{fill:#d1d3fc;}.cls-5{fill:#1a145b;}.cls-6{fill:#2c2e96;}.cls-7{fill:#4d51d7;}.cls-8{fill:#8bd2fa;}.cls-9{fill:#f0567f;}.cls-10{fill:#f5968c;}.cls-11{fill:#c41c6a;}.cls-12{fill:#ffbbb3;}.cls-13{fill:#f8f6ff;}.cls-14{fill:#fff;}.cls-15{fill:#aeb2fc;}.cls-16{fill:#6768bf;}</style></defs><title>Page1_LoginInfo</title><path class="cls-1" d="M521.32,469.25c-2.31-21.78-16.05-40.33-26.22-59.73C455.2,333.41,473.72,231.25,537.8,174s167.67-64.23,238.83-16.06c39.89,27,69.64,68.65,113.38,88.82,50,23,109.66,14,160.84,34.26,71.1,28.09,111.25,117.05,85.29,189-16.64,46.06-56.49,88.34-46.84,136.35,12.38,61.58,90.53,76.93,148,102.36,61.75,27.33,114.15,88.5,108.36,155.77-6.54,76.06-83.33,128.77-158.54,141.81s-152.2-2-228.53-1.39c-145.16,1.12-290,58.67-432.5,31.2C446,1020.64,370.9,977.36,320.51,913.25s-74.77-149-62.2-229.52c3.58-23,10.39-46.21,25-64.31C315.1,580.05,372,575.84,421.4,564.86S526.65,519.56,521.32,469.25Z" transform="translate(-213.88 -125.95)"/><path class="cls-2" d="M566.93,681.81c-17.61-26.4-22.06-59.43-14-90.13a142.78,142.78,0,0,0-26-124.43c-20.35-25.77-29.53-58.57-23.46-90.83A90.5,90.5,0,0,0,505,356c-1.92-46-39.72-84-85.72-86.06a90,90,0,0,0-92.93,104.82c5.49,32.65-2.62,66.56-23.15,92.54a142.76,142.76,0,0,0-25.95,124.46,113.4,113.4,0,0,1-14.7,91.12A181.67,181.67,0,0,0,233,794.47c5.63,90.46,78.67,164.06,169.09,170.29,106.58,7.35,195.33-76.93,195.33-182A181.34,181.34,0,0,0,566.93,681.81Z" transform="translate(-213.88 -125.95)"/><path class="cls-3" d="M415.08,967.22h0c-4.33,0-8.73-.15-13.07-.45-91.75-6.33-165.24-80.35-171-172.17a183.21,183.21,0,0,1,29.81-112.87,111.56,111.56,0,0,0,14.44-89.51,144.94,144.94,0,0,1-4.72-36.76,142.91,142.91,0,0,1,31-89.46c19.93-25.23,28.22-58.38,22.74-91a92.42,92.42,0,0,1-1.26-15.26c0-52.13,43.64-94.35,96.26-91.89,47.17,2.13,85.66,40.78,87.64,88a92.55,92.55,0,0,1-1.5,20.93c-5.8,30.81,2.61,63.33,23.06,89.21a143,143,0,0,1,31,89.46,144.7,144.7,0,0,1-4.71,36.73c-8.12,31-3.11,63.24,13.75,88.51A184.4,184.4,0,0,1,415.08,967.22Zm0-695.41a88,88,0,0,0-86.76,102.56c5.66,33.7-2.93,68-23.56,94.12a139,139,0,0,0-30.17,87,140.64,140.64,0,0,0,4.59,35.74,115.65,115.65,0,0,1-15,92.74A179.19,179.19,0,0,0,235,794.35c5.59,89.82,77.48,162.22,167.23,168.41,4.25.29,8.55.44,12.79.44h0A180.37,180.37,0,0,0,565.26,682.93c-17.49-26.23-22.7-59.67-14.29-91.76a140.85,140.85,0,0,0,4.58-35.71,139,139,0,0,0-30.17-87C504.21,441.69,495.52,408,501.53,376A88.43,88.43,0,0,0,503,356c-1.89-45.13-38.7-82.08-83.8-84.13C417.79,271.84,416.42,271.81,415.07,271.81Z" transform="translate(-213.88 -125.95)"/><rect class="cls-4" x="197.79" y="290.03" width="6.79" height="655.99"/><rect class="cls-4" x="401.25" y="498.92" width="94.37" height="6.79" transform="translate(-437.73 338.26) rotate(-45)"/><rect class="cls-4" x="369.51" y="556.44" width="6.79" height="119.24" transform="translate(-540.28 318.17) rotate(-45)"/><rect class="cls-4" x="396.01" y="759.16" width="130.15" height="6.79" transform="translate(-618.04 423.43) rotate(-45)"/><path class="cls-2" d="M1353.59,681.81c-17.61-26.4-22.07-59.43-14-90.13a142.78,142.78,0,0,0-26-124.43c-20.35-25.77-29.52-58.57-23.45-90.83a90.5,90.5,0,0,0,1.46-20.47c-1.92-46-39.72-84-85.72-86.06A90,90,0,0,0,1113,374.71c5.48,32.65-2.63,66.56-23.15,92.54a142.65,142.65,0,0,0-25.95,124.46,113.48,113.48,0,0,1-14.7,91.12,181.61,181.61,0,0,0-29.49,111.64c5.63,90.46,78.67,164.06,169.09,170.29,106.59,7.35,195.33-76.93,195.33-182A181.42,181.42,0,0,0,1353.59,681.81Z" transform="translate(-213.88 -125.95)"/><path class="cls-3" d="M1201.73,967.22h0c-4.34,0-8.73-.15-13.08-.45-91.75-6.33-165.24-80.35-171-172.17a183.15,183.15,0,0,1,29.82-112.87,111.58,111.58,0,0,0,14.43-89.51,144.93,144.93,0,0,1-4.71-36.76,142.9,142.9,0,0,1,31-89.46c19.93-25.23,28.22-58.38,22.74-91a93.61,93.61,0,0,1-1.26-15.26A92.05,92.05,0,0,1,1206,267.89c47.17,2.13,85.66,40.78,87.64,88a92.63,92.63,0,0,1-1.5,20.93c-5.8,30.81,2.61,63.32,23.06,89.21a143,143,0,0,1,31,89.46,144.7,144.7,0,0,1-4.71,36.73c-8.11,31-3.11,63.24,13.75,88.51a184.4,184.4,0,0,1-153.53,286.52Zm0-695.41A88,88,0,0,0,1115,374.37c5.66,33.7-2.93,68-23.56,94.12a139,139,0,0,0-30.17,87,140.64,140.64,0,0,0,4.59,35.74,115.68,115.68,0,0,1-15,92.74,179.13,179.13,0,0,0-29.17,110.41c5.59,89.82,77.48,162.22,167.23,168.41,4.25.29,8.56.44,12.8.44h0a180.37,180.37,0,0,0,150.18-280.27c-17.48-26.23-22.69-59.67-14.28-91.76a140.85,140.85,0,0,0,4.58-35.71,139,139,0,0,0-30.18-87c-21.17-26.8-29.86-60.49-23.85-92.45a87.94,87.94,0,0,0,1.43-20c-1.88-45.13-38.69-82.08-83.8-84.13C1204.44,271.84,1203.08,271.81,1201.72,271.81Z" transform="translate(-213.88 -125.95)"/><rect class="cls-4" x="984.45" y="290.03" width="6.79" height="655.99"/><rect class="cls-4" x="1187.9" y="498.92" width="94.37" height="6.79" transform="translate(-207.32 894.51) rotate(-45)"/><rect class="cls-4" x="1156.17" y="556.44" width="6.79" height="119.24" transform="translate(-309.88 874.4) rotate(-45)"/><rect class="cls-4" x="1182.66" y="759.16" width="130.15" height="6.79" transform="translate(-387.64 979.68) rotate(-45)"/><rect class="cls-5" x="253.83" y="788.33" width="32.63" height="157.69"/><rect class="cls-5" x="1193.62" y="914.28" width="32.62" height="157.69" transform="translate(2205.98 1860.3) rotate(180)"/><rect class="cls-6" x="202.86" y="754.35" width="864.56" height="46.22"/><rect class="cls-7" x="224.6" y="506.94" width="821.08" height="247.41"/><rect class="cls-5" x="849.92" y="663.24" width="195.76" height="4.14"/><rect class="cls-5" x="798.94" y="583.03" width="246.74" height="4.14"/><rect class="cls-5" x="225.97" y="583.03" width="205.27" height="4.14"/><rect class="cls-5" x="276.26" y="663.24" width="114.2" height="4.14"/><path class="cls-8" d="M581.53,364.47H643A138.52,138.52,0,0,1,781.49,503V651a0,0,0,0,1,0,0H443a0,0,0,0,1,0,0V503A138.52,138.52,0,0,1,581.53,364.47Z"/><path class="cls-5" d="M717.87,612.93c-2.06-19.94,3.56-35.58,16.68-46.5l2,2.4C724.1,579.18,719,593.51,721,612.62Z" transform="translate(-213.88 -125.95)"/><path class="cls-5" d="M937.1,612.93l-3.1-.31c2-19.11-3.13-33.44-15.57-43.79l2-2.4C933.55,577.35,939.16,593,937.1,612.93Z" transform="translate(-213.88 -125.95)"/><circle class="cls-9" cx="611.85" cy="197.05" r="66.52"/><path class="cls-10" d="M573.2,383.74H647a0,0,0,0,1,0,0v46.58a36.88,36.88,0,0,1-36.88,36.88h0a36.88,36.88,0,0,1-36.88-36.88V383.74A0,0,0,0,1,573.2,383.74Z"/><rect class="cls-9" x="485.72" y="205.16" width="253.05" height="179.11" rx="89.55"/><rect class="cls-11" x="575.28" y="204.16" width="73.95" height="1.98"/><rect class="cls-12" x="535.34" y="258.31" width="156.54" height="180.62" rx="78.27"/><path class="cls-13" d="M851.46,524c0,11-10.74,19.92-24,19.92s-24-8.92-24-19.92Z" transform="translate(-213.88 -125.95)"/><path class="cls-5" d="M796.16,475.23h0a10.54,10.54,0,0,0-10.54,10.55v2.31H806.7v-2.31A10.54,10.54,0,0,0,796.16,475.23Z" transform="translate(-213.88 -125.95)"/><path class="cls-14" d="M796.16,509.4a29.53,29.53,0,1,1,29.52-29.53A29.56,29.56,0,0,1,796.16,509.4Zm0-55.09a25.56,25.56,0,1,0,25.56,25.56A25.59,25.59,0,0,0,796.16,454.31Z" transform="translate(-213.88 -125.95)"/><path class="cls-5" d="M848.27,475.23h21.09a0,0,0,0,1,0,0v2.31a10.54,10.54,0,0,1-10.54,10.54h0a10.54,10.54,0,0,1-10.54-10.54v-2.31A0,0,0,0,1,848.27,475.23Z" transform="translate(1503.74 837.37) rotate(180)"/><path class="cls-14" d="M858.81,509.4a29.53,29.53,0,1,1,29.52-29.53A29.56,29.56,0,0,1,858.81,509.4Zm0-55.09a25.56,25.56,0,1,0,25.56,25.56A25.59,25.59,0,0,0,858.81,454.31Z" transform="translate(-213.88 -125.95)"/><path class="cls-12" d="M742.5,479.42h0V425.25h0a20,20,0,0,0-20,20.05v14.07A20.05,20.05,0,0,0,742.5,479.42Z" transform="translate(-213.88 -125.95)"/><path class="cls-12" d="M912.8,479.42h0V425.25h0a20,20,0,0,1,20.05,20.05v14.07A20,20,0,0,1,912.8,479.42Z" transform="translate(-213.88 -125.95)"/><path class="cls-9" d="M827.49,423.7h0a35.17,35.17,0,0,1-35.17-35.16V346.79h70.33v41.75A35.16,35.16,0,0,1,827.49,423.7Z" transform="translate(-213.88 -125.95)"/><path class="cls-10" d="M850.88,439c-15.62-6.35-31-6.36-45.78,0l-1.23-2.86c15.55-6.68,31.76-6.69,48.18,0Z" transform="translate(-213.88 -125.95)"/><path class="cls-12" d="M443,506.94h62.53a0,0,0,0,1,0,0V685a0,0,0,0,1,0,0H484.47A41.46,41.46,0,0,1,443,643.56V506.94A0,0,0,0,1,443,506.94Z"/><path class="cls-12" d="M974.3,632.89h21.07a0,0,0,0,1,0,0V811a0,0,0,0,1,0,0H932.84a0,0,0,0,1,0,0V674.35a41.46,41.46,0,0,1,41.46-41.46Z" transform="translate(1714.33 1317.91) rotate(180)"/><path class="cls-12" d="M443,642.5H781.49a0,0,0,0,1,0,0v4.71a31.7,31.7,0,0,1-31.7,31.7H474.71a31.7,31.7,0,0,1-31.7-31.7V642.5A0,0,0,0,1,443,642.5Z"/><path class="cls-14" d="M510.59,485.19h207a29.91,29.91,0,0,1,29.91,29.91V685a0,0,0,0,1,0,0H480.68a0,0,0,0,1,0,0V515.1A29.91,29.91,0,0,1,510.59,485.19Z"/><rect class="cls-15" x="480.68" y="656.47" width="266.83" height="28.55"/><polygon class="cls-12" points="531.37 910.67 491.56 910.67 463.83 744.83 531.37 744.83 531.37 910.67"/><path class="cls-5" d="M508.54,880.77h0a52.33,52.33,0,0,1,52.33,52.33V946a0,0,0,0,1,0,0H456.21a0,0,0,0,1,0,0V933.1A52.33,52.33,0,0,1,508.54,880.77Z"/><polygon class="cls-12" points="693.14 910.67 732.95 910.67 760.67 744.83 693.14 744.83 693.14 910.67"/><path class="cls-5" d="M877.51,1006.72H982.17a0,0,0,0,1,0,0v12.92A52.33,52.33,0,0,1,929.84,1072h0a52.33,52.33,0,0,1-52.33-52.33v-12.92A0,0,0,0,1,877.51,1006.72Z" transform="translate(1645.8 1952.74) rotate(180)"/><circle class="cls-15" cx="827.97" cy="714.84" r="27.19" transform="translate(-476.84 668.89) rotate(-45)"/><path class="cls-8" d="M483,670.75H741.47A52.57,52.57,0,0,1,794,723.31V806a0,0,0,0,1,0,0H430.46a0,0,0,0,1,0,0V723.31A52.57,52.57,0,0,1,483,670.75Z"/><rect class="cls-5" x="430.46" y="787.07" width="363.57" height="2.51"/><path class="cls-5" d="M780.68,835.61l-4.82-8.09a63.69,63.69,0,0,0-39.32-29.31l.77-3a66.77,66.77,0,0,1,41.23,30.74l4.82,8.09Z" transform="translate(-213.88 -125.95)"/><path class="cls-5" d="M875.27,835.61l-2.68-1.6,4.82-8.09a66.77,66.77,0,0,1,41.23-30.74l.77,3a63.64,63.64,0,0,0-39.32,29.31Z" transform="translate(-213.88 -125.95)"/><path class="cls-9" d="M1068.16,1069.78h-22V858.19a33.58,33.58,0,1,1,67.15,0v24h-22v-24a11.55,11.55,0,1,0-23.09,0Z" transform="translate(-213.88 -125.95)"/><rect class="cls-3" x="37.36" y="800.57" width="109.93" height="140.69"/><path class="cls-12" d="M770.15,517.7,754,507a1.56,1.56,0,0,1-.43-2.17h0a1.55,1.55,0,0,1,2.16-.43l16.13,10.75a1.57,1.57,0,0,1,.44,2.17h0A1.57,1.57,0,0,1,770.15,517.7Z" transform="translate(-213.88 -125.95)"/><path class="cls-12" d="M884.25,517.7,900.38,507a1.56,1.56,0,0,0,.43-2.17h0a1.55,1.55,0,0,0-2.16-.43L882.52,515.1a1.57,1.57,0,0,0-.44,2.17h0A1.57,1.57,0,0,0,884.25,517.7Z" transform="translate(-213.88 -125.95)"/><path class="cls-14" d="M992.47,187h65.83A69.64,69.64,0,0,1,1128,256.62V285a69.65,69.65,0,0,1-69.65,69.65h-18.57l-39,49.91V354.63h-8.25A69.64,69.64,0,0,1,922.83,285V256.62A69.64,69.64,0,0,1,992.47,187Z" transform="translate(-213.88 -125.95)"/><path class="cls-3" d="M998.71,410.38V356.64h-6.23A71.74,71.74,0,0,1,920.82,285V256.62A71.73,71.73,0,0,1,992.48,185h65.82A71.74,71.74,0,0,1,1130,256.62V285a71.75,71.75,0,0,1-71.66,71.66h-17.59ZM992.48,189a67.71,67.71,0,0,0-67.64,67.63V285a67.71,67.71,0,0,0,67.64,67.64h10.25v46.09l36-46.09h19.56A67.71,67.71,0,0,0,1125.94,285V256.62A67.71,67.71,0,0,0,1058.3,189Z" transform="translate(-213.88 -125.95)"/><rect class="cls-14" x="750.6" y="105.43" width="121.82" height="82.32"/><path class="cls-16" d="M1086.3,315.49H964.48a1.79,1.79,0,0,1-1.79-1.79V231.38a1.79,1.79,0,0,1,1.79-1.79H1086.3a1.79,1.79,0,0,1,1.79,1.79V313.7A1.79,1.79,0,0,1,1086.3,315.49Zm-120-3.59h118.24V233.17H966.27Z" transform="translate(-213.88 -125.95)"/><polygon class="cls-14" points="750.6 187.74 872.42 187.74 811.51 140.46 750.6 187.74"/><path class="cls-16" d="M1086.3,315.49H964.48a1.79,1.79,0,0,1-1.1-3.21L1024.29,265a1.77,1.77,0,0,1,2.2,0l60.91,47.28a1.8,1.8,0,0,1-1.1,3.21ZM969.71,311.9h111.36l-55.68-43.22Z" transform="translate(-213.88 -125.95)"/><polygon class="cls-14" points="750.6 105.43 872.42 105.43 811.51 159.04 750.6 105.43"/><path class="cls-16" d="M1025.39,286.78a1.85,1.85,0,0,1-1.19-.44l-60.91-53.62a1.8,1.8,0,0,1,1.19-3.14H1086.3a1.8,1.8,0,0,1,1.18,3.14l-60.91,53.62A1.82,1.82,0,0,1,1025.39,286.78Zm-56.16-53.61,56.16,49.44,56.16-49.44Z" transform="translate(-213.88 -125.95)"/><rect class="cls-5" x="31.28" y="943.94" width="1065.06" height="4.15"/><rect class="cls-5" y="943.94" width="21.71" height="4.15"/><path class="cls-7" d="M521.68,240c28.29,3.27,49.15-31.27,77.18-36.34,7.49-1.36,16.37.16,21.61,5.1a18.5,18.5,0,0,0,20.59,3.65c4.66-2.22,9.21-5.23,13.61-7.76a81.65,81.65,0,0,1,43.55-10.74c4.44.17,9,.76,12.85,3,8.09,4.69,10.25,14.48,10.42,24.29a9,9,0,0,0,11.16,8.65,73.9,73.9,0,0,1,10-2.25c7.25-.76,16.33,6.66,11.84,12.41Z" transform="translate(-213.88 -125.95)"/><rect class="cls-8" x="779.94" y="315.05" width="107.25" height="107.25" rx="12.06"/><circle class="cls-14" cx="1047.44" cy="493.02" r="29.39" transform="translate(-255.71 759.1) rotate(-45)"/><path class="cls-8" d="M1032.3,482.41a5.42,5.42,0,1,0,5.41-5.41A5.41,5.41,0,0,0,1032.3,482.41Z" transform="translate(-213.88 -125.95)"/><path class="cls-8" d="M1062.11,482.41a5.41,5.41,0,1,1-5.41-5.41A5.41,5.41,0,0,1,1062.11,482.41Z" transform="translate(-213.88 -125.95)"/><path class="cls-8" d="M1047.44,512a19,19,0,0,0,19-19h-38A19,19,0,0,0,1047.44,512Z" transform="translate(-213.88 -125.95)"/><path class="cls-14" d="M483.29,452.41H655.35a18.38,18.38,0,0,1,18.37,18.37V542a18.37,18.37,0,0,1-18.37,18.36h-40v35.18L580.13,560.4H483.29A18.36,18.36,0,0,1,464.93,542V470.78A18.37,18.37,0,0,1,483.29,452.41Z" transform="translate(-213.88 -125.95)"/><path class="cls-3" d="M615.31,597.59a2,2,0,0,1-1.42-.59L579.3,562.41h-96A20.4,20.4,0,0,1,462.92,542V470.78a20.39,20.39,0,0,1,20.37-20.37H655.35a20.39,20.39,0,0,1,20.37,20.37V542a20.4,20.4,0,0,1-20.37,20.37h-38v33.17a2,2,0,0,1-1.24,1.86A2.07,2.07,0,0,1,615.31,597.59Zm-132-143.17a16.38,16.38,0,0,0-16.36,16.36V542a16.37,16.37,0,0,0,16.36,16.35h96.84a2.05,2.05,0,0,1,1.43.59l31.74,31.75V560.4a2,2,0,0,1,2-2h40A16.37,16.37,0,0,0,671.71,542V470.78a16.38,16.38,0,0,0-16.36-16.36Z" transform="translate(-213.88 -125.95)"/><rect class="cls-15" x="320.43" y="347.06" width="113.76" height="9.64"/><rect class="cls-15" x="281.41" y="374.25" width="152.78" height="9.64"/><rect class="cls-15" x="281.41" y="398.37" width="152.78" height="9.64"/><rect class="cls-14" x="353.73" y="142" width="110.1" height="110.1" rx="12.38"/><path class="cls-3" d="M665.32,380.05H580a14.41,14.41,0,0,1-14.4-14.39V280.33A14.41,14.41,0,0,1,580,265.94h85.32a14.41,14.41,0,0,1,14.4,14.39v85.33A14.41,14.41,0,0,1,665.32,380.05ZM580,270a10.39,10.39,0,0,0-10.38,10.37v85.33A10.4,10.4,0,0,0,580,376h85.32a10.4,10.4,0,0,0,10.38-10.38V280.33A10.39,10.39,0,0,0,665.32,270Z" transform="translate(-213.88 -125.95)"/><path class="cls-8" d="M653.94,311.93a15.72,15.72,0,0,0-27.31-10.62,15.52,15.52,0,0,0-4,8.29,15.73,15.73,0,1,0-25.57,14.47s0,0,.07.06l25.66,25.66L649,323.66l-.14-.14A15.66,15.66,0,0,0,653.94,311.93Z" transform="translate(-213.88 -125.95)"/></svg>