<svg id="Layer_1" data-name="Layer 1" xmlns="http://www.w3.org/2000/svg" xmlns:xlink="http://www.w3.org/1999/xlink" viewBox="0 0 1371.6 804.32"><defs><style>.cls-1{fill:#6cbdeb;}.cls-2{fill:#5e65ff;}.cls-3{fill:#393bb2;}.cls-4{fill:#1a145b;}.cls-5{fill:#4d51d7;}.cls-6{fill:#6456c4;}.cls-7{fill:#231f20;}.cls-8{fill:#8bd2fa;}.cls-9{fill:#f5968c;}.cls-10{fill:#cd4b68;}.cls-11{fill:#f6f3ff;}.cls-12{fill:#ddd3ff;}.cls-13{fill:#fff;}.cls-14{fill:#ffbbb3;}.cls-15{fill:#6d0000;}.cls-16{fill:#fbc299;}.cls-17{fill:#000c2b;}.cls-18{clip-path:url(#clip-path);}.cls-19{fill:#f8f6ff;}.cls-20{fill:#e8e0ff;}.cls-21{fill:#6768bf;}.cls-22{fill:#d1d3fc;}</style><clipPath id="clip-path" transform="translate(-114.2 -197.84)"><rect class="cls-1" x="546.76" y="747.31" width="311" height="153.08"/></clipPath></defs><title>Page4_LoginInfo</title><path class="cls-2" d="M228.26,1002.16c-75.6-77.88-87.9-198.54-71.11-305.77,4.19-26.75,10.21-54,25.27-76.49,23-34.32,63.11-52.38,93.85-79.95,65.55-58.8,82-153.09,118.69-233.17,10.8-23.6,23.93-46.74,43.22-64.11,19.95-18,45.47-28.77,71.49-35.43,106.8-27.34,217.84,10.84,324.24,39.7,23.45,6.35,47.1,12.29,71.25,15,31.09,3.46,62.59,1.47,93.56-3,60.34-8.66,119.22-26.57,179.88-32.56s125.88,1.45,174.46,38.28c66.44,50.37,85.77,145.86,65.8,226.81-11.62,47.12-34.74,94.65-23.74,141.92,9.67,41.52,43.51,72.38,65.14,109.12,50.28,85.39,23.81,202.75-57.33,259.64" transform="translate(-114.2 -197.84)"/><path class="cls-3" d="M1443.22,539.33h-210l26.52-227.65h157Zm-204.29-5.06h198.61L1412.2,316.74H1264.26Z" transform="translate(-114.2 -197.84)"/><rect class="cls-3" x="1127.32" y="302.29" width="196.3" height="5.06"/><path class="cls-3" d="M1376,505.19h-72.42l13-193.51H1363Zm-67-5.07h61.6l-12.33-183.38h-36.94Z" transform="translate(-114.2 -197.84)"/><polygon class="cls-3" points="1287.18 338.95 1344.66 800.88 1332.65 800.88 1266.59 338.95 1287.18 338.95"/><polygon class="cls-3" points="1234.1 338.95 1222.09 338.95 1229.81 800.88 1234.1 800.88 1238.38 800.88 1246.1 338.95 1234.1 338.95"/><path class="cls-2" d="M430.58,601.88a60.7,60.7,0,0,1-7.15-54.38,149.08,149.08,0,0,0,8.25-49.2c0-32.8-10.44-62.88-27.83-86.41A76.54,76.54,0,0,1,389,364.5c0-.85,0-1.7,0-2.56,0-51.86-35.92-93.9-80.24-93.9s-80.23,42-80.23,93.9c0,.86,0,1.71,0,2.56a76.54,76.54,0,0,1-14.89,47.39c-17.39,23.53-27.83,53.61-27.83,86.41a149.08,149.08,0,0,0,8.25,49.2,60.7,60.7,0,0,1-7.15,54.38,170.48,170.48,0,0,0-29.6,96.77c0,90,67.79,162.92,151.42,162.92s151.43-72.94,151.43-162.92A170.48,170.48,0,0,0,430.58,601.88Z" transform="translate(-114.2 -197.84)"/><path class="cls-3" d="M308.75,864.1c-84.89,0-153.95-74.22-153.95-165.45,0-35.65,10.39-69.61,30-98.2a58.38,58.38,0,0,0,6.84-52.12,151.34,151.34,0,0,1-8.39-50c0-32,10.06-63.21,28.33-87.91A74.63,74.63,0,0,0,226,364.56c0-.87,0-1.74,0-2.62,0-53.17,37.13-96.43,82.76-96.43s82.77,43.26,82.77,96.43c0,.88,0,1.75,0,2.62a74.63,74.63,0,0,0,14.39,45.83c18.27,24.7,28.33,55.93,28.33,87.91a151.34,151.34,0,0,1-8.39,50,58.37,58.37,0,0,0,6.84,52.12c19.66,28.59,30,62.55,30,98.2C462.71,789.88,393.65,864.1,308.75,864.1Zm0-593.53c-42.84,0-77.7,41-77.7,91.37,0,.84,0,1.67,0,2.5a79.61,79.61,0,0,1-15.39,49c-17.62,23.84-27.33,54-27.33,84.9a146.33,146.33,0,0,0,8.11,48.36A63.47,63.47,0,0,1,189,603.32c-19.08,27.74-29.16,60.71-29.16,95.33,0,88.44,66.79,160.39,148.89,160.39s148.9-71.95,148.9-160.39c0-34.62-10.08-67.59-29.16-95.33A63.47,63.47,0,0,1,421,546.66a146.33,146.33,0,0,0,8.11-48.36c0-30.91-9.71-61.06-27.34-84.9a79.66,79.66,0,0,1-15.38-49c0-.83,0-1.66,0-2.5C386.46,311.56,351.6,270.57,308.75,270.57Z" transform="translate(-114.2 -197.84)"/><polygon class="cls-3" points="194.56 169.66 185.65 660.19 194.56 667.27 203.46 660.19 194.56 169.66"/><polygon class="cls-3" points="194.56 418.47 272.94 317.53 196.34 428.21 194.56 418.47"/><polygon class="cls-3" points="194.56 530.03 108.15 437.95 192.77 538.89 194.56 530.03"/><rect class="cls-2" x="101.92" y="633.19" width="185.28" height="28.33"/><path class="cls-3" d="M403.92,861.89H213.59V828.5H403.92Zm-185.27-5.06H398.86V833.56H218.65Z" transform="translate(-114.2 -197.84)"/><polygon class="cls-2" points="251.56 801.42 137.55 801.42 114.38 661.52 274.73 661.52 251.56 801.42"/><path class="cls-3" d="M367.91,1001.79H249.6l-24-145H391.91Zm-114-5.06H363.62L386,861.89H231.56Z" transform="translate(-114.2 -197.84)"/><path class="cls-3" d="M1347.47,749.58,1288.89,471a129.82,129.82,0,0,0-127-103.11H882.09a39.81,39.81,0,0,0-39.81,39.81V749.58Z" transform="translate(-114.2 -197.84)"/><path class="cls-3" d="M337.09,749.58,395.67,471A129.82,129.82,0,0,1,522.72,367.91H802.47a39.81,39.81,0,0,1,39.81,39.81V749.58Z" transform="translate(-114.2 -197.84)"/><rect class="cls-4" x="725.55" y="209.88" width="5.06" height="341.87"/><circle class="cls-5" cx="438.25" cy="255.64" r="12.44"/><circle class="cls-5" cx="539.98" cy="255.64" r="12.44"/><circle class="cls-5" cx="438.25" cy="349.26" r="12.44"/><circle class="cls-5" cx="539.98" cy="349.26" r="12.44"/><circle class="cls-5" cx="641.72" cy="255.64" r="12.44"/><path class="cls-6" d="M1132.12,467.19a13.7,13.7,0,1,1,13.7-13.71A13.72,13.72,0,0,1,1132.12,467.19Zm0-24.87a11.17,11.17,0,1,0,11.17,11.16A11.18,11.18,0,0,0,1132.12,442.32Z" transform="translate(-114.2 -197.84)"/><path class="cls-6" d="M1030.38,467.19a13.7,13.7,0,1,1,13.7-13.71A13.72,13.72,0,0,1,1030.38,467.19Zm0-24.87a11.17,11.17,0,1,0,11.17,11.16A11.18,11.18,0,0,0,1030.38,442.32Z" transform="translate(-114.2 -197.84)"/><circle class="cls-5" cx="1017.92" cy="349.26" r="12.44"/><path class="cls-6" d="M1030.38,560.8a13.7,13.7,0,1,1,13.7-13.7A13.72,13.72,0,0,1,1030.38,560.8Zm0-24.87a11.17,11.17,0,1,0,11.17,11.17A11.18,11.18,0,0,0,1030.38,535.93Z" transform="translate(-114.2 -197.84)"/><circle class="cls-5" cx="814.44" cy="255.64" r="12.44"/><path class="cls-7" d="M1232.43,882.19H1122.11V851.35h110.32Zm-109-1.26h107.78V852.61H1123.38Z" transform="translate(-114.2 -197.84)"/><rect class="cls-5" x="532.15" y="111.78" width="413.09" height="26.42"/><path class="cls-3" d="M942.57,260.14l-20.12,43.69-1.56,3.37a4.15,4.15,0,1,1-7.54-3.47l2.23-4.83L935,256.67Z" transform="translate(-114.2 -197.84)"/><path class="cls-3" d="M972.57,309.24a4.15,4.15,0,0,1-5.49-2l-1.56-3.37-20.13-43.69,7.54-3.47,19.45,42.23,2.23,4.83A4.17,4.17,0,0,1,972.57,309.24Z" transform="translate(-114.2 -197.84)"/><path class="cls-3" d="M972.31,210.27h0a1.92,1.92,0,0,1,.94,2.56L963.17,234.7l-3.5-1.61,10.08-21.88A1.93,1.93,0,0,1,972.31,210.27Z" transform="translate(-114.2 -197.84)"/><path class="cls-2" d="M950,214.19h33.94a0,0,0,0,1,0,0v1.16a14.38,14.38,0,0,1-14.38,14.38h-5.18A14.38,14.38,0,0,1,950,215.35v-1.16a0,0,0,0,1,0,0Z" transform="translate(1638.06 630.29) rotate(-155.27)"/><path class="cls-3" d="M915.65,210.27h0a1.93,1.93,0,0,0-.94,2.56l10.08,21.87,3.5-1.61-10.08-21.88A1.93,1.93,0,0,0,915.65,210.27Z" transform="translate(-114.2 -197.84)"/><path class="cls-2" d="M918.45,214.19h5.18A14.38,14.38,0,0,1,938,228.57v1.16a0,0,0,0,1,0,0H904.07a0,0,0,0,1,0,0v-1.16A14.38,14.38,0,0,1,918.45,214.19Z" transform="translate(-122.57 207.92) rotate(-24.74)"/><circle class="cls-2" cx="943.98" cy="266.53" r="41.07" transform="translate(-147.57 -14.52) rotate(-10.9)"/><path class="cls-3" d="M944,310.13a43.6,43.6,0,1,1,43.61-43.6A43.65,43.65,0,0,1,944,310.13ZM944,228a38.54,38.54,0,1,0,38.54,38.54A38.58,38.58,0,0,0,944,228Z" transform="translate(-114.2 -197.84)"/><circle class="cls-2" cx="943.98" cy="266.53" r="30.97" transform="translate(-113.34 338.25) rotate(-31.72)"/><path class="cls-3" d="M944,299.4a32.87,32.87,0,1,1,32.87-32.87A32.9,32.9,0,0,1,944,299.4Zm0-61.93A29.06,29.06,0,1,0,973,266.53,29.1,29.1,0,0,0,944,237.47Z" transform="translate(-114.2 -197.84)"/><path class="cls-3" d="M914.31,216.35a1.19,1.19,0,0,1-.5-2.27l5.56-2.56,2.38-7.64a7.38,7.38,0,0,1,7-5H944a1.19,1.19,0,0,1,0,2.38H928.74a5,5,0,0,0-4.73,3.4l-2.68,8.63-6.52,3A1.25,1.25,0,0,1,914.31,216.35Z" transform="translate(-114.2 -197.84)"/><path class="cls-3" d="M973.65,216.35a1.25,1.25,0,0,1-.5-.11l-6.51-3L964,204.58a5,5,0,0,0-4.73-3.37H944a1.19,1.19,0,0,1,0-2.38h15.24a7.38,7.38,0,0,1,7,5l2.38,7.67,5.56,2.56a1.19,1.19,0,0,1-.5,2.27Z" transform="translate(-114.2 -197.84)"/><polygon class="cls-3" points="829.78 52.48 828.23 57.76 829.16 66.61 829.78 66.61 830.4 66.61 831.33 57.76 829.78 52.48"/><polygon class="cls-3" points="803.27 68.69 816.75 70.31 828.97 69.34 828.97 68.69 828.97 68.04 816.75 67.07 803.27 68.69"/><circle class="cls-3" cx="829.78" cy="68.69" r="2.75"/><rect class="cls-2" x="598.96" y="10.77" width="24.13" height="101"/><path class="cls-3" d="M739.82,312.15H710.63V206.09h29.19Zm-24.13-5.06h19.07V211.15H715.69Z" transform="translate(-114.2 -197.84)"/><rect class="cls-2" x="623.09" y="10.77" width="24.13" height="101"/><path class="cls-3" d="M763.94,312.15H734.76V206.09h29.18Zm-24.12-5.06h19.06V211.15H739.82Z" transform="translate(-114.2 -197.84)"/><rect class="cls-2" x="647.21" y="32.36" width="24.13" height="79.41"/><path class="cls-3" d="M788.07,312.15H758.88V227.67h29.19Zm-24.13-5.06H783V232.73H763.94Z" transform="translate(-114.2 -197.84)"/><rect class="cls-2" x="813.18" y="257.85" width="24.13" height="79.41" transform="translate(1008.6 -725.54) rotate(90)"/><path class="cls-3" d="M867.49,312.15H783V283h84.48Zm-79.42-5.06h74.36V288H788.07Z" transform="translate(-114.2 -197.84)"/><path class="cls-2" d="M627.79,982h-78v16.76h78a8.38,8.38,0,0,0,8.38-8.38h0A8.38,8.38,0,0,0,627.79,982Z" transform="translate(-114.2 -197.84)"/><path class="cls-3" d="M627.79,1001.25H547.24V979.43h80.55a10.91,10.91,0,1,1,0,21.82Zm-75.49-5.06h75.49a5.85,5.85,0,0,0,0-11.7H552.3Z" transform="translate(-114.2 -197.84)"/><path class="cls-2" d="M418.16,749.3h14.89a34.88,34.88,0,0,1,34.88,34.88v16.7a0,0,0,0,1,0,0H383.35A8.38,8.38,0,0,1,375,792.5v0A43.2,43.2,0,0,1,418.16,749.3Z"/><path class="cls-3" d="M584.67,1001.25H497.55a10.92,10.92,0,0,1-10.91-10.91,45.78,45.78,0,0,1,45.72-45.73h14.9A37.46,37.46,0,0,1,584.67,982Zm-52.31-51.58a40.71,40.71,0,0,0-40.66,40.67,5.85,5.85,0,0,0,5.85,5.85H579.6V982a32.38,32.38,0,0,0-32.34-32.35Z" transform="translate(-114.2 -197.84)"/><path class="cls-3" d="M566.06,998.72h-2.53V982a33.55,33.55,0,0,0-20.53-31l1-2.33A36.08,36.08,0,0,1,566.06,982Z" transform="translate(-114.2 -197.84)"/><path class="cls-2" d="M745.64,982h-78v16.76h78a8.38,8.38,0,0,0,8.38-8.38h0A8.38,8.38,0,0,0,745.64,982Z" transform="translate(-114.2 -197.84)"/><path class="cls-3" d="M745.64,1001.25H665.1V979.43h80.54a10.91,10.91,0,1,1,0,21.82Zm-75.48-5.06h75.48a5.85,5.85,0,0,0,0-11.7H670.16Z" transform="translate(-114.2 -197.84)"/><path class="cls-2" d="M536,749.3h14.89a34.88,34.88,0,0,1,34.88,34.88v16.7a0,0,0,0,1,0,0H501.2a8.38,8.38,0,0,1-8.38-8.38v0A43.2,43.2,0,0,1,536,749.3Z"/><path class="cls-3" d="M702.52,1001.25H615.4a10.92,10.92,0,0,1-10.91-10.91,45.79,45.79,0,0,1,45.73-45.73h14.89A37.45,37.45,0,0,1,702.52,982Zm-52.3-51.58a40.72,40.72,0,0,0-40.67,40.67,5.86,5.86,0,0,0,5.85,5.85h82.06V982a32.38,32.38,0,0,0-32.35-32.35Z" transform="translate(-114.2 -197.84)"/><path class="cls-3" d="M683.92,998.72h-2.53V982a33.56,33.56,0,0,0-20.53-31l1-2.33A36.09,36.09,0,0,1,683.92,982Z" transform="translate(-114.2 -197.84)"/><path class="cls-4" d="M1315.34,838.64l32.52,162.69h-34s-19.36-111.4-100.53-162.69Z" transform="translate(-114.2 -197.84)"/><path class="cls-4" d="M369.22,838.64,336.7,1001.33h34s19.37-111.4,100.53-162.69Z" transform="translate(-114.2 -197.84)"/><path class="cls-1" d="M1313.74,622.34A12,12,0,0,0,1302.19,607H1137.5A12,12,0,0,0,1126,622.34c10.5,36.5,10.69,73.81-.14,112a12,12,0,0,0,11.57,15.26H1302.3a12,12,0,0,0,11.57-15.26C1303.05,696.15,1303.24,658.84,1313.74,622.34Z" transform="translate(-114.2 -197.84)"/><path class="cls-8" d="M1277.17,750.2a1.26,1.26,0,0,1,0-2.52,5.86,5.86,0,0,0,4.45-2.38c2.24-2.73,3.17-7.15,2.36-11.24a282.26,282.26,0,0,1-.1-111.47c.83-4.12-.09-8.57-2.34-11.33a5.88,5.88,0,0,0-4.45-2.38,1.26,1.26,0,0,1,0-2.52,8.33,8.33,0,0,1,6.4,3.31c2.75,3.37,3.85,8.51,2.86,13.42a279.72,279.72,0,0,0,.1,110.48c1,4.87-.14,10-2.88,13.33A8.32,8.32,0,0,1,1277.17,750.2Z" transform="translate(-114.2 -197.84)"/><path class="cls-8" d="M1162.52,750.2a8.31,8.31,0,0,1-6.39-3.3c-2.75-3.35-3.85-8.46-2.88-13.33a279.91,279.91,0,0,0,.09-110.48c-1-4.91.11-10.05,2.86-13.42a8.33,8.33,0,0,1,6.4-3.31,1.26,1.26,0,0,1,0,2.52,5.9,5.9,0,0,0-4.45,2.38c-2.25,2.76-3.17,7.21-2.34,11.33a282.26,282.26,0,0,1-.09,111.47c-.82,4.09.11,8.51,2.36,11.24a5.84,5.84,0,0,0,4.44,2.38,1.26,1.26,0,0,1,0,2.52Z" transform="translate(-114.2 -197.84)"/><path class="cls-8" d="M1238.93,750.2a1.26,1.26,0,0,1-.21-2.5c.87-.89,2.11-6.57,1.63-13.8a837.8,837.8,0,0,1,0-111.14c.49-7.28-.75-13-1.62-13.9a1.25,1.25,0,0,1-1.06-1.24,1.27,1.27,0,0,1,1.26-1.26,2.14,2.14,0,0,1,1.6.76c2.06,2.19,2.74,9.78,2.33,15.8a836.23,836.23,0,0,0,0,110.81c.4,6-.28,13.53-2.33,15.72A2.16,2.16,0,0,1,1238.93,750.2Z" transform="translate(-114.2 -197.84)"/><path class="cls-8" d="M1200.76,750.2a2.19,2.19,0,0,1-1.6-.75c-2-2.19-2.73-9.73-2.33-15.72a836.23,836.23,0,0,0,0-110.81c-.4-6,.28-13.61,2.33-15.8a2.14,2.14,0,0,1,1.6-.76,1.27,1.27,0,0,1,1.26,1.26,1.25,1.25,0,0,1-1,1.24c-.88.9-2.11,6.62-1.63,13.9a837.8,837.8,0,0,1,0,111.14c-.48,7.23.76,12.91,1.63,13.8a1.26,1.26,0,0,1-.21,2.5Z" transform="translate(-114.2 -197.84)"/><path class="cls-5" d="M194.55,551.74H1261.61a0,0,0,0,1,0,0v54.37A36.65,36.65,0,0,1,1225,642.76H231.2a36.65,36.65,0,0,1-36.65-36.65V551.74A0,0,0,0,1,194.55,551.74Z"/><path class="cls-3" d="M1217.92,926.18H466.65a85.57,85.57,0,0,1-85.58-85.58h922.42A85.57,85.57,0,0,1,1217.92,926.18Z" transform="translate(-114.2 -197.84)"/><rect class="cls-3" x="1135.22" y="446.08" width="160.05" height="198.06" rx="80.03"/><rect class="cls-5" x="1176.09" y="496.67" width="78.3" height="96.89" rx="39.15"/><path class="cls-3" d="M1329.44,776.23a27.41,27.41,0,0,1-27.37-27.38V737.06a27.38,27.38,0,1,1,54.75,0v11.79A27.41,27.41,0,0,1,1329.44,776.23Zm0-61.49a22.34,22.34,0,0,0-22.31,22.32v11.79a22.32,22.32,0,1,0,44.63,0V737.06A22.34,22.34,0,0,0,1329.44,714.74Z" transform="translate(-114.2 -197.84)"/><rect class="cls-9" x="348.12" y="265.64" width="34.89" height="39.44"/><polygon class="cls-9" points="163.04 340.99 184.28 358.99 165.57 388.51 148.38 370.82 163.04 340.99"/><path class="cls-9" d="M975.7,618.41l38.39,51.2L1098,626l1.14-25.22a6.06,6.06,0,0,1,3.43-5.2l34.14-16.43-4.88,15-14.31,49.45-113.23,76.79L959.43,663Z" transform="translate(-114.2 -197.84)"/><path class="cls-10" d="M714.64,640.69c-9.95-27.88,5.31-81.65,47.13-90.94s68.37-4.65,96.92,11.94c5.31-33.22,47.54-68.07,97.45-52.62S1018,581.61,1018,581.61L802.93,690.47l-86.3-28.54Z" transform="translate(-114.2 -197.84)"/><path class="cls-11" d="M461.31,702.8V487.3h37.14c22.87,59.15,24.26,161.81,26,258.81l-47.83-20.23A25.08,25.08,0,0,1,461.31,702.8Z" transform="translate(-114.2 -197.84)"/><rect class="cls-1" x="347.11" y="297.72" width="37.14" height="2.59"/><path class="cls-4" d="M461.37,479.81h0a125.37,125.37,0,0,0-15.93-41l-32.63-53.64a32.74,32.74,0,0,1-1.7-30.86l2.82-6L526.5,433s-8.77,33.63-27.78,46.78Z" transform="translate(-114.2 -197.84)"/><rect class="cls-12" x="425.96" y="403" width="16.58" height="2.93" transform="translate(-266.97 119.6) rotate(-34.53)"/><rect class="cls-12" x="436.64" y="421.3" width="16.59" height="2.93" transform="translate(-275.46 128.9) rotate(-34.53)"/><rect class="cls-12" x="447.33" y="439.59" width="16.59" height="2.93" transform="translate(-283.95 138.18) rotate(-34.53)"/><polygon class="cls-1" points="299.73 150.41 305.69 145.3 415.51 225.54 412.3 235.19 299.73 150.41"/><path class="cls-4" d="M270.44,578.16h0a138,138,0,0,0-47.66,8L157.83,609.4a36,36,0,0,1-33.58-5L118.37,600l116.2-102.29s34.23,16.9,44.16,40.26Z" transform="translate(-114.2 -197.84)"/><rect class="cls-12" x="195.09" y="578.53" width="2.93" height="16.56" transform="translate(-249.81 -133.18) rotate(-13.94)"/><rect class="cls-12" x="212.96" y="572.54" width="2.93" height="16.22" transform="translate(-228.23 -141.83) rotate(-11.78)"/><rect class="cls-12" x="229.48" y="567.26" width="2.93" height="16.02" transform="translate(-217.24 -144.8) rotate(-10.73)"/><polygon class="cls-1" points="4.17 402.16 0 394.61 110.7 294.27 120.37 299.87 4.17 402.16"/><circle class="cls-13" cx="230.19" cy="538.83" r="14.45" transform="translate(-123.67 -193.7) rotate(-1.01)"/><path class="cls-12" d="M230.2,554.75h0a15.93,15.93,0,0,1,0-31.85,16.7,16.7,0,0,1,3.23.33,15.92,15.92,0,0,1-3.2,31.52Zm0-28.91a13,13,0,1,0,2.64.27A13,13,0,0,0,230.17,525.84Z" transform="translate(-114.2 -197.84)"/><circle class="cls-10" cx="881.93" cy="376.31" r="29.49"/><circle class="cls-10" cx="985.06" cy="623.58" r="34.63" transform="translate(-266.62 681.34) rotate(-45)"/><path class="cls-9" d="M942.12,556.21c9,2.58,31.24-8.61,53-19.35L1018,578.58l-21.09,16.88-16.69,23.32Z" transform="translate(-114.2 -197.84)"/><path class="cls-14" d="M1154.63,636.2l28.91-45.62a6,6,0,0,0-1.18-7.79l-5.81-5-35.65,50.31Z" transform="translate(-114.2 -197.84)"/><path class="cls-13" d="M1106.29,615.56l70.61-90.67a4.89,4.89,0,0,1,5.89-1.44l28.1,12.89a4.88,4.88,0,0,1,1.83,7.42l-72.38,93.8a4.89,4.89,0,0,1-6.41,1.19l-26.33-16A4.89,4.89,0,0,1,1106.29,615.56Z" transform="translate(-114.2 -197.84)"/><polygon class="cls-4" points="1013.55 405.06 1021.9 410.55 1018.98 414.5 1010.62 408.62 1013.55 405.06"/><path class="cls-1" d="M1128.23,593.93l49.59-62.37a3.84,3.84,0,0,1,4.6-1.1l14.42,6.62a3.82,3.82,0,0,1,1.41,5.85l-50.47,64a3.82,3.82,0,0,1-5,.9l-13.56-8.24A3.84,3.84,0,0,1,1128.23,593.93Z" transform="translate(-114.2 -197.84)"/><path class="cls-4" d="M1210.89,536.34l-2-.9a5.09,5.09,0,0,1-.81,1.61l-75,97.18a5,5,0,0,1-3.48,1.92l4.27,2.6a4.89,4.89,0,0,0,6.41-1.19l72.38-93.8A4.88,4.88,0,0,0,1210.89,536.34Z" transform="translate(-114.2 -197.84)"/><path class="cls-10" d="M1072.6,481.07l.62-2.18a31.78,31.78,0,0,0-13.81-35.74l-9.25-5.74a92.26,92.26,0,0,0-120.33,20.32h0a42.49,42.49,0,0,0,6.26,59.74l24.35,19.73,96.23-38.48A27,27,0,0,0,1072.6,481.07Z" transform="translate(-114.2 -197.84)"/><path class="cls-14" d="M731.35,658.75h0v88.61c4.54,0,9,0,13.32-.09V658.21C740.25,658.56,735.81,658.75,731.35,658.75Z" transform="translate(-114.2 -197.84)"/><path class="cls-4" d="M969.91,565a28,28,0,0,0-30.18-9.84c-35.37,10.59-71.13,37.53-97.58,61.28a165.59,165.59,0,0,1-97.48,41.73A301.51,301.51,0,0,1,738,747.27c84.92-1.12,142.09-12.9,190.1-26.19a54.24,54.24,0,0,0,65.43,3h0a22.14,22.14,0,0,0,9.55-20c-1.19-15.5-2.61-40.32-9.45-67.22-1.56-6.13,2.53-17.19.51-23.3C988.3,595.91,980.43,578.75,969.91,565Z" transform="translate(-114.2 -197.84)"/><rect class="cls-6" x="921.75" y="709.31" width="2.53" height="13.98" transform="translate(-345.16 701.2) rotate(-46.81)"/><path class="cls-10" d="M1062.94,487c10.34,14.06,0,39.75,0,50.21s3.81,25.47,10.4,26.11c-13.84,6.55-31.88-25.41-31.88-25.41l2.22-55.35Z" transform="translate(-114.2 -197.84)"/><path class="cls-14" d="M1060.11,514.22c-.48,1.43-1,2.83-1.63,4.22L1068.74,547a2.57,2.57,0,0,1-1.29,2.83l-8,4.26-7.55,24c-3.3,10.09-13.52,17.13-23.07,12.49h0a89.19,89.19,0,0,1-45.55-51.78l-6.24-18.58c15.13-28.18,36.9-37.07,61.55-36.43C1054.12,484.19,1065.09,499.56,1060.11,514.22Z" transform="translate(-114.2 -197.84)"/><path class="cls-13" d="M1043.06,571h0a12.41,12.41,0,0,1-12.41-12.41v-2h24.82v2A12.41,12.41,0,0,1,1043.06,571Z" transform="translate(-114.2 -197.84)"/><path class="cls-10" d="M957.85,545.28c37.73,0,45.87-23.51,45.87-50.15s-67.63,22.34-67.63,22.34l2.52,20.43Z" transform="translate(-114.2 -197.84)"/><path class="cls-15" d="M957.85,546.56V544c30.84,0,44.59-15.08,44.59-48.88H1005C1005,517.21,1000.11,546.56,957.85,546.56Z" transform="translate(-114.2 -197.84)"/><path class="cls-14" d="M1130.55,621.58c-.78-5.62-4.2-12.36-10.72-20.43a2.46,2.46,0,0,1,.66-3.66l13.6-8a11,11,0,0,0,5.4-8.56,2.66,2.66,0,0,0-3.76-2.66l-25,13.06a7.38,7.38,0,0,0-4.31,6.58l1.59,34.5c-35.65,20-71.89,43.69-97.38,65.46a3.38,3.38,0,0,1-5.26-1.15l-36.2-77.59-44.53,40.08c22.86,29.06,43.83,61.39,72.44,87.93a10.16,10.16,0,0,0,13.37.34c34.9-24.05,67.19-48,91.51-71.56a260.24,260.24,0,0,1,44.11-34.39l8.56-5.3Z" transform="translate(-114.2 -197.84)"/><path class="cls-14" d="M1127.39,616.7l24.18-3.54a21.88,21.88,0,0,0,5.56-3.54l26.26-26.91-34.17,54.49-23.35,2.26Z" transform="translate(-114.2 -197.84)"/><path class="cls-10" d="M960.9,518.35c18.74-16.77,30.58-13.81,53.77-4.93.58.22,1.15.43,1.73.62,20.84,6.85,42.17-9.37,42.17-31.31V470H960.9Z" transform="translate(-114.2 -197.84)"/><path class="cls-15" d="M1058,493.79l-2.4-.87c3.7-10.19,4.26-17.09,1.79-22.37l2.32-1.08C1062.5,475.41,1062,482.91,1058,493.79Z" transform="translate(-114.2 -197.84)"/><circle class="cls-14" cx="997.66" cy="523.47" r="15.75" transform="translate(-207.78 45.38) rotate(-13.28)"/><path class="cls-16" d="M993.76,530.45a1.25,1.25,0,0,1-.86-.34A7.06,7.06,0,0,1,996.39,518a6.2,6.2,0,0,1,4.59,1,4.77,4.77,0,0,1,2,3,1.27,1.27,0,1,1-2.49.45,2.26,2.26,0,0,0-1-1.4,3.62,3.62,0,0,0-2.68-.56,4.52,4.52,0,0,0-2.24,7.75,1.27,1.27,0,0,1-.87,2.19Z" transform="translate(-114.2 -197.84)"/><path class="cls-17" d="M1038.39,526a1.31,1.31,0,0,1-.71-.21,1.28,1.28,0,0,1-.35-1.76,7,7,0,0,1,4.71-2.81,14.86,14.86,0,0,1,10.65,2.49,1.27,1.27,0,0,1-1.47,2.06,12.33,12.33,0,0,0-8.72-2.06,4.6,4.6,0,0,0-3.06,1.73A1.27,1.27,0,0,1,1038.39,526Z" transform="translate(-114.2 -197.84)"/><path class="cls-11" d="M274.76,581.2l17.65-31.75c66.75,32.36,129.87,84.67,168.39,147.8,40.17-18.07,104.64-36.4,155.25-43.63l10.79-7.12a82.44,82.44,0,0,1,90.47-.21l15.57,10.18v90.84H442.57A14.81,14.81,0,0,1,432,742.82Z" transform="translate(-114.2 -197.84)"/><rect class="cls-1" x="274.25" y="571.41" width="36.33" height="2.59" transform="translate(-464.42 351.91) rotate(-60.91)"/><path class="cls-1" d="M461.26,729.91a12.08,12.08,0,0,1-6.06-1.34C448.88,725,426.57,702,398.33,672.9c-39.45-40.68-88.55-91.3-104.77-99l1.11-2.34c16.64,7.92,65.92,58.73,105.51,99.56,27,27.82,50.3,51.85,56.29,55.22,5,2.82,16.09-.65,32.86-5.9,39.26-12.3,112.35-35.2,231.55-17.08l-.39,2.56c-118.61-18-191.32,4.75-230.39,17C477,727,467.68,729.91,461.26,729.91Z" transform="translate(-114.2 -197.84)"/><rect class="cls-4" x="605.11" y="452.82" width="2.59" height="96.65"/><path class="cls-4" d="M461.34,698.43l-1.07-2.36c17.78-8,40.44-16.14,65.54-23.54l.73,2.48C501.56,682.38,479,690.48,461.34,698.43Z" transform="translate(-114.2 -197.84)"/><path class="cls-15" d="M955.76,510.29a79.87,79.87,0,0,0-30.06-3.48l-.21-2.55a82.53,82.53,0,0,1,31,3.59Z" transform="translate(-114.2 -197.84)"/><path class="cls-15" d="M945,475l-2.27-1.19a38.48,38.48,0,0,1,37.88-20.55l6.87.65-.25,2.55-6.86-.65A35.89,35.89,0,0,0,945,475Z" transform="translate(-114.2 -197.84)"/><path class="cls-15" d="M735.27,644.09c-4.43-19.38.26-37.4,11.67-44.84l1.4,2.14c-10.52,6.86-14.77,23.79-10.58,42.13Z" transform="translate(-114.2 -197.84)"/><path class="cls-15" d="M801,611.78a38.33,38.33,0,0,1-11.11-1.64l.74-2.45a36.44,36.44,0,0,0,34.55-7.6l18.2-16.18,1.7,1.92L826.88,602A39,39,0,0,1,801,611.78Z" transform="translate(-114.2 -197.84)"/><rect class="cls-3" x="136.04" y="446.08" width="160.05" height="198.06" rx="80.03"/><rect class="cls-5" x="176.92" y="496.67" width="78.3" height="96.89" rx="39.15"/><path class="cls-3" d="M330.27,776.23a27.41,27.41,0,0,1-27.37-27.38V737.06a27.37,27.37,0,1,1,54.74,0v11.79A27.41,27.41,0,0,1,330.27,776.23Zm0-61.49A22.34,22.34,0,0,0,308,737.06v11.79a22.31,22.31,0,1,0,44.62,0V737.06A22.34,22.34,0,0,0,330.27,714.74Z" transform="translate(-114.2 -197.84)"/><rect class="cls-13" x="432.56" y="549.47" width="311" height="153.08"/><rect class="cls-1" x="432.56" y="549.47" width="311" height="153.08"/><g class="cls-18"><rect class="cls-19" x="439.45" y="815.03" width="175.42" height="1.27" transform="translate(-556.59 561.38) rotate(-53.79)"/><rect class="cls-19" x="489.48" y="815.03" width="175.42" height="1.27" transform="translate(-536.11 601.79) rotate(-53.8)"/><rect class="cls-19" x="539.5" y="815.03" width="175.42" height="1.27" transform="translate(-515.63 642.11) rotate(-53.79)"/><rect class="cls-19" x="589.53" y="815.03" width="175.42" height="1.27" transform="translate(-495.16 682.48) rotate(-53.79)"/><rect class="cls-19" x="639.56" y="815.03" width="175.42" height="1.27" transform="translate(-474.67 722.9) rotate(-53.8)"/><rect class="cls-19" x="689.59" y="815.03" width="175.42" height="1.27" transform="translate(-454.19 763.27) rotate(-53.8)"/><rect class="cls-19" x="739.62" y="815.03" width="175.42" height="1.27" transform="translate(-433.72 803.59) rotate(-53.79)"/><rect class="cls-19" x="789.65" y="815.03" width="175.42" height="1.27" transform="translate(-413.24 844.01) rotate(-53.8)"/></g><rect class="cls-19" x="432.56" y="687.76" width="311" height="1.27"/><rect class="cls-4" x="878.4" y="639.23" width="220.72" height="29.58"/><polygon class="cls-2" points="1089.88 611.22 888 611.22 878.4 647.93 1099.12 647.93 1089.88 611.22"/><rect class="cls-5" x="895.72" y="668.81" width="12.39" height="132.61"/><rect class="cls-4" x="908.11" y="668.81" width="12.39" height="132.61"/><rect class="cls-5" x="975.07" y="668.81" width="12.39" height="132.61"/><rect class="cls-4" x="987.45" y="668.81" width="12.39" height="132.61"/><rect class="cls-5" x="1054.41" y="668.81" width="12.39" height="132.61"/><rect class="cls-4" x="1066.8" y="668.81" width="12.39" height="132.61"/><path class="cls-4" d="M1171,802.9H1032.43a17.18,17.18,0,0,0-17.18,17.18h0a17.18,17.18,0,0,0,17.18,17.18H1171a17.18,17.18,0,0,0,17.18-17.18h0A17.18,17.18,0,0,0,1171,802.9Z" transform="translate(-114.2 -197.84)"/><path class="cls-3" d="M915.23,602.15h144.54A14.19,14.19,0,0,1,1074,616.34v3a17.18,17.18,0,0,1-17.18,17.18H918.23A17.18,17.18,0,0,1,901,619.34v-3A14.19,14.19,0,0,1,915.23,602.15Z"/><ellipse class="cls-20" cx="1060.11" cy="815.66" rx="28.64" ry="12.57" transform="translate(-179.25 -105.47) rotate(-4.84)"/><path class="cls-3" d="M1088.52,811c.39,6.94-12.07,13.57-27.84,14.8s-28.86-3.38-29.26-10.32,12.08-13.56,27.85-14.79S1088.13,804,1088.52,811Z" transform="translate(-114.2 -197.84)"/><ellipse class="cls-20" cx="1059.8" cy="810.15" rx="28.64" ry="12.57" transform="translate(-178.78 -105.52) rotate(-4.84)"/><path class="cls-21" d="M1088.09,803.29c.39,6.94-12.07,13.57-27.84,14.82s-28.87-3.35-29.26-10.29,11.3-15,27.07-16.28S1087.69,796.36,1088.09,803.29Z" transform="translate(-114.2 -197.84)"/><ellipse class="cls-20" cx="1142.7" cy="815.66" rx="28.64" ry="12.57" transform="translate(-178.95 -98.5) rotate(-4.84)"/><path class="cls-3" d="M1171.11,811c.39,6.94-12.08,13.57-27.84,14.8s-28.87-3.38-29.26-10.32,12.07-13.56,27.84-14.79S1170.72,804,1171.11,811Z" transform="translate(-114.2 -197.84)"/><ellipse class="cls-20" cx="1142.38" cy="810.15" rx="28.64" ry="12.57" transform="translate(-178.49 -98.55) rotate(-4.84)"/><path class="cls-21" d="M1170.67,803.29c.4,6.94-12.07,13.57-27.83,14.82s-28.87-3.35-29.27-10.29,11.31-15,27.07-16.28S1170.28,796.36,1170.67,803.29Z" transform="translate(-114.2 -197.84)"/><path class="cls-20" d="M1130.2,821.39c-1.51,6.78-15.31,9.76-30.82,6.66s-26.85-11.12-25.34-17.89,15.32-9.76,30.82-6.66S1131.72,814.61,1130.2,821.39Z" transform="translate(-114.2 -197.84)"/><ellipse class="cls-3" cx="1102.66" cy="813.38" rx="12.57" ry="28.64" transform="translate(-21.46 1541.55) rotate(-78.93)"/><ellipse class="cls-20" cx="1103.33" cy="810.39" rx="12.57" ry="28.64" transform="translate(-17.08 1540.77) rotate(-78.99)"/><path class="cls-21" d="M1132.41,811.51c-1.51,6.78-15.31,9.76-30.82,6.66s-26.86-11.12-25.34-17.89,15-11.38,30.49-8.27S1133.92,804.74,1132.41,811.51Z" transform="translate(-114.2 -197.84)"/><path class="cls-20" d="M1107.28,797.69c-.86,6.9-14.32,11.18-30,9.56s-27.79-8.5-26.93-15.4,14.32-11.17,30-9.56S1108.14,790.8,1107.28,797.69Z" transform="translate(-114.2 -197.84)"/><ellipse class="cls-3" cx="1079.1" cy="792.34" rx="12.57" ry="28.64" transform="translate(71.01 1591.1) rotate(-84.4)"/><ellipse class="cls-20" cx="1079.48" cy="789.29" rx="12.57" ry="28.64" transform="translate(75.35 1589.59) rotate(-84.45)"/><path class="cls-21" d="M1108.53,787.65c-.86,6.89-14.31,11.17-30,9.56s-27.79-8.51-26.93-15.4,13.83-12.75,29.56-11.14S1109.4,780.75,1108.53,787.65Z" transform="translate(-114.2 -197.84)"/><ellipse class="cls-20" cx="1120.7" cy="794.77" rx="12.57" ry="28.64" transform="translate(107.14 1635.58) rotate(-84.45)"/><ellipse class="cls-3" cx="1121.01" cy="792.34" rx="12.57" ry="28.64" transform="translate(108.83 1632.81) rotate(-84.4)"/><ellipse class="cls-20" cx="1121.39" cy="789.29" rx="12.57" ry="28.64" transform="translate(113.21 1631.31) rotate(-84.45)"/><path class="cls-21" d="M1150.45,787.65c-.87,6.89-14.32,11.17-30,9.56s-27.79-8.51-26.93-15.4,13.83-12.75,29.56-11.14S1151.31,780.75,1150.45,787.65Z" transform="translate(-114.2 -197.84)"/><path class="cls-20" d="M1059.59,791.39l-1.23-.26a31.36,31.36,0,0,1,16.58-21.25l.56,1.14A30,30,0,0,0,1059.59,791.39Z" transform="translate(-114.2 -197.84)"/><path class="cls-20" d="M1071.72,795.78l-1.26-.14a32.47,32.47,0,0,1,15.45-23.9l.65,1.09A31.18,31.18,0,0,0,1071.72,795.78Z" transform="translate(-114.2 -197.84)"/><path class="cls-20" d="M1084.18,797.5l-1.21-.36c2.1-7,4.71-15.75,10.84-21.49l.86.92C1088.79,782.08,1086.24,790.63,1084.18,797.5Z" transform="translate(-114.2 -197.84)"/><path class="cls-20" d="M1119.83,797.2l-2.59-5.24a55.38,55.38,0,0,0-6.35-10.74c-2-2.49-5.44-5.66-10-6.6l.25-1.24c4.93,1,8.56,4.39,10.73,7a56.61,56.61,0,0,1,6.51,11l2.59,5.24Z" transform="translate(-114.2 -197.84)"/><path class="cls-20" d="M1132.83,797.27A31.51,31.51,0,0,0,1117,771.36l.61-1.11a32.85,32.85,0,0,1,16.54,27Z" transform="translate(-114.2 -197.84)"/><path class="cls-20" d="M1143.54,793.76a36.61,36.61,0,0,0-4.1-14.09c-1.74-3.3-3.58-5.28-5.79-6.23l.5-1.16c2.49,1.07,4.52,3.23,6.41,6.8a38,38,0,0,1,4.25,14.58Z" transform="translate(-114.2 -197.84)"/><polygon class="cls-4" points="824.86 485.23 872.24 451.92 855.18 412.88 794.13 460.96 824.86 485.23"/><path class="cls-6" d="M938,683.79,923.11,662a14.45,14.45,0,0,0-16.41-5.65l-.77-2.41a17,17,0,0,1,19.27,6.63l14.9,21.8Z" transform="translate(-114.2 -197.84)"/><rect class="cls-6" x="976.65" y="608.93" width="2.53" height="42.61" transform="translate(-284.77 246.62) rotate(-23.61)"/><rect class="cls-1" x="432.56" y="698" width="5.57" height="18.2"/><rect class="cls-1" x="451.65" y="698" width="5.57" height="18.2"/><rect class="cls-1" x="470.74" y="698" width="5.57" height="18.2"/><rect class="cls-1" x="489.83" y="698" width="5.57" height="18.2"/><rect class="cls-1" x="508.91" y="698" width="5.57" height="18.2"/><rect class="cls-1" x="528" y="698" width="5.57" height="18.2"/><rect class="cls-1" x="547.09" y="698" width="5.57" height="18.2"/><rect class="cls-1" x="566.18" y="698" width="5.57" height="18.2"/><rect class="cls-1" x="585.27" y="698" width="5.57" height="18.2"/><rect class="cls-1" x="604.36" y="698" width="5.57" height="18.2"/><rect class="cls-1" x="623.45" y="698" width="5.57" height="18.2"/><rect class="cls-1" x="642.54" y="698" width="5.57" height="18.2"/><rect class="cls-1" x="661.62" y="698" width="5.57" height="18.2"/><rect class="cls-1" x="680.71" y="698" width="5.57" height="18.2"/><rect class="cls-1" x="699.8" y="698" width="5.57" height="18.2"/><rect class="cls-1" x="718.89" y="698" width="5.57" height="18.2"/><rect class="cls-1" x="737.98" y="698" width="5.57" height="18.2"/><path class="cls-22" d="M1169.59,388.8h-46.8A39.2,39.2,0,0,0,1083.58,428V443.8A39.21,39.21,0,0,0,1122.79,483h25.91l21.23,27.48V483h2.49v-.12a39.21,39.21,0,0,0,36.39-39.11V428A39.22,39.22,0,0,0,1169.59,388.8Z" transform="translate(-114.2 -197.84)"/><circle class="cls-10" cx="1004.37" cy="236.12" r="6.72"/><circle class="cls-10" cx="1032.95" cy="236.12" r="6.72"/><circle class="cls-10" cx="1061.53" cy="236.12" r="6.72"/><rect class="cls-4" x="140.36" y="798.8" width="1177.27" height="5.23"/><rect class="cls-4" x="94.75" y="798.8" width="31.66" height="5.23"/><rect class="cls-4" x="1335.98" y="798.8" width="31.66" height="5.23"/></svg>