<svg xmlns="http://www.w3.org/2000/svg" viewBox="0 0 1205.05 904.72"><defs><style>.cls-1{isolation:isolate;}.cls-2{fill:#757bff;}.cls-3{fill:#4d51d7;}.cls-4{fill:#393bb2;}.cls-5{fill:#f5968c;}.cls-6{fill:#fff;}.cls-7{fill:#1a145b;}.cls-8{fill:#f0567f;}.cls-9{fill:#e65e76;}.cls-10{fill:#8bd2fa;}.cls-11{fill:#ffbbb3;}.cls-12{fill:#000c2b;}.cls-13{fill:#0f2f87;}.cls-14{fill:#fbc299;}.cls-15{fill:#6d0000;}.cls-16{fill:#cd4b68;}.cls-17{fill:#fb7a9c;}.cls-18{fill:#6768bf;}.cls-19{fill:#d1d3fc;}.cls-20{opacity:0.4;mix-blend-mode:multiply;}.cls-21{fill:#1d0f4a;}</style></defs><title>Page2_Logininfo</title><g class="cls-1"><g id="Layer_1" data-name="Layer 1"><path class="cls-2" d="M1384.08,957.76a286.76,286.76,0,0,1-86.29,92.21h-388c-18-11-36-21.68-55-29.87-76.05-32.75-160.07-22.75-239.52-9.2S454,1041,374.89,1020,219.41,928.53,215.24,839.71c-4.33-92.29,67-167.68,74.08-259.36,7.16-92.79-51.81-193.82-12.8-275.4,30-62.67,62.81-73.21,127.77-78.38,105.67-8.44,210.08,62.62,315.33,50.36,118.63-13.83,277.14-122.54,396.51-128.67,59.26-3,124.2,3.87,169.38,47.9,30.77,30,55.45,70.72,62.86,114.68,26,154-48.95,161.87-69.53,268.3C1255.2,701.33,1464.36,821,1384.08,957.76Z" transform="translate(-197.47 -147.64)"/><path class="cls-3" d="M1214.45,314.19H893.58V235.07h320.87Zm-314.85-6h308.84V241.09H899.6Z" transform="translate(-197.47 -147.64)"/><polygon class="cls-3" points="508.72 166.55 187.85 166.55 187.85 87.43 305.76 87.43 305.76 93.44 193.86 93.44 193.86 160.54 502.7 160.54 502.7 132.13 508.72 132.13 508.72 166.55"/><path class="cls-3" d="M1248.06,485.15H336.35a41.34,41.34,0,0,1-41.28-41.29V272.12h6V443.86a35.31,35.31,0,0,0,35.27,35.27h911.71a35.31,35.31,0,0,0,35.27-35.27V198.79h6V443.86A41.34,41.34,0,0,1,1248.06,485.15Z" transform="translate(-197.47 -147.64)"/><rect class="cls-3" x="747.29" y="48.14" width="341.57" height="6.01"/><rect class="cls-3" x="602.51" y="110.1" width="6.01" height="224.4"/><path class="cls-4" d="M1187.87,634.12l63.15,38.8a170.13,170.13,0,0,1,81.07,145V957.49c0,35.45-36.35,59.27-68.85,45.12l-1.08-.47v48.53h-158V693.8Z" transform="translate(-197.47 -147.64)"/><path class="cls-5" d="M1208.16,918.84c-32-9.94-71.61-21.67-86.45-23.7L1108.08,904l-8.37-2.54,19.13-12.11a39.59,39.59,0,0,1,42.17-.08Z" transform="translate(-197.47 -147.64)"/><rect class="cls-6" x="974.74" y="702.3" width="60.03" height="15.76"/><path class="cls-4" d="M1020.43,634.12,904.77,705.19a59.91,59.91,0,0,0-28.56,51.06V957.38a49.21,49.21,0,0,0,66.83,46l3.1-1.19v48.53h158V693.8Z" transform="translate(-197.47 -147.64)"/><rect class="cls-7" x="904.8" y="806.37" width="3.75" height="96.65"/><polygon class="cls-3" points="822.96 486.48 790 616.08 836.82 630.55 803.07 659.49 906.68 747.5 906.68 507.58 822.96 486.48"/><polygon class="cls-3" points="990.39 486.48 1023.35 616.08 976.53 630.55 1010.29 659.49 906.68 747.5 906.68 507.58 990.39 486.48"/><path class="cls-6" d="M1104.16,667.28V895.14q-12.5-23.5-22.93-47.72h0c-22.88-53.31-37.71-109.37-42.11-169Z" transform="translate(-197.47 -147.64)"/><path class="cls-6" d="M1169.18,678.38c-4.38,59.66-19.23,115.74-42.09,169q-10.38,24.24-22.93,47.72V667.28Z" transform="translate(-197.47 -147.64)"/><path class="cls-8" d="M1116.25,679.09h-24.2l-10.82,168.32h0q10.38,24.24,22.93,47.72,12.49-23.5,22.93-47.72Z" transform="translate(-197.47 -147.64)"/><path class="cls-9" d="M1095.31,695.3H1113a17.48,17.48,0,0,0,17.49-17.48h0A17.49,17.49,0,0,0,1113,660.34h-17.68a17.48,17.48,0,0,0-17.48,17.48h0A17.47,17.47,0,0,0,1095.31,695.3Z" transform="translate(-197.47 -147.64)"/><rect class="cls-7" x="942.09" y="975.06" width="165.81" height="3.75" transform="translate(-443.07 204.3) rotate(-17.43)"/><path class="cls-7" d="M967.15,930.47a14.63,14.63,0,0,1-14.57-14.65V839.68h3.75v76.14a10.86,10.86,0,0,0,14.19,10.37c34.76-11.14,96-30.22,115.69-32.91l.69-.09,18.21,11.88-2,3.14-17-11.12c-20.91,3.12-86.78,23.83-114.37,32.67A14.69,14.69,0,0,1,967.15,930.47Z" transform="translate(-197.47 -147.64)"/><path class="cls-5" d="M1121.71,895.14l-31.44-7.72a67.27,67.27,0,0,0-49.73,7.78L1004.14,917a17.64,17.64,0,0,0-8.25,18.55l.12.6,62.62.16Z" transform="translate(-197.47 -147.64)"/><path class="cls-5" d="M1064,886.6l-47.32,14.08a4.79,4.79,0,0,0-3.41,5h0a4.79,4.79,0,0,0,5.45,4.3l45.28-6.44Z" transform="translate(-197.47 -147.64)"/><path class="cls-7" d="M1261.7,1003.58l-209-65.68,68.55-44.71.69.09c19.65,2.68,80.92,21.77,115.69,32.91a10.88,10.88,0,0,0,14.2-10.36V839.68h3.75v76.15a14.63,14.63,0,0,1-19.09,13.93c-27.59-8.84-93.48-29.56-114.37-32.67l-60.73,39.61L1262.82,1000Z" transform="translate(-197.47 -147.64)"/><polygon class="cls-10" points="855.03 462.96 822.96 486.48 855.03 562.43 906.68 524.45 906.68 490.09 855.03 462.96"/><polygon class="cls-10" points="958.33 462.96 990.39 486.48 958.33 562.43 906.68 524.45 906.68 490.09 958.33 462.96"/><path class="cls-5" d="M857.84,402.33h97.67a0,0,0,0,1,0,0v66.43a48.84,48.84,0,0,1-48.84,48.84h0a48.84,48.84,0,0,1-48.84-48.84V402.33A0,0,0,0,1,857.84,402.33Z"/><circle class="cls-5" cx="822.96" cy="353.58" r="24.34"/><circle class="cls-5" cx="991.06" cy="353.58" r="24.34"/><path class="cls-11" d="M817.06,267.59H996.3a0,0,0,0,1,0,0V389.39A89.62,89.62,0,0,1,906.68,479h0a89.62,89.62,0,0,1-89.62-89.62V267.59A0,0,0,0,1,817.06,267.59Z"/><path class="cls-7" d="M1078.21,512.12h-5a9.86,9.86,0,1,0-19.72,0h-5a14.84,14.84,0,0,1,29.68,0Z" transform="translate(-197.47 -147.64)"/><path class="cls-7" d="M1150.89,512.12h-5a9.87,9.87,0,1,0-19.73,0h-5a14.84,14.84,0,1,1,29.67,0Z" transform="translate(-197.47 -147.64)"/><path class="cls-12" d="M1160.13,415.64h0a186.6,186.6,0,0,0-112,0h0a88,88,0,0,0-44,31.15h0l15.35,17.38a88.53,88.53,0,0,0,66.36,29.94h36.52a88.53,88.53,0,0,0,66.36-29.94l15.35-17.38h0A88,88,0,0,0,1160.13,415.64Z" transform="translate(-197.47 -147.64)"/><path class="cls-4" d="M1195.38,339.42c-6-8.32-15-13.16-24.46-13.16H1037.38c-9.5,0-18.49,4.84-24.46,13.16l-26.66,37.11a39.07,39.07,0,0,0-.24,44.32l18.16,25.94h0a307,307,0,0,1,199.94,0h0l18.16-25.94a39.07,39.07,0,0,0-.24-44.32Z" transform="translate(-197.47 -147.64)"/><path class="cls-6" d="M1129.38,347.54l-15.7,2.68a10.29,10.29,0,0,0-8.41,11.87l.17,1,7.9-1.35a20.3,20.3,0,0,0,15.76-13.38Z" transform="translate(-197.47 -147.64)"/><path class="cls-6" d="M1079.3,347.54l15.71,2.68a10.29,10.29,0,0,1,8.41,11.87l-.17,1-7.91-1.35a20.3,20.3,0,0,1-15.76-13.38Z" transform="translate(-197.47 -147.64)"/><path class="cls-10" d="M1107.41,355.28v-9.07H1105a4,4,0,0,0-4,4v4.89a7.25,7.25,0,1,0,6.41.14Z" transform="translate(-197.47 -147.64)"/><circle class="cls-6" cx="1104.06" cy="376.83" r="17.6" transform="translate(-254.52 116.1) rotate(-13.28)"/><circle class="cls-10" cx="1104.06" cy="376.83" r="11.56" transform="translate(-254.52 116.1) rotate(-13.28)"/><path class="cls-6" d="M1098.32,376.83a5.94,5.94,0,1,0,5.94-5.94A5.94,5.94,0,0,0,1098.32,376.83Z" transform="translate(-197.47 -147.64)"/><path class="cls-10" d="M1204.12,446.79h0a88,88,0,0,0-44-31.15h0a186.6,186.6,0,0,0-112,0h0a88,88,0,0,0-44,31.15h0A307,307,0,0,1,1204.12,446.79Z" transform="translate(-197.47 -147.64)"/><circle class="cls-6" cx="1127.01" cy="1000.94" r="11.48" transform="translate(-575.15 942.44) rotate(-45)"/><path class="cls-5" d="M1105.25,546.32h-7a13.63,13.63,0,0,1-13.61-13.61h4.81a8.8,8.8,0,0,0,8.8,8.79h7Z" transform="translate(-197.47 -147.64)"/><path class="cls-7" d="M1104.51,582.6l-1.34,0c-13-.34-24.3-5.59-31.14-14.39l3.93-3.05c5.92,7.62,15.89,12.16,27.34,12.47,11.86.31,22.7-3.94,29.14-11.38l3.76,3.26C1129.05,577.75,1117.28,582.6,1104.51,582.6Z" transform="translate(-197.47 -147.64)"/><path class="cls-5" d="M290,567.76h0a442,442,0,0,0,40.17-92l4.6-15a9.19,9.19,0,0,0-4.44-10.79h0a7.92,7.92,0,0,0-10.47,2.77l-26.25,41.94L278.17,399.3a7.66,7.66,0,0,0-9.1-6.28h0a7.67,7.67,0,0,0-6.12,8l2.95,50.42-12.1-60.28a8.81,8.81,0,0,0-10.53-6.88h0a8.81,8.81,0,0,0-6.83,9.95l10.09,65.55L229.32,406a6.5,6.5,0,0,0-7.63-4.37h0a6.51,6.51,0,0,0-4.94,7.7l11.89,56.07-17.28-41.81a7.22,7.22,0,0,0-10.06-3.62h0a7.22,7.22,0,0,0-3.64,8L219.41,522,235.66,580Z" transform="translate(-197.47 -147.64)"/><path class="cls-11" d="M260.65,532.44l-4.12-.63a45.75,45.75,0,0,1,27.57-35.4l8.73-3.69,1.62,3.84-8.73,3.69A41.61,41.61,0,0,0,260.65,532.44Z" transform="translate(-197.47 -147.64)"/><path class="cls-4" d="M435.58,666.23,302.69,749.58a2.52,2.52,0,0,1-3.86-2.14v-200H225.06V795.72a58.07,58.07,0,0,0,76.19,55.18l85.64-28.11v227.88H534.12V661.17Z" transform="translate(-197.47 -147.64)"/><rect class="cls-13" x="385.93" y="818.32" width="17.72" height="3.74" transform="translate(-433.5 16.31) rotate(-18.16)"/><path class="cls-4" d="M681.35,822.79V1050H534.12V661.17l98.53,5.06L769.4,752l50.32,298H724s-9.57-125-28.38-183.19Z" transform="translate(-197.47 -147.64)"/><rect class="cls-7" x="334.77" y="513.53" width="3.75" height="385.74"/><polygon class="cls-5" points="289.42 511.47 380.19 511.47 380.19 401.93 293.32 401.93 289.42 511.47"/><path class="cls-5" d="M243.4,332.55h5.14a0,0,0,0,1,0,0v46.66a0,0,0,0,1,0,0H243.4a23.33,23.33,0,0,1-23.33-23.33v0A23.33,23.33,0,0,1,243.4,332.55Z"/><path class="cls-5" d="M645,480.19h5.14a0,0,0,0,1,0,0v46.66a0,0,0,0,1,0,0H645a23.33,23.33,0,0,1-23.33-23.33v0A23.33,23.33,0,0,1,645,480.19Z" transform="translate(1074.39 859.4) rotate(-180)"/><rect class="cls-11" x="248.64" y="230.53" width="176.53" height="243.55" rx="88.27"/><rect class="cls-14" x="320.14" y="451.93" width="27.11" height="2.5"/><path class="cls-12" d="M505,315.45h0l52.24,29.78a62.27,62.27,0,0,1,23.25,84.93h0L528.2,400.37A62.26,62.26,0,0,1,505,315.45Z" transform="translate(-197.47 -147.64)"/><path class="cls-12" d="M603.13,345.64l-59.44-33.88a70.44,70.44,0,0,0-8.8,42.8h-38.6a63.77,63.77,0,0,0-63.77,63.78v54.91h6.2v45.19A21.26,21.26,0,0,0,460,497.18V462.8a120.58,120.58,0,0,0,114.86-51.75l54.73,31.21A70.83,70.83,0,0,0,603.13,345.64Z" transform="translate(-197.47 -147.64)"/><rect class="cls-4" x="298.82" y="204.43" width="38.59" height="4.97"/><path class="cls-4" d="M536,371.08a73.31,73.31,0,0,1,5.5-60.56l4.33,2.47a68.34,68.34,0,0,0-5.13,56.45Z" transform="translate(-197.47 -147.64)"/><path class="cls-12" d="M567.79,388.71H507.65A62.26,62.26,0,0,0,569.91,451h38.88v46.21a21.26,21.26,0,0,0,21.26,21.26V451A62.27,62.27,0,0,0,567.79,388.71Z" transform="translate(-197.47 -147.64)"/><path class="cls-4" d="M632.53,451h-5a59.83,59.83,0,0,0-59.77-59.77v-5A64.82,64.82,0,0,1,632.53,451Z" transform="translate(-197.47 -147.64)"/><path class="cls-4" d="M569.91,453.46a64.82,64.82,0,0,1-64.74-64.75h5a59.84,59.84,0,0,0,59.77,59.77Z" transform="translate(-197.47 -147.64)"/><path class="cls-5" d="M537.86,545h-5.43A10.52,10.52,0,0,1,522,533.62l1.55-17.71,4.8.42L526.76,534a5.69,5.69,0,0,0,5.67,6.19h5.43Z" transform="translate(-197.47 -147.64)"/><rect class="cls-6" x="586.39" y="485.2" width="49.31" height="3.75" transform="translate(-300.09 21.15) rotate(-14.52)"/><rect class="cls-6" x="450.82" y="463.78" width="3.75" height="45.06" transform="translate(-347.23 618.82) rotate(-71.99)"/><rect class="cls-6" x="320.62" y="345.27" width="25.12" height="3.75"/><path class="cls-12" d="M500.93,503.59v-4.73a5.12,5.12,0,0,0-10.24,0v4.73c0,.09,0,.17,0,5.43H500.9C500.91,503.76,500.93,503.68,500.93,503.59Z" transform="translate(-197.47 -147.64)"/><path class="cls-12" d="M566,503.59v-4.73a5.12,5.12,0,0,0-10.23,0v4.73c0,.09,0,.17,0,5.43H566C566,503.76,566,503.68,566,503.59Z" transform="translate(-197.47 -147.64)"/><rect class="cls-7" x="482.5" y="471.09" width="25.47" height="3.75" transform="translate(-289.37 -27.14) rotate(-12.71)"/><rect class="cls-7" x="562.43" y="460.23" width="3.75" height="25.47" transform="translate(-218.91 771.46) rotate(-77.26)"/><path class="cls-6" d="M497.58,526.71a25.33,25.33,0,1,1,25.33-25.33A25.36,25.36,0,0,1,497.58,526.71Zm0-46.92a21.59,21.59,0,1,0,21.58,21.59A21.61,21.61,0,0,0,497.58,479.79Z" transform="translate(-197.47 -147.64)"/><path class="cls-6" d="M564.31,526.71a25.33,25.33,0,1,1,25.33-25.33A25.36,25.36,0,0,1,564.31,526.71Zm0-46.92a21.59,21.59,0,1,0,21.58,21.59A21.61,21.61,0,0,0,564.31,479.79Z" transform="translate(-197.47 -147.64)"/><path class="cls-6" d="M534.17,656.05V876.31q12.08-22.71,22.16-46.12h0c22.12-51.53,36.45-105.73,40.7-163.39Z" transform="translate(-197.47 -147.64)"/><path class="cls-6" d="M471.32,666.79c4.23,57.66,18.58,111.87,40.68,163.4q10,23.43,22.17,46.12V656.05Z" transform="translate(-197.47 -147.64)"/><rect class="cls-8" x="309.91" y="514.41" width="52.65" height="34.96" rx="17.48"/><path class="cls-8" d="M545.81,660.27h-24.2L510.79,828.58v0q10.38,24.24,22.93,47.71,12.49-23.49,22.93-47.71Z" transform="translate(-197.47 -147.64)"/><polygon class="cls-10" points="386.63 477.63 417.63 500.36 386.63 553.94 336.7 517.23 336.7 503.86 386.63 477.63"/><polygon class="cls-10" points="286.77 477.63 255.77 500.36 286.77 553.94 336.7 517.23 336.7 503.86 286.77 477.63"/><polygon class="cls-3" points="402.29 484.48 454.8 526.82 402.47 590.5 417.63 614.47 336.76 729.31 402.29 484.48"/><polygon class="cls-3" points="271.11 484.48 218.6 526.82 270.93 590.5 255.77 614.47 336.64 729.31 271.11 484.48"/><rect class="cls-6" x="399.56" y="669.51" width="60.03" height="15.76"/><circle class="cls-6" cx="560.04" cy="1000.94" r="11.48" transform="translate(-412.46 7.8) rotate(-13.28)"/><circle class="cls-6" cx="362.56" cy="784.43" r="11.48"/><path class="cls-6" d="M534.23,589.19c22.34,0,40.45-15.76,40.45-35.21h-80.9C493.78,573.43,511.89,589.19,534.23,589.19Z" transform="translate(-197.47 -147.64)"/><path class="cls-11" d="M677.23,683.81c-22,68.43-35,135.43-37.77,200.77l-132-113.76-38.88,17.82L604.11,948.11c23.7,27.87,68.09,22.85,85-9.61L743.38,834,708.27,699.77Z" transform="translate(-197.47 -147.64)"/><polygon class="cls-14" points="467.89 760.4 440.08 736.43 441.71 734.54 469.53 758.51 467.89 760.4"/><path class="cls-11" d="M1017.34,694.27l49.1,219.12a81.93,81.93,0,0,1,1.55,26.22l-11.33,111.06H995.78l1.27-140.79L959,784.32Z" transform="translate(-197.47 -147.64)"/><path class="cls-14" d="M1056.7,948.58A20.81,20.81,0,0,1,1042.1,927l.91-10.3,2.49.22-.91,10.3a18.29,18.29,0,0,0,12.84,19Z" transform="translate(-197.47 -147.64)"/><rect class="cls-5" x="596.55" y="412.62" width="90.96" height="90.96"/><circle class="cls-12" cx="573.03" cy="319.38" r="61.5"/><circle class="cls-5" cx="541.51" cy="355.03" r="21.03"/><path class="cls-11" d="M604.17,246.5h96.42a0,0,0,0,1,0,0V400.55A80.58,80.58,0,0,1,620,481.13h0a80.58,80.58,0,0,1-80.58-80.58V311.24A64.74,64.74,0,0,1,604.17,246.5Z"/><path class="cls-12" d="M733.42,481.62c29.09,0,16.84-22.08,72.73-39.26,26.25-8.07-86.51-2.84-86.51-2.84Z" transform="translate(-197.47 -147.64)"/><path class="cls-5" d="M840.46,543.42a4.32,4.32,0,1,0,4.32-4.31A4.32,4.32,0,0,0,840.46,543.42Z" transform="translate(-197.47 -147.64)"/><path class="cls-5" d="M803.71,538.34h-6.92a8.86,8.86,0,0,1-8.79-10l2.69-20.85,4.77.62L792.77,529a4.05,4.05,0,0,0,4,4.58h6.92Z" transform="translate(-197.47 -147.64)"/><path class="cls-12" d="M792.66,415c95.81,0,54.41,126.81,97.76,172.19a14.9,14.9,0,0,0,15.35,4.12c28.51-9.5,33.87-65.11,37-119.47,3.41-59.69-50-56.84-50-56.84Z" transform="translate(-197.47 -147.64)"/><path class="cls-4" d="M917.23,499.17l-5-.24c1.39-28.23-15.44-40.92-15.61-41l2.94-4C900.37,454.45,918.75,468.3,917.23,499.17Z" transform="translate(-197.47 -147.64)"/><path class="cls-6" d="M808.79,594.5c22.34,0,40.45-15.77,40.45-35.22h-80.9C768.34,578.73,786.45,594.5,808.79,594.5Z" transform="translate(-197.47 -147.64)"/><path class="cls-12" d="M773.79,510h0a9.2,9.2,0,0,1-9.2-9.2v-9.2h9.2a9.2,9.2,0,0,1,9.2,9.2h0A9.2,9.2,0,0,1,773.79,510Z" transform="translate(-197.47 -147.64)"/><path class="cls-12" d="M753.79,487c5,2.94,15.12,5.88,22,6.21a3.25,3.25,0,0,1,2.17,5.56c-3.79,3.54-9.66,3-13.8,1.65C755.29,497.58,753.79,487,753.79,487Z" transform="translate(-197.47 -147.64)"/><path class="cls-12" d="M833.15,510h0a9.2,9.2,0,0,0,9.2-9.2v-9.2h-9.2a9.19,9.19,0,0,0-9.19,9.2h0A9.19,9.19,0,0,0,833.15,510Z" transform="translate(-197.47 -147.64)"/><path class="cls-12" d="M853.16,487c-5,2.94-15.13,5.88-22,6.21a3.25,3.25,0,0,0-2.18,5.56c3.79,3.54,9.66,3,13.8,1.65C851.65,497.58,853.16,487,853.16,487Z" transform="translate(-197.47 -147.64)"/><circle class="cls-11" cx="712.17" cy="351.41" r="21.03"/><path class="cls-4" d="M723.54,477c-2.88-2.07-3.57-5.64-3.84-8.15C718.77,460,721,448.31,730,442.08l2.83,4.09c-7.21,5-8.94,14.7-8.15,22.12.26,2.44.84,4,1.79,4.64Z" transform="translate(-197.47 -147.64)"/><path class="cls-4" d="M907.74,579.34l-4.4-2.32c2.32-4.39-.51-9.94-1.83-12.12-.92-1.53-2-3-3.08-4.53a42.89,42.89,0,0,1-5.3-8.78c-2.29-5.6-1.85-13.23,3.43-17l2.87,4.06c-3.12,2.21-3.21,7.33-1.7,11a38.65,38.65,0,0,0,4.73,7.75c1.12,1.56,2.28,3.16,3.31,4.86C909.49,568.47,910.2,574.67,907.74,579.34Z" transform="translate(-197.47 -147.64)"/><path class="cls-4" d="M932.62,470.72a41.62,41.62,0,0,1-5.87-19.42c-.33-7.12,2.22-12.54,6.83-14.51l1.95,4.58c-3.08,1.31-4,5.87-3.81,9.69a36.6,36.6,0,0,0,5.17,17.1Z" transform="translate(-197.47 -147.64)"/><path class="cls-8" d="M899.72,354.87c-48.52-18.76-95-30.71-138.79-33.42a27.62,27.62,0,0,0-28.85,22.91L714,448.83H936.64V409A57.94,57.94,0,0,0,899.72,354.87Z" transform="translate(-197.47 -147.64)"/><circle class="cls-15" cx="580.1" cy="227.9" r="21.21"/><circle class="cls-6" cx="777.58" cy="375.54" r="15.08" transform="translate(-262.96 41.05) rotate(-13.28)"/><path class="cls-15" d="M837.13,410.61l-2.46-.39.64-4.1a74.29,74.29,0,0,0-37.18-76.25l-1.72-.95,1.21-2.19,1.72,1a76.8,76.8,0,0,1,38.44,78.82Z" transform="translate(-197.47 -147.64)"/><polygon class="cls-16" points="511.17 301.19 744.47 301.19 744.47 262.78 518.16 262.78 511.17 301.19"/><rect class="cls-15" x="518.16" y="279.69" width="226.31" height="2.5"/><ellipse class="cls-12" cx="699.25" cy="351.41" rx="11.74" ry="31.02"/><path class="cls-14" d="M913.63,513a7.45,7.45,0,0,1-1.4-.13,1.25,1.25,0,0,1,.47-2.46c3.45.65,6.74-2.55,7.38-5.86.85-4.36-1.62-8.52-3.16-10.61a1.24,1.24,0,0,1,2-1.48c3.1,4.18,4.38,8.64,3.62,12.56S918,513,913.63,513Z" transform="translate(-197.47 -147.64)"/><circle class="cls-6" cx="719.51" cy="372.44" r="9.86"/><path class="cls-8" d="M782.7,647.34s-53.27,3.8-118,34.24l49.46,111.5,26.64,257.59H844.78V649.77Z" transform="translate(-197.47 -147.64)"/><path class="cls-8" d="M906.85,647.34s53.27,3.8,118,34.24l-49.47,111.5L959,1050.67H844.78V649.77Z" transform="translate(-197.47 -147.64)"/><rect class="cls-17" x="637.69" y="502.13" width="3.75" height="400.9"/><circle class="cls-6" cx="616.94" cy="686.91" r="11.41"/><circle class="cls-6" cx="616.94" cy="845.18" r="11.41"/><circle class="cls-6" cx="616.94" cy="766.04" r="11.41"/><path class="cls-6" d="M782.7,647.34A228.45,228.45,0,0,0,760,650.59c8.22,50.18,42.88,82.36,84.76,109.63V649.77Z" transform="translate(-197.47 -147.64)"/><path class="cls-11" d="M770.5,648.83c15.5,24.59,39,35,74.28,32.63V649.77l-62.08-2.43S778.29,647.66,770.5,648.83Z" transform="translate(-197.47 -147.64)"/><path class="cls-6" d="M906.85,647.34a228.36,228.36,0,0,1,22.69,3.25c-8.23,50.18-42.89,82.36-84.76,109.63V649.77Z" transform="translate(-197.47 -147.64)"/><path class="cls-11" d="M919.05,648.83c-15.5,24.59-39,35-74.27,32.63V649.77l62.07-2.43S911.26,647.66,919.05,648.83Z" transform="translate(-197.47 -147.64)"/><rect class="cls-6" x="682.77" y="660.77" width="56.04" height="14.72"/><path class="cls-11" d="M468.56,788.64,363.1,764a20.78,20.78,0,0,1-16.05-20.24h129.8a29.88,29.88,0,0,1,28.31,20.32l2.28,6.77Z" transform="translate(-197.47 -147.64)"/><path class="cls-14" d="M472.12,751l-2.44-1A72.57,72.57,0,0,0,443,745H431v-2.5H443a75.06,75.06,0,0,1,27.63,5.25l2.44,1Z" transform="translate(-197.47 -147.64)"/><path class="cls-4" d="M898.12,648.15c-35.77,21-75.22,21.56-119.1,0v0a13.13,13.13,0,0,1,15.38-13,247.67,247.67,0,0,0,88.35,0,13.12,13.12,0,0,1,15.37,13Z" transform="translate(-197.47 -147.64)"/><ellipse class="cls-4" cx="863.37" cy="721.43" rx="75.84" ry="27.6" transform="translate(-298.47 1153.32) rotate(-70.89)"/><ellipse class="cls-4" cx="916.22" cy="712.33" rx="24.09" ry="66.21" transform="translate(-380.21 191.65) rotate(-19.11)"/><path class="cls-3" d="M886.71,677.77h0a21.55,21.55,0,0,0,21.55-21.55h0a21.55,21.55,0,0,0-21.55-21.56h0a21.56,21.56,0,0,0-21.56,21.56h0A21.55,21.55,0,0,0,886.71,677.77Z" transform="translate(-197.47 -147.64)"/><path class="cls-8" d="M720.67,774.89,701,857.51a51.37,51.37,0,0,0,40.7,62.4l13,2.39" transform="translate(-197.47 -147.64)"/><path class="cls-17" d="M741.38,921.75a53.24,53.24,0,0,1-42.18-64.68l3.65.87a49.48,49.48,0,0,0,39.2,60.12Z" transform="translate(-197.47 -147.64)"/><path class="cls-17" d="M909.75,922.61h-14.2v-3.74h14.2a26.83,26.83,0,0,0,26.8-26.8h3.74A30.57,30.57,0,0,1,909.75,922.61Z" transform="translate(-197.47 -147.64)"/><path class="cls-18" d="M97.41,566.25H371.28a0,0,0,0,1,0,0v5.84a27.21,27.21,0,0,1-27.21,27.21H124.62a27.21,27.21,0,0,1-27.21-27.21v-5.84a0,0,0,0,1,0,0Z"/><path class="cls-19" d="M547.53,695.43H316.11a21.23,21.23,0,0,0-21.23,21.23h0a21.22,21.22,0,0,0,21.23,21.23H547.53a21.23,21.23,0,0,0,21.23-21.23h0A21.24,21.24,0,0,0,547.53,695.43Z" transform="translate(-197.47 -147.64)"/><path class="cls-4" d="M554.17,710.94c.07,16.58-24.13,22.2-49,19.66s-43.12-10.79-40.95-28.87c1.31-10.89,21.69-10.43,46.52-7.89S554.13,700,554.17,710.94Z" transform="translate(-197.47 -147.64)"/><path class="cls-18" d="M554.17,710.94c-1.36,10.88-22.59,17.63-47.42,15.09s-43.85-13.43-42.49-24.3,21.82-20.12,46.65-17.58S555.53,700.06,554.17,710.94Z" transform="translate(-197.47 -147.64)"/><path class="cls-4" d="M525.13,694.52c.11-.68.77-1.3.53-1.94a4.56,4.56,0,0,0-.38-.59c-.51-.88.41-2,1.42-2.17a3,3,0,0,1,2.53,1.13,5.2,5.2,0,0,1,1,2.67,2.46,2.46,0,0,1-.51,2.1,2.5,2.5,0,0,1-1.33.54,3.83,3.83,0,0,1-2.15-.06A1.68,1.68,0,0,1,525.13,694.52Z" transform="translate(-197.47 -147.64)"/><path class="cls-4" d="M474.15,701.33c-.9-.51.63-3.56.63-3.56a1.45,1.45,0,0,1,.9-1.1l3.15-1.26a1.46,1.46,0,0,1,1.84.67l.65,1.23a1.46,1.46,0,0,1-1.17,2.15l-1.91.16a1.31,1.31,0,0,0-.47.12S475.05,701.85,474.15,701.33Z" transform="translate(-197.47 -147.64)"/><path class="cls-4" d="M545.11,701.44c.53-.89,3.54.7,3.54.7a1.48,1.48,0,0,1,1.09.92l1.2,3.18a1.46,1.46,0,0,1-.71,1.83l-1.25.62a1.46,1.46,0,0,1-2.12-1.21l-.12-1.91a1.53,1.53,0,0,0-.11-.47S544.58,702.33,545.11,701.44Z" transform="translate(-197.47 -147.64)"/><path class="cls-4" d="M501.46,689.42l3.51-1.9a1.56,1.56,0,0,1,2.06.53l1.29,2a1.58,1.58,0,0,1-1,2.4l-4.29.86a1.58,1.58,0,0,1-1.69-.8l-.5-.93A1.58,1.58,0,0,1,501.46,689.42Z" transform="translate(-197.47 -147.64)"/><path class="cls-4" d="M492.71,713.55l-.48-1.79a1.79,1.79,0,0,1,0-.83l.53-2.4a1.76,1.76,0,0,1,2.19-1.31l2,.55a1.72,1.72,0,0,1,1.18,1.09l1.07,2.93a1.76,1.76,0,0,1-1.25,2.31l-3.09.71A1.74,1.74,0,0,1,492.71,713.55Z" transform="translate(-197.47 -147.64)"/><path class="cls-4" d="M526.28,716.92l-.11-2.23a1.86,1.86,0,0,0-.24-.79s-1.72-1.2-1.64-2.77,1.92-1,1.92-1a1.72,1.72,0,0,1,1.71.1l3.29,2.13a1.71,1.71,0,0,1,.74,1.8l-.69,3.25a1.73,1.73,0,0,1-2,1.34l-1.58-.25A1.72,1.72,0,0,1,526.28,716.92Z" transform="translate(-197.47 -147.64)"/><g class="cls-20"><path class="cls-4" d="M483.33,705.31l-1.58-2.51L483,702a3.71,3.71,0,0,1,2.23-.7l.25,0a5.77,5.77,0,0,1,2.79-1.67,7.42,7.42,0,0,0,.28-1.55l3,.23a11.06,11.06,0,0,1-.76,3.21l-.36.9-1,0a2.46,2.46,0,0,0-1.74.82,2.69,2.69,0,0,1-1.4,1,2.73,2.73,0,0,1-1.2,0h0a1.38,1.38,0,0,0-.51.23Z" transform="translate(-197.47 -147.64)"/><path class="cls-4" d="M518.77,696.4l-3,0c0-.48,0-1,.05-1.45a3.55,3.55,0,0,1-.7-.64l-1.25-1.49,1.77-.81.09-.41,2.22-2a3.22,3.22,0,0,1,.69,2.79c0,.14-.07.27-.11.4l.36.1-.07,1.2C518.81,694.86,518.78,695.63,518.77,696.4Z" transform="translate(-197.47 -147.64)"/><path class="cls-4" d="M508.33,716.79a2.61,2.61,0,0,1,1.24-2.87l.54-.32a2,2,0,0,0,.41-.25,2.52,2.52,0,0,0,0-.37c0-.25,0-.49,0-.73a2.4,2.4,0,0,1,2.09-2.32l.27,3a.71.71,0,0,0,.59-.37,2.17,2.17,0,0,0,0,.36,4.6,4.6,0,0,1-.08,1.18,3,3,0,0,1-.69,1.3,4.44,4.44,0,0,1-1.18.86l-.32.18h0a.92.92,0,0,0,0-.44Z" transform="translate(-197.47 -147.64)"/><path class="cls-4" d="M541.84,708.35c-1.91-.2-2.57-1.13-2.79-1.88a3.15,3.15,0,0,1-.08-1.05,1.38,1.38,0,0,0-1-1.41l-1.87-.37.82-1.72a2.42,2.42,0,0,0,.21-.84l1.4.08v-.06l.34.08,1.21.07c0,.16,0,.32-.05.47a4.32,4.32,0,0,1,1.92,3.65l.21,0Zm0-2.89-1.36.34,1.48,0A.85.85,0,0,0,541.8,705.46Z" transform="translate(-197.47 -147.64)"/><path class="cls-4" d="M485.88,692.07l-3-.4a3.21,3.21,0,0,1,.83-1.64,4.79,4.79,0,0,1,1.63-1l.41-.19a1,1,0,0,0,.28-.21l2.9-.1a3,3,0,0,1-1.83,3c-.18.09-.37.18-.57.26A2.64,2.64,0,0,0,485.88,692.07Z" transform="translate(-197.47 -147.64)"/><path class="cls-4" d="M543,718.22l-3.94-.07,1.28-2.19a1.14,1.14,0,0,0-.07-1.18l2.37-1.78a4.09,4.09,0,0,1,.38,4.23Z" transform="translate(-197.47 -147.64)"/><path class="cls-4" d="M482.24,716.49a2.78,2.78,0,0,1-1.62-.58,50.55,50.55,0,0,1-4.93-3.93l2-2.2a46,46,0,0,0,4.63,3.7,1.83,1.83,0,0,0-.66.25l1.8,2.36A2,2,0,0,1,482.24,716.49Z" transform="translate(-197.47 -147.64)"/><path class="cls-4" d="M511.67,704.26,510,701.8a6.13,6.13,0,0,1,5-.81l-.79,2.86A3.19,3.19,0,0,0,511.67,704.26Z" transform="translate(-197.47 -147.64)"/></g><path class="cls-4" d="M430.1,667c-3.42,16.22,19.13,26.63,44,29.17s44.42-1.83,45.95-20c.92-10.92-19.13-14.6-44-17.13S432.36,656.23,430.1,667Z" transform="translate(-197.47 -147.64)"/><path class="cls-18" d="M430.1,667c-.87,10.93,18.55,21.84,43.38,24.38s45.66-4.27,46.53-15.2-17.3-24.12-42.13-26.65S431,656,430.1,667Z" transform="translate(-197.47 -147.64)"/><path class="cls-4" d="M461.85,656.76c0-.69-.48-1.43-.11-2a3.78,3.78,0,0,1,.48-.5c.68-.77,0-2.08-1-2.41a2.9,2.9,0,0,0-2.7.59,5.08,5.08,0,0,0-1.53,2.41,2.42,2.42,0,0,0,.07,2.15,2.54,2.54,0,0,0,1.19.81,4,4,0,0,0,2.12.37A1.64,1.64,0,0,0,461.85,656.76Z" transform="translate(-197.47 -147.64)"/><path class="cls-4" d="M510.4,673.75c1-.32.11-3.62.11-3.62a1.46,1.46,0,0,0-.66-1.26L507,667a1.47,1.47,0,0,0-1.94.28l-.89,1.08a1.47,1.47,0,0,0,.72,2.34l1.83.54a1.78,1.78,0,0,1,.44.21S509.42,674.07,510.4,673.75Z" transform="translate(-197.47 -147.64)"/><path class="cls-4" d="M440.89,659.49c-.34-1-3.61,0-3.61,0a1.49,1.49,0,0,0-1.25.68L434.21,663a1.47,1.47,0,0,0,.33,1.94l1.09.86A1.47,1.47,0,0,0,438,665l.5-1.84a1.35,1.35,0,0,1,.2-.44S441.23,660.46,440.89,659.49Z" transform="translate(-197.47 -147.64)"/><path class="cls-4" d="M486.07,656.55,483,654a1.57,1.57,0,0,0-2.13.1l-1.66,1.67a1.57,1.57,0,0,0,.51,2.55l4,1.71a1.57,1.57,0,0,0,1.82-.44l.68-.81A1.57,1.57,0,0,0,486.07,656.55Z" transform="translate(-197.47 -147.64)"/><path class="cls-4" d="M489.76,682l.83-1.66a1.79,1.79,0,0,0,.18-.82l0-2.45a1.76,1.76,0,0,0-1.87-1.73l-2,.14a1.77,1.77,0,0,0-1.38.83l-1.64,2.66a1.76,1.76,0,0,0,.76,2.51l2.88,1.33A1.78,1.78,0,0,0,489.76,682Z" transform="translate(-197.47 -147.64)"/><path class="cls-4" d="M456.2,678.46l.56-2.16a1.73,1.73,0,0,1,.39-.73s1.92-.82,2.16-2.38-1.68-1.33-1.68-1.33a1.72,1.72,0,0,0-1.69-.25L452.29,673a1.73,1.73,0,0,0-1.1,1.62l0,3.31a1.72,1.72,0,0,0,1.64,1.71l1.6.08A1.72,1.72,0,0,0,456.2,678.46Z" transform="translate(-197.47 -147.64)"/><g class="cls-20"><path class="cls-4" d="M500.61,675.79l-1.06-1a2.23,2.23,0,0,0-.42-.35,2.44,2.44,0,0,1-1.22-.21,2.57,2.57,0,0,1-1.13-1.17,2.52,2.52,0,0,0-1.57-1.24l-.94-.22-.17-1a10.74,10.74,0,0,1-.09-3.3l2.94.37a7.59,7.59,0,0,0,0,1.58,5.32,5.32,0,0,1,2.4,2.2h.25a3.62,3.62,0,0,1,2,1.14l1.06,1Z" transform="translate(-197.47 -147.64)"/><path class="cls-4" d="M470.62,660.43l-2.91-.54c.14-.77.27-1.53.38-2.3l.18-1.19.38,0a2.83,2.83,0,0,1,0-.41,3.25,3.25,0,0,1,1.24-2.6l1.78,2.37a.28.28,0,0,0-.05.21l1.56,1.15-1.47,1.42a3.15,3.15,0,0,1-.81.48C470.79,659.48,470.71,660,470.62,660.43Z" transform="translate(-197.47 -147.64)"/><path class="cls-4" d="M473.8,682l-2.62-1.4a.68.68,0,0,0-.06.5,3,3,0,0,0-.33-.32,4.46,4.46,0,0,1-1-1.09,3,3,0,0,1-.41-1.4,4.28,4.28,0,0,1,.17-1.18c0-.12.06-.23.07-.35a.71.71,0,0,0,.51.48l.87-2.83a2.4,2.4,0,0,1,1.56,2.69,4.57,4.57,0,0,1-.14.72,2.41,2.41,0,0,0-.07.38,3.92,3.92,0,0,0,.34.32,4.49,4.49,0,0,1,.46.41A2.61,2.61,0,0,1,473.8,682Z" transform="translate(-197.47 -147.64)"/><path class="cls-4" d="M443.26,666.94l-.57,0L443,664l.24,0a4.39,4.39,0,0,1,2.59-3.18,3.91,3.91,0,0,1,.05-.48l1.2.18.35,0v.07l1.38.2a2.32,2.32,0,0,0,0,.87l.45,1.85-1.91,0h0a1.36,1.36,0,0,0-1.26,1.06,3.29,3.29,0,0,1-.3,1.12A2.63,2.63,0,0,1,443.26,666.94Z" transform="translate(-197.47 -147.64)"/><path class="cls-4" d="M503.79,662.51l-3-.08a.21.21,0,0,0,0-.13,2.74,2.74,0,0,0-.59-.49c-.17-.12-.34-.24-.5-.37a3,3,0,0,1-1.2-3.26l2.81,1c0-.23.11-.12.25,0l.36.27a4.59,4.59,0,0,1,1.39,1.34A3.25,3.25,0,0,1,503.79,662.51Z" transform="translate(-197.47 -147.64)"/><path class="cls-4" d="M443.43,677.07l-3.87-.73.18-1A4.12,4.12,0,0,1,441,671.3l2,2.23a1.12,1.12,0,0,0-.3,1.14Z" transform="translate(-197.47 -147.64)"/><path class="cls-4" d="M499.86,687a2,2,0,0,1-1.56-.69l2.24-1.94a.93.93,0,0,0-.74-.33,46.64,46.64,0,0,0,5.43-2.73l1.51,2.55a50.25,50.25,0,0,1-5.62,2.85A3.21,3.21,0,0,1,499.86,687Z" transform="translate(-197.47 -147.64)"/><path class="cls-4" d="M473.07,669a3.18,3.18,0,0,0-2.4-.92l-.2-3a6.07,6.07,0,0,1,4.71,1.8Z" transform="translate(-197.47 -147.64)"/></g><path class="cls-4" d="M415.34,710.94c-.07,16.58,24.13,22.2,49,19.66s43.12-10.79,40.95-28.87c-1.31-10.89-21.69-10.43-46.52-7.89S415.38,700,415.34,710.94Z" transform="translate(-197.47 -147.64)"/><path class="cls-18" d="M415.34,710.94c1.36,10.88,22.59,17.63,47.42,15.09s43.85-13.43,42.49-24.3-21.82-20.12-46.65-17.58S414,700.06,415.34,710.94Z" transform="translate(-197.47 -147.64)"/><path class="cls-4" d="M444.38,694.52c-.11-.68-.77-1.3-.53-1.94a4.56,4.56,0,0,1,.38-.59c.51-.88-.41-2-1.42-2.17a3,3,0,0,0-2.53,1.13,5.2,5.2,0,0,0-1,2.67,2.46,2.46,0,0,0,.51,2.1,2.5,2.5,0,0,0,1.33.54,3.83,3.83,0,0,0,2.15-.06A1.68,1.68,0,0,0,444.38,694.52Z" transform="translate(-197.47 -147.64)"/><path class="cls-4" d="M495.36,701.33c.9-.51-.63-3.56-.63-3.56a1.45,1.45,0,0,0-.9-1.1l-3.15-1.26a1.46,1.46,0,0,0-1.84.67l-.65,1.23a1.46,1.46,0,0,0,1.17,2.15l1.9.16a1.31,1.31,0,0,1,.48.12S494.46,701.85,495.36,701.33Z" transform="translate(-197.47 -147.64)"/><path class="cls-4" d="M424.4,701.44c-.53-.89-3.54.7-3.54.7a1.48,1.48,0,0,0-1.09.92l-1.2,3.18a1.46,1.46,0,0,0,.71,1.83l1.25.62a1.46,1.46,0,0,0,2.12-1.21l.12-1.91a1.53,1.53,0,0,1,.11-.47S424.93,702.33,424.4,701.44Z" transform="translate(-197.47 -147.64)"/><path class="cls-4" d="M468.05,689.42l-3.51-1.9a1.56,1.56,0,0,0-2.06.53l-1.29,2a1.58,1.58,0,0,0,1,2.4l4.29.86a1.58,1.58,0,0,0,1.69-.8l.5-.93A1.58,1.58,0,0,0,468.05,689.42Z" transform="translate(-197.47 -147.64)"/><path class="cls-4" d="M476.8,713.55l.48-1.79a1.79,1.79,0,0,0,0-.83l-.53-2.4a1.76,1.76,0,0,0-2.19-1.31l-2,.55a1.72,1.72,0,0,0-1.18,1.09l-1.07,2.93a1.76,1.76,0,0,0,1.25,2.31l3.09.71A1.74,1.74,0,0,0,476.8,713.55Z" transform="translate(-197.47 -147.64)"/><path class="cls-4" d="M443.23,716.92l.11-2.23a1.86,1.86,0,0,1,.24-.79s1.72-1.2,1.64-2.77-1.92-1-1.92-1a1.72,1.72,0,0,0-1.71.1l-3.29,2.13a1.71,1.71,0,0,0-.74,1.8l.69,3.25a1.73,1.73,0,0,0,1.95,1.34l1.58-.25A1.72,1.72,0,0,0,443.23,716.92Z" transform="translate(-197.47 -147.64)"/><g class="cls-20"><path class="cls-4" d="M486.18,705.31l-1.25-.78a2.75,2.75,0,0,0-.47-.26,2.36,2.36,0,0,1-1.24.05,2.58,2.58,0,0,1-1.34-.92,2.51,2.51,0,0,0-1.8-.89l-1,0-.36-.9a11,11,0,0,1-.76-3.21l3-.23a7.42,7.42,0,0,0,.28,1.55,5.44,5.44,0,0,1,2.8,1.67l.24,0a3.5,3.5,0,0,1,2.23.7l1.25.78Z" transform="translate(-197.47 -147.64)"/><path class="cls-4" d="M450.74,696.4c0-.77,0-1.54-.08-2.32l-.07-1.2.36-.1c0-.13-.08-.26-.11-.4a3.22,3.22,0,0,1,.69-2.79l2.22,2a.42.42,0,0,0,0,.22l1.77.8-1.15,1.69a3.55,3.55,0,0,1-.7.64c0,.48,0,1,0,1.45Z" transform="translate(-197.47 -147.64)"/><path class="cls-4" d="M461.18,716.8l-2.85-.85a.65.65,0,0,0,0,.5,2.44,2.44,0,0,0-.39-.24,4.28,4.28,0,0,1-1.18-.87,2.89,2.89,0,0,1-.69-1.29,4.6,4.6,0,0,1-.08-1.18,2.17,2.17,0,0,0,0-.36.71.71,0,0,0,.59.37l.27-3a2.4,2.4,0,0,1,2.09,2.32,5.93,5.93,0,0,1,0,.73,2.17,2.17,0,0,0,0,.38,2.07,2.07,0,0,0,.4.24l.54.32A2.61,2.61,0,0,1,461.18,716.8Z" transform="translate(-197.47 -147.64)"/><path class="cls-4" d="M427.67,708.35l-.31-3,.24,0a4.42,4.42,0,0,1,1.89-3.64c0-.16,0-.32-.05-.48l1.21-.07.34-.08v.06l1.4-.08a2.42,2.42,0,0,0,.21.84l.82,1.72-1.87.37a1.37,1.37,0,0,0-1,1.29,3.39,3.39,0,0,1-.07,1.17C430.24,707.22,429.58,708.15,427.67,708.35Z" transform="translate(-197.47 -147.64)"/><path class="cls-4" d="M483.69,692.19a.27.27,0,0,0-.06-.12,2.64,2.64,0,0,0-.67-.36c-.2-.08-.39-.17-.57-.26a3,3,0,0,1-1.83-3l2.94.36c0-.23.08-.13.24-.05l.41.19a4.79,4.79,0,0,1,1.63,1,3.21,3.21,0,0,1,.83,1.64Z" transform="translate(-197.47 -147.64)"/><path class="cls-4" d="M426.51,718.22l0-1a4.09,4.09,0,0,1,.38-4.23l2.37,1.78a1.14,1.14,0,0,0-.07,1.18l1.27,2.19Z" transform="translate(-197.47 -147.64)"/><path class="cls-4" d="M487.27,716.5a2,2,0,0,1-1.22-.41l1.8-2.36a.9.9,0,0,0-.79-.17,46.39,46.39,0,0,0,4.77-3.78l2,2.2a51.78,51.78,0,0,1-4.93,3.93A2.83,2.83,0,0,1,487.27,716.5Z" transform="translate(-197.47 -147.64)"/><path class="cls-4" d="M457.84,704.26a3.13,3.13,0,0,0-2.54-.41l-.79-2.86a6.12,6.12,0,0,1,5,.81Z" transform="translate(-197.47 -147.64)"/></g><path class="cls-4" d="M310.32,710.94c-.07,16.58,24.13,22.2,49,19.66s43.12-10.79,41-28.87c-1.31-10.89-21.69-10.43-46.52-7.89S310.36,700,310.32,710.94Z" transform="translate(-197.47 -147.64)"/><path class="cls-18" d="M310.32,710.94c1.36,10.88,22.59,17.63,47.41,15.09s43.86-13.43,42.5-24.3-21.83-20.12-46.65-17.58S309,700.06,310.32,710.94Z" transform="translate(-197.47 -147.64)"/><path class="cls-4" d="M339.35,694.52c-.11-.68-.77-1.3-.52-1.94a3.7,3.7,0,0,1,.38-.59c.51-.88-.41-2-1.42-2.17a3,3,0,0,0-2.53,1.13,5.11,5.11,0,0,0-1,2.67,2.46,2.46,0,0,0,.5,2.1,2.57,2.57,0,0,0,1.34.54,3.83,3.83,0,0,0,2.15-.06A1.66,1.66,0,0,0,339.35,694.52Z" transform="translate(-197.47 -147.64)"/><path class="cls-4" d="M390.34,701.33c.9-.51-.63-3.56-.63-3.56a1.45,1.45,0,0,0-.9-1.1l-3.15-1.26a1.46,1.46,0,0,0-1.84.67l-.66,1.23a1.47,1.47,0,0,0,1.18,2.15l1.9.16a1.31,1.31,0,0,1,.47.12S389.44,701.85,390.34,701.33Z" transform="translate(-197.47 -147.64)"/><path class="cls-4" d="M319.38,701.44c-.53-.89-3.55.7-3.55.7a1.48,1.48,0,0,0-1.09.92l-1.19,3.18a1.46,1.46,0,0,0,.71,1.83l1.24.62a1.47,1.47,0,0,0,2.13-1.21l.12-1.91a1.29,1.29,0,0,1,.11-.47S319.91,702.33,319.38,701.44Z" transform="translate(-197.47 -147.64)"/><path class="cls-4" d="M363,689.42l-3.5-1.9a1.58,1.58,0,0,0-2.07.53l-1.28,2a1.57,1.57,0,0,0,1,2.4l4.29.86a1.58,1.58,0,0,0,1.69-.8l.5-.93A1.57,1.57,0,0,0,363,689.42Z" transform="translate(-197.47 -147.64)"/><path class="cls-4" d="M371.78,713.55l.48-1.79a1.79,1.79,0,0,0,0-.83l-.54-2.4a1.75,1.75,0,0,0-2.18-1.31l-2,.55a1.76,1.76,0,0,0-1.18,1.09l-1.06,2.93a1.75,1.75,0,0,0,1.25,2.31l3.09.71A1.74,1.74,0,0,0,371.78,713.55Z" transform="translate(-197.47 -147.64)"/><path class="cls-4" d="M338.21,716.92l.11-2.23a1.73,1.73,0,0,1,.24-.79s1.71-1.2,1.63-2.77-1.91-1-1.91-1a1.71,1.71,0,0,0-1.71.1l-3.29,2.13a1.72,1.72,0,0,0-.75,1.8l.7,3.25a1.72,1.72,0,0,0,1.95,1.34l1.58-.25A1.72,1.72,0,0,0,338.21,716.92Z" transform="translate(-197.47 -147.64)"/><g class="cls-20"><path class="cls-4" d="M381.16,705.31l-1.25-.78a2.27,2.27,0,0,0-.48-.26,2.35,2.35,0,0,1-1.24.05,2.63,2.63,0,0,1-1.34-.93,2.49,2.49,0,0,0-1.79-.88l-1,0-.36-.9a10.75,10.75,0,0,1-.76-3.21l3-.23a7.54,7.54,0,0,0,.28,1.55,5.44,5.44,0,0,1,2.8,1.67l.24,0a3.5,3.5,0,0,1,2.23.7l1.24.78Z" transform="translate(-197.47 -147.64)"/><path class="cls-4" d="M345.72,696.4c0-.77,0-1.54-.09-2.32l-.06-1.2.36-.1c0-.13-.08-.26-.11-.4a3.19,3.19,0,0,1,.69-2.79l2.22,2a.42.42,0,0,0,0,.22l1.77.81-1.15,1.68a3.86,3.86,0,0,1-.7.64c0,.48,0,1,0,1.45Z" transform="translate(-197.47 -147.64)"/><path class="cls-4" d="M356.15,716.79l-2.84-.84a.65.65,0,0,0,0,.5,2.44,2.44,0,0,0-.39-.24,4.32,4.32,0,0,1-1.19-.87,3,3,0,0,1-.68-1.29,4.24,4.24,0,0,1-.08-1.19c0-.12,0-.23,0-.35a.73.73,0,0,0,.6.37l.27-3a2.41,2.41,0,0,1,2.09,2.32,5.93,5.93,0,0,1,0,.73c0,.13,0,.32,0,.38a2.44,2.44,0,0,0,.4.24c.19.1.37.21.54.32A2.58,2.58,0,0,1,356.15,716.79Z" transform="translate(-197.47 -147.64)"/><path class="cls-4" d="M322.64,708.35l-.31-3,.25,0a4.42,4.42,0,0,1,1.89-3.64,3.91,3.91,0,0,1-.05-.48l1.21-.07.34-.08v.06l1.4-.08a2.21,2.21,0,0,0,.21.84l.82,1.72-1.87.37a1.35,1.35,0,0,0-1,1.3,3.14,3.14,0,0,1-.08,1.16C325.22,707.21,324.56,708.15,322.64,708.35Z" transform="translate(-197.47 -147.64)"/><path class="cls-4" d="M378.66,692.19a.18.18,0,0,0-.05-.12,2.84,2.84,0,0,0-.67-.36,6.11,6.11,0,0,1-.58-.27,3,3,0,0,1-1.83-2.94l3,.36c0-.23.07-.14.24-.05l.41.19a4.89,4.89,0,0,1,1.63,1,3.2,3.2,0,0,1,.82,1.64Z" transform="translate(-197.47 -147.64)"/><path class="cls-4" d="M321.49,718.22l0-1a4.09,4.09,0,0,1,.38-4.23l2.37,1.78a1.14,1.14,0,0,0-.07,1.18l1.27,2.19Z" transform="translate(-197.47 -147.64)"/><path class="cls-4" d="M382.24,716.49a2,2,0,0,1-1.21-.4l1.79-2.36a.88.88,0,0,0-.78-.17,47.35,47.35,0,0,0,4.76-3.78l2,2.2a50.43,50.43,0,0,1-4.92,3.93A2.83,2.83,0,0,1,382.24,716.49Z" transform="translate(-197.47 -147.64)"/><path class="cls-4" d="M352.82,704.26a3.21,3.21,0,0,0-2.54-.41l-.79-2.86a6.14,6.14,0,0,1,5,.81Z" transform="translate(-197.47 -147.64)"/></g><path class="cls-4" d="M453.93,710.94c.07,16.58-24.13,22.2-49,19.66s-43.12-10.79-41-28.87c1.31-10.89,21.69-10.43,46.52-7.89S453.89,700,453.93,710.94Z" transform="translate(-197.47 -147.64)"/><path class="cls-18" d="M453.93,710.94c-1.36,10.88-22.59,17.63-47.41,15.09s-43.86-13.43-42.5-24.3,21.83-20.12,46.65-17.58S455.29,700.06,453.93,710.94Z" transform="translate(-197.47 -147.64)"/><path class="cls-4" d="M424.9,694.52c.11-.68.77-1.3.52-1.94A3.7,3.7,0,0,0,425,692c-.51-.88.41-2,1.42-2.17A3,3,0,0,1,429,691a5.11,5.11,0,0,1,1,2.67,2.46,2.46,0,0,1-.5,2.1,2.57,2.57,0,0,1-1.34.54,3.83,3.83,0,0,1-2.15-.06A1.66,1.66,0,0,1,424.9,694.52Z" transform="translate(-197.47 -147.64)"/><path class="cls-4" d="M373.91,701.33c-.9-.51.63-3.56.63-3.56a1.45,1.45,0,0,1,.9-1.1l3.15-1.26a1.46,1.46,0,0,1,1.84.67l.66,1.23a1.47,1.47,0,0,1-1.18,2.15l-1.9.16a1.31,1.31,0,0,0-.47.12S374.81,701.85,373.91,701.33Z" transform="translate(-197.47 -147.64)"/><path class="cls-4" d="M444.87,701.44c.53-.89,3.55.7,3.55.7a1.48,1.48,0,0,1,1.09.92l1.19,3.18a1.46,1.46,0,0,1-.71,1.83l-1.24.62a1.47,1.47,0,0,1-2.13-1.21l-.12-1.91a1.29,1.29,0,0,0-.11-.47S444.34,702.33,444.87,701.44Z" transform="translate(-197.47 -147.64)"/><path class="cls-4" d="M401.23,689.42l3.5-1.9a1.58,1.58,0,0,1,2.07.53l1.28,2a1.57,1.57,0,0,1-1,2.4l-4.29.86a1.58,1.58,0,0,1-1.69-.8l-.5-.93A1.57,1.57,0,0,1,401.23,689.42Z" transform="translate(-197.47 -147.64)"/><path class="cls-4" d="M392.47,713.55l-.48-1.79a1.79,1.79,0,0,1,0-.83l.54-2.4a1.75,1.75,0,0,1,2.18-1.31l2,.55a1.76,1.76,0,0,1,1.18,1.09l1.06,2.93a1.75,1.75,0,0,1-1.25,2.31l-3.09.71A1.74,1.74,0,0,1,392.47,713.55Z" transform="translate(-197.47 -147.64)"/><path class="cls-4" d="M426,716.92l-.11-2.23a1.73,1.73,0,0,0-.24-.79s-1.71-1.2-1.63-2.77,1.91-1,1.91-1a1.71,1.71,0,0,1,1.71.1L431,712.4a1.72,1.72,0,0,1,.75,1.8l-.7,3.25a1.72,1.72,0,0,1-1.95,1.34l-1.58-.25A1.72,1.72,0,0,1,426,716.92Z" transform="translate(-197.47 -147.64)"/><g class="cls-20"><path class="cls-4" d="M383.09,705.31l-1.57-2.51,1.24-.78a3.6,3.6,0,0,1,2.23-.7l.26,0a5.77,5.77,0,0,1,2.78-1.67,7.42,7.42,0,0,0,.28-1.55l3,.23a10.82,10.82,0,0,1-.76,3.21l-.36.9-1,0a2.46,2.46,0,0,0-1.74.82,2.69,2.69,0,0,1-1.4,1,2.44,2.44,0,0,1-1.2,0,1.34,1.34,0,0,0-.51.24Z" transform="translate(-197.47 -147.64)"/><path class="cls-4" d="M418.53,696.4l-3,0c0-.48,0-1,0-1.45a4.26,4.26,0,0,1-.7-.64l-1.24-1.49,1.77-.81.08-.41,2.22-2a3.19,3.19,0,0,1,.69,2.79c0,.14-.07.27-.11.4l.37.1-.07,1.2C418.57,694.86,418.54,695.63,418.53,696.4Z" transform="translate(-197.47 -147.64)"/><path class="cls-4" d="M408.1,716.79a2.59,2.59,0,0,1,1.23-2.87c.18-.11.36-.22.55-.32a2.44,2.44,0,0,0,.4-.24c0-.06,0-.25,0-.38a4.43,4.43,0,0,1,0-.73,2.39,2.39,0,0,1,2.08-2.32l.27,3a.73.73,0,0,0,.6-.37c0,.12,0,.24,0,.36a4.19,4.19,0,0,1-.08,1.18,3,3,0,0,1-.68,1.3,4.47,4.47,0,0,1-1.19.86,3.3,3.3,0,0,0-.32.18h0a2.29,2.29,0,0,0,0-.44Z" transform="translate(-197.47 -147.64)"/><path class="cls-4" d="M441.61,708.35c-1.92-.2-2.58-1.14-2.79-1.88a2.71,2.71,0,0,1-.08-1.05,1.38,1.38,0,0,0-1-1.41l-1.87-.37.82-1.72a2.21,2.21,0,0,0,.21-.84l1.4.08v-.06l.34.08,1.21.07a3.56,3.56,0,0,1-.05.47,4.33,4.33,0,0,1,1.93,3.65l.21,0Zm0-2.89-1.37.34,1.49,0A1.54,1.54,0,0,0,441.57,705.46Z" transform="translate(-197.47 -147.64)"/><path class="cls-4" d="M385.64,692.07l-3-.4a3.2,3.2,0,0,1,.82-1.64,4.89,4.89,0,0,1,1.63-1l.41-.19a1.16,1.16,0,0,0,.29-.21l2.9-.1a3,3,0,0,1-1.83,3l-.57.26A2.74,2.74,0,0,0,385.64,692.07Z" transform="translate(-197.47 -147.64)"/><path class="cls-4" d="M442.76,718.22l-3.93-.07L440.1,716a1.14,1.14,0,0,0-.07-1.18L442.4,713a4.09,4.09,0,0,1,.38,4.23Z" transform="translate(-197.47 -147.64)"/><path class="cls-4" d="M382,716.49a2.83,2.83,0,0,1-1.63-.58,50.13,50.13,0,0,1-4.92-3.93l2-2.2a46.9,46.9,0,0,0,4.63,3.7,1.83,1.83,0,0,0-.66.25l1.8,2.36A2,2,0,0,1,382,716.49Z" transform="translate(-197.47 -147.64)"/><path class="cls-4" d="M411.43,704.26l-1.65-2.46a6.13,6.13,0,0,1,5-.81l-.79,2.86A3.13,3.13,0,0,0,411.43,704.26Z" transform="translate(-197.47 -147.64)"/></g><path class="cls-4" d="M481.27,675.56c.06,16.57-24.13,22.2-49,19.65s-43.13-10.78-40.95-28.87c1.31-10.88,21.69-10.42,46.52-7.88S481.23,664.6,481.27,675.56Z" transform="translate(-197.47 -147.64)"/><path class="cls-18" d="M481.27,675.56c-1.36,10.87-22.59,17.63-47.42,15.08s-43.85-13.42-42.49-24.3,21.82-20.11,46.65-17.57S482.63,664.68,481.27,675.56Z" transform="translate(-197.47 -147.64)"/><path class="cls-4" d="M452.23,659.14c.11-.68.77-1.3.53-1.94a4.56,4.56,0,0,0-.38-.59c-.51-.88.4-2,1.42-2.17a2.93,2.93,0,0,1,2.53,1.13,5.29,5.29,0,0,1,1,2.67,2.47,2.47,0,0,1-.51,2.1,2.5,2.5,0,0,1-1.33.54,4,4,0,0,1-2.15-.06A1.68,1.68,0,0,1,452.23,659.14Z" transform="translate(-197.47 -147.64)"/><path class="cls-4" d="M401.25,666c-.9-.51.63-3.56.63-3.56a1.45,1.45,0,0,1,.9-1.1l3.15-1.27a1.48,1.48,0,0,1,1.84.68l.65,1.23a1.46,1.46,0,0,1-1.17,2.15l-1.91.16a1.31,1.31,0,0,0-.47.12S402.15,666.47,401.25,666Z" transform="translate(-197.47 -147.64)"/><path class="cls-4" d="M472.21,666.06c.53-.89,3.54.7,3.54.7a1.48,1.48,0,0,1,1.09.92l1.2,3.18a1.45,1.45,0,0,1-.71,1.82l-1.25.63a1.46,1.46,0,0,1-2.12-1.22l-.12-1.9a1.53,1.53,0,0,0-.11-.47S471.68,667,472.21,666.06Z" transform="translate(-197.47 -147.64)"/><path class="cls-4" d="M428.56,654l3.51-1.9a1.56,1.56,0,0,1,2.06.53l1.29,2a1.58,1.58,0,0,1-1,2.4l-4.29.86a1.58,1.58,0,0,1-1.69-.8l-.5-.93A1.57,1.57,0,0,1,428.56,654Z" transform="translate(-197.47 -147.64)"/><path class="cls-4" d="M419.81,678.17l-.48-1.79a1.83,1.83,0,0,1,0-.84l.53-2.39a1.76,1.76,0,0,1,2.19-1.31l2,.54a1.76,1.76,0,0,1,1.18,1.1l1.07,2.93a1.76,1.76,0,0,1-1.26,2.31l-3.08.71A1.75,1.75,0,0,1,419.81,678.17Z" transform="translate(-197.47 -147.64)"/><path class="cls-4" d="M453.38,681.54l-.11-2.23a1.82,1.82,0,0,0-.24-.79s-1.72-1.2-1.64-2.77,1.92-1,1.92-1a1.74,1.74,0,0,1,1.71.09l3.29,2.14a1.71,1.71,0,0,1,.74,1.8l-.69,3.25a1.73,1.73,0,0,1-1.95,1.34l-1.58-.25A1.71,1.71,0,0,1,453.38,681.54Z" transform="translate(-197.47 -147.64)"/><g class="cls-20"><path class="cls-4" d="M410.43,669.93l-1.58-2.51,1.25-.78a3.62,3.62,0,0,1,2.23-.7l.25,0a5.77,5.77,0,0,1,2.79-1.67,8.13,8.13,0,0,0,.28-1.55l3,.23a10.8,10.8,0,0,1-.75,3.21l-.36.89-1,0a2.46,2.46,0,0,0-1.74.82,2.69,2.69,0,0,1-1.4,1,2.73,2.73,0,0,1-1.2,0h0a1.31,1.31,0,0,0-.51.23Z" transform="translate(-197.47 -147.64)"/><path class="cls-4" d="M445.87,661l-3,0c0-.48,0-1,.05-1.45a3.86,3.86,0,0,1-.7-.64L441,657.39l1.77-.81.09-.41,2.22-2a3.24,3.24,0,0,1,.69,2.79c0,.14-.07.27-.11.4l.36.1-.07,1.2C445.91,659.47,445.88,660.25,445.87,661Z" transform="translate(-197.47 -147.64)"/><path class="cls-4" d="M435.43,681.41a2.6,2.6,0,0,1,1.24-2.87l.54-.32a2,2,0,0,0,.41-.25,2.5,2.5,0,0,0,0-.37c0-.25,0-.49,0-.73a2.41,2.41,0,0,1,2.08-2.32l.28,3a.68.68,0,0,0,.59-.37,2.17,2.17,0,0,0,0,.36,4.6,4.6,0,0,1-.08,1.18,3.09,3.09,0,0,1-.69,1.3,4.61,4.61,0,0,1-1.18.86,3.3,3.3,0,0,0-.32.18h0a1.33,1.33,0,0,0,0-.43Z" transform="translate(-197.47 -147.64)"/><path class="cls-4" d="M468.94,673c-1.91-.2-2.57-1.14-2.79-1.88a3.15,3.15,0,0,1-.08-1.05,1.38,1.38,0,0,0-1-1.41l-1.88-.37.83-1.72a2.42,2.42,0,0,0,.21-.84l1.39.08,0-.06.33.08,1.22.07c0,.16,0,.32-.05.47A4.32,4.32,0,0,1,469,670l.21,0Zm0-2.89-1.36.34,1.48,0A.85.85,0,0,0,468.9,670.08Z" transform="translate(-197.47 -147.64)"/><path class="cls-4" d="M413,656.69l-3-.4a3.21,3.21,0,0,1,.83-1.64,4.56,4.56,0,0,1,1.63-1l.41-.19a.83.83,0,0,0,.28-.22l2.9-.09a3,3,0,0,1-1.83,2.94c-.18.1-.37.18-.57.27A2.64,2.64,0,0,0,413,656.69Z" transform="translate(-197.47 -147.64)"/><path class="cls-4" d="M470.1,682.84l-3.94-.08,1.28-2.18a1.14,1.14,0,0,0-.07-1.18l2.37-1.78a4.09,4.09,0,0,1,.38,4.23Z" transform="translate(-197.47 -147.64)"/><path class="cls-4" d="M409.34,681.12a2.81,2.81,0,0,1-1.62-.59,50.55,50.55,0,0,1-4.93-3.93l2-2.2a47.33,47.33,0,0,0,4.64,3.7,1.83,1.83,0,0,0-.66.25l1.8,2.36A2,2,0,0,1,409.34,681.12Z" transform="translate(-197.47 -147.64)"/><path class="cls-4" d="M438.77,668.88l-1.65-2.46a6.13,6.13,0,0,1,5-.81l-.79,2.86A3.12,3.12,0,0,0,438.77,668.88Z" transform="translate(-197.47 -147.64)"/></g><path class="cls-4" d="M334.38,676.14c-.07,16.57,24.13,22.2,49,19.65s43.12-10.78,41-28.87C423,656,402.6,656.5,377.77,659S334.42,665.18,334.38,676.14Z" transform="translate(-197.47 -147.64)"/><path class="cls-18" d="M334.38,676.14C335.74,687,357,693.77,381.8,691.22s43.85-13.42,42.49-24.3-21.82-20.11-46.65-17.57S333,665.26,334.38,676.14Z" transform="translate(-197.47 -147.64)"/><path class="cls-4" d="M363.41,659.72c-.1-.68-.76-1.3-.52-1.94a3.7,3.7,0,0,1,.38-.59c.51-.88-.41-2-1.42-2.17a2.93,2.93,0,0,0-2.53,1.13,5.11,5.11,0,0,0-1,2.67,2.46,2.46,0,0,0,.5,2.1,2.57,2.57,0,0,0,1.34.54,4,4,0,0,0,2.15-.06A1.66,1.66,0,0,0,363.41,659.72Z" transform="translate(-197.47 -147.64)"/><path class="cls-4" d="M414.4,666.53c.9-.51-.63-3.56-.63-3.56a1.48,1.48,0,0,0-.9-1.11l-3.15-1.26a1.48,1.48,0,0,0-1.84.68l-.65,1.23a1.46,1.46,0,0,0,1.17,2.15l1.9.16a1.26,1.26,0,0,1,.47.12S413.5,667.05,414.4,666.53Z" transform="translate(-197.47 -147.64)"/><path class="cls-4" d="M343.44,666.64c-.53-.89-3.55.7-3.55.7a1.46,1.46,0,0,0-1.08.92l-1.2,3.18a1.45,1.45,0,0,0,.71,1.82l1.24.63a1.47,1.47,0,0,0,2.13-1.22l.12-1.9a1.53,1.53,0,0,1,.11-.47S344,667.53,343.44,666.64Z" transform="translate(-197.47 -147.64)"/><path class="cls-4" d="M387.09,654.62l-3.51-1.9a1.58,1.58,0,0,0-2.07.53l-1.28,2a1.58,1.58,0,0,0,1,2.4l4.29.85a1.56,1.56,0,0,0,1.69-.79l.5-.93A1.57,1.57,0,0,0,387.09,654.62Z" transform="translate(-197.47 -147.64)"/><path class="cls-4" d="M395.84,678.75l.48-1.79a1.84,1.84,0,0,0,0-.84l-.54-2.39a1.75,1.75,0,0,0-2.18-1.31l-2,.54a1.8,1.8,0,0,0-1.18,1.1L389.41,677a1.76,1.76,0,0,0,1.25,2.31l3.09.71A1.75,1.75,0,0,0,395.84,678.75Z" transform="translate(-197.47 -147.64)"/><path class="cls-4" d="M362.27,682.12l.11-2.23a1.82,1.82,0,0,1,.24-.79s1.71-1.2,1.63-2.77-1.91-1-1.91-1a1.74,1.74,0,0,0-1.71.09l-3.29,2.14a1.74,1.74,0,0,0-.75,1.8l.7,3.25a1.72,1.72,0,0,0,1.95,1.34l1.58-.25A1.72,1.72,0,0,0,362.27,682.12Z" transform="translate(-197.47 -147.64)"/><g class="cls-20"><path class="cls-4" d="M405.22,670.51l-1.25-.78a2.47,2.47,0,0,0-.47-.26,2.41,2.41,0,0,1-1.25,0,2.61,2.61,0,0,1-1.34-.92,2.49,2.49,0,0,0-1.79-.88l-1,0-.36-.89a10.82,10.82,0,0,1-.76-3.21l3-.23a7.54,7.54,0,0,0,.28,1.55,5.37,5.37,0,0,1,2.8,1.67l.24,0a3.56,3.56,0,0,1,2.23.7l1.24.78Z" transform="translate(-197.47 -147.64)"/><path class="cls-4" d="M369.78,661.6c0-.77,0-1.55-.09-2.32l-.06-1.21L370,658c0-.13-.08-.26-.11-.4a3.21,3.21,0,0,1,.69-2.79l2.22,2a.42.42,0,0,0,0,.22l1.76.81-1.14,1.68a3.89,3.89,0,0,1-.7.64c0,.48,0,1,0,1.45Z" transform="translate(-197.47 -147.64)"/><path class="cls-4" d="M380.21,682l-2.84-.84a.65.65,0,0,0,0,.5,1.87,1.87,0,0,0-.39-.24,4.29,4.29,0,0,1-1.18-.86,3,3,0,0,1-.69-1.3,4.24,4.24,0,0,1-.08-1.19,2,2,0,0,0,0-.35.72.72,0,0,0,.6.37l.27-3a2.4,2.4,0,0,1,2.09,2.32,5.77,5.77,0,0,1,0,.72,2.25,2.25,0,0,0,0,.39,2.28,2.28,0,0,0,.4.24c.18.1.36.2.54.32A2.59,2.59,0,0,1,380.21,682Z" transform="translate(-197.47 -147.64)"/><path class="cls-4" d="M346.7,673.55l-.3-2.95a1.19,1.19,0,0,0,.24,0,4.42,4.42,0,0,1,1.89-3.63,3.91,3.91,0,0,1,0-.48l1.21-.07.34-.08v.06l1.4-.08a2.21,2.21,0,0,0,.21.84l.82,1.72-1.87.37a1.37,1.37,0,0,0-1,1.29,3.12,3.12,0,0,1-.08,1.16C349.28,672.41,348.62,673.35,346.7,673.55Z" transform="translate(-197.47 -147.64)"/><path class="cls-4" d="M402.73,657.39a.23.23,0,0,0-.06-.12,2.74,2.74,0,0,0-.68-.36l-.56-.26a3,3,0,0,1-1.84-2.95l3,.35c0-.22.07-.13.24,0l.4.18a4.72,4.72,0,0,1,1.64,1,3.2,3.2,0,0,1,.82,1.64Z" transform="translate(-197.47 -147.64)"/><path class="cls-4" d="M345.55,683.42l0-1a4.09,4.09,0,0,1,.38-4.23l2.37,1.78a1.14,1.14,0,0,0-.07,1.18l1.28,2.19Z" transform="translate(-197.47 -147.64)"/><path class="cls-4" d="M406.31,681.69a2,2,0,0,1-1.22-.4l1.8-2.36a.9.9,0,0,0-.79-.17,46.25,46.25,0,0,0,4.76-3.78l2,2.2a52,52,0,0,1-4.92,3.93A2.81,2.81,0,0,1,406.31,681.69Z" transform="translate(-197.47 -147.64)"/><path class="cls-4" d="M376.88,669.46a3.13,3.13,0,0,0-2.54-.41l-.79-2.86a6.12,6.12,0,0,1,5,.81Z" transform="translate(-197.47 -147.64)"/></g><rect class="cls-7" x="148.04" y="900.97" width="968.23" height="3.75"/><rect class="cls-21" x="107.72" y="901.6" width="27.99" height="2.5"/></g></g></svg>