<svg id="Layer_1" data-name="Layer 1" xmlns="http://www.w3.org/2000/svg" xmlns:xlink="http://www.w3.org/1999/xlink" viewBox="0 0 1374.74 950.06"><defs><style>.cls-1{fill:#d1d3fc;}.cls-2,.cls-5{fill:#393bb2;}.cls-3{fill:#6cbdeb;}.cls-4{fill:#fff;}.cls-5{clip-path:url(#clip-path);}.cls-6{fill:#757bff;}.cls-7{fill:#1a135a;}.cls-8{fill:#ffbbb3;}.cls-9{fill:#6d0000;}.cls-10{clip-path:url(#clip-path-2);}.cls-11{fill:#f8f6ff;}.cls-12{fill:#000c2b;}.cls-13{fill:#1a145b;}.cls-14{fill:#4424af;}.cls-15{fill:#f0567f;}.cls-16{fill:#c41c6a;}.cls-17{fill:#cd4b68;}.cls-18{clip-path:url(#clip-path-3);}.cls-19{opacity:0.3;}.cls-20{fill:#a489ff;}.cls-21{fill:#f5968c;}.cls-22{fill:#1d0f4a;}.cls-23{clip-path:url(#clip-path-4);}.cls-24{opacity:0.31;}.cls-25{fill:#5e65ff;}.cls-26{fill:#f2c6d3;}.cls-27{clip-path:url(#clip-path-5);}.cls-28{fill:#cc7070;}.cls-29{fill:#aeb2fc;}</style><clipPath id="clip-path"><rect class="cls-4" x="1189.28" y="807.05" width="192.67" height="62.67"/></clipPath><clipPath id="clip-path-2" transform="translate(-112.63 -131.39)"><path class="cls-1" d="M778.08,1065.47H446l13.27-52.77A761.22,761.22,0,0,0,480.84,781l1.4-76.13-89.65-15.33s.57-19.47,13.63-77.22C440.3,481.14,513.54,433.45,567.63,422.24l39.61,7.13,39.62-7.13a157.15,157.15,0,0,1,32.87,11.06c51.08,23.31,112.34,78.32,137.3,171.24,9.7,64.1,10.72,82.66,10.72,83l-66,14.58-.1,0h0l-20.42,4.13,2,94.41v.15l2.17,104,20.82,102.1Z"/></clipPath><clipPath id="clip-path-3" transform="translate(-112.63 -131.39)"><path class="cls-2" d="M577.23,1065.33H353.31c2.66-51.79,8.25-99.54,19-140.21l144.46-20C537.88,949.42,557.82,1004.72,577.23,1065.33Z"/></clipPath><clipPath id="clip-path-4" transform="translate(-112.63 -131.39)"><rect class="cls-3" x="1120.05" y="869.72" width="234.95" height="116.98"/></clipPath><clipPath id="clip-path-5" transform="translate(-112.63 -131.39)"><path class="cls-5" d="M1384.14,871.9h-197v-67h197Zm-192.67-4.37h188.3V809.24h-188.3Z"/></clipPath></defs><title>Page 3_LoginInfo</title><path class="cls-6" d="M224.6,1068.16c-75.91-78.2-88.27-199.36-71.4-307,4.2-26.86,10.25-54.22,25.37-76.81,23.07-34.46,63.37-52.59,94.23-80.28C338.63,545,355.19,450.3,392,369.89c10.84-23.7,24-46.94,43.4-64.38,20-18.05,45.66-28.88,71.78-35.57,107.25-27.46,218.75,10.88,325.6,39.86,23.54,6.38,47.3,12.35,71.54,15,31.23,3.48,62.85,1.48,94-3,60.6-8.69,119.72-26.68,180.64-32.69s126.39,1.45,175.17,38.43c66.72,50.58,86.14,146.47,66.09,227.76-11.68,47.31-34.89,95-23.84,142.51,9.7,41.69,43.69,72.68,65.4,109.57,50.49,85.75,23.91,203.59-57.56,260.72" transform="translate(-112.63 -131.39)"/><polygon class="cls-2" points="1254.26 937.22 723.67 937.22 723.67 321.75 728.18 321.75 728.18 932.71 1254.26 932.71 1254.26 937.22"/><polygon class="cls-2" points="1301.28 322.95 697.18 322.95 697.18 248.75 1280.64 248.75 1280.64 253.26 701.7 253.26 701.7 318.43 1301.28 318.43 1301.28 322.95"/><path class="cls-2" d="M1195.14,1068.56H893.45V659.41c0-83.18,67.66-150.85,150.84-150.85s150.85,67.67,150.85,150.85ZM898,1064.05h292.67V659.41c0-80.69-65.65-146.33-146.34-146.33S898,578.72,898,659.41Z" transform="translate(-112.63 -131.39)"/><rect class="cls-2" x="783.07" y="518.48" width="297" height="4.51"/><rect class="cls-2" x="929.41" y="379.43" width="4.51" height="141.31"/><path class="cls-2" d="M1129.61,652.13h-4.51a80.9,80.9,0,0,0-161.79,0h-4.52a85.41,85.41,0,1,1,170.82,0Z" transform="translate(-112.63 -131.39)"/><path class="cls-2" d="M1080.12,652.13h-4.51a31.41,31.41,0,0,0-62.81,0h-4.52a35.92,35.92,0,1,1,71.84,0Z" transform="translate(-112.63 -131.39)"/><rect class="cls-2" x="1023.3" y="599.21" width="143.31" height="4.51" transform="translate(-217.22 819.03) rotate(-45)"/><rect class="cls-2" x="987.16" y="529.8" width="4.51" height="143.31" transform="translate(-248.14 744.39) rotate(-45)"/><rect class="cls-2" x="929.31" y="520.74" width="4.51" height="412.55"/><circle class="cls-7" cx="557.99" cy="359.97" r="108.05"/><path class="cls-7" d="M308.43,609.18c26.93-126.2,88.41-112,128.52-174,37.47-57.93,11.24-103,30.27-181.41,13.83-57,51.55-105.62,103.58-116.57,58.07-12.22,88.88-3.5,118.4,11.51,37.35,19,78.18,74.37,80,157.84,2.71,122.68-105.68,101-94.32,156.69C685.68,516,847.17,756.08,779,789s-164.69,55.66-245.33,52.25S390.49,822.36,348.56,775C311,732.6,296.32,666,308.43,609.18Z" transform="translate(-112.63 -131.39)"/><path class="cls-2" d="M493.68,418.82l-3.09-3.29a30.58,30.58,0,0,0,7-34.56l-.22-.48,4.13-1.83.22.49A35.11,35.11,0,0,1,493.68,418.82Z" transform="translate(-112.63 -131.39)"/><path class="cls-2" d="M676.85,210.05a39.33,39.33,0,0,1-13.2-46.37l.53-1.33,4.19,1.67-.53,1.34a34.81,34.81,0,0,0,11.68,41.06Z" transform="translate(-112.63 -131.39)"/><path class="cls-2" d="M308.49,687.13c-4.57-35.67,27.78-95,64-103.17l1,4.4c-33.64,7.53-64.8,65-60.55,98.2Z" transform="translate(-112.63 -131.39)"/><path class="cls-8" d="M403.07,688.71c-3.54,28-11.07,104.24-7,143.28s64.82,36.56,64.82,36.56l31.25-206.27Z" transform="translate(-112.63 -131.39)"/><polygon class="cls-9" points="379.51 530.89 290.44 557.32 288.92 569.37 369.61 575.4 379.51 530.89"/><path class="cls-1" d="M778.08,1065.47H446l13.27-52.77A761.22,761.22,0,0,0,480.84,781l1.4-76.13-89.65-15.33s.57-19.47,13.63-77.22C440.3,481.14,513.54,433.45,567.63,422.24l39.61,7.13,39.62-7.13a157.15,157.15,0,0,1,32.87,11.06c51.08,23.31,112.34,78.32,137.3,171.24,9.7,64.1,10.72,82.66,10.72,83l-66,14.58-.1,0h0l-20.42,4.13,2,94.41v.15l2.17,104,20.82,102.1Z" transform="translate(-112.63 -131.39)"/><g class="cls-10"><rect class="cls-11" x="277.99" y="367.93" width="475.93" height="8.07"/><rect class="cls-11" x="277.99" y="413.47" width="475.93" height="8.07"/><rect class="cls-11" x="277.99" y="459.01" width="475.93" height="8.07"/><rect class="cls-11" x="277.99" y="504.56" width="475.93" height="8.07"/><rect class="cls-11" x="277.99" y="550.1" width="475.93" height="8.07"/><rect class="cls-11" x="277.99" y="595.64" width="475.93" height="8.07"/><rect class="cls-11" x="277.99" y="641.18" width="475.93" height="8.07"/><rect class="cls-11" x="277.99" y="686.72" width="475.93" height="8.07"/><rect class="cls-11" x="277.99" y="732.26" width="475.93" height="8.07"/><rect class="cls-11" x="277.99" y="777.8" width="475.93" height="8.07"/><rect class="cls-11" x="277.99" y="823.34" width="475.93" height="8.07"/><rect class="cls-11" x="277.99" y="868.89" width="475.93" height="8.07"/><rect class="cls-11" x="277.99" y="914.43" width="475.93" height="8.07"/></g><path class="cls-12" d="M778.06,1065.33h-332l9.75-38.79A768.86,768.86,0,0,0,657,1042.83q20.25-1,40.57-3,36.5-3.61,73.2-10.49Z" transform="translate(-112.63 -131.39)"/><path class="cls-3" d="M406.22,612.32c-13.06,57.75-13.63,77.22-13.63,77.22l89.66,15.33L480.84,781c4.74,77.88-9.16,156-28.18,231.7l-13.26,52.76h97.9L568,858.22a955.35,955.35,0,0,0,10.31-139.93V611.38a393.3,393.3,0,0,0-42.9-178.62h0C487.36,454.36,433.88,505.83,406.22,612.32Z" transform="translate(-112.63 -131.39)"/><rect class="cls-13" x="452.99" y="670.89" width="64.54" height="3.69" transform="matrix(0.09, -1, 1, 0.09, -342.77, 961.18)"/><path class="cls-8" d="M821.38,674.15c2.92,28.07,17.06,112.62,12.14,151.55-3.27,25.83-31.08,32.85-49.42,34.65A16.57,16.57,0,0,1,766,846L741.21,653.93Z" transform="translate(-112.63 -131.39)"/><path class="cls-9" d="M748,706.29l76.3-8.95c-1.26-9.48-2.32-17.5-2.91-23.19l-80.17-20.22L766,846c0,.18.07.36.1.54Z" transform="translate(-112.63 -131.39)"/><path class="cls-9" d="M828,725.34c-1-7.89-2-15.42-2.91-22.34C825.78,709.07,826.8,716.7,828,725.34Z" transform="translate(-112.63 -131.39)"/><path class="cls-3" d="M766.15,1006.94l11.93,58.53H681l-24-150.6a1607,1607,0,0,1-20-252.53v-51A393.12,393.12,0,0,1,679.89,433q4.9,2.1,9.93,4.58l.09,0c51,25.1,113.58,77.48,127.12,166.94,9.7,64.11,10.72,82.66,10.72,83l-66.11,14.61h0l-20.42,4.13,2,94.41A1153.29,1153.29,0,0,0,766.15,1006.94Z" transform="translate(-112.63 -131.39)"/><path class="cls-13" d="M637,615.82l-3.58-.86C655.53,522.54,693,471,713.29,448.56L716,451C695.93,473.25,658.93,524.2,637,615.82Z" transform="translate(-112.63 -131.39)"/><path class="cls-14" d="M847.54,940.09l-9.23-.06.54-89.27a65,65,0,0,0-56.76-64.83,28.87,28.87,0,0,0-31.76,21.93l-29,120.48-9-2.15,29-120.49a38.1,38.1,0,0,1,41.9-28.93,74.24,74.24,0,0,1,64.83,74Z" transform="translate(-112.63 -131.39)"/><path class="cls-15" d="M873.55,1065.33H649.8q2.51-8,5.05-16c.7-2.19,1.39-4.36,2.1-6.54s1.32-4.06,2-6.08c.29-.91.59-1.82.89-2.73.83-2.53,1.67-5.06,2.5-7.57q3.12-9.44,6.29-18.61c.67-2,1.34-3.9,2-5.84.84-2.39,1.67-4.78,2.51-7.15l1.25-3.54,1.29-3.61q.63-1.73,1.23-3.42c.85-2.33,1.69-4.65,2.54-6.94l1.26-3.43c.43-1.15.85-2.29,1.28-3.42s.84-2.26,1.27-3.39.85-2.24,1.28-3.37.85-2.23,1.27-3.33c.67-1.74,1.33-3.45,2-5.17q2.87-7.31,5.73-14.37l1.3-3.16q1.3-3.15,2.61-6.25,2.61-6.19,5.24-12.17.66-1.5,1.32-3c.88-2,1.77-3.93,2.65-5.86.44-1,.89-1.92,1.33-2.87h0c.33-.72.65-1.43,1-2.13l144.59,19C864.65,965.26,870.57,1013.25,873.55,1065.33Z" transform="translate(-112.63 -131.39)"/><path class="cls-16" d="M803.64,1049.14l-1.28-3.46a99,99,0,0,0,46.42-35.94c2.15-3.08,4.16-6.36,6.11-9.53l1.61.91,1.54,1c-2,3.21-4,6.53-6.23,9.7A102.68,102.68,0,0,1,803.64,1049.14Z" transform="translate(-112.63 -131.39)"/><rect class="cls-4" x="780.06" y="863.72" width="3.69" height="145.84" transform="translate(-361.31 1458.38) rotate(-82.51)"/><path class="cls-17" d="M708,907.58c-8.53,39-5.8,83.87-10.46,132.25-.8,8.39-1.83,16.9-3.18,25.5H649.8q2.51-8,5.05-16c.7-2.19,1.39-4.36,2.1-6.54s1.32-4.06,2-6.08c.29-.91.59-1.82.89-2.73.83-2.53,1.67-5.06,2.5-7.57q3.12-9.44,6.29-18.61c.67-2,1.34-3.9,2-5.84.84-2.39,1.67-4.78,2.51-7.15l1.25-3.54,1.29-3.61q.63-1.73,1.23-3.42c.85-2.33,1.69-4.65,2.54-6.94l1.26-3.43c.43-1.15.85-2.29,1.28-3.42s.84-2.26,1.27-3.39.85-2.24,1.28-3.37.85-2.23,1.27-3.33c.67-1.74,1.33-3.45,2-5.17q2.87-7.31,5.73-14.37l1.3-3.16q1.3-3.15,2.61-6.25,2.61-6.19,5.24-12.17.66-1.5,1.32-3c.88-2,1.77-3.93,2.65-5.86C707.09,909.49,707.54,908.53,708,907.58Z" transform="translate(-112.63 -131.39)"/><path class="cls-15" d="M377.72,940.74l-1.34-105.33a56.81,56.81,0,0,1,112-14.35l25.88,104.7-10.4,2.58L477.93,823.63a46.09,46.09,0,0,0-90.83,11.64l1.34,105.33Z" transform="translate(-112.63 -131.39)"/><path class="cls-2" d="M577.23,1065.33H353.31c2.66-51.79,8.25-99.54,19-140.21l144.46-20C537.88,949.42,557.82,1004.72,577.23,1065.33Z" transform="translate(-112.63 -131.39)"/><g class="cls-18"><g class="cls-19"><path class="cls-7" d="M355.53,948A9.84,9.84,0,1,0,364,937,9.84,9.84,0,0,0,355.53,948Z" transform="translate(-112.63 -131.39)"/><circle class="cls-7" cx="414.81" cy="940" r="9.84" transform="translate(-696.95 568.99) rotate(-52.7)"/><circle class="cls-7" cx="464.33" cy="933.31" r="9.84" transform="translate(-672.11 605.75) rotate(-52.7)"/><path class="cls-7" d="M504.1,927.93a9.84,9.84,0,1,0,8.43-11.08A9.83,9.83,0,0,0,504.1,927.93Z" transform="translate(-112.63 -131.39)"/><path class="cls-20" d="M336.25,991.89a9.84,9.84,0,1,0,8.43-11.07A9.83,9.83,0,0,0,336.25,991.89Z" transform="translate(-112.63 -131.39)"/><circle class="cls-7" cx="395.52" cy="983.87" r="9.84" transform="translate(-739.45 570.94) rotate(-52.7)"/><circle class="cls-7" cx="445.05" cy="977.17" r="9.84" transform="translate(-714.6 607.7) rotate(-52.7)"/><circle class="cls-7" cx="494.57" cy="970.48" r="9.84" transform="translate(-689.76 644.45) rotate(-52.7)"/><path class="cls-7" d="M366.49,1029.06a9.84,9.84,0,1,0,8.43-11.07A9.84,9.84,0,0,0,366.49,1029.06Z" transform="translate(-112.63 -131.39)"/><circle class="cls-7" cx="425.77" cy="1021.04" r="9.84" transform="translate(-757.1 609.65) rotate(-52.7)"/><path class="cls-7" d="M465.53,1015.66a9.84,9.84,0,1,0,8.44-11.07A9.85,9.85,0,0,0,465.53,1015.66Z" transform="translate(-112.63 -131.39)"/><circle class="cls-7" cx="524.81" cy="1007.65" r="9.84" transform="translate(-464.86 154.05) rotate(-23.02)"/><path class="cls-7" d="M347.21,1072.93a9.84,9.84,0,1,0,8.43-11.08A9.84,9.84,0,0,0,347.21,1072.93Z" transform="translate(-112.63 -131.39)"/><path class="cls-7" d="M396.73,1066.23a9.84,9.84,0,1,0,8.44-11.08A9.84,9.84,0,0,0,396.73,1066.23Z" transform="translate(-112.63 -131.39)"/><path class="cls-7" d="M446.25,1059.53a9.84,9.84,0,1,0,8.44-11.07A9.86,9.86,0,0,0,446.25,1059.53Z" transform="translate(-112.63 -131.39)"/><path class="cls-7" d="M495.78,1052.83a9.84,9.84,0,1,0,8.43-11.07A9.83,9.83,0,0,0,495.78,1052.83Z" transform="translate(-112.63 -131.39)"/><path class="cls-7" d="M534.34,965.1A9.84,9.84,0,1,0,542.77,954,9.84,9.84,0,0,0,534.34,965.1Z" transform="translate(-112.63 -131.39)"/><path class="cls-7" d="M545.3,1046.13a9.84,9.84,0,1,0,8.43-11.07A9.84,9.84,0,0,0,545.3,1046.13Z" transform="translate(-112.63 -131.39)"/><path class="cls-20" d="M603.14,914.53a9.84,9.84,0,1,0,8.44-11.07A9.85,9.85,0,0,0,603.14,914.53Z" transform="translate(-112.63 -131.39)"/><path class="cls-20" d="M614.1,995.57a9.84,9.84,0,1,0,8.44-11.07A9.84,9.84,0,0,0,614.1,995.57Z" transform="translate(-112.63 -131.39)"/></g></g><path class="cls-21" d="M577,379.58,568.14,429a38,38,0,0,0,37.4,44.67h0A38,38,0,0,0,642.93,429l-8.82-49.43Z" transform="translate(-112.63 -131.39)"/><path class="cls-21" d="M559.26,688.08,569.07,652a32.83,32.83,0,0,1,14.8-19.53l35.41-21.18,2.12,12.47-31.66,76.17Z" transform="translate(-112.63 -131.39)"/><path class="cls-8" d="M704.64,652.45s-14-45.15-15.15-48.56-38.24-62.75-38.24-62.75l-19.31,76.1,37.17,75.43Z" transform="translate(-112.63 -131.39)"/><path class="cls-8" d="M704.64,652.45c44.52,55.74,93,110.56,125.91,182.06h0C813.44,870,764,872.4,743.32,838.87c-29.81-48.44-57-99.58-71.15-155.79Z" transform="translate(-112.63 -131.39)"/><path class="cls-9" d="M800,780.23c-14-21.65-34.11-49.77-51.36-71.64l1.44-1.14c17.29,21.91,37.49,50.08,51.48,71.78Z" transform="translate(-112.63 -131.39)"/><rect class="cls-22" x="472.47" y="395.75" width="93.7" height="204.84" rx="10.31"/><path class="cls-8" d="M557.77,688.71s21.54-46.06,34.93-60L626.18,594a6.72,6.72,0,0,1,9.93.29h0a6.72,6.72,0,0,1,.33,8.32l-34.73,47.8,43.9-46.37a7,7,0,0,1,10-.11h0a7,7,0,0,1,.59,9.15l-37.34,49,35.53-34.77a6.56,6.56,0,0,1,9.43.27h0a6.57,6.57,0,0,1,.26,8.54l-34.87,43.16L660.84,651a5.09,5.09,0,0,1,7.66,1h0a5.08,5.08,0,0,1-.32,6l-7.59,9.32c-24,29.68-48,50.34-79.7,71.64h0Z" transform="translate(-112.63 -131.39)"/><path class="cls-11" d="M598.37,551.74a7.17,7.17,0,1,0,7.17-7.16A7.17,7.17,0,0,0,598.37,551.74Z" transform="translate(-112.63 -131.39)"/><path class="cls-21" d="M567.94,163.24h10.88a18.65,18.65,0,0,1,18.65,18.65v0a18.65,18.65,0,0,1-18.65,18.65H567.94a0,0,0,0,1,0,0v-37.3A0,0,0,0,1,567.94,163.24Z"/><path class="cls-8" d="M514.68,236l11.86,95.92a122.66,122.66,0,0,0,53.52,86.91h0a48.86,48.86,0,0,0,54.36,0h0A122.71,122.71,0,0,0,688,331.88l2.59-21c.09-6.8,11.81-32.49-14.17-39-41.35-10.43-89.09-33.32-103.2-104.18h0Z" transform="translate(-112.63 -131.39)"/><path class="cls-9" d="M607.24,428a49.7,49.7,0,0,1-27.69-8.44l1-1.53a47.79,47.79,0,0,0,53.33,0l1,1.53A49.7,49.7,0,0,1,607.24,428Z" transform="translate(-112.63 -131.39)"/><polygon class="cls-9" points="576.23 200.6 574.4 200.38 576.99 179.4 578.83 179.63 576.23 200.6"/><circle class="cls-11" cx="698.58" cy="328.94" r="10.22" transform="translate(14.71 717.08) rotate(-67.5)"/><circle class="cls-11" cx="528.59" cy="328.94" r="10.22" transform="translate(-90.22 560.03) rotate(-67.5)"/><path class="cls-8" d="M559.2,685.49C502.87,729.25,448,779.86,399.3,841.67h0c8.3,38.33,55.74,52.57,83.55,24.92,40.41-40.18,78.91-83.6,105.91-135Z" transform="translate(-112.63 -131.39)"/><path class="cls-9" d="M445.68,789.23,444.33,788c11.29-12,23.22-24,35.48-35.7l1.27,1.34C468.85,765.24,456.94,777.23,445.68,789.23Z" transform="translate(-112.63 -131.39)"/><path class="cls-13" d="M574.12,615.82c-22-91.62-59-142.57-79.08-164.78l2.74-2.48c20.34,22.48,57.76,74,79.93,166.4Z" transform="translate(-112.63 -131.39)"/><path class="cls-13" d="M637.31,313.11c7.26-5.19,14.76-2.87,19.25-1.48a92.8,92.8,0,0,1-13.41,8.23Z" transform="translate(-112.63 -131.39)"/><path class="cls-13" d="M650.7,319.49a8.16,8.16,0,0,1-1.57,5H636a8.09,8.09,0,0,1-1.57-4.64v-.19a8.15,8.15,0,0,1,8-8.15h.17A8.17,8.17,0,0,1,650.7,319.49Z" transform="translate(-112.63 -131.39)"/><path class="cls-13" d="M590.05,313.11c-7.26-5.19-14.75-2.87-19.25-1.48a93.45,93.45,0,0,0,13.41,8.23Z" transform="translate(-112.63 -131.39)"/><path class="cls-13" d="M576.66,319.49a8.1,8.1,0,0,0,1.58,5h13.17a8.16,8.16,0,0,0,1.57-4.64v-.19a8.16,8.16,0,0,0-8-8.15h-.17A8.17,8.17,0,0,0,576.66,319.49Z" transform="translate(-112.63 -131.39)"/><path class="cls-7" d="M481.88,260.12c-20.45,35.28,14.78,77.5,52.75,62.63.62-.24,1.25-.5,1.87-.77,29.76-13,83.37-31.56,83.37-98.32,0-26,1.53-76.42,1.53-76.42l-89,25.84Z" transform="translate(-112.63 -131.39)"/><path class="cls-22" d="M536.86,322.83l-.73-1.7c1.79-.78,3.68-1.58,5.63-2.42,30.74-13.11,77.19-32.93,77.19-95h1.85c0,63.34-47.13,83.45-78.31,96.75Z" transform="translate(-112.63 -131.39)"/><path class="cls-9" d="M615,386.36c-1.12,0-2.25-.05-3.4-.14-13.6-1.1-26.28-8.45-33.09-19.19l1.56-1c6.51,10.26,18.65,17.29,31.68,18.34,11,.88,20.91-2.72,27.26-9.87l1.38,1.23C634.31,382.58,625.2,386.36,615,386.36Z" transform="translate(-112.63 -131.39)"/><path class="cls-13" d="M635.55,302.91s13-9.7,25.41-2.39c-7.69-6.95-18.18-6.79-27.88,0Z" transform="translate(-112.63 -131.39)"/><path class="cls-9" d="M615.49,356.47h-8.34v-1.84h8.34a2.4,2.4,0,0,0,2.39-2.58l-2.75-35.82,1.84-.14,2.75,35.82a4.23,4.23,0,0,1-4.23,4.56Z" transform="translate(-112.63 -131.39)"/><rect class="cls-13" x="742.38" y="640.47" width="3.69" height="64.55" transform="translate(-172.31 -58.8) rotate(-5.37)"/><path class="cls-4" d="M368.15,520.93V492.24a34.4,34.4,0,0,0-34.4-34.4H149.21a34.4,34.4,0,0,0-34.39,34.4v90.08a34.4,34.4,0,0,0,34.39,34.4H333.75a34.4,34.4,0,0,0,34.4-34.4V553.63l42.33-15.94Z" transform="translate(-112.63 -131.39)"/><path class="cls-2" d="M333.75,618.9H149.22a36.62,36.62,0,0,1-36.59-36.58V492.24a36.63,36.63,0,0,1,36.59-36.59H333.75a36.63,36.63,0,0,1,36.58,36.59v27.2l46.23,18.3-46.23,17.4v27.18A36.62,36.62,0,0,1,333.75,618.9ZM149.22,460A32.25,32.25,0,0,0,117,492.24v90.08a32.25,32.25,0,0,0,32.22,32.21H333.75A32.25,32.25,0,0,0,366,582.32v-30.2l38.45-14.48L366,522.41V492.24A32.25,32.25,0,0,0,333.75,460Z" transform="translate(-112.63 -131.39)"/><rect class="cls-15" x="107.26" y="358.53" width="113.18" height="11.23"/><rect class="cls-15" x="107.26" y="385.33" width="113.18" height="11.23"/><rect class="cls-15" x="107.26" y="416.45" width="113.18" height="11.23"/><rect class="cls-15" x="30.43" y="448.47" width="190" height="11.23"/><circle class="cls-15" cx="175.73" cy="522.33" r="32.68" transform="translate(-194.03 -96.5) rotate(-9.22)"/><path class="cls-11" d="M158.9,510.53a6,6,0,1,0,6-6A6,6,0,0,0,158.9,510.53Z" transform="translate(-112.63 -131.39)"/><path class="cls-11" d="M192.05,510.53a6,6,0,1,1-6-6A6,6,0,0,1,192.05,510.53Z" transform="translate(-112.63 -131.39)"/><path class="cls-11" d="M175.73,543.46a21.13,21.13,0,0,0,21.13-21.13H154.61A21.13,21.13,0,0,0,175.73,543.46Z" transform="translate(-112.63 -131.39)"/><polygon class="cls-8" points="937.09 475.58 912.57 455.03 883.64 475.37 898.41 492.24 937.09 475.58"/><path class="cls-8" d="M963.88,558.79l6.64,13.49a119.65,119.65,0,0,0,28.06,40.59h0l31.52-23.8-23-6.63-28.57-37.25Z" transform="translate(-112.63 -131.39)"/><path class="cls-21" d="M976.16,547l-19-17.15a4.84,4.84,0,0,0-7.23.85h0a4.83,4.83,0,0,0,.18,5.74l20.24,25.8Z" transform="translate(-112.63 -131.39)"/><path class="cls-11" d="M1033.2,570.8,974.74,466.44a5.51,5.51,0,0,0-6.33-2.6l-33.55,9.66a5.51,5.51,0,0,0-3.29,8l59.91,108.15a5.51,5.51,0,0,0,6.95,2.4l32.09-13.45A5.51,5.51,0,0,0,1033.2,570.8Z" transform="translate(-112.63 -131.39)"/><polygon class="cls-13" points="903.85 430.42 893.6 435.14 896.2 440.04 906.52 434.88 903.85 430.42"/><path class="cls-13" d="M1017.46,551.71l-44.88-78a4.32,4.32,0,0,0-4.94-2l-17.22,5a4.32,4.32,0,0,0-2.56,6.29l45.58,79.95a4.32,4.32,0,0,0,5.42,1.85l16.52-6.92A4.34,4.34,0,0,0,1017.46,551.71Z" transform="translate(-112.63 -131.39)"/><path class="cls-13" d="M934.86,473.5l2.34-.67a5.61,5.61,0,0,0,.63,1.93l62.24,112.36a5.7,5.7,0,0,0,3.57,2.73L998.43,592a5.51,5.51,0,0,1-6.95-2.4L931.57,481.48A5.51,5.51,0,0,1,934.86,473.5Z" transform="translate(-112.63 -131.39)"/><path class="cls-8" d="M972.67,543l-4.56,4a12.48,12.48,0,0,0-1.29,17.4l.61.72,11.22-10.12a8.16,8.16,0,0,0,1-11.5h0A4.87,4.87,0,0,0,972.67,543Z" transform="translate(-112.63 -131.39)"/><path class="cls-8" d="M983.53,553.71l-5.07,1.65A11,11,0,0,0,971.37,569l.24.78,12.57-4.26a7.15,7.15,0,0,0,4.78-8.93h0A4.27,4.27,0,0,0,983.53,553.71Z" transform="translate(-112.63 -131.39)"/><path class="cls-8" d="M992.42,564l-15.67,1.08.54,11.28,12.94-1.05A7,7,0,0,0,996.9,568h0A4.19,4.19,0,0,0,992.42,564Z" transform="translate(-112.63 -131.39)"/><path class="cls-8" d="M1013.14,591.79c1.14-7.12,1.2-17.41,10.41-27.11l-7.71-21.27a5.77,5.77,0,0,1,3.41-7.36l1.32-.5,16.68,27v33.63Z" transform="translate(-112.63 -131.39)"/><path class="cls-22" d="M998.58,612.87c21.24,18,65.21,81.24,110.13,123.33a14.88,14.88,0,0,0,19.43,2.42c47.27-32.2,84.68-74.44,124.17-111.56l-55.76-67.8c-30.66,35.52-57.07,70.66-69.41,104.5-1.79,2.72-24.13-19-71.41-55.79l-18.48-11.76C1030.11,611.83,1017.17,617.3,998.58,612.87Z" transform="translate(-112.63 -131.39)"/><path class="cls-2" d="M1199.37,520.18h0A159.89,159.89,0,0,0,1167,663.63c21.68,82.72,52,207.85,52.91,263.18h151.79V776.71c0-91.33-21.77-171.12-68.54-249.57h0c-8.7-14.61-33.19-32.87-49.36-27.63Z" transform="translate(-112.63 -131.39)"/><polygon class="cls-12" points="1097.89 795.42 1057.51 933.29 1181.1 933.29 1181.1 795.42 1097.89 795.42"/><path class="cls-12" d="M1371.71,926.81l1.27,11.65a325.5,325.5,0,0,1-5.45,103.94h0l4.18,22.28H1260.08l-14.44-137.87Z" transform="translate(-112.63 -131.39)"/><rect class="cls-2" x="1239.97" y="1003.44" width="4.51" height="61.6" transform="translate(-255.95 70.36) rotate(-8.78)"/><rect class="cls-20" x="1007.42" y="738.33" width="234.95" height="116.98"/><rect class="cls-3" x="1007.42" y="738.33" width="234.95" height="116.98"/><g class="cls-23"><g class="cls-24"><path class="cls-4" d="M1110.37,863.44a6.11,6.11,0,1,0,6.11-6.1A6.11,6.11,0,0,0,1110.37,863.44Z" transform="translate(-112.63 -131.39)"/><path class="cls-4" d="M1141.36,863.44a6.1,6.1,0,1,0,6.1-6.1A6.1,6.1,0,0,0,1141.36,863.44Z" transform="translate(-112.63 -131.39)"/><path class="cls-4" d="M1172.34,863.44a6.1,6.1,0,1,0,6.1-6.1A6.1,6.1,0,0,0,1172.34,863.44Z" transform="translate(-112.63 -131.39)"/><path class="cls-4" d="M1203.32,863.44a6.1,6.1,0,1,0,6.1-6.1A6.1,6.1,0,0,0,1203.32,863.44Z" transform="translate(-112.63 -131.39)"/><path class="cls-4" d="M1234.3,863.44a6.11,6.11,0,1,0,6.1-6.1A6.1,6.1,0,0,0,1234.3,863.44Z" transform="translate(-112.63 -131.39)"/><path class="cls-4" d="M1265.28,863.44a6.11,6.11,0,1,0,6.11-6.1A6.11,6.11,0,0,0,1265.28,863.44Z" transform="translate(-112.63 -131.39)"/><path class="cls-11" d="M1125.87,888.79a6.1,6.1,0,1,0,6.1-6.1A6.1,6.1,0,0,0,1125.87,888.79Z" transform="translate(-112.63 -131.39)"/><path class="cls-11" d="M1156.85,888.79a6.1,6.1,0,1,0,6.1-6.1A6.1,6.1,0,0,0,1156.85,888.79Z" transform="translate(-112.63 -131.39)"/><path class="cls-11" d="M1187.83,888.79a6.1,6.1,0,1,0,6.1-6.1A6.1,6.1,0,0,0,1187.83,888.79Z" transform="translate(-112.63 -131.39)"/><path class="cls-11" d="M1218.81,888.79a6.11,6.11,0,1,0,6.1-6.1A6.1,6.1,0,0,0,1218.81,888.79Z" transform="translate(-112.63 -131.39)"/><path class="cls-4" d="M1249.79,888.79a6.11,6.11,0,1,0,6.1-6.1A6.1,6.1,0,0,0,1249.79,888.79Z" transform="translate(-112.63 -131.39)"/><path class="cls-4" d="M1110.37,914.14a6.11,6.11,0,1,0,6.11-6.1A6.11,6.11,0,0,0,1110.37,914.14Z" transform="translate(-112.63 -131.39)"/><path class="cls-4" d="M1141.36,914.14a6.1,6.1,0,1,0,6.1-6.1A6.1,6.1,0,0,0,1141.36,914.14Z" transform="translate(-112.63 -131.39)"/><path class="cls-4" d="M1172.34,914.14a6.1,6.1,0,1,0,6.1-6.1A6.1,6.1,0,0,0,1172.34,914.14Z" transform="translate(-112.63 -131.39)"/><path class="cls-4" d="M1203.32,914.14a6.1,6.1,0,1,0,6.1-6.1A6.1,6.1,0,0,0,1203.32,914.14Z" transform="translate(-112.63 -131.39)"/><path class="cls-4" d="M1234.3,914.14a6.11,6.11,0,1,0,6.1-6.1A6.1,6.1,0,0,0,1234.3,914.14Z" transform="translate(-112.63 -131.39)"/><path class="cls-4" d="M1265.28,914.14a6.11,6.11,0,1,0,6.11-6.1A6.11,6.11,0,0,0,1265.28,914.14Z" transform="translate(-112.63 -131.39)"/><path class="cls-4" d="M1125.87,939.49a6.1,6.1,0,1,0,6.1-6.1A6.1,6.1,0,0,0,1125.87,939.49Z" transform="translate(-112.63 -131.39)"/><path class="cls-4" d="M1156.85,939.49a6.1,6.1,0,1,0,6.1-6.1A6.1,6.1,0,0,0,1156.85,939.49Z" transform="translate(-112.63 -131.39)"/><path class="cls-4" d="M1187.83,939.49a6.1,6.1,0,1,0,6.1-6.1A6.1,6.1,0,0,0,1187.83,939.49Z" transform="translate(-112.63 -131.39)"/><path class="cls-4" d="M1218.81,939.49a6.11,6.11,0,1,0,6.1-6.1A6.1,6.1,0,0,0,1218.81,939.49Z" transform="translate(-112.63 -131.39)"/><path class="cls-4" d="M1249.79,939.49a6.11,6.11,0,1,0,6.1-6.1A6.1,6.1,0,0,0,1249.79,939.49Z" transform="translate(-112.63 -131.39)"/><path class="cls-4" d="M1110.37,964.84a6.11,6.11,0,1,0,6.11-6.11A6.11,6.11,0,0,0,1110.37,964.84Z" transform="translate(-112.63 -131.39)"/><path class="cls-4" d="M1141.36,964.84a6.1,6.1,0,1,0,6.1-6.11A6.1,6.1,0,0,0,1141.36,964.84Z" transform="translate(-112.63 -131.39)"/><path class="cls-4" d="M1172.34,964.84a6.1,6.1,0,1,0,6.1-6.11A6.1,6.1,0,0,0,1172.34,964.84Z" transform="translate(-112.63 -131.39)"/><path class="cls-4" d="M1203.32,964.84a6.1,6.1,0,1,0,6.1-6.11A6.1,6.1,0,0,0,1203.32,964.84Z" transform="translate(-112.63 -131.39)"/><path class="cls-4" d="M1234.3,964.84a6.11,6.11,0,1,0,6.1-6.11A6.1,6.1,0,0,0,1234.3,964.84Z" transform="translate(-112.63 -131.39)"/><path class="cls-4" d="M1265.28,964.84a6.11,6.11,0,1,0,6.11-6.11A6.11,6.11,0,0,0,1265.28,964.84Z" transform="translate(-112.63 -131.39)"/><path class="cls-4" d="M1125.87,990.19a6.1,6.1,0,1,0,6.1-6.11A6.1,6.1,0,0,0,1125.87,990.19Z" transform="translate(-112.63 -131.39)"/><path class="cls-4" d="M1156.85,990.19a6.1,6.1,0,1,0,6.1-6.11A6.1,6.1,0,0,0,1156.85,990.19Z" transform="translate(-112.63 -131.39)"/><path class="cls-4" d="M1187.83,990.19a6.1,6.1,0,1,0,6.1-6.11A6.1,6.1,0,0,0,1187.83,990.19Z" transform="translate(-112.63 -131.39)"/><path class="cls-4" d="M1218.81,990.19a6.11,6.11,0,1,0,6.1-6.11A6.1,6.1,0,0,0,1218.81,990.19Z" transform="translate(-112.63 -131.39)"/><path class="cls-4" d="M1249.79,990.19a6.11,6.11,0,1,0,6.1-6.11A6.1,6.1,0,0,0,1249.79,990.19Z" transform="translate(-112.63 -131.39)"/><path class="cls-4" d="M1296.26,863.44a6.11,6.11,0,1,0,6.11-6.1A6.11,6.11,0,0,0,1296.26,863.44Z" transform="translate(-112.63 -131.39)"/><path class="cls-4" d="M1280.77,888.79a6.11,6.11,0,1,0,6.11-6.1A6.11,6.11,0,0,0,1280.77,888.79Z" transform="translate(-112.63 -131.39)"/><path class="cls-4" d="M1296.26,914.14a6.11,6.11,0,1,0,6.11-6.1A6.11,6.11,0,0,0,1296.26,914.14Z" transform="translate(-112.63 -131.39)"/><path class="cls-4" d="M1280.77,939.49a6.11,6.11,0,1,0,6.11-6.1A6.11,6.11,0,0,0,1280.77,939.49Z" transform="translate(-112.63 -131.39)"/><path class="cls-4" d="M1296.26,964.84a6.11,6.11,0,1,0,6.11-6.11A6.11,6.11,0,0,0,1296.26,964.84Z" transform="translate(-112.63 -131.39)"/><path class="cls-4" d="M1280.77,990.19a6.11,6.11,0,1,0,6.11-6.11A6.11,6.11,0,0,0,1280.77,990.19Z" transform="translate(-112.63 -131.39)"/><path class="cls-4" d="M1296.26,863.44a6.11,6.11,0,1,0,6.11-6.1A6.11,6.11,0,0,0,1296.26,863.44Z" transform="translate(-112.63 -131.39)"/><path class="cls-4" d="M1327.25,863.44a6.1,6.1,0,1,0,6.1-6.1A6.1,6.1,0,0,0,1327.25,863.44Z" transform="translate(-112.63 -131.39)"/><path class="cls-4" d="M1311.76,888.79a6.1,6.1,0,1,0,6.1-6.1A6.1,6.1,0,0,0,1311.76,888.79Z" transform="translate(-112.63 -131.39)"/><path class="cls-4" d="M1296.26,914.14a6.11,6.11,0,1,0,6.11-6.1A6.11,6.11,0,0,0,1296.26,914.14Z" transform="translate(-112.63 -131.39)"/><path class="cls-4" d="M1327.25,914.14a6.1,6.1,0,1,0,6.1-6.1A6.1,6.1,0,0,0,1327.25,914.14Z" transform="translate(-112.63 -131.39)"/><path class="cls-4" d="M1311.76,939.49a6.1,6.1,0,1,0,6.1-6.1A6.1,6.1,0,0,0,1311.76,939.49Z" transform="translate(-112.63 -131.39)"/><path class="cls-4" d="M1296.26,964.84a6.11,6.11,0,1,0,6.11-6.11A6.11,6.11,0,0,0,1296.26,964.84Z" transform="translate(-112.63 -131.39)"/><path class="cls-4" d="M1327.25,964.84a6.1,6.1,0,1,0,6.1-6.11A6.1,6.1,0,0,0,1327.25,964.84Z" transform="translate(-112.63 -131.39)"/><path class="cls-4" d="M1311.76,990.19a6.1,6.1,0,1,0,6.1-6.11A6.1,6.1,0,0,0,1311.76,990.19Z" transform="translate(-112.63 -131.39)"/><path class="cls-4" d="M1327.25,863.44a6.1,6.1,0,1,0,6.1-6.1A6.1,6.1,0,0,0,1327.25,863.44Z" transform="translate(-112.63 -131.39)"/><path class="cls-4" d="M1358.23,863.44a6.1,6.1,0,1,0,6.1-6.1A6.1,6.1,0,0,0,1358.23,863.44Z" transform="translate(-112.63 -131.39)"/><path class="cls-4" d="M1342.74,888.79a6.1,6.1,0,1,0,6.1-6.1A6.1,6.1,0,0,0,1342.74,888.79Z" transform="translate(-112.63 -131.39)"/><path class="cls-4" d="M1327.25,914.14a6.1,6.1,0,1,0,6.1-6.1A6.1,6.1,0,0,0,1327.25,914.14Z" transform="translate(-112.63 -131.39)"/><path class="cls-4" d="M1358.23,914.14a6.1,6.1,0,1,0,6.1-6.1A6.1,6.1,0,0,0,1358.23,914.14Z" transform="translate(-112.63 -131.39)"/><path class="cls-4" d="M1342.74,939.49a6.1,6.1,0,1,0,6.1-6.1A6.1,6.1,0,0,0,1342.74,939.49Z" transform="translate(-112.63 -131.39)"/><path class="cls-4" d="M1327.25,964.84a6.1,6.1,0,1,0,6.1-6.11A6.1,6.1,0,0,0,1327.25,964.84Z" transform="translate(-112.63 -131.39)"/><path class="cls-4" d="M1358.23,964.84a6.1,6.1,0,1,0,6.1-6.11A6.1,6.1,0,0,0,1358.23,964.84Z" transform="translate(-112.63 -131.39)"/><path class="cls-4" d="M1342.74,990.19a6.1,6.1,0,1,0,6.1-6.11A6.1,6.1,0,0,0,1342.74,990.19Z" transform="translate(-112.63 -131.39)"/></g></g><rect class="cls-25" x="1007.42" y="765.37" width="234.95" height="3.57"/><rect class="cls-4" x="1075.76" y="674.77" width="194.46" height="64.45"/><path class="cls-14" d="M1382,807.05v62.67H1189.28V807.05H1382m1.79-1.78H1187.5V871.5h196.24V805.27Z" transform="translate(-112.63 -131.39)"/><polygon class="cls-2" points="1311.85 787.36 1292.82 793.11 1287.07 812.14 1320.19 845.26 1344.97 820.48 1311.85 787.36"/><circle class="cls-4" cx="1303.88" cy="804.17" r="6.88"/><path class="cls-26" d="M1413.34,938.73a4.48,4.48,0,1,0,0-6.33A4.47,4.47,0,0,0,1413.34,938.73Z" transform="translate(-112.63 -131.39)"/><rect class="cls-4" x="1423.07" y="941.33" width="22.15" height="23.73" transform="translate(-366.59 1161.88) rotate(-45)"/><path class="cls-15" d="M1413.24,934.56l-5.19-5.94a122.16,122.16,0,0,1-27.84-56.44l-.88-4.42,1.75-.34.88,4.41a120.44,120.44,0,0,0,27.43,55.62l5.19,5.94Z" transform="translate(-112.63 -131.39)"/><polygon class="cls-20" points="1269.32 726.91 1076.65 738.33 1269.32 738.33 1269.32 726.91"/><rect class="cls-4" x="1076.65" y="675.66" width="192.67" height="62.67"/><path class="cls-2" d="M1384.14,871.9h-197v-67h197Zm-192.67-4.37h188.3V809.24h-188.3Z" transform="translate(-112.63 -131.39)"/><g class="cls-27"><rect class="cls-4" x="1113.96" y="755.53" width="210.84" height="6.19" transform="translate(-291.91 953.04) rotate(-45)"/><rect class="cls-2" x="1138.67" y="780.25" width="210.84" height="6.19" transform="translate(-302.15 977.75) rotate(-45)"/><rect class="cls-2" x="1163.38" y="804.96" width="210.84" height="6.19" transform="translate(-312.39 1002.46) rotate(-45)"/><rect class="cls-20" x="1188.1" y="829.67" width="210.84" height="6.19" transform="translate(-322.62 1027.18) rotate(-45)"/><rect class="cls-2" x="1212.81" y="854.39" width="210.84" height="6.19" transform="translate(-332.86 1051.89) rotate(-45)"/><rect class="cls-2" x="1237.52" y="879.1" width="210.84" height="6.19" transform="translate(-343.1 1076.61) rotate(-45)"/></g><path class="cls-2" d="M1243.13,642.77l39.45,130.86L1245,926.81h40.39c27.92-49.73,49.9-100.35,57.09-153.18L1316.63,619.1Z" transform="translate(-112.63 -131.39)"/><polygon class="cls-13" points="1225.47 676.08 1221.18 675.24 1227.61 642.21 1201.84 488.07 1206.15 487.35 1232.06 642.27 1225.47 676.08"/><polygon class="cls-13" points="1164.07 675.41 1159.82 674.37 1167.69 642.3 1128.4 512.01 1132.59 510.75 1172.22 642.18 1164.07 675.41"/><path class="cls-8" d="M1245,926.81l-13.39,26.8a30.22,30.22,0,0,0,1.24,29.27l2.39,3.92a14.35,14.35,0,0,0,12.23,6.86h40.84A14.33,14.33,0,0,0,1302.13,983h0a30.87,30.87,0,0,0-1.41-20l-15.35-36.19Z" transform="translate(-112.63 -131.39)"/><path class="cls-15" d="M1099.26,416.74c-35.24-1.72-61.25-24-55.84-35.63,4.17-9,34.22,11.27,36-10Z" transform="translate(-112.63 -131.39)"/><path class="cls-8" d="M1072.31,379.93l9.16,15.34a183.42,183.42,0,0,1,24.68,72.52h0a7.66,7.66,0,0,0,9.09,6.63l7.77-1.52c3.23,2.8,4.17,7.86,4.21,13.81a3,3,0,0,0,3,3c17.77,0,26.6-4.75,36.09-18.11,1.52,16.65-13.12,24.4-25,29.17a4.21,4.21,0,0,0-2,6.21l9.52,14.55a16.41,16.41,0,0,0,24.32,3.6c5.28-4.5,11.35-8.37,20-12.6l3.36,37.55c15.86-19.16,40.23-32.82,63.83-41.25l-18.1-42.52-5.57-108.62Z" transform="translate(-112.63 -131.39)"/><path class="cls-15" d="M1164,362.4c-10.21,16.71,3.68,48.72,23.44,52.66a28.94,28.94,0,0,0,9.21.22c21.29-2.66,35.5-23.4,31.23-44.42l-5.16-25.44Z" transform="translate(-112.63 -131.39)"/><path class="cls-15" d="M1082.88,397.67c-25.07-6.7-46.43-38.27-43.64-64.26s29.71-62.21,48.28-69.63,26.92.93,25.06,8.35-7.42,18.57-5.57,28.78c14.86-16.71,76.14-31.56,107.7-16.71s36.21,49.21,37.14,67.78-9.65,114.29-9.65,114.29-19.62-20.26-20.06-40.19c-.62-27.86-12.66-49.32-31.57-53.68-46.14-10.63-71.59,37.39-107.69,25.27" transform="translate(-112.63 -131.39)"/><path class="cls-15" d="M1231.85,365.32a67.28,67.28,0,0,1,2.82-14.2c2.59,1.82,6.24,1.45,9-.08s4.87-4,6.9-6.45l.07-.09a4.66,4.66,0,0,1,8.24,3.27,29.78,29.78,0,0,1-2,8.69,34.76,34.76,0,0,1-3.42,6.43c-3.69,5.51-9.72,10.4-16.28,9.48-2-.29-4.17-1.3-5-3.2A7.93,7.93,0,0,1,1231.85,365.32Z" transform="translate(-112.63 -131.39)"/><path class="cls-16" d="M1082.42,399.39c-10-2.65-19.9-9.31-28-18.75l2.7-2.33c7.66,8.9,17,15.16,26.25,17.64Z" transform="translate(-112.63 -131.39)"/><path class="cls-4" d="M1140.44,413.57a1.76,1.76,0,0,1-1.57-.93,1.78,1.78,0,0,1,.72-2.42l42.14-22.84,46.46,4.75a1.78,1.78,0,1,1-.36,3.55l-45.37-4.63-41.17,22.31A1.87,1.87,0,0,1,1140.44,413.57Z" transform="translate(-112.63 -131.39)"/><path class="cls-15" d="M1098.51,309.55c15-27.6,36.47-43.39,48.32-43.32,6.65,0-8.91,34,0,36.61Z" transform="translate(-112.63 -131.39)"/><path class="cls-4" d="M1123.52,449.52A23.45,23.45,0,1,1,1147,426.08,23.47,23.47,0,0,1,1123.52,449.52Zm0-43.32a19.88,19.88,0,1,0,19.88,19.88A19.9,19.9,0,0,0,1123.52,406.2Z" transform="translate(-112.63 -131.39)"/><path class="cls-22" d="M1124.34,420.79a8,8,0,0,0-8,8,8.19,8.19,0,0,0,.41,2.54l15.43-4.49A8,8,0,0,0,1124.34,420.79Z" transform="translate(-112.63 -131.39)"/><path class="cls-8" d="M1195.85,391.82h0a20.5,20.5,0,0,1,27.89,13.94h0a20.52,20.52,0,0,1-7.47,21.24l-8.39,6.4-13.15-39.1A2,2,0,0,1,1195.85,391.82Z" transform="translate(-112.63 -131.39)"/><path class="cls-28" d="M1214.69,429.33l-1.09-1.42,2.13-1.62a19.61,19.61,0,0,0,7.14-20.32l1.73-.42a21.37,21.37,0,0,1-7.79,22.16Z" transform="translate(-112.63 -131.39)"/><path class="cls-28" d="M1212,413.78a1,1,0,0,1-.4-.1.89.89,0,0,1-.39-1.2,6.88,6.88,0,0,0,.54-2.25,5.92,5.92,0,0,0-.2-3,2.61,2.61,0,0,0-4.91,1.69.89.89,0,1,1-1.74.42,4.4,4.4,0,0,1,8.28-2.85,7.58,7.58,0,0,1,.34,4,8.48,8.48,0,0,1-.72,2.86A.9.9,0,0,1,1212,413.78Z" transform="translate(-112.63 -131.39)"/><path class="cls-16" d="M1106.32,330.2c-6.09-12.91-3-23.95,1.16-33.95l3.29,1.38c-4.49,10.68-6.42,20.05-1.22,31.05Z" transform="translate(-112.63 -131.39)"/><path class="cls-16" d="M1153,353.83c-4.48-5.91-6.41-12.91-5.29-19.22l3.51.63c-.94,5.32.74,11.32,4.63,16.44Z" transform="translate(-112.63 -131.39)"/><path class="cls-16" d="M1223.31,379.06l-3.56-.06.18-10.13a28.46,28.46,0,0,0-14.25-25.2l1.78-3.1a32.06,32.06,0,0,1,16,28.36Z" transform="translate(-112.63 -131.39)"/><path class="cls-8" d="M1243.75,929.29l-19.35,16.62a4.93,4.93,0,0,0-1.2,6h0a4.93,4.93,0,0,0,7,2l16.74-10.26Z" transform="translate(-112.63 -131.39)"/><path class="cls-4" d="M1191.35,604a6.19,6.19,0,1,0,6.19-6.19A6.19,6.19,0,0,0,1191.35,604Z" transform="translate(-112.63 -131.39)"/><path class="cls-4" d="M1195.34,651.24a6.19,6.19,0,1,0,6.19-6.19A6.19,6.19,0,0,0,1195.34,651.24Z" transform="translate(-112.63 -131.39)"/><path class="cls-13" d="M1182.87,629c-8-42,9.64-76.19,11.68-80l3.85,2.08c-2,3.62-19,36.55-11.23,77Z" transform="translate(-112.63 -131.39)"/><path class="cls-28" d="M1193.11,513.38a.88.88,0,0,1-.63-.25.91.91,0,0,1,0-1.27c6.92-7,19.23-23.33,19.35-23.5a.89.89,0,0,1,1.43,1.07c-.13.17-12.5,16.64-19.51,23.69A.85.85,0,0,1,1193.11,513.38Z" transform="translate(-112.63 -131.39)"/><path class="cls-3" d="M1015.65,191H900.22a12.33,12.33,0,0,0-12.32,12.32v47.81a12.33,12.33,0,0,0,12.32,12.32h26.86V287l23.6-23.59h65A12.33,12.33,0,0,0,1028,251.09V203.28A12.33,12.33,0,0,0,1015.65,191Z" transform="translate(-112.63 -131.39)"/><circle class="cls-4" cx="806.82" cy="93.44" r="10.68"/><circle class="cls-4" cx="845.3" cy="93.44" r="10.68"/><circle class="cls-4" cx="883.79" cy="93.44" r="10.68"/><path class="cls-4" d="M864.8,332h137.5a13.29,13.29,0,0,1,13.29,13.29v51.58a13.29,13.29,0,0,1-13.29,13.29H960.37v25.47L934.9,410.14H864.8a13.29,13.29,0,0,1-13.29-13.29V345.27A13.29,13.29,0,0,1,864.8,332Z" transform="translate(-112.63 -131.39)"/><path class="cls-2" d="M960.37,437.8a2.2,2.2,0,0,1-1.55-.65L934,412.33H864.8a15.49,15.49,0,0,1-15.48-15.48V345.27a15.49,15.49,0,0,1,15.48-15.48h137.5a15.49,15.49,0,0,1,15.48,15.48v51.58a15.49,15.49,0,0,1-15.48,15.48H962.55v23.28a2.19,2.19,0,0,1-1.34,2A2.29,2.29,0,0,1,960.37,437.8ZM864.8,334.16a11.12,11.12,0,0,0-11.11,11.11v51.58A11.12,11.12,0,0,0,864.8,408h70.1a2.2,2.2,0,0,1,1.55.64l21.73,21.73V410.15a2.19,2.19,0,0,1,2.19-2.19h41.93a11.12,11.12,0,0,0,11.11-11.11V345.27a11.12,11.12,0,0,0-11.11-11.11Z" transform="translate(-112.63 -131.39)"/><rect class="cls-29" x="752.94" y="244.81" width="135.95" height="5.53"/><rect class="cls-29" x="752.94" y="261.93" width="135.95" height="5.53"/><polygon class="cls-3" points="764.87 230.16 757.5 234.03 758.91 225.82 752.94 220.01 761.18 218.81 764.87 211.34 768.56 218.81 776.8 220.01 770.83 225.82 772.24 234.03 764.87 230.16"/><polygon class="cls-3" points="792.89 228.7 785.52 232.57 786.93 224.37 780.97 218.55 789.21 217.36 792.89 209.89 796.58 217.36 804.82 218.55 798.86 224.37 800.27 232.57 792.89 228.7"/><polygon class="cls-3" points="820.92 228.7 813.55 232.57 814.96 224.37 808.99 218.55 817.24 217.36 820.92 209.89 824.61 217.36 832.85 218.55 826.88 224.37 828.29 232.57 820.92 228.7"/><polygon class="cls-3" points="848.95 228.7 841.58 232.57 842.98 224.37 837.02 218.55 845.26 217.36 848.95 209.89 852.63 217.36 860.87 218.55 854.91 224.37 856.32 232.57 848.95 228.7"/><polygon class="cls-3" points="876.97 228.7 869.6 232.57 871.01 224.37 865.04 218.55 873.28 217.36 876.97 209.89 880.66 217.36 888.9 218.55 882.93 224.37 884.34 232.57 876.97 228.7"/><rect class="cls-13" x="138.38" y="931.6" width="1182.17" height="4.52"/><rect class="cls-13" x="92.58" y="931.6" width="31.79" height="4.52"/><rect class="cls-13" x="1338.98" y="931.6" width="31.79" height="4.52"/></svg>