<svg id="Layer_1" data-name="Layer 1" xmlns="http://www.w3.org/2000/svg" viewBox="0 0 3001 1300.5"><defs><style>.cls-1{fill:#fff;stroke:#fff;stroke-miterlimit:10;}.cls-2{fill:#d0f5ff;}.cls-3{fill:#8be1ff;}.cls-4{fill:#00b6ff;}</style></defs><title>city2</title><polygon class="cls-1" points="0.5 0.5 0.5 128.5 0.5 550.5 33.5 550.5 33.5 436.5 82.67 436.5 106.15 478.5 168.76 478.5 194.85 549.93 245.52 579.78 245.76 580.5 270.5 580.5 270.5 463.5 352.5 463.5 352.5 480.5 407.5 480.5 407.5 470.5 424.5 470.5 424.5 456.5 454.5 456.5 454.5 436.5 502.5 436.5 502.5 456.5 536.5 456.5 536.5 470.5 561.5 470.5 561.5 483.5 605.5 483.5 605.5 598.5 663.5 598.5 663.5 472.67 690.7 481.78 704.85 493.5 801.37 493.5 816.87 477.87 841.5 468.76 841.5 499.5 887.5 499.5 887.5 620.5 917.5 620.5 917.5 646.5 940.5 646.5 940.5 650.5 982.5 650.5 982.5 553.54 995.5 539.85 995.5 488.33 1024.3 459.63 1037.4 386.59 1043.54 457.02 1072.5 486.37 1072.5 543.11 1085.5 556.8 1085.5 634.5 1115.5 634.5 1115.5 514.5 1135.28 514.5 1169.63 548.5 1192.5 548.5 1192.5 613.5 1273.5 613.5 1273.5 539.5 1278.5 539.5 1278.5 453.5 1285.5 453.5 1285.5 539.5 1291.5 539.5 1291.5 454.5 1299.5 454.5 1299.5 539.5 1319.5 539.5 1319.5 522.5 1330.5 522.5 1330.5 530.5 1345.5 530.5 1345.5 518.5 1357.5 518.5 1357.5 544.5 1376.5 544.5 1376.5 658.5 1411.5 658.5 1411.5 501.5 1458.76 501.5 1497.5 540.56 1497.5 580.5 1522.5 580.5 1522.5 463.5 1604.5 463.5 1604.5 480.5 1659.5 480.5 1659.5 470.5 1676.5 470.5 1676.5 456.5 1706.5 456.5 1706.5 436.5 1754.5 436.5 1754.5 456.5 1788.5 456.5 1788.5 470.5 1813.5 470.5 1813.5 483.5 1857.5 483.5 1857.5 598.5 1915.5 598.5 1915.5 472.67 1942.78 481.78 1957.02 493.5 2053.54 493.5 2068.96 477.87 2093.5 468.76 2093.5 499.5 2139.5 499.5 2139.5 620.5 2172.5 620.5 2172.5 646.5 2195.5 646.5 2195.5 650.5 2234.5 650.5 2234.5 553.54 2247.5 539.85 2247.5 488.33 2276.39 459.63 2289.53 386.59 2295.6 457.02 2324.5 486.37 2324.5 543.11 2337.5 556.8 2337.5 634.5 2367.5 634.5 2367.5 514.5 2387.46 514.5 2421.8 548.5 2444.5 548.5 2444.5 613.5 2525.5 613.5 2525.5 539.5 2530.5 539.5 2530.5 453.5 2537.5 453.5 2537.5 539.5 2543.5 539.5 2543.5 454.5 2551.5 454.5 2551.5 539.5 2571.5 539.5 2571.5 522.5 2583.5 522.5 2583.5 530.5 2597.5 530.5 2597.5 518.5 2609.5 518.5 2609.5 544.5 2628.5 544.5 2628.5 658.5 2663.5 658.5 2663.5 501.5 2710.93 501.5 2750.5 540.56 2750.5 593.5 2868.5 593.5 2868.5 417.89 2884.41 387.5 2913.5 387.5 2913.5 501.5 2939.5 501.5 2939.5 660.5 3000.5 660.5 3000.5 128.5 3000.5 0.5 0.5 0.5"/><polygon class="cls-2" points="267.5 684.5 283.5 684.5 283.5 654.5 301.5 654.5 301.5 627.5 347.5 627.5 347.5 655.5 361.5 655.5 361.5 733.5 376.5 733.5 376.5 683.5 489.5 683.5 489.5 660.5 518.5 660.5 518.5 625.28 533.5 646.15 533.5 701.5 554.5 701.5 554.5 604.5 583.5 604.5 583.5 701.5 613.5 701.5 613.5 805.5 619.39 805.5 625.5 823.42 625.5 857.5 630.5 857.5 630.5 658.5 672.5 658.5 672.5 649.5 689.5 649.5 689.5 659.5 704.5 659.5 704.5 717.5 760.5 717.5 760.5 796.5 766.5 796.5 766.5 806.4 777.5 813.28 777.5 825.5 787.5 825.5 787.5 848.5 796.5 848.5 796.5 715.15 826.41 688.5 837.5 688.5 837.5 645.5 871.5 645.5 871.5 620.5 887.5 620.5 887.5 499.5 841.5 499.5 841.5 468.76 816.87 477.87 801.37 493.5 704.85 493.5 690.7 481.78 663.5 472.67 663.5 598.5 605.5 598.5 605.5 483.5 561.5 483.5 561.5 470.5 536.5 470.5 536.5 456.5 502.5 456.5 502.5 436.5 454.5 436.5 454.5 456.5 424.5 456.5 424.5 470.5 407.5 470.5 407.5 480.5 352.5 480.5 352.5 463.5 270.5 463.5 270.5 580.5 245.76 580.5 267.5 644.85 267.5 684.5"/><polygon class="cls-2" points="956.5 701.5 956.5 758.5 976.5 758.5 976.5 740.5 991.81 740.5 1028.5 746.29 1028.5 770.5 1083.5 770.5 1083.5 796.5 1113.5 796.5 1113.5 851.5 1178.5 851.5 1178.5 667.5 1230.5 667.5 1230.5 657.5 1243.5 657.5 1243.5 667.5 1259.5 667.5 1259.5 752.5 1308.5 752.5 1308.5 823.5 1351.5 823.5 1351.5 848.5 1371.5 848.5 1371.5 796.5 1426.5 796.5 1426.5 775.99 1445.82 757.5 1470.5 757.5 1470.5 653.5 1496.5 653.5 1496.5 790.24 1497.5 790.12 1497.5 580.5 1497.5 540.56 1458.76 501.5 1411.5 501.5 1411.5 658.5 1376.5 658.5 1376.5 544.5 1357.5 544.5 1357.5 518.5 1345.5 518.5 1345.5 530.5 1330.5 530.5 1330.5 522.5 1319.5 522.5 1319.5 539.5 1299.5 539.5 1299.5 454.5 1291.5 454.5 1291.5 539.5 1285.5 539.5 1285.5 453.5 1278.5 453.5 1278.5 539.5 1273.5 539.5 1273.5 613.5 1192.5 613.5 1192.5 548.5 1169.63 548.5 1135.28 514.5 1115.5 514.5 1115.5 634.5 1085.5 634.5 1085.5 556.8 1072.5 543.11 1072.5 486.37 1043.54 457.02 1037.4 386.59 1024.3 459.63 995.5 488.33 995.5 539.85 982.5 553.54 982.5 650.5 940.5 650.5 940.5 701.5 956.5 701.5"/><polygon class="cls-2" points="1522.5 787.02 1522.5 684.5 1538.5 684.5 1538.5 654.5 1556.5 654.5 1556.5 627.5 1602.5 627.5 1602.5 655.5 1616.5 655.5 1616.5 733.5 1630.5 733.5 1630.5 683.5 1744.5 683.5 1744.5 660.5 1773.5 660.5 1773.5 625.28 1788.5 646.15 1788.5 701.5 1809.5 701.5 1809.5 604.5 1838.5 604.5 1838.5 701.5 1868.5 701.5 1868.5 783.31 1883.04 779.5 1885.5 779.5 1885.5 658.5 1927.5 658.5 1927.5 649.5 1943.5 649.5 1943.5 659.5 1959.5 659.5 1959.5 717.5 2015.5 717.5 2015.5 825.5 2026.5 825.5 2026.5 822.5 2039.5 822.5 2039.5 806.4 2059.39 796.5 2092.5 796.5 2092.5 645.5 2126.5 645.5 2126.5 620.5 2139.5 620.5 2139.5 499.5 2093.5 499.5 2093.5 468.76 2068.96 477.87 2053.54 493.5 1957.02 493.5 1942.78 481.78 1915.5 472.67 1915.5 598.5 1857.5 598.5 1857.5 483.5 1813.5 483.5 1813.5 470.5 1788.5 470.5 1788.5 456.5 1754.5 456.5 1754.5 436.5 1706.5 436.5 1706.5 456.5 1676.5 456.5 1676.5 470.5 1659.5 470.5 1659.5 480.5 1604.5 480.5 1604.5 463.5 1522.5 463.5 1522.5 580.5 1497.5 580.5 1497.5 790.12 1522.5 787.02"/><polygon class="cls-2" points="2211.5 701.5 2211.5 758.5 2216.5 758.5 2216.5 728.19 2232.5 719.5 2232.5 654.32 2253.99 649.5 2266.77 649.5 2276.5 655.4 2276.5 727.5 2288.5 727.5 2288.5 770.5 2337.5 770.5 2337.5 796.5 2351.58 796.5 2371.19 774.5 2402.59 774.5 2433.5 790.14 2433.5 667.5 2485.5 667.5 2485.5 657.5 2498.5 657.5 2498.5 667.5 2513.5 667.5 2513.5 752.5 2563.5 752.5 2563.5 823.5 2606.5 823.5 2606.5 848.5 2626.5 848.5 2626.5 796.5 2705.5 796.5 2705.5 829.15 2720.86 823.36 2720.17 676.4 2701.8 593.5 2750.5 593.5 2750.5 540.56 2710.93 501.5 2663.5 501.5 2663.5 658.5 2628.5 658.5 2628.5 544.5 2609.5 544.5 2609.5 518.5 2597.5 518.5 2597.5 530.5 2583.5 530.5 2583.5 522.5 2571.5 522.5 2571.5 539.5 2551.5 539.5 2551.5 454.5 2543.5 454.5 2543.5 539.5 2537.5 539.5 2537.5 453.5 2530.5 453.5 2530.5 539.5 2525.5 539.5 2525.5 613.5 2444.5 613.5 2444.5 548.5 2421.8 548.5 2387.46 514.5 2367.5 514.5 2367.5 634.5 2337.5 634.5 2337.5 556.8 2324.5 543.11 2324.5 486.37 2295.6 457.02 2289.53 386.59 2276.39 459.63 2247.5 488.33 2247.5 539.85 2234.5 553.54 2234.5 650.5 2195.5 650.5 2195.5 701.5 2211.5 701.5"/><polygon class="cls-2" points="1496.5 790.24 1496.5 653.5 1470.5 653.5 1470.5 757.5 1487.5 757.5 1487.5 806.82 1488.24 791.26 1496.5 790.24"/><polygon class="cls-3" points="787.5 825.5 777.5 825.5 777.5 954.14 796.5 972.43 796.5 848.5 787.5 848.5 787.5 825.5"/><polygon class="cls-3" points="704.5 717.5 704.5 659.5 689.5 659.5 689.5 649.5 672.5 649.5 672.5 658.5 630.5 658.5 630.5 857.5 625.5 857.5 625.5 876.5 645.68 876.5 655.5 882.81 655.5 923.5 704.5 923.5 704.5 796.5 760.5 796.5 760.5 717.5 704.5 717.5"/><polygon class="cls-3" points="871.5 645.5 837.5 645.5 837.5 688.5 861.5 688.5 861.5 700.5 873.51 700.5 883.5 709.9 883.5 936.76 892.37 942.19 900.5 935.31 900.5 805.5 908.56 805.5 908.5 796.08 908.5 787.21 912.5 781.51 912.5 779.5 926.5 779.5 926.5 788.5 930.5 788.5 930.5 793.37 940.5 801.33 940.5 839.5 960.5 839.5 960.5 910.5 967.5 910.5 967.5 891.5 976.5 891.5 976.5 758.5 956.5 758.5 956.5 701.5 940.5 701.5 940.5 650.5 940.5 646.5 917.5 646.5 917.5 620.5 887.5 620.5 871.5 620.5 871.5 645.5"/><polygon class="cls-3" points="1371.5 848.5 1351.5 848.5 1351.5 823.5 1308.5 823.5 1308.5 752.5 1259.5 752.5 1259.5 667.5 1243.5 667.5 1243.5 657.5 1230.5 657.5 1230.5 667.5 1178.5 667.5 1178.5 851.5 1113.5 851.5 1113.5 796.5 1083.5 796.5 1083.5 770.5 1028.5 770.5 1028.5 795.5 1028.5 900.5 1053.14 900.5 1065.19 882.5 1093.5 882.5 1093.5 919.5 1105.72 919.5 1124.71 885.76 1136.13 885.55 1154.5 893.31 1154.5 913.5 1175.82 913.5 1199.5 898.74 1199.5 870.5 1232.78 870.5 1249.76 887.5 1320.4 887.5 1347.5 916.3 1347.5 867.5 1372.98 867.5 1412.05 857.5 1426.5 857.5 1426.5 796.5 1371.5 796.5 1371.5 848.5"/><polygon class="cls-3" points="583.5 701.5 583.5 604.5 554.5 604.5 554.5 701.5 533.5 701.5 533.5 646.15 518.5 625.28 518.5 660.5 489.5 660.5 489.5 683.5 376.5 683.5 376.5 733.5 361.5 733.5 361.5 655.5 347.5 655.5 347.5 627.5 301.5 627.5 301.5 654.5 283.5 654.5 283.5 684.5 267.5 684.5 267.5 787.5 267.5 806.69 299.5 835.28 299.5 870.5 322.19 870.5 331.5 877.92 331.5 910.5 339.5 910.5 339.5 932.5 348.5 932.5 348.5 919.5 352.5 919.5 352.5 882.5 365.5 882.5 365.5 832.48 379.15 831.5 404.71 831.5 415.5 838.99 415.5 923.5 426.62 923.5 428.5 923.91 428.5 932.5 441.5 932.5 441.5 887.5 462.5 887.5 462.5 927.5 475.5 927.5 475.5 887.5 492.33 887.5 502.5 894.76 502.5 949.8 515.5 961.75 515.5 979.5 540.5 979.5 540.5 906.34 579.05 876.5 593.5 876.5 593.5 805.5 613.5 805.5 613.5 701.5 583.5 701.5"/><polygon class="cls-3" points="2126.5 645.5 2092.5 645.5 2092.5 796.5 2110.5 796.5 2110.5 910.5 2133.5 910.5 2133.5 867.24 2167.5 876.29 2167.5 910.5 2176.5 910.5 2176.5 943.5 2198.5 943.5 2198.5 827.04 2216.5 811.83 2216.5 758.5 2211.5 758.5 2211.5 701.5 2195.5 701.5 2195.5 650.5 2195.5 646.5 2172.5 646.5 2172.5 620.5 2139.5 620.5 2126.5 620.5 2126.5 645.5"/><polygon class="cls-3" points="2337.5 770.5 2288.5 770.5 2288.5 810.75 2297.5 818.89 2297.5 878.5 2319.34 878.5 2340.34 900.5 2350.5 900.5 2350.5 797.71 2351.58 796.5 2337.5 796.5 2337.5 770.5"/><polygon class="cls-3" points="2626.5 796.5 2626.5 848.5 2606.5 848.5 2606.5 823.5 2563.5 823.5 2563.5 752.5 2513.5 752.5 2513.5 667.5 2498.5 667.5 2498.5 657.5 2485.5 657.5 2485.5 667.5 2433.5 667.5 2433.5 790.14 2438.5 792.67 2438.5 882.5 2467.5 882.5 2467.5 923.5 2471.8 923.5 2500.97 823.11 2571.39 879.74 2705.5 829.15 2705.5 796.5 2626.5 796.5"/><polygon class="cls-3" points="2015.5 717.5 1959.5 717.5 1959.5 659.5 1943.5 659.5 1943.5 649.5 1927.5 649.5 1927.5 658.5 1885.5 658.5 1885.5 779.5 1916.5 779.5 1916.5 897.5 1966.5 897.5 1966.5 870.5 1999.51 870.5 2008.82 861.5 2026.5 861.5 2026.5 825.5 2015.5 825.5 2015.5 717.5"/><polygon class="cls-3" points="1838.5 701.5 1838.5 604.5 1809.5 604.5 1809.5 701.5 1788.5 701.5 1788.5 646.15 1773.5 625.28 1773.5 660.5 1744.5 660.5 1744.5 683.5 1630.5 683.5 1630.5 733.5 1616.5 733.5 1616.5 655.5 1602.5 655.5 1602.5 627.5 1556.5 627.5 1556.5 654.5 1538.5 654.5 1538.5 684.5 1522.5 684.5 1522.5 787.02 1497.5 790.12 1496.5 790.24 1488.24 791.26 1487.5 806.82 1487.5 870.5 1496.5 870.5 1496.5 848.5 1521.94 848.5 1530.71 867.5 1544.5 867.5 1544.5 848.5 1623.5 848.5 1623.5 900.5 1632.5 900.5 1632.5 919.5 1641.5 919.5 1641.5 845.51 1655.76 831.5 1680.5 831.5 1680.5 788.5 1728.5 788.5 1728.5 802.06 1760.5 817.63 1760.5 876.5 1774.5 876.5 1774.5 913.5 1800.5 913.5 1800.5 876.5 1813.5 876.5 1813.5 797.71 1868.5 783.31 1868.5 701.5 1838.5 701.5"/><polygon class="cls-2" points="59.5 791.5 111.5 791.5 111.5 623.5 158.5 623.5 158.5 773.98 184.41 722.5 220.94 722.5 245.87 787.37 267.5 806.69 267.5 787.5 267.5 684.5 267.5 644.85 245.76 580.5 245.52 579.78 194.85 549.93 168.76 478.5 106.15 478.5 82.67 436.5 33.5 436.5 33.5 550.5 0.5 550.5 0.5 750.5 59.5 750.5 59.5 791.5"/><polygon class="cls-2" points="2939.5 501.5 2913.5 501.5 2913.5 387.5 2884.41 387.5 2868.5 417.89 2868.5 593.5 2750.5 593.5 2701.8 593.5 2720.17 676.4 2720.07 653.5 2725.5 653.5 2751.5 653.5 2824.5 653.5 2824.5 777.5 2868.76 777.5 2921.59 830.5 3000.5 830.5 3000.5 660.5 2939.5 660.5 2939.5 501.5"/><polygon class="cls-3" points="8.5 943.5 23.5 943.5 23.5 887.5 85.5 887.5 85.5 936.5 102.4 936.5 107.5 940.02 107.5 984.5 120.5 984.5 120.5 1040.5 143.5 1040.5 143.5 957.5 147.5 957.5 147.5 947.5 173.5 947.5 173.5 867.24 184.18 861.5 207.55 861.5 218.5 870.5 218.5 861.5 255.74 861.5 262.5 867.96 262.5 882.5 274.5 882.5 274.5 870.5 299.5 870.5 299.5 835.28 267.5 806.69 245.87 787.37 220.94 722.5 184.41 722.5 158.5 773.98 158.5 623.5 111.5 623.5 111.5 791.5 59.5 791.5 59.5 750.5 0.5 750.5 0.5 1040.5 8.5 1040.5 8.5 943.5"/><polygon class="cls-3" points="2868.76 777.5 2824.5 777.5 2824.5 653.5 2751.5 653.5 2725.5 653.5 2720.07 653.5 2720.17 676.4 2720.86 823.36 2705.5 829.15 2571.39 879.74 2500.97 823.11 2471.8 923.5 2500.5 923.5 2500.5 891.5 2553.5 891.5 2553.5 923.73 2599.63 915.03 2609.55 927.35 2636.23 927.73 2638.09 966.5 2649.5 966.5 2649.5 943.5 2714.5 943.5 2714.5 906.34 2736.85 887.5 2779.38 887.5 2797.5 904.08 2797.5 947.5 2815.5 947.5 2815.5 966.5 2863.5 966.5 2863.5 923.73 2887.09 913.5 2967.78 913.5 2977.5 925.17 2977.5 980.22 2977.5 1027.5 3000.5 1027.5 3000.5 830.5 2921.59 830.5 2868.76 777.5"/><polygon class="cls-4" points="2977.5 1027.5 2977.5 980.22 2977.5 925.17 2967.78 913.5 2887.09 913.5 2863.5 923.73 2863.5 966.5 2815.5 966.5 2815.5 947.5 2797.5 947.5 2797.5 904.08 2779.38 887.5 2736.85 887.5 2714.5 906.34 2714.5 943.5 2649.5 943.5 2649.5 966.5 2638.09 966.5 2636.23 927.73 2609.55 927.35 2599.63 915.03 2553.5 923.73 2553.5 891.5 2500.5 891.5 2500.5 923.5 2471.8 923.5 2467.5 923.5 2467.5 882.5 2438.5 882.5 2438.5 792.67 2433.5 790.14 2402.59 774.5 2371.19 774.5 2351.58 796.5 2350.5 797.71 2350.5 900.5 2340.34 900.5 2319.34 878.5 2297.5 878.5 2297.5 818.89 2288.5 810.75 2288.5 770.5 2288.5 727.5 2276.5 727.5 2276.5 655.4 2266.77 649.5 2253.99 649.5 2232.5 654.32 2232.5 719.5 2216.5 728.19 2216.5 758.5 2216.5 811.83 2198.5 827.04 2198.5 943.5 2176.5 943.5 2176.5 910.5 2167.5 910.5 2167.5 876.29 2133.5 867.24 2133.5 910.5 2110.5 910.5 2110.5 796.5 2092.5 796.5 2059.39 796.5 2039.5 806.4 2039.5 822.5 2026.5 822.5 2026.5 825.5 2026.5 861.5 2008.82 861.5 1999.51 870.5 1966.5 870.5 1966.5 897.5 1916.5 897.5 1916.5 779.5 1885.5 779.5 1883.04 779.5 1868.5 783.31 1813.5 797.71 1813.5 876.5 1800.5 876.5 1800.5 913.5 1774.5 913.5 1774.5 876.5 1760.5 876.5 1760.5 817.63 1728.5 802.06 1728.5 788.5 1680.5 788.5 1680.5 831.5 1655.76 831.5 1641.5 845.51 1641.5 919.5 1632.5 919.5 1632.5 900.5 1623.5 900.5 1623.5 848.5 1544.5 848.5 1544.5 867.5 1530.71 867.5 1521.94 848.5 1496.5 848.5 1496.5 870.5 1487.5 870.5 1487.5 806.82 1487.5 757.5 1470.5 757.5 1445.82 757.5 1426.5 775.99 1426.5 796.5 1426.5 857.5 1412.05 857.5 1372.98 867.5 1347.5 867.5 1347.5 916.3 1320.4 887.5 1249.76 887.5 1232.78 870.5 1199.5 870.5 1199.5 898.74 1175.82 913.5 1154.5 913.5 1154.5 893.31 1136.13 885.55 1124.71 885.76 1105.72 919.5 1093.5 919.5 1093.5 882.5 1065.19 882.5 1053.14 900.5 1028.5 900.5 1028.5 795.5 1028.5 770.5 1028.5 746.29 991.81 740.5 976.5 740.5 976.5 758.5 976.5 891.5 967.5 891.5 967.5 910.5 960.5 910.5 960.5 839.5 940.5 839.5 940.5 801.33 930.5 793.37 930.5 788.5 926.5 788.5 926.5 779.5 912.5 779.5 912.5 781.51 908.5 787.21 908.5 796.08 908.56 805.5 900.5 805.5 900.5 935.31 892.37 942.19 883.5 936.76 883.5 709.9 873.51 700.5 861.5 700.5 861.5 688.5 837.5 688.5 826.41 688.5 796.5 715.15 796.5 848.5 796.5 972.43 777.5 954.14 777.5 825.5 777.5 813.28 766.5 806.4 766.5 796.5 760.5 796.5 704.5 796.5 704.5 923.5 655.5 923.5 655.5 882.81 645.68 876.5 625.5 876.5 625.5 857.5 625.5 823.42 619.39 805.5 613.5 805.5 593.5 805.5 593.5 876.5 579.05 876.5 540.5 906.34 540.5 979.5 515.5 979.5 515.5 961.75 502.5 949.8 502.5 894.76 492.33 887.5 475.5 887.5 475.5 927.5 462.5 927.5 462.5 887.5 441.5 887.5 441.5 932.5 428.5 932.5 428.5 923.91 426.62 923.5 415.5 923.5 415.5 838.99 404.71 831.5 379.15 831.5 365.5 832.48 365.5 882.5 352.5 882.5 352.5 919.5 348.5 919.5 348.5 932.5 339.5 932.5 339.5 910.5 331.5 910.5 331.5 877.92 322.19 870.5 299.5 870.5 274.5 870.5 274.5 882.5 262.5 882.5 262.5 867.96 255.74 861.5 218.5 861.5 218.5 870.5 207.55 861.5 184.18 861.5 173.5 867.24 173.5 947.5 147.5 947.5 147.5 957.5 143.5 957.5 143.5 1040.5 120.5 1040.5 120.5 984.5 107.5 984.5 107.5 940.02 102.4 936.5 85.5 936.5 85.5 887.5 23.5 887.5 23.5 943.5 8.5 943.5 8.5 1040.5 0.5 1040.5 0.5 1172.24 0.5 1197.5 0.5 1300.5 3000.5 1300.5 3000.5 1197.5 3000.5 1172.24 3000.5 1027.5 2977.5 1027.5"/></svg>