<svg id="Layer_1" data-name="Layer 1" xmlns="http://www.w3.org/2000/svg" xmlns:xlink="http://www.w3.org/1999/xlink" viewBox="0 0 800 500"><defs><style>.cls-1{fill:none;}.cls-2{clip-path:url(#clip-path);}.cls-3{fill:#fff;}.cls-4{fill:#ddd7eb;}.cls-5{fill:#c1b8db;}.cls-6{clip-path:url(#clip-path-2);}.cls-7{fill:#a189bf;}.cls-8{fill:#efecf5;}.cls-9{fill:#3e3574;}.cls-10{fill:#eb8923;}.cls-11{fill:#f2c72b;}.cls-12{fill:#402f6d;}.cls-13{fill:#5cbbff;}.cls-14{fill:#5c99d7;}.cls-15{fill:#f5bb95;}.cls-16{fill:#7b5da2;}.cls-17{fill:#f5b691;}.cls-18{fill:#e11f26;}.cls-19{fill:#f2a18a;}.cls-20{fill:#dfd8ec;}.cls-21{fill:#7562ab;}.cls-22{fill:#972a79;}.cls-23{fill:#efb522;}.cls-24{fill:#2cab66;}.cls-25{fill:#e75c25;}</style><clipPath id="clip-path" transform="translate(0.49 -150.95)"><rect class="cls-1" x="-0.37" y="150.95" width="799.88" height="500"/></clipPath><clipPath id="clip-path-2" transform="translate(0.49 -150.95)"><path class="cls-1" d="M580.6,432.22A154.33,154.33,0,1,1,426.28,277.9,154.32,154.32,0,0,1,580.6,432.22Z"/></clipPath></defs><title>number 1</title><g class="cls-2"><polygon class="cls-3" points="800 500 0 500 0 0 800 0 800 500 800 500"/></g><path class="cls-4" d="M289.11,547.71a44.57,44.57,0,0,1,19.66-19.23c14.63-7.14,32.52-6.09,47.15,1s26.12,19.81,33.6,34.26c10.78,2.38,19.7,11.24,22.72,21.78H252.82c6.89-10.57,19.1-17.77,31.78-17.86a38.4,38.4,0,0,1,4.51-20Z" transform="translate(0.49 -150.95)"/><path class="cls-4" d="M614.24,568.42a78.62,78.62,0,0,0-19.39,17.13H426.55a38.86,38.86,0,0,1,20.7-17.08c4.66-1.59,9.66-2.29,14.05-4.54,6.07-3.1,10.3-8.78,14.84-13.86,14.5-16.24,34.92-28.06,56.68-28.65s44.29,11.63,52.5,31.8c1,2.47,1.85,5.11,3.77,6.95,3,2.94,7.76,3,12,3.53a34.6,34.6,0,0,1,13.18,4.72Z" transform="translate(0.49 -150.95)"/><path class="cls-5" d="M580.6,432.22A154.33,154.33,0,1,1,426.28,277.9,154.32,154.32,0,0,1,580.6,432.22Z" transform="translate(0.49 -150.95)"/><g class="cls-6"><path class="cls-7" d="M585.54,462.25a56.75,56.75,0,0,1-9.68-29.55,13.44,13.44,0,0,0-.72-4.89,11.89,11.89,0,0,0-2.56-3.4l-5.28-5.53c-3.12-3.26-7.38-6.82-11.61-5.24-3.23,1.22-4.68,4.9-5.76,8.19l-3.27,9.93c-.78,2.41-2.12,5.25-4.64,5.39a5.48,5.48,0,0,1-4-2c-4.54-4.67-6.22-11.31-8.4-17.44s-5.52-12.57-11.56-15c-8-3.2-18.72,1.29-24.64-4.91-1.3-1.37-2.19-3.14-3.74-4.2s-4.2-.91-4.78.88a3.78,3.78,0,0,0,.07,2,13.59,13.59,0,0,0,9.34,9.58c2.21.62,4.59.67,6.68,1.62s3.86,3.29,3.07,5.45a6.47,6.47,0,0,1-2.9,2.88q-7,4.41-14,8.84c-2.2,1.38-4.82,2.82-7.26,1.92a7.62,7.62,0,0,1-2.7-2,43.45,43.45,0,0,1-11-18.82,19.75,19.75,0,0,0-2.06-5.59c-1.09-1.67-3.06-3-5-2.57,2.28,11,8.72,20.66,15,30a20.83,20.83,0,0,0,5.12,5.84c2.16,1.46,5.13,2,7.37.69,1.89-1.12,4.49-3.33,5.64-1.46a2.77,2.77,0,0,1,.23,1.8C491,448,475.74,456.21,472.9,469.38c-1.18,5.48,0,11.26-1.21,16.75s-4.66,10.35-8.05,14.95l-12,16.32a17.84,17.84,0,0,1-4.52,4.76c-3.28,2.05-7.68,1.7-11-.22a19.23,19.23,0,0,1-7.44-8.64c-6.69-13.91-2.52-30.66-6.59-45.55-1-3.54-2.41-7-3-10.59s-.1-9.58,2.17-12.46a6.21,6.21,0,0,1-7.48-1.13c-.9-1-1.47-2.26-2.44-3.17-2.11-2-5.51-1.68-8.15-.54s-5,3-7.7,3.94a15,15,0,0,1-13.21-2.26,23.1,23.1,0,0,1-8-11.12c-4.65-12.8-.47-27.49,7.5-38.54a31.71,31.71,0,0,1,9.62-9.3c6-3.46,13.32-3.75,20.28-3.75a14.46,14.46,0,0,1,4.82.56c3.15,1.1,5.13,4.12,7.26,6.7s5.17,5,8.44,4.38c1.54-.31,2.85-1.29,4.28-1.93,4.66-2.11,10.09-.64,14.89,1.12,1.56.57,3.26,1.17,4.86.69,3.69-1.12,3.22-7.08,0-9.29s-7.35-1.92-11.2-2S436.72,378,435,374.56c-.66-1.29-1-3-2.36-3.53-2.16-.89-4,2-6.28,2.5-3.49.72-5.42-4.17-8.73-5.46-4.38-1.7-8.17,3.19-11.5,6.5-3.7,3.68-9.32,6-14.23,4.2s-7.72-8.65-4.33-12.62c1.71-2,4.47-2.83,7.1-2.94,1.6-.06,3.44,0,4.49-1.2,1.91-2.18-.86-5.81.4-8.43a6,6,0,0,1,2.67-2.33L414,344.53a9.87,9.87,0,0,1,3.91-1.53c2.25-.19,4.31,1.17,6.5,1.69A9,9,0,0,0,433,329.61a3.89,3.89,0,0,0-2.63-1.35c-2,0-3.18,2.31-3.34,4.3s.18,4.14-.78,5.89c-1.75,3.17-6.31,2.94-9.87,2.28-2.49-.46-5.28-1.13-6.56-3.31-1.95-3.33,1-7.35,3.76-10,4.63-4.42,9.62-8.65,15.53-11.08s13-2.83,18.55.28c3.72,2.08,7,5.71,11.27,5.56a15.46,15.46,0,0,0,4.93-1.38,65.69,65.69,0,0,1,20.48-4.38c4.46-.23,9.18-.05,13.07-2.24,2.2-1.23,3.94-3.11,5.89-4.71a27.14,27.14,0,0,1,30.19-2.26c24.7,14.65,40.09,40.67,49.55,67.78s9.59,59.44,2.55,87.27Z" transform="translate(0.49 -150.95)"/><path class="cls-7" d="M239.8,394.23c-.75,4.54,3.27,8.68,7.67,10s9.11.68,13.71.59,9.6.6,12.81,3.89,3.93,8.45,7.44,11.36c3.88,3.2,9.65,2.48,14.29,4.42,5.36,2.25,8.55,7.69,12.94,11.49,3.59,3.1,8.88,4.93,13.58,5.56-4.82,9.57-9.29,20.67-5.49,30.69,3.66,9.66,14,15.36,18.31,24.76,6,13.15-1.55,29.35,3.84,42.76,1.16,2.9,2.91,5.58,3.64,8.62.59,2.46.48,5.06,1.08,7.52s2.22,5,4.71,5.46c2.32.45,4.66-1,6-3a23.32,23.32,0,0,0,2.61-6.57,58.11,58.11,0,0,1,12-21.45,27.26,27.26,0,0,0,4.57-6c1.86-3.88,1.32-8.54,3-12.52,1.54-3.75,4.81-6.44,7.66-9.32s5.53-6.47,5.32-10.52c-.15-3-1.88-6.27-.35-8.89s5.55-2.83,7.44-5.26c1.64-2.1,1.12-5.27-.46-7.4s-4-3.46-6.33-4.72l-12.37-6.71c-1.32-.72-3.07-1.39-4.19-.39-.8.72-.85,2-1.59,2.77-1.08,1.12-3.15.53-3.95-.8a5.71,5.71,0,0,1-.2-4.52,27.34,27.34,0,0,0,1.3-4.46,9.29,9.29,0,0,0-3.38-7.65c-2.16-1.93-6-1.83-8.59-3.17a115.72,115.72,0,0,0-16.36-7,4.08,4.08,0,0,0-1.84-.33c-1.18.14-2,1.19-2.91,1.93s-2.48,1.15-3.16.17a7.28,7.28,0,0,0,.89-3.44,2.52,2.52,0,0,0-2.17-2.46,3.8,3.8,0,0,0-2.23,1,22.17,22.17,0,0,1-7.59,4,9.5,9.5,0,0,1-8.21-1.45,4.77,4.77,0,0,1-1.61-2.23c-.47-1.53.13-3.18-.06-4.76-.38-3.18-3.71-5.11-6.79-5.94s-6.5-1.15-8.95-3.2c-3-2.47-3.66-6.68-4.14-10.51a9.61,9.61,0,0,1,.19-4.74c1-2.48,3.72-3.68,6.22-4.62l5.62-2.14a8.6,8.6,0,0,1,4.2-.83c5.22.74,5.07,9.2,9.64,11.84.93.54,2.31.7,2.93-.18a2.79,2.79,0,0,0,.34-1.67c-.05-3.16-.12-6.4.9-9.39s3.39-5.75,6.5-6.27a11.53,11.53,0,0,0,2.89-.53c3.67-1.7,1.39-8.6,5-10.51,1.18-.63,2.62-.44,3.92-.78,4.78-1.26,5.71-8.83,10.54-9.85,2.21-.47,5,.49,6.43-1.29a3.23,3.23,0,0,0-.57-4.1,8.16,8.16,0,0,0-4.06-1.86c-.58-.14-1.26-.33-1.48-.89-.34-.89.77-1.62,1.68-1.9a26.92,26.92,0,0,1,9.94-1.09,52.53,52.53,0,0,0,6.85.53,7.76,7.76,0,0,0,6-2.83c1.32-1.87,1.06-4.91-.94-6-1.72-1-4.23-.43-5.42-2-1-1.26-.4-3-.1-4.6s-.13-3.67-1.7-3.86a3.27,3.27,0,0,0-1.66.39l-6.45,2.77a11.34,11.34,0,0,0-.22-4.61,3.9,3.9,0,0,0-3.3-2.85c-2.33-.07-3.79,2.5-5.91,3.46-1,.44-2.06.53-3,.93-2.24.9-3.57,3.21-4.42,5.47s-1.44,4.7-2.93,6.61-4.25,3.13-6.36,1.95c-2.63-1.48-2.8-5.7-5.56-6.94-1.65-.74-3.83-.17-5.17-1.39-1.75-1.62-.22-4.72,1.93-5.75s4.71-1,6.85-2.06c2.9-1.45,4.54-4.71,7.4-6.24,2.08-1.12,4.55-1.17,6.9-1.39s4.87-.72,6.5-2.44,1.72-5-.36-6.13c-3.3-1.78-8,3.13-10.7.49-.65-.64-1-1.62-1.73-2.12-1.89-1.22-3.84,1.33-5.36,3a8.55,8.55,0,0,1-7.56,2.59c-1.46-.25-2.84-.88-4.3-1.14-2-.34-4,0-6.07.08-9.83.21-19.5-7.49-28.77-4.19-3.26-4.38-8.95-8.66-14.28-9.83a41.13,41.13,0,0,0-16.28.17c-8.07,1.51-16.23,4.77-21.39,11.17-4.51,5.59-6.23,13-6.16,20.2s1.76,14.23,3.46,21.21c2.71,11.17,9.44,22.43,7.56,33.77Z" transform="translate(0.49 -150.95)"/></g><path class="cls-4" d="M607.48,549.26c-2.83-9.93-8.49-19.37-17.18-25.12a9.33,9.33,0,0,0-3.82-1.67,3.86,3.86,0,0,0-3.72,1.44,4.06,4.06,0,0,0,.38,4.38,24.54,24.54,0,0,0,3.24,3.37A16.06,16.06,0,0,1,591,543.08c-.06,3.16-.8,7,1.74,8.94s6.35.5,8.75,2.4,1.78,5.34,2.2,8.23c.65,4.59,3.9,9.17,5.9,13.24,2.06-2.73.64-9.23.37-12.46a73.39,73.39,0,0,0-2.47-14.17Z" transform="translate(0.49 -150.95)"/><path class="cls-4" d="M610.63,540.46c1.8-9.07,5.19-18,11-25.15.9-1.11,2.19-2.27,3.56-1.88s1.83,2,1.54,3.31a12,12,0,0,1-1.86,3.53,16.39,16.39,0,0,0-2.39,9.75c.38,5.19,3.18,10.58,1,15.32-1,2.33-3.14,4-4.78,5.95-2.38,2.81-3.87,6.24-5.42,9.55-1.05,2.24-2.67,6.27-4.64,2.14-1.29-2.7.06-8.08.32-11a109,109,0,0,1,1.59-11.51Z" transform="translate(0.49 -150.95)"/><path class="cls-4" d="M192.26,518.8a27.78,27.78,0,0,0-24-14.33,6.54,6.54,0,0,0-3.07.56,2.68,2.68,0,0,0-1.55,2.52,3,3,0,0,0,1.83,2.16,26.46,26.46,0,0,0,2.82.9c3.81,1.31,6.63,5.29,10.66,5.4,2.24.06,4.65-1.11,6.62,0a26.23,26.23,0,0,1,2.3,1.94c.81.59,2.1.81,2.73,0l1.62.84Z" transform="translate(0.49 -150.95)"/><path class="cls-8" d="M272.88,551.73a32,32,0,0,1,16.23-4,38.4,38.4,0,0,0-4.51,20c-12.68.09-24.89,7.29-31.78,17.86H137.56c7.82-11.64,21.4-19.55,35.51-19.64,3.28-20.78,23.14-36.71,44.1-38.61s41.83,8.61,55.71,24.43Z" transform="translate(0.49 -150.95)"/><path class="cls-5" d="M666.51,561.8c-14.65-5.25-31.33-3.71-45.42,2.91a67.47,67.47,0,0,0-6.85,3.71,78.62,78.62,0,0,0-19.39,17.13h98.94a49.85,49.85,0,0,0-27.28-23.75Z" transform="translate(0.49 -150.95)"/><path class="cls-5" d="M180,517.42c.94-2,3-3.18,5-4.08s4.13-1.64,5.73-3.14,2.62-3.92,4.16-5.71a19.06,19.06,0,0,1,3.63-3.06,6.34,6.34,0,0,0,1.57-1.34,2.08,2.08,0,0,0,.34-2,1.25,1.25,0,0,0-1.71-.62l.87-.05c-5.32.12-10.26,3.14-13.82,7.1s-5.94,8.82-8.19,13.65l2.44-.79Z" transform="translate(0.49 -150.95)"/><path class="cls-5" d="M179.38,517.74c-.31-8.69-2.77-17.18-6-25.26a10.52,10.52,0,0,0-2.63-4.3c-1.3-1.09-3.37-1.46-4.67-.37a4.28,4.28,0,0,0-1,4.13c.29,1.46.94,2.84,1.16,4.32.32,2.21-.38,4.43-.71,6.65s-.17,4.75,1.45,6.29c2.22,2.1,6.05,1.38,8.42,3.3s2.38,5.37,4.53,7.31l.67-.84-1.21-1.23Z" transform="translate(0.49 -150.95)"/><path class="cls-4" d="M201.09,495.61a9,9,0,0,1,2.13-2.74,3,3,0,0,1,3.27-.38c1.27.78,1.41,2.62.93,4s-1.42,2.64-1.85,4.07c-.6,2-.19,4.06-.19,6.11s-.6,4.36-2.42,5.31c-1.34.69-3,.44-4.38,1-1.84.73-2.86,2.69-3.45,4.59s-.93,3.91-2.07,5.53c-1.27,1.82-3.64,1.48-4-.84-.23-1.48,1.13-2.71,1.77-3.92,1.15-2.19,1.47-4.83,2.33-7.16a68.09,68.09,0,0,1,3.35-7.45c1.44-2.77,3-5.47,4.58-8.17Z" transform="translate(0.49 -150.95)"/><path class="cls-5" d="M199.3,503.26a51.33,51.33,0,0,0-11.23-13.35,7.92,7.92,0,0,0-3.2-2,2.86,2.86,0,0,0-3.27,1.27,3.25,3.25,0,0,0,.76,3.31c.76.92,1.76,1.62,2.49,2.56,2.28,2.95,1.41,7.53,3.82,10.37,2.26,2.67,6.76,3,8.37,6.06a11.39,11.39,0,0,1,.79,4.44c.15,1.74.76,4.34,2.9,4.54s2.32-1.73,2.38-3.33c.17-4.78-1.53-9.75-3.81-13.88Z" transform="translate(0.49 -150.95)"/><path class="cls-5" d="M197.77,518.69c5.33-5.29,12.69-8,20-9.69a23.08,23.08,0,0,1,6.23-.77,9.6,9.6,0,0,1,5.82,2.07,2,2,0,0,1,.86,1.69,1.66,1.66,0,0,1-1.67,1.15,18,18,0,0,1-2.17-.3c-2.61-.23-4.83,1.86-7.4,2.4-1.65.34-3.4,0-5,.39a12.08,12.08,0,0,0-4,2,12.78,12.78,0,0,1-4,2.05,4.22,4.22,0,0,1-4.15-1Z" transform="translate(0.49 -150.95)"/><path class="cls-4" d="M168,511.65c-5.78-1-12.16.25-16.4,4.31a5.87,5.87,0,0,0-1.76,2.62,2.66,2.66,0,0,0,.87,2.87c1.37.95,3.23,0,4.89.13,2,.18,3.75,2.11,5.78,1.84,1.66-.23,2.73-1.81,3.61-3.22s2-3,3.7-3.06a6.31,6.31,0,0,1,2.89.87,19.67,19.67,0,0,0,6.91,1.75c.82,0,2.8.36,3.52-.11,1.12-.75-.39-1.4-1.16-2a30.6,30.6,0,0,0-12.85-6Z" transform="translate(0.49 -150.95)"/><path class="cls-5" d="M200.27,517.37a37.42,37.42,0,0,1,13-18.69c1.75-1.34,3.79-2.56,6-2.45a1.88,1.88,0,0,1,1.31.48,1.62,1.62,0,0,1-.14,2,6.42,6.42,0,0,1-1.81,1.27,10.94,10.94,0,0,0-4.73,5.81c-.49,1.41-.74,3-1.84,4s-2.53,1.13-3.47,2.12-1.06,2.9-2,4.15c-1,1.42-2.92,1.84-4.64,2.14l-1.7-.88Z" transform="translate(0.49 -150.95)"/><path class="cls-5" d="M627.64,530.38a28.4,28.4,0,0,1,5.21-5.83,11.32,11.32,0,0,1,7.2-2.67,3.62,3.62,0,0,1,3.32,1.72,3.28,3.28,0,0,1-.57,3.15,27.93,27.93,0,0,1-2.31,2.44c-5,5.51-2.61,15.22-7.73,20.65-4.46,4.72-12.88,4.2-16.76,9.41a18.58,18.58,0,0,0-2.52,6.15A124.65,124.65,0,0,1,608,580.86c-.63,1.45-2.19,4.36-2.69,1-.32-2.15,1.18-5.61,1.72-7.71a130.58,130.58,0,0,1,11.25-28.79,128.43,128.43,0,0,1,9.39-15Z" transform="translate(0.49 -150.95)"/><path class="cls-5" d="M605.47,500.27A11.74,11.74,0,0,0,603,495c-1.37-1.42-3.75-2.08-5.35-.93-1.38,1-1.73,2.94-1.45,4.61s1,3.23,1.47,4.88c1.77,6.91-2.73,14.68.3,21.14,1.54,3.3,4.85,5.65,5.91,9.14,1,3.32-.28,6.91.14,10.36.35,3,1.91,5.59,3,8.35,2.51,6.29,2.11,12.58,2.37,19.16,2.08-4.09,1-11.38,1.15-15.9.15-6.26.16-12.53-.07-18.8a168.16,168.16,0,0,0-5-36.69Z" transform="translate(0.49 -150.95)"/><path class="cls-9" d="M312.73,474H282.61l4.15-17.63h30.12L312.73,474Zm-5.07,21.53H277.54l4.15-17.62h30.12l-4.15,17.62Zm-5.07,21.54H272.47l4.15-17.62h30.12l-4.15,17.62Zm-5.07,21.54H267.4L271.55,521h30.12l-4.15,17.63Zm-5.07,21.55-.27,0H262.34l4.14-17.62H296.6l-4.15,17.64Zm32.13-128a2,2,0,0,0-2.36,1.46l-4.42,18.8H287.68l4.21-17.9a2,2,0,1,0-3.81-.9l-4.73,20.1-5.08,21.58-5.08,21.58-5.08,21.59L263,540.07,258,561.65l-5.36,22.79a2,2,0,0,0,1.46,2.35,1.74,1.74,0,0,0,.45.06,2,2,0,0,0,1.9-1.51l5-21.31h30.12l-4.8,20.41a2,2,0,0,0,1.46,2.35,1.74,1.74,0,0,0,.45.06,2,2,0,0,0,1.91-1.51l5.28-22.46,5.08-21.59L306,519.71l5-21.4,5.13-21.77L321.23,455l4.8-20.42a2,2,0,0,0-1.45-2.36Z" transform="translate(0.49 -150.95)"/><path class="cls-10" d="M561.78,474H531.67l4.14-17.63h30.12L561.78,474Zm-5.07,21.53H526.6l4.14-17.62h30.12l-4.15,17.62Zm-5.06,21.54H521.53l4.15-17.62h30.11l-4.14,17.62Zm-5.07,21.54H516.46L520.61,521h30.12l-4.15,17.63Zm-5.08,21.55-.26,0H511.39l4.15-17.62h30.12l-4.16,17.64Zm32.13-128a2,2,0,0,0-2.35,1.46l-4.43,18.8H536.73l4.21-17.9a2,2,0,1,0-3.81-.9l-4.73,20.1-5.07,21.58-5.09,21.58-5.07,21.59-5.09,21.58L507,561.65l-5.37,22.79a2,2,0,0,0,1.47,2.35,1.74,1.74,0,0,0,.45.06,1.94,1.94,0,0,0,1.89-1.51l5-21.31h30.12l-4.81,20.41a2,2,0,0,0,1.47,2.35,1.74,1.74,0,0,0,.45.06,2,2,0,0,0,1.9-1.51l5.29-22.46L550,541.29l5.09-21.58,5-21.4,5.12-21.77L570.28,455l4.81-20.42a2,2,0,0,0-1.46-2.36Z" transform="translate(0.49 -150.95)"/><path class="cls-11" d="M546.34,456.35h30.12L580.6,474H550.49l-4.15-17.63Zm5.07,21.54h30.12l4.14,17.62H555.56l-4.15-17.62Zm5.07,21.54h30.11l4.15,17.62H560.62l-4.14-17.62ZM561.54,521h30.12l4.15,17.63H565.69L561.54,521Zm5.07,21.54h30.12l4.15,17.62H571l-.26,0-4.16-17.64Zm-29.43-108L542,455l5.08,21.58,5.12,21.77,5,21.4,5.09,21.58,5.07,21.59,5.29,22.46a2,2,0,0,0,1.9,1.51,1.88,1.88,0,0,0,.46-.06,2,2,0,0,0,1.46-2.35L571.68,564H601.8l5,21.31a1.94,1.94,0,0,0,1.89,1.51,1.74,1.74,0,0,0,.45-.06,2,2,0,0,0,1.47-2.35l-5.37-22.79-5.07-21.58-5.09-21.58L590,496.9l-5.09-21.58-5.07-21.58-4.73-20.1a2,2,0,1,0-3.82.9l4.22,17.9H545.42L541,433.64a2,2,0,1,0-3.82.9Z" transform="translate(0.49 -150.95)"/><polygon class="cls-12" points="221.86 430.22 218.17 430.22 218.17 410.77 221.86 410.77 221.86 430.22 221.86 430.22"/><polygon class="cls-13" points="218.17 419.31 166.95 419.31 166.95 364.72 218.17 364.72 218.17 419.31 218.17 419.31"/><polygon class="cls-14" points="155.38 368.12 168.57 368.12 168.57 364.72 155.38 364.72 155.38 368.12 155.38 368.12"/><polygon class="cls-13" points="493.32 347.96 451.87 347.96 451.87 323.26 493.32 323.26 493.32 347.96 493.32 347.96"/><path class="cls-12" d="M512,576.59l2.48,4.07A80.68,80.68,0,0,1,504.32,589h-9.06a4.93,4.93,0,0,1,3.28-3.37,8,8,0,0,0,2.44-.77,4.37,4.37,0,0,0,1.33-2,12.33,12.33,0,0,0,.82-2.54,4,4,0,0,0-.23-2.28q3.62-2.25,7.36-4.31l1.43,2.33.3.5Z" transform="translate(0.49 -150.95)"/><path class="cls-3" d="M510.26,573.76q-3.75,2.06-7.36,4.31l-.3.19c-4.15-6.8-9.72-12.84-14.14-19.43q5.57-15,11.11-30l3.69-7.16,2.21-.58a265,265,0,0,1-7.6,29.15c4.17,7.65,8,15.8,12.45,23.51l-.06,0Z" transform="translate(0.49 -150.95)"/><path class="cls-15" d="M508.66,465.2a2,2,0,0,1,1,1.7,2.3,2.3,0,0,1-.84,1.8,2.57,2.57,0,0,1-1.93.55h-.06a19.69,19.69,0,0,0,1.35,4,3.88,3.88,0,0,0-.95.76,3.14,3.14,0,0,0-.61,1.86l-6,.71a4.89,4.89,0,0,0,0-2.62c-.47-.68-1.44-.75-2.14-1.19a3.22,3.22,0,0,1-1.28-2.59c-.06-1,.13-2,.17-3a1.78,1.78,0,0,0-.49-1.55c-.26-.2-.64-.29-.79-.6a.76.76,0,0,1,.3-.87,7.5,7.5,0,0,1,.88-.48,4.59,4.59,0,0,0,1.72-2.91,8.75,8.75,0,0,1,.57-1.5l0,0a2.82,2.82,0,0,0,1.41,1.19,2.07,2.07,0,0,0,1.8-.14A2.43,2.43,0,0,0,505,462a4.19,4.19,0,0,1,.69,1.28c.15.61,0,1.25.06,1.87a.71.71,0,0,0,.44.63.58.58,0,0,0,.57-.24,1.24,1.24,0,0,0,.17-.37,1.83,1.83,0,0,1,1.76,0Z" transform="translate(0.49 -150.95)"/><path class="cls-12" d="M508.17,473.28a19.69,19.69,0,0,1-1.35-4h.06a2.57,2.57,0,0,0,1.93-.55,2.3,2.3,0,0,0,.84-1.8,2,2,0,0,0-1-1.7,1.83,1.83,0,0,0-1.76,0,1.24,1.24,0,0,1-.17.37.58.58,0,0,1-.57.24.71.71,0,0,1-.44-.63c-.09-.62.09-1.26-.06-1.87A4.19,4.19,0,0,0,505,462a2.43,2.43,0,0,1-2.22-1.59,2.07,2.07,0,0,1-1.8.14,2.82,2.82,0,0,1-1.41-1.19l0,0a3.58,3.58,0,0,1-.3-3.18,3.28,3.28,0,0,1,2.51-2,2,2,0,0,1,1.54-1.2,3.66,3.66,0,0,1,2,.3c.64.26,1.22.63,1.83.93l.33.16,0,.06,2.25,1.21a14.89,14.89,0,0,1,3.12,2.05,8.3,8.3,0,0,1,2.21,8.06,10.23,10.23,0,0,1-4.84,6.14,11.24,11.24,0,0,1-1.61,1.23l-.36.22Z" transform="translate(0.49 -150.95)"/><path class="cls-3" d="M499.57,528.81q-6.75,13.1-13.49,26.21-6.84,13.31-13.68,26.6l-1.25-.27L464.81,580c8.36-23.47,16.43-47.14,23.57-71l9-.34A65.48,65.48,0,0,0,501.77,522l1.49-.39-3.69,7.16Z" transform="translate(0.49 -150.95)"/><path class="cls-12" d="M500.87,490.82c.26-.2.53-.4.78-.61a18.49,18.49,0,0,1-5.76,6.45c0-.84,0-1.69,0-2.54a54,54,0,0,0,5-3.3Z" transform="translate(0.49 -150.95)"/><path class="cls-16" d="M486.08,555q6.74-13.11,13.49-26.21-5.54,15-11.11,30c-.84-1.24-1.64-2.51-2.38-3.81Z" transform="translate(0.49 -150.95)"/><path class="cls-11" d="M492.39,496q1.77-.9,3.48-1.89c0,.85,0,1.7,0,2.54a67.5,67.5,0,0,0,1.47,12l-9,.34q2.26-6.42,4-13Z" transform="translate(0.49 -150.95)"/><path class="cls-12" d="M464.8,580h0l6.34,1.35c-1,2.29-2,4.58-3,6.88a163.14,163.14,0,0,1-16.85-4.47c.41-1.35,1.55-2.9,2.73-3.21a7.75,7.75,0,0,1,3.61.15,14.69,14.69,0,0,0,3.59.57A6.32,6.32,0,0,0,464.8,580Z" transform="translate(0.49 -150.95)"/><path class="cls-15" d="M466.44,497.05c.3,1.38.65,2.74,1,4.1h0a19.43,19.43,0,0,1-10.9-.22,3.49,3.49,0,0,1-1.94-1.18,1,1,0,0,1,0-1.28,1.18,1.18,0,0,1,.52-.17l6.59-1.1v0l-1.24-.85c-.33-.22-.7-.53-.63-.92a.7.7,0,0,1,.66-.5,2.19,2.19,0,0,1,.86.19l5,1.93Z" transform="translate(0.49 -150.95)"/><path class="cls-16" d="M507.79,481.84c-.79-3.48-1.08-2.55-.29-6v0l-.89.11-6,.71-1.37.16a1.58,1.58,0,0,0-.77.23,1.09,1.09,0,0,0-.3,1.18,1.87,1.87,0,0,0,.26.53,40.72,40.72,0,0,0-1.45,3.86c-1.33,1.11-2.8,2.22-4.33,3.33-3.56,2.59-7.43,5.14-10.58,7.38L466.44,497h0c.3,1.38.65,2.74,1,4.1.06.23.13.46.19.69,6.33-.56,12.55-1.73,18.77-2.86,2-1,4-1.93,6-3q1.77-.9,3.48-1.89a54,54,0,0,0,5-3.3c.26-.2.53-.4.78-.61a18.49,18.49,0,0,1-5.76,6.45,67.5,67.5,0,0,0,1.47,12A65.48,65.48,0,0,0,501.77,522l1.49-.39,2.21-.58c2.13-.54,4.27-1.1,6.41-1.66-3.28-10.53-2.45-30.28-4.09-37.57Z" transform="translate(0.49 -150.95)"/><path class="cls-11" d="M294.4,365.69l-4.8-2.84-3-1.8a1,1,0,0,1-.36-1.41l6.19-10.81a1,1,0,0,1,1.42-.37l3.42,2,4.23,2.51,2.29,1.36-7.41,12.49-1.94-1.15Z" transform="translate(0.49 -150.95)"/><path class="cls-13" d="M239.37,432.2h.29c.54,1.34,1.1,2.39.07,2.75a6,6,0,0,0-3.12,3,6.9,6.9,0,0,0-.45,1.35l-.9,3.46a29.53,29.53,0,0,1-8.39,2.89,3.62,3.62,0,0,1-1.35.06,1.31,1.31,0,0,1-1-.8,2,2,0,0,1,.46-1.62,70.64,70.64,0,0,1,6.65-8.57,8.28,8.28,0,0,1,2.27-1.95c1.65-.84,3.59-.57,5.48-.54Z" transform="translate(0.49 -150.95)"/><path class="cls-17" d="M239.37,432.2a167.21,167.21,0,0,0,20.29-16.47l.66,1a53.74,53.74,0,0,0,2.74,10.52c-6.3,3.66-15.57,8.16-19.52,10.34a66.27,66.27,0,0,1-8.28,5.18l.9-3.46a6.9,6.9,0,0,1,.45-1.35,6,6,0,0,1,3.12-3c1-.36.47-1.41-.07-2.75Z" transform="translate(0.49 -150.95)"/><path class="cls-18" d="M316,341.42s0,0,0,0,0,0,0,0Z" transform="translate(0.49 -150.95)"/><path class="cls-13" d="M303.75,473.61c-5.84.2-12.52.25-17.52.18.27-2,.55-3.91.83-5.86,2.39,1.1,4.47,3.23,7.1,3.36a10.12,10.12,0,0,0,4.37-1.15l.59-.26a10,10,0,0,1,4.13,1.56,2.18,2.18,0,0,1,.74.91,1,1,0,0,1-.25,1.1v.16Z" transform="translate(0.49 -150.95)"/><path class="cls-13" d="M289.4,378.65a50.52,50.52,0,0,1,.2-15.8l4.8,2.84a12.56,12.56,0,0,0-.45,5.17l-1,1.75-.72,1.2c-.9,1.63-1.84,3.24-2.8,4.84Z" transform="translate(0.49 -150.95)"/><path class="cls-17" d="M294.69,468.11a8.77,8.77,0,0,0,4,1.67l.47.1-.59.26a10.12,10.12,0,0,1-4.37,1.15c-2.63-.13-4.71-2.26-7.1-3.36l3.42-24.22a64.38,64.38,0,0,0,9.47,1.21c-1.92,7.59-3.69,15.28-5.21,23.13l-.05.06Z" transform="translate(0.49 -150.95)"/><path class="cls-14" d="M307.39,348.22q-1.81,3.07-3.64,6.13L301.46,353a26.49,26.49,0,0,1,5.93-4.77Z" transform="translate(0.49 -150.95)"/><path class="cls-12" d="M311.45,327.12a8.44,8.44,0,0,0-.6,2.41,10.38,10.38,0,0,0-.52,2.3,10.05,10.05,0,0,1-4.77,6.76,13,13,0,0,1-4.13-5.23,7.88,7.88,0,0,1,.39-7,5.68,5.68,0,0,1,6.23-2.57,5.46,5.46,0,0,1,3.4,3.32Z" transform="translate(0.49 -150.95)"/><path class="cls-12" d="M324,322.91a4.57,4.57,0,0,1-1.34,4.18c-.38.35-.85.7-.9,1.21a2.31,2.31,0,0,0,.17.86,3.79,3.79,0,0,1-.55,3.28,1.63,1.63,0,0,0-1.57-.32,1.82,1.82,0,0,0-1.17,1.28,2,2,0,0,0,.37,1.72,2,2,0,0,0,1.32.78h.15a9.11,9.11,0,0,1-4.67,4.44,6.7,6.7,0,0,0-1.4-1.84,12.58,12.58,0,0,1-3.61-8.16,7.5,7.5,0,0,1,0-.82,8.44,8.44,0,0,1,.6-2.41,7,7,0,0,1,3.65-3.89,8.46,8.46,0,0,1,3.47-2.72,5.48,5.48,0,0,1,4.4.09,4.06,4.06,0,0,1,2.27,3.48,7.17,7.17,0,0,0-1.23-1.17Z" transform="translate(0.49 -150.95)"/><path class="cls-15" d="M322.67,327.09a4.57,4.57,0,0,0,1.34-4.18,7.17,7.17,0,0,1,1.23,1.17,8.3,8.3,0,0,1,1.49,2.51c.43,1.18.69,2.59,1.77,3.24.3.18.65.28.94.49a.81.81,0,0,1,.34.93c-.11.25-.38.37-.59.55-.72.62-.52,1.76-.28,2.69a9.32,9.32,0,0,1,.4,3.31,3.59,3.59,0,0,1-1.65,2.79,18.65,18.65,0,0,1-2.7.79,6.2,6.2,0,0,0-2.92,2.83l-1-.6a13.5,13.5,0,0,0-5.05-2.19s0,0,0,0a2.14,2.14,0,0,0-.15-.94.36.36,0,0,0,0-.09,9.11,9.11,0,0,0,4.67-4.44h-.15a2,2,0,0,1-1.32-.78,2,2,0,0,1-.37-1.72,1.82,1.82,0,0,1,1.17-1.28,1.63,1.63,0,0,1,1.57.32,3.79,3.79,0,0,0,.55-3.28,2.31,2.31,0,0,1-.17-.86c.05-.51.52-.86.9-1.21Z" transform="translate(0.49 -150.95)"/><path class="cls-19" d="M300.64,442.22l-.69,2.7a64.38,64.38,0,0,1-9.47-1.21c.07-.46.13-.92.2-1.38l10-.11Z" transform="translate(0.49 -150.95)"/><path class="cls-20" d="M300.64,442.22l-10,.11,5.88-41.56c6.32-6.69,12.22-13.44,17.38-20.06l0-2a41.22,41.22,0,0,0,4.72-.1c-4.82,21.58-7.65,42.35-13.14,63.59l-4.92.05Z" transform="translate(0.49 -150.95)"/><path class="cls-14" d="M324.37,356.73c0,.84.07,1.69.1,2.55-1.08-.27-2.15-.6-3.21-1l3.11-1.57Z" transform="translate(0.49 -150.95)"/><path class="cls-14" d="M296.34,366.84l-2.39,4a12.56,12.56,0,0,1,.45-5.17l1.94,1.15Z" transform="translate(0.49 -150.95)"/><path class="cls-21" d="M298.21,389.12l-1.65,11.65q-3.22,3.42-6.58,6.81,4.35-9.12,8.23-18.46Z" transform="translate(0.49 -150.95)"/><path class="cls-19" d="M260.32,416.69l5.86,8.61c-.9.59-2,1.24-3.12,1.91a53.74,53.74,0,0,1-2.74-10.52Z" transform="translate(0.49 -150.95)"/><path class="cls-20" d="M289.4,378.65c1-1.6,1.9-3.21,2.8-4.84l.72-1.2A43.29,43.29,0,0,0,314,378.68l0,2c-5.16,6.62-11.06,13.37-17.38,20.06l1.65-11.65q-3.87,9.35-8.23,18.46c-7.05,7.12-14.45,14.1-21.78,20.69l-2-3-5.86-8.61-.66-1a176.42,176.42,0,0,0,29.74-37.08Z" transform="translate(0.49 -150.95)"/><path class="cls-15" d="M377.27,328.27l-4.69,1.27,2.17.47a.47.47,0,0,1,.39.23.32.32,0,0,1-.17.38,1,1,0,0,1-.44.1q-3.12.19-6.24.47a12.54,12.54,0,0,0-1.37.19c-1.55.33-11.65,7.23-15,9.6a14.38,14.38,0,0,0-1.79-7.48c2.78-1.16,9.33-4,13.25-5.63l0-.1a6.26,6.26,0,0,0,2.47-2.74,24.68,24.68,0,0,1,1.56-2.8l0,0a4.19,4.19,0,0,1,.41-.75,1.2,1.2,0,0,1,.69-.48.73.73,0,0,1,.76.27,1,1,0,0,1,0,.87,7.81,7.81,0,0,0-.35.84,1.5,1.5,0,0,0,.24,1.2c2.41-1.05,4.82-2,7.26-3a.79.79,0,0,1,0,.93,2.22,2.22,0,0,1-.74.65l-4,2.56,6-.5a.73.73,0,0,1-.21.8,2.05,2.05,0,0,1-.79.37l-4.08,1.28c-.12,0-.27.11-.26.24s.21.19.36.18l4.36-.18c.28,0,.66.07.67.35s-.27.35-.5.41Z" transform="translate(0.49 -150.95)"/><path class="cls-13" d="M303.75,354.35q1.83-3.06,3.64-6.13a26.49,26.49,0,0,0-5.93,4.77l-4.23-2.51c2.07-1.46,4.19-2.84,6.33-4.18a13.65,13.65,0,0,1,3.36-1.71,40.48,40.48,0,0,1,5-.71,5.34,5.34,0,0,0,4-2.46h0a13.5,13.5,0,0,1,5.05,2.19l1,.6,1,.6,27.1-11.3h0a14.38,14.38,0,0,1,1.79,7.48,13.29,13.29,0,0,1-.2,2l-27.37,13.76-3.11,1.57c1.06.38,2.13.71,3.21,1,.24,6.4.5,13.22.69,18.29a40.8,40.8,0,0,1-6.46,1,41.22,41.22,0,0,1-4.72.1,43.29,43.29,0,0,1-21.06-6.07l1-1.75,2.39-4,7.41-12.49Z" transform="translate(0.49 -150.95)"/><path class="cls-15" d="M534.08,308.19a1.66,1.66,0,0,0-.61,1,8.46,8.46,0,0,0-.06,2.66c.06,1.09,0,2.19,0,3.28a7.22,7.22,0,0,0,.59,3.19h0c.06.24.13.48.19.72a6.73,6.73,0,0,1,4.61-.95l-.73-1.44h0a5,5,0,0,1-.21-2.7,5.79,5.79,0,0,0-.12-2.72,1.89,1.89,0,0,0-1.17-1.58c-.13-.57-.3-1.12-.48-1.67a1.56,1.56,0,0,0-1.11-.06,2.17,2.17,0,0,0-.89.32Z" transform="translate(0.49 -150.95)"/><path class="cls-12" d="M542,429.42a5.05,5.05,0,0,0-2.47,2.44,20.06,20.06,0,0,0,8.23-.44,3.78,3.78,0,0,1,1.59-.21,1.23,1.23,0,0,1,1,.88l3.5,0c.1-3.46.27-6.93.52-10.38l-6.3-.56a9.54,9.54,0,0,1-.54,3.56,6.51,6.51,0,0,1-2.39,3.21,21.76,21.76,0,0,1-3.13,1.46Z" transform="translate(0.49 -150.95)"/><path class="cls-21" d="M567.9,361.28a107.81,107.81,0,0,1-5.47,38.8c.44,7.25,1.12,14.7,2.16,22.15.63,0,1.27.06,1.9.07q3.16.1,6.31.15h1.55c-1.1-12.63-2.16-30.9-2.16-30.9.8-15,4.18-25,3.28-40.9q-10.41.15-20.82.09-3.87,35.16-7.76,70.32c.39.05.79.08,1.18.12l6.3.56.94.08q2.76-17.61,6.53-35.07,2.77-12.81,6.06-25.48Z" transform="translate(0.49 -150.95)"/><path class="cls-14" d="M552.34,318.05a6.77,6.77,0,0,0-4.62.95c.41,1.58.85,3.16,1.34,4.72,1.55-1,3.06-2.1,4.52-3.22l-1.24-2.45Z" transform="translate(0.49 -150.95)"/><path class="cls-15" d="M547.64,308.19a1.74,1.74,0,0,0-.63,1,8.77,8.77,0,0,0,0,2.66c0,1.09-.06,2.19-.07,3.28a7.1,7.1,0,0,0,.61,3.19h0c.06.24.12.48.19.72a6.77,6.77,0,0,1,4.62-.95c-.25-.47-.5-1-.74-1.44h0a5,5,0,0,1-.2-2.7,5.66,5.66,0,0,0-.13-2.72,1.86,1.86,0,0,0-1.16-1.57c-.14-.57-.3-1.12-.49-1.67a1.45,1.45,0,0,0-1.11-.07,2.12,2.12,0,0,0-.88.32Z" transform="translate(0.49 -150.95)"/><path class="cls-14" d="M555.93,329.06l-.15,4.32c0,.57,0,1.15-.06,1.72a3.94,3.94,0,0,1-1-.56,8.75,8.75,0,0,1-2-2.43c-.18-.28-.34-.57-.51-.86,1.25-.72,2.49-1.46,3.74-2.19Z" transform="translate(0.49 -150.95)"/><path class="cls-9" d="M561.84,386.76c.12,4.33.31,8.79.59,13.32a107.81,107.81,0,0,0,5.47-38.8q-3.28,12.66-6.06,25.48Z" transform="translate(0.49 -150.95)"/><path class="cls-12" d="M573.51,296h0a5.5,5.5,0,0,0-2.22-2.29,10.51,10.51,0,0,0-2.38-.68,7.87,7.87,0,0,1-2.34-.78c-1.09-.62-1.89-1.71-3-2.2a3.24,3.24,0,0,0-3.51.66,2.9,2.9,0,0,0-.4,3.5,3.57,3.57,0,0,0,.75.8,17.7,17.7,0,0,0,1.51,1,4.07,4.07,0,0,1,1.64,1.65l-.1.05a4.9,4.9,0,0,0,.51,2.07,5.12,5.12,0,0,0,.59.55,2.75,2.75,0,0,1,.79,1.43,1.64,1.64,0,0,1,1.33-.46,1.89,1.89,0,0,1,1.39,1,2.24,2.24,0,0,1,0,1.74,2.36,2.36,0,0,1-1.17,1.22,4.1,4.1,0,0,1-.59.2,5.21,5.21,0,0,0,2,2.77,13.46,13.46,0,0,1,2.17,2,9.44,9.44,0,0,1,1.13-1.24,11.32,11.32,0,0,0,3.15-6.71,9,9,0,0,0-1.2-6.27Z" transform="translate(0.49 -150.95)"/><path class="cls-15" d="M568,302.23a1.89,1.89,0,0,0-1.39-1,1.64,1.64,0,0,0-1.33.46,2.75,2.75,0,0,0-.79-1.43,5.12,5.12,0,0,1-.59-.55,4.9,4.9,0,0,1-.51-2.07l.1-.05a4.07,4.07,0,0,0-1.64-1.65,17.7,17.7,0,0,1-1.51-1,7.13,7.13,0,0,0-.93,2.74,8,8,0,0,1-1.81,4.3c-.29.29-.65.58-.68,1a1.17,1.17,0,0,0,.78,1c.16.07.34.12.51.18a11.81,11.81,0,0,0,.44,4.18,3.25,3.25,0,0,0,1.4,2.21,4.16,4.16,0,0,0,1.68.28,2.61,2.61,0,0,1,1.46.4h0l0,.15a13.86,13.86,0,0,1,.58,2.92s0,0,0,0l6.42-.6c-.08-.4-.13-.79-.17-1.18A13.82,13.82,0,0,1,570,311a2.31,2.31,0,0,1,.4-.8,13.46,13.46,0,0,0-2.17-2,5.21,5.21,0,0,1-2-2.77,4.1,4.1,0,0,0,.59-.2,2.36,2.36,0,0,0,1.17-1.22,2.24,2.24,0,0,0,0-1.74Z" transform="translate(0.49 -150.95)"/><path class="cls-12" d="M566.49,422.3a8.73,8.73,0,0,1,0,2.45,5.1,5.1,0,0,1-1.77,3.21,17.28,17.28,0,0,1-2.84,1.46,3.79,3.79,0,0,0-2,2.44,19.59,19.59,0,0,0,8.14-.44,3.48,3.48,0,0,1,1.54-.21,1.62,1.62,0,0,1,1.18.88l3.5,0q-.82-4.85-1.45-9.68-3.15,0-6.31-.15Z" transform="translate(0.49 -150.95)"/><path class="cls-13" d="M575.25,347.63q-.48-11.92-2-23.78a34.71,34.71,0,0,0-2.5-10.16l-.41.05-6.42.6-.2,0a17.61,17.61,0,0,0-3.32,1.34,47.11,47.11,0,0,0-6.71,4.75s0,0-.06.05c-1.46,1.12-3,2.2-4.52,3.22-1.82,1.22-3.71,2.35-5.64,3.4l-4.64-9.07a6.73,6.73,0,0,0-4.61.95c1.19,4.55,2.51,9.11,5,13.11.86,1.4,2,2.82,3.61,3.19s3.47-.54,5-1.45l4.42-2.6c1.25-.72,2.49-1.46,3.74-2.19l-.15,4.32c0,.57,0,1.15-.06,1.72-.11,3.16-.23,6.32-.34,9.48h0c-.23,2.05-.45,4.11-.68,6.17q10.43,0,20.82-.09c-.05-1-.13-2-.22-3Z" transform="translate(0.49 -150.95)"/><path class="cls-10" d="M361.42,450.77a2.74,2.74,0,0,1,2,.5,2.1,2.1,0,0,1,.82,1.9,1.7,1.7,0,0,1-.56,1,1.44,1.44,0,0,1-.84.42,2,2,0,0,1-2.69,2.5,3.58,3.58,0,0,1-1.39,3.4l-.06.08a1.74,1.74,0,0,0-1.7,0,1.84,1.84,0,0,0-.83,1.75,2.06,2.06,0,0,0,1.14,1.59,2.3,2.3,0,0,0,1.87,0,7.13,7.13,0,0,1,2.74,2.79,4.38,4.38,0,0,1,.26,3.4,3.35,3.35,0,0,1-.32.66,2.37,2.37,0,0,1-1.33,1.06,1.49,1.49,0,0,1-1.58-.48,3.88,3.88,0,0,1-2.77,1.56,3.94,3.94,0,0,1-2-.36,3.61,3.61,0,0,1-1-.68,3.66,3.66,0,0,1-2,.7,1.52,1.52,0,0,1-1.52-1.24,3.05,3.05,0,0,1,.29-1.17,7.7,7.7,0,0,0,0-4.31c-.33-1.42-.83-2.79-1.09-4.22a6.7,6.7,0,0,1,.41-4.27l.09,0a9.51,9.51,0,0,1,2.55-3.65,9.65,9.65,0,0,1,6.89-2.35v-.09a17.56,17.56,0,0,0,2.53-.61Z" transform="translate(0.49 -150.95)"/><path class="cls-17" d="M362.33,456.72a2.05,2.05,0,0,0,.55-2.1,1.44,1.44,0,0,0,.84-.42c.29.67.48,1.39.73,2.09a4.12,4.12,0,0,0,1.6,2.22c.43.24,1,.43,1.08.91a.88.88,0,0,1-.3.78,2.77,2.77,0,0,1-.69.4c.15.88.45,1.73.67,2.59a6.64,6.64,0,0,1,.24,2.83,3,3,0,0,1-1.59,2.25c-.58.26-1.25.27-1.81.58a2.55,2.55,0,0,0-1.12,1.45l-.31-.11a4.38,4.38,0,0,0-.26-3.4,7.13,7.13,0,0,0-2.74-2.79,2.3,2.3,0,0,1-1.87,0,2.06,2.06,0,0,1-1.14-1.59,1.84,1.84,0,0,1,.83-1.75,1.74,1.74,0,0,1,1.7,0l.06-.08a3.58,3.58,0,0,0,1.39-3.4,2.07,2.07,0,0,0,2.14-.4Z" transform="translate(0.49 -150.95)"/><path class="cls-17" d="M361.9,470.85a3.35,3.35,0,0,0,.32-.66l.31.11c0,.09,0,.17-.07.26a7.38,7.38,0,0,0-.11,1.88l2.07.54a4.21,4.21,0,0,1-2.94,2.55,19.61,19.61,0,0,1-4.2.5,9.58,9.58,0,0,1-3.16,0,2.77,2.77,0,0,1-1.91-1.57,6.2,6.2,0,0,0,2-1.83,3.94,3.94,0,0,0,2,.36,3.88,3.88,0,0,0,2.77-1.56,1.49,1.49,0,0,0,1.58.48,2.37,2.37,0,0,0,1.33-1.06Z" transform="translate(0.49 -150.95)"/><path class="cls-17" d="M374.09,489.79a19.41,19.41,0,0,0,3.81-8.12l2.09,1.87,2.34,2.09,2.32,2.07,2.38,2.13,1.66-.28c0,.14.05.27.07.4.21,1.23.38,2.63-.4,3.6-.92,1.15-2.67,1.11-4.1.8a31.22,31.22,0,0,1-10.17-4.56Z" transform="translate(0.49 -150.95)"/><path class="cls-12" d="M363.08,587.09l-13.27-.39v-.07c-1.35-.84-.18-1.6-.18-3.58-.14-3.46-.21-6.92-.24-10.37h7q-.35,5-.47,9.94a6.54,6.54,0,0,0,1.86,1,26.24,26.24,0,0,0,4.14.76,4.12,4.12,0,0,1,1.61.52,1.54,1.54,0,0,1,.75,1.42,1,1,0,0,1-1.22.82Z" transform="translate(0.49 -150.95)"/><path class="cls-17" d="M349.41,552.1h9c-.81,6.86-1.53,13.72-2,20.58h-7c-.08-6.87,0-13.72,0-20.58Z" transform="translate(0.49 -150.95)"/><path class="cls-12" d="M377.14,581.28a5.33,5.33,0,0,0,3.07,2.29,26,26,0,0,0,4.14.76,4,4,0,0,1,1.6.52,1.55,1.55,0,0,1,.76,1.42,1,1,0,0,1-1.23.82L371,586.67c-.65-.92-.2-1.64-.69-3.62q-1.09-5.24-2.08-10.48h8.28c.25,3.3.47,6.25.66,8.71Z" transform="translate(0.49 -150.95)"/><path class="cls-22" d="M372.47,491.23a16.75,16.75,0,0,1-1.92-3.83c.8.56,1.6,1.11,2.41,1.64a8.69,8.69,0,0,1-.18,1.23,7.68,7.68,0,0,1-.31,1Z" transform="translate(0.49 -150.95)"/><path class="cls-17" d="M387.58,483.54c.4,2.08.78,4.16,1.11,6l-1.66.28-2.38-2.13a7.35,7.35,0,0,0-2.41-3.42c0-.25,0-.49-.05-.74-.13-1.86-.26-3.72-.38-5.58a9.16,9.16,0,0,1-1.26-2.42,4.9,4.9,0,0,1,.46-3.21,8.5,8.5,0,0,1,.14-1.95c.06-.35.25-.78.61-.78a.64.64,0,0,1,.52.42c.09.22.12.46.22.67a2,2,0,0,0,1.41,1,8,8,0,0,1,1.71.5,3.05,3.05,0,0,1,1.42,2.6,8.57,8.57,0,0,1-.55,2.9c.33,1.83.71,3.85,1.09,5.85Z" transform="translate(0.49 -150.95)"/><path class="cls-19" d="M358.75,549.2c-.12,1-.24,1.93-.35,2.9h-9c0-1,0-1.93,0-2.9Z" transform="translate(0.49 -150.95)"/><path class="cls-17" d="M376.48,572.57H368.2q-1.93-10.14-3.48-20.36L375,552c.56,7.48,1.07,14.61,1.51,20.58Z" transform="translate(0.49 -150.95)"/><path class="cls-19" d="M375,552l-10.25.22c-.17-1-.32-2-.46-3h10.49c.08.94.15,1.87.22,2.79Z" transform="translate(0.49 -150.95)"/><path class="cls-16" d="M358.75,549.2H347.58c-.37,0-1.64-.06-3.06-.09.72-7.44,1.08-14.17,1.76-21.36.64-6.8-.2-13.22,1.1-20.5.44-2.49,1.61-4.16,1.63-7.93-.05-1-.13-1.93-.23-2.89,7.23-.15,14.62.59,21.87.5a23.39,23.39,0,0,0-.06,6.31h0c1.37,10.28,2.88,28.77,4.17,46h-16Z" transform="translate(0.49 -150.95)"/><path class="cls-19" d="M384.65,487.7l-2.32-2.07c0-.45-.07-.9-.09-1.35a7.35,7.35,0,0,1,2.41,3.42Z" transform="translate(0.49 -150.95)"/><path class="cls-17" d="M379.07,471.4a3.1,3.1,0,0,0-.87,2c-.09,1.09-.18,2.18-.27,3.23l-3.12,2.24c-1.19-1.07-4.05-1.48-5.37-2.37,2.08-1.41,5.47-3,6.76-4.71a11,11,0,0,1,1.17-1.61,4.07,4.07,0,0,1,1.17-.74c.21-.11.43-.2.65-.29a1.06,1.06,0,0,1,.62-.13.64.64,0,0,1,.46.49,1,1,0,0,1-.11.69,5.68,5.68,0,0,1-1.09,1.16Z" transform="translate(0.49 -150.95)"/><path class="cls-13" d="M370.55,487.4a16.75,16.75,0,0,0,1.92,3.83c-.3.81-.69,1.6-1,2.41a17.82,17.82,0,0,0-.83,3.29c-7.25.09-14.64-.65-21.87-.5a88.53,88.53,0,0,0-1.91-11.77c-.53-2.3-1.11-4.91.22-6.87,1.07-1.6,3.06-2.22,4.76-3.12a3.35,3.35,0,0,0,.36-.21,2.77,2.77,0,0,0,1.91,1.57,9.58,9.58,0,0,0,3.16,0,19.61,19.61,0,0,0,4.2-.5,4.21,4.21,0,0,0,2.94-2.55,23,23,0,0,1,5.63,2.23c.35.21.7.43,1,.67a34.66,34.66,0,0,1,3.72,3l.15.13,2.55,2.28.39.35a19.41,19.41,0,0,1-3.81,8.12c-.38-.25-.76-.49-1.13-.75-.81-.53-1.61-1.08-2.41-1.64Z" transform="translate(0.49 -150.95)"/><path class="cls-5" d="M386.49,477.69c.33,1.83.71,3.85,1.09,5.85h2.27L386.7,477l-.21.68Z" transform="translate(0.49 -150.95)"/><path class="cls-3" d="M394.82,463H379.1c-.18,2-.37,4.16-.56,6.43h0c.21-.11.43-.2.65-.29a1.15,1.15,0,0,1,.62-.14.67.67,0,0,1,.46.5,1,1,0,0,1-.11.69,5.68,5.68,0,0,1-1.09,1.16,3.1,3.1,0,0,0-.87,2c-.09,1.09-.18,2.18-.27,3.23-.14,1.65-.28,3.22-.42,4.65l.39.35,2.09,1.87h2.2c-.13-1.86-.26-3.72-.38-5.58a9.16,9.16,0,0,1-1.26-2.42,4.9,4.9,0,0,1,.46-3.21,8.5,8.5,0,0,1,.14-1.95c.06-.35.25-.78.61-.78a.64.64,0,0,1,.52.42c.09.22.12.46.22.67a2,2,0,0,0,1.41,1,8,8,0,0,1,1.71.5,3.05,3.05,0,0,1,1.42,2.6,7.09,7.09,0,0,1-.34,2.22l3.15,6.53H393c.58-6.3,1.23-14.28,1.8-20.5Z" transform="translate(0.49 -150.95)"/><path class="cls-23" d="M674,502a.84.84,0,0,1-.43-.4,1.44,1.44,0,0,1,0-.87l.18-.88a12.44,12.44,0,0,0-6.35,1.15,8.13,8.13,0,0,0-4.29,5.3q5.52-2,10.89-4.3Z" transform="translate(0.49 -150.95)"/><path class="cls-15" d="M677.74,495.11h0l-.08,0a4.58,4.58,0,0,1-1.61,0,2.36,2.36,0,0,0-1.7,0,1.26,1.26,0,0,0-.49,1.17,2.92,2.92,0,0,0,.26,1,.76.76,0,0,1,.16,0,1.55,1.55,0,0,0,0,.21c-.16.76-.31,1.51-.46,2.27l-.18.88a1.44,1.44,0,0,0,0,.87.84.84,0,0,0,.43.4,2.21,2.21,0,0,0,.85.15,5.85,5.85,0,0,0,3.3-.85l.19-.14a3.4,3.4,0,0,0,1.4-2.5c.69-.35,1.41-.73,2.14-1.14-.87-1.27-1.72-2.53-2.57-3.8q-.78.74-1.59,1.44Z" transform="translate(0.49 -150.95)"/><path class="cls-13" d="M642.87,588.15h13.55q.68-2.56,1.32-5.13H651.1c-.32,0-.65,0-1-.06,0,.15,0,.3-.08.45A3.71,3.71,0,0,1,648.2,585a12.23,12.23,0,0,1-2.4.69,5,5,0,0,0-2.25.93,2.06,2.06,0,0,0-.68,1.5Z" transform="translate(0.49 -150.95)"/><path class="cls-9" d="M661.14,516.5c-.18-1-.29-2.06-.45-3.09l-1.4,0c-2.5,25.2-5,44.63-9.16,69.6.32,0,.65.06,1,.06h6.64c4.58-17.89,8.72-35.79,13.2-53.68-.13-2.45-.2-5-.22-7.52a9.7,9.7,0,0,1-1.86.49,6.94,6.94,0,0,1-5.1-.88,7.58,7.58,0,0,1-2.62-4.93Z" transform="translate(0.49 -150.95)"/><path class="cls-24" d="M674.27,497.32a.76.76,0,0,0-.16,0l.12.24a1.55,1.55,0,0,1,0-.21Z" transform="translate(0.49 -150.95)"/><path class="cls-24" d="M677.68,583.48v0l0,0Z" transform="translate(0.49 -150.95)"/><path class="cls-9" d="M682.7,507.23a14.56,14.56,0,0,1,1.75,2.45,4.61,4.61,0,0,1,.56,2.1h.19L685,504.6l-4.19.09c.62.86,1.26,1.71,1.93,2.54Z" transform="translate(0.49 -150.95)"/><path class="cls-10" d="M680.43,476.33a6.58,6.58,0,0,0,.94,2.44,24.09,24.09,0,0,0,2.76,3.82c-.2-1-.39-2-.59-3.07-1.08-1-2.12-2.09-3.11-3.19Z" transform="translate(0.49 -150.95)"/><path class="cls-24" d="M687.31,497.81l-.22.06c.06.29.11.57.17.86,0-.3,0-.61,0-.92Z" transform="translate(0.49 -150.95)"/><path class="cls-23" d="M687.09,497.87l-4.25,1.05a3.32,3.32,0,0,0-1.06.4,5.52,5.52,0,0,0-1.13,1.4A3.82,3.82,0,0,1,678.9,502c.6.92,1.22,1.82,1.87,2.7l4.19-.09h.65a1.53,1.53,0,0,1-.09-1.61,14.56,14.56,0,0,1,.93-1.43,6.4,6.4,0,0,0,.81-2.82c-.06-.29-.11-.57-.17-.86Z" transform="translate(0.49 -150.95)"/><path class="cls-13" d="M674.3,587.9h13.53l-.15-4.49h-9.42a3.31,3.31,0,0,0-.54.06l0,0a4.9,4.9,0,0,1-2.56,1.77c-.46.13-.94.19-1.4.34a2.09,2.09,0,0,0-1.15.82,1.09,1.09,0,0,0,.12,1.32v.1l1.61,0Z" transform="translate(0.49 -150.95)"/><path class="cls-10" d="M658.17,506.28c.43-.06.83-.12,1.18-.19a12.87,12.87,0,0,1,1.25-2.87c.41-6.14.49-13.72.47-20.32a97,97,0,0,0-2.9,23.38Z" transform="translate(0.49 -150.95)"/><path class="cls-12" d="M668.47,456.64A1.85,1.85,0,0,1,670,458a2,2,0,0,1-.61,1.94,2,2,0,0,1-1.09.5,5.08,5.08,0,0,0,3.71,3.18,1.8,1.8,0,0,0,.82-.17.86.86,0,0,0,.48-1c-.11-.24-.36-.38-.54-.57a2.68,2.68,0,0,1-.34-2.13,13.21,13.21,0,0,0-.47-5.87,6.66,6.66,0,0,0-3.93-4.18l0,0a7.29,7.29,0,0,0-6.38,0c-1.55.77-2.77,2.08-4.26,2.95a7.7,7.7,0,0,0-2.47,1.71,2.73,2.73,0,0,0-.38,2.49,2.7,2.7,0,0,0,1.86,1.69l.07,0a5.92,5.92,0,0,1-.39-1.92,3.24,3.24,0,0,0,1.84.37,3.33,3.33,0,0,0,2.13-1.1,4.53,4.53,0,0,0,1.91,1.42,2.17,2.17,0,0,0,2.25-.44,3.47,3.47,0,0,0,2.1,2c.32.11.77.12.9-.19a.75.75,0,0,0,0-.51c-.08-.28-.15-.57-.23-.86a1.71,1.71,0,0,1,1.57-.64Z" transform="translate(0.49 -150.95)"/><path class="cls-10" d="M678.08,468.05c-1.21,1.26-3.22,2.52-4.17,4a35.15,35.15,0,0,0,5.74-3.86l-1.57-.12Z" transform="translate(0.49 -150.95)"/><path class="cls-9" d="M684.91,512.59c-.38,1.57-1.88,2.56-3.25,3.4q-2.8,1.69-5.59,3.41a51.91,51.91,0,0,1-5.35,2.42c0,2.57.09,5.07.22,7.52,1,18.67,4.82,34.52,6.74,54.14h0a3.31,3.31,0,0,1,.54-.06h9.42q-1.24-35.82-2.48-71.64H685a3.21,3.21,0,0,1-.1.81Z" transform="translate(0.49 -150.95)"/><path class="cls-15" d="M670,458a1.85,1.85,0,0,0-1.48-1.37,1.71,1.71,0,0,0-1.57.64c.08.29.15.58.23.86a.75.75,0,0,1,0,.51c-.13.31-.58.3-.9.19a3.47,3.47,0,0,1-2.1-2,2.17,2.17,0,0,1-2.25.44,4.53,4.53,0,0,1-1.91-1.42,3.33,3.33,0,0,1-2.13,1.1,3.24,3.24,0,0,1-1.84-.37,5.92,5.92,0,0,0,.39,1.92c.05.17.11.33.17.49.45,1.21.94,2.56.45,3.76-.18.44-.48,1-.2,1.36s.76.29,1.18.37a2.55,2.55,0,0,1,1.6,1.47,14.3,14.3,0,0,0,1,2,3.32,3.32,0,0,0,2.86,1.36,3.76,3.76,0,0,1,1.79-.71,2.67,2.67,0,0,1,1.66.59l0,0a7.9,7.9,0,0,1,1.26,1.32l-.12.23,2.64,1.4a61.29,61.29,0,0,1,3.68-4.93l-2.86-3.65H672a5.08,5.08,0,0,1-3.71-3.18,2,2,0,0,0,1.09-.5A2,2,0,0,0,670,458Z" transform="translate(0.49 -150.95)"/><path class="cls-10" d="M678.36,501.11c.17.3.35.59.54.88a3.82,3.82,0,0,0,1.75-1.27,5.52,5.52,0,0,1,1.13-1.4,3.32,3.32,0,0,1,1.06-.4l4.25-1.05c-.19-1-.39-2.05-.59-3.07-1.54.93-3.1,1.85-4.6,2.67-.73.41-1.45.79-2.14,1.14a3.4,3.4,0,0,1-1.4,2.5Z" transform="translate(0.49 -150.95)"/><path class="cls-15" d="M655.71,511.36c-.43-.08-.88.08-1.31,0a3,3,0,0,1-1.08-.64,1.34,1.34,0,0,0-1.18-.3c-.37.14-.61.56-1,.63s-.6-.11-.89-.08-.69.45-.9.81a2.12,2.12,0,0,0-.3.67,1,1,0,0,0,0,.24.68.68,0,0,0,.19.45,1.09,1.09,0,0,0,.66.24c2.56.32,4.87.5,6.46.73.8.12.94-.32.84-.83a4,4,0,0,0-.5-1.21,1.6,1.6,0,0,0-1-.7Z" transform="translate(0.49 -150.95)"/><path class="cls-13" d="M678.9,502c-.19-.29-.37-.58-.54-.88l-.19.14a5.85,5.85,0,0,1-3.3.85A2.21,2.21,0,0,1,674,502q-5.37,2.34-10.89,4.3a8.13,8.13,0,0,1,4.29-5.3,12.44,12.44,0,0,1,6.35-1.15c.15-.76.3-1.51.46-2.27l-.12-.24a12.55,12.55,0,0,0-13.51,5.93,12.87,12.87,0,0,0-1.25,2.87c-.35.07-.75.13-1.18.19-1.79.26-4.2.48-6.73.69-4.47.39-9.31.75-11.8,1.24l-1.59-.65a17.13,17.13,0,0,0-1.17,6.37c.77-.6,1.52-1.24,2.26-1.89,2.3.17,8.84.56,9.89.64a1,1,0,0,1,0-.24,2.12,2.12,0,0,1,.3-.67c.21-.36.48-.76.9-.81s.59.13.89.08.63-.49,1-.63a1.34,1.34,0,0,1,1.18.3,3,3,0,0,0,1.08.64c.43.09.88-.07,1.31,0a1.6,1.6,0,0,1,1,.7,4,4,0,0,1,.5,1.21l2.11.09,1.4,0c.16,1,.27,2.07.45,3.09a7.58,7.58,0,0,0,2.62,4.93,6.94,6.94,0,0,0,5.1.88,9.7,9.7,0,0,0,1.86-.49,51.91,51.91,0,0,0,5.35-2.42q2.79-1.71,5.59-3.41c1.37-.84,2.87-1.83,3.25-3.4a3.21,3.21,0,0,0,.1-.81,4.61,4.61,0,0,0-.56-2.1,14.56,14.56,0,0,0-1.75-2.45c-.67-.83-1.31-1.68-1.93-2.54s-1.27-1.78-1.87-2.7Z" transform="translate(0.49 -150.95)"/><path class="cls-23" d="M683.54,479.52c-1.08-1-2.12-2.09-3.11-3.19a6.58,6.58,0,0,0,.94,2.44,24.09,24.09,0,0,0,2.76,3.82c.32,1.68.65,3.36,1,5q1.68-2,3.19-4.05a59.33,59.33,0,0,1-4.75-4.05Zm-1.64,18c-.87-1.27-1.72-2.53-2.57-3.8q-.78.74-1.59,1.44h0l-.08,0a4.58,4.58,0,0,1-1.61,0,2.36,2.36,0,0,0-1.7,0,1.26,1.26,0,0,0-.49,1.17,2.92,2.92,0,0,0,.26,1,12.55,12.55,0,0,0-13.51,5.93c.41-6.14.49-13.72.47-20.32a97,97,0,0,0-2.9,23.38c-1.79.26-4.2.48-6.73.69,1.31-6.69,2.62-14.76,3.93-21.21a94.62,94.62,0,0,1,2.24-9.41,32.7,32.7,0,0,1,5.43-3.51,2.57,2.57,0,0,0,1.38-1.18,8,8,0,0,0,.19-1.19,1.84,1.84,0,0,1,2.29-1.24l0,0a7.9,7.9,0,0,1,1.26,1.32l-.12.23,2.64,1.4a61.29,61.29,0,0,1,3.68-4.93c.26-.33.53-.65.81-1a6.72,6.72,0,0,1,2.79-2.18,2.46,2.46,0,0,1,3,1.14c.25.63.14,1.4.54,1.95s.91.72.92,1.24a10.72,10.72,0,0,1,2.21.62,18.11,18.11,0,0,1,5.5,4.05q3.06,2.94,6.13,5.87c1.29,1.24,2.67,2.64,2.86,4.43a5.22,5.22,0,0,1-1.7,4.09,114.68,114.68,0,0,1-11,7.29c-1.54.93-3.1,1.85-4.6,2.67Zm-3.82-29.42c-1.21,1.26-3.22,2.52-4.17,4a35.15,35.15,0,0,0,5.74-3.86l-1.57-.12Z" transform="translate(0.49 -150.95)"/><path class="cls-9" d="M125.5,543.06l-.35,3.23a172.33,172.33,0,0,1-13.79-20.21q7.45,8.16,14.14,17Z" transform="translate(0.49 -150.95)"/><path class="cls-12" d="M119,473.79a4.38,4.38,0,0,1-4-.48,4,4,0,0,1-1.69-3.62,3.78,3.78,0,0,1,2.39-3.17,6.87,6.87,0,0,1,4.28.27c.31,1,.73,2,1.14,3l.54,1.26a4.68,4.68,0,0,1-2.66,2.7Z" transform="translate(0.49 -150.95)"/><path class="cls-12" d="M119.94,466.79a8.57,8.57,0,0,1-.31-4.37,8.13,8.13,0,0,1,5.35-5.49,9.26,9.26,0,0,1,6-.21,6.85,6.85,0,0,1,4.11,3.67l-.09,0a2.78,2.78,0,0,1-.85,2,2.82,2.82,0,0,1-2,.81,5,5,0,0,1-3.37,3c-.41.12-.92.23-1.06.63a2,2,0,0,0-.07.54.46.46,0,0,1-.28.44.51.51,0,0,1-.49-.23,3,3,0,0,0-.3-.32l0,0a1.84,1.84,0,0,0-1.43-.81,1.54,1.54,0,0,0-1.24.71,1.67,1.67,0,0,0-.25,1.37,1.8,1.8,0,0,0,1,1.14,1.93,1.93,0,0,0,1,.14,8.13,8.13,0,0,1-3.07,3,3.34,3.34,0,0,1-.1.43c-.29-.71-.58-1.4-.88-2.1l-.54-1.26c-.41-1-.83-2-1.14-3Z" transform="translate(0.49 -150.95)"/><path class="cls-15" d="M124.69,469.64a1.8,1.8,0,0,1-1-1.14,1.67,1.67,0,0,1,.25-1.37,1.54,1.54,0,0,1,1.24-.71,1.84,1.84,0,0,1,1.43.81l0,0a3,3,0,0,1,.3.32.51.51,0,0,0,.49.23.46.46,0,0,0,.28-.44,2,2,0,0,1,.07-.54c.14-.4.65-.51,1.06-.63a5,5,0,0,0,3.37-3,2.82,2.82,0,0,0,2-.81,2.78,2.78,0,0,0,.85-2l.09,0,.14.39a10,10,0,0,1,.64,3.61,5.62,5.62,0,0,0,.88,3.46,8.32,8.32,0,0,1,.68.77.93.93,0,0,1,.07,1c-.29.45-1,.35-1.45.61a1.83,1.83,0,0,0-.73,1.32c-.07.45-.1.9-.13,1.36h0a3.17,3.17,0,0,1-1.75,2.11,5.73,5.73,0,0,1-2.78.48,2,2,0,0,0-1.11.13,1.76,1.76,0,0,0-.62.88c-.13.29-.29.7-.46,1.15a26,26,0,0,0-6.19-3.2c.11-.42.21-.82.3-1.23a3.34,3.34,0,0,0,.1-.43,8.13,8.13,0,0,0,3.07-3,1.93,1.93,0,0,1-1-.14Z" transform="translate(0.49 -150.95)"/><path class="cls-12" d="M143.76,582.41a138.64,138.64,0,0,1-6.25-13.67c3.34-.42,6.67-1,10-1.62,1.07,3.7,2.14,7.4,3.34,11.13,1.19,2.77,1.52,4.53,4.8,5.16a9.27,9.27,0,0,1,2.09.52,2.22,2.22,0,0,1,1.34,1.57,1.32,1.32,0,0,1-1,1.47h0c-5.28.13-6.74-.12-12,0a3.47,3.47,0,0,1-1.64-.23,2.29,2.29,0,0,1-1.11-2,6.75,6.75,0,0,1,.45-2.34Z" transform="translate(0.49 -150.95)"/><path class="cls-12" d="M109.83,588,99.8,579a2.23,2.23,0,0,1,.62-1.3,9.31,9.31,0,0,1,1.16-1,12.92,12.92,0,0,0,3.52-5.46c1-2.84,1.92-5.71,2.82-8.59q4.65,2.25,9.45,4.17Q113.83,573,110,578.91c.33.52.68,4.91,1.64,5.6a5.7,5.7,0,0,1,1.65.4,1.59,1.59,0,0,1-.61,3.05Z" transform="translate(0.49 -150.95)"/><path class="cls-16" d="M112,550.47c-.81-9.27-2.35-17.79-3.13-27.09q1.26,1.33,2.49,2.7a172.33,172.33,0,0,0,13.79,20.21l-.86,8q-3.32,6.36-6.92,12.58-4.8-1.92-9.45-4.17c1.27-4.09,2.52-8.18,4.08-12.18Z" transform="translate(0.49 -150.95)"/><path class="cls-16" d="M108.74,522.65c-2.29-4.27-.69-9.6-.31-13.06L127,512.22c0,.77,0,1.57,0,2.37,5.08,12,9.55,20.91,14.63,32.94,2.16,6.59,4,13.08,5.83,19.59-3.3.67-6.63,1.2-10,1.62-2.28-5.77-4.25-11.65-6.12-17.64q-2.85-4.08-5.89-8-6.68-8.8-14.14-17-1.23-1.37-2.49-2.7l-.06-.74Z" transform="translate(0.49 -150.95)"/><path class="cls-10" d="M131.23,499.58l-.24.25a16.53,16.53,0,0,1-1.67,1A23.54,23.54,0,0,1,122,490.14c2.94,3.26,6,6.38,9.19,9.44Z" transform="translate(0.49 -150.95)"/><path class="cls-15" d="M155.79,514.16h0c1,0,2,0,3-.06a3.08,3.08,0,0,1,1.32.16,3,3,0,0,1,1.27,1.37c.83,1.35,1.65,2.69,2.46,4a2.1,2.1,0,0,1-2.08.72,10.62,10.62,0,0,0-2.42-.3,9.76,9.76,0,0,1-2.17.41,19.56,19.56,0,0,1-3-.61h0A97.31,97.31,0,0,1,146,513.3a29.47,29.47,0,0,0,4.12-4.45c2.06,2,4.09,3.84,5.72,5.31Z" transform="translate(0.49 -150.95)"/><path class="cls-20" d="M146,504.82c1.3,1.35,2.68,2.72,4.06,4A29.47,29.47,0,0,1,146,513.3c-1.6-1.4-3.16-2.83-4.67-4.23l4.73-4.25Z" transform="translate(0.49 -150.95)"/><path class="cls-23" d="M122.2,474.42a26,26,0,0,1,6.19,3.2l-.84,2.22a17.81,17.81,0,0,1,2.64,2.71c4.71,5.67,8.34,13.89,13.2,19.44.8.91,1.69,1.87,2.62,2.83l-4.73,4.25-2.6-2.43c-2.5-2.34-5-4.68-7.45-7.06-3.15-3.06-6.25-6.18-9.19-9.44a23.54,23.54,0,0,0,7.28,10.71,4.6,4.6,0,0,0-.58.4c-1.38,1.11-1.77,3-1.8,4.8,0,.68,0,3.2.06,6.17l-18.57-2.63,0-.26a73.11,73.11,0,0,1,2.69-15.55c2.62-8.21,3.81-10.33,10.54-17.8l.09,0c.15-.52.29-1.06.42-1.58Z" transform="translate(0.49 -150.95)"/><path class="cls-12" d="M192.07,584.89a14.63,14.63,0,1,1,14.62-14.63,14.63,14.63,0,0,1-14.62,14.63Zm0-33.64a19,19,0,1,0,19,19,19,19,0,0,0-19-19Z" transform="translate(0.49 -150.95)"/><path class="cls-12" d="M219.52,577.07a6.11,6.11,0,1,0,6.11,6.1,6.11,6.11,0,0,0-6.11-6.1Z" transform="translate(0.49 -150.95)"/><path class="cls-3" d="M192.07,566a4.23,4.23,0,1,0,4.22,4.22,4.22,4.22,0,0,0-4.22-4.22Z" transform="translate(0.49 -150.95)"/><path class="cls-3" d="M219.52,586.32a3.15,3.15,0,1,1,3.14-3.15,3.14,3.14,0,0,1-3.14,3.15Z" transform="translate(0.49 -150.95)"/><path class="cls-17" d="M405,287.71c.19,1.1.37,2.2.57,3.29l-.1,0a1.57,1.57,0,0,1-.08,1.59c-.44.48-1.25.32-1.84,0a7.21,7.21,0,0,1-3.64-4.12,12.12,12.12,0,0,1-.5-2.75,28.31,28.31,0,0,0-.3-2.92.9.9,0,0,0,0-.19,30.31,30.31,0,0,0,6.25-.35,3.93,3.93,0,0,0,.24.56v0c.41.79,1,1.5,1.39,2.32,0,0,0,0,0,.06a4,4,0,0,1,.06,2.86c-.08.23-.22.49-.46.53s-.58-.28-.61-.61a6.28,6.28,0,0,1,.16-.95.77.77,0,0,0-.36-.82.62.62,0,0,0-.76.43,1.77,1.77,0,0,0,0,1Z" transform="translate(0.49 -150.95)"/><path class="cls-9" d="M372.85,282.23a7.91,7.91,0,0,0-.3,6.85q-1.11.18-2.22.39c-3.05.62-5.77,2.88-8.83,3.67-1.26.34-3,.46-3.5-.74a2.8,2.8,0,0,1,.62-2.51q1.74-2.76,3.49-5.52c.82-1.29,1.88-2.74,3.43-2.77a8.44,8.44,0,0,1,2.67.83,7.84,7.84,0,0,0,4.64-.2Z" transform="translate(0.49 -150.95)"/><path class="cls-11" d="M387.54,276.42a2.15,2.15,0,0,0,.42-1.9l.3-.11c-2.15-6-7.89-10.76-8.25-17a5.21,5.21,0,0,0,2.34.43,12.25,12.25,0,0,0,4.44-1.4,10,10,0,0,0,4.6,4.86,7.8,7.8,0,0,0,1.19.52c0,.18,0,.37,0,.55.64,6,4.32,13.86,6.42,20.15l-.08.13A7.79,7.79,0,0,1,395.3,286h.28c-7.57,1.95-15.42,1.85-23,3.09a7.91,7.91,0,0,1,.3-6.85c.66-.19,1.3-.41,1.93-.65L385,277.89a5.41,5.41,0,0,0,2.5-1.47Z" transform="translate(0.49 -150.95)"/><path class="cls-14" d="M395.64,241.46q-1.2,5-2.14,10a38.8,38.8,0,0,0-.92,10.39,7.8,7.8,0,0,1-1.19-.52,51.24,51.24,0,0,1,4.25-19.87Z" transform="translate(0.49 -150.95)"/><path class="cls-25" d="M405.46,282.32c0,.19.08.39.13.58a3.93,3.93,0,0,1-.24-.56l.11,0Z" transform="translate(0.49 -150.95)"/><path class="cls-14" d="M405.78,249.71a69.92,69.92,0,0,0-.08,13.57,12.38,12.38,0,0,1-1.92.12,70.3,70.3,0,0,1,2-13.69Z" transform="translate(0.49 -150.95)"/><path class="cls-25" d="M429.26,221.84a5.59,5.59,0,0,1,.22-1.52,8.7,8.7,0,0,1-.22,1.52Z" transform="translate(0.49 -150.95)"/><path class="cls-17" d="M430.55,287.29c-.21-.81-.4-1.6-.59-2.4a22.18,22.18,0,0,1-1.54,6.21c-.24.61-.62,1.28-1.27,1.35a1.31,1.31,0,0,1-1.23-.91,2.56,2.56,0,0,1-.12-1.1h-.12c-.39-3-.86-6.07-1.38-9.09,2.1-.14,4.21-.3,6.31-.46.08.6.16,1.26.23,2a30.06,30.06,0,0,1,.82,3.62,1.79,1.79,0,0,1-.05,1,.61.61,0,0,1-.85.26.88.88,0,0,1-.21-.46Z" transform="translate(0.49 -150.95)"/><path class="cls-13" d="M425.54,239a16.54,16.54,0,0,1,1.95,6.53c1.37,9.74,1.81,19.6,2.25,29.42.1,2.17.55,3.63.87,5.95-2.1.16-4.21.32-6.31.46-.49-2.78-1-5.56-1.63-8.31q-2-9-4.72-17.86a17,17,0,0,0,1.66-14.33h0a6,6,0,0,1,1.41-2.14l1.71-2.43a13,13,0,0,1,1.83,1.47,8.29,8.29,0,0,1,1,1.25Z" transform="translate(0.49 -150.95)"/><path class="cls-9" d="M415.88,219.32a1,1,0,0,0-.52-.45,1.28,1.28,0,0,0-.94.06,1.39,1.39,0,0,0-.54.39,8.79,8.79,0,0,1,.41-1.44,8.11,8.11,0,0,1,4.73-4.56l0,0a7,7,0,0,1,2.55-.72,7.3,7.3,0,0,1,7.89,7.68,5.59,5.59,0,0,0-.22,1.52,5,5,0,0,0,0,.55c-.24.62-.48,1.25-.75,1.86a4.52,4.52,0,0,1-1.58-2.52,11.28,11.28,0,0,1-.23-3.12,11.17,11.17,0,0,1-7.89,1.35,3.48,3.48,0,0,1-.83-.26,9.59,9.59,0,0,1-1.4,1.3,1.09,1.09,0,0,1-.38.21.42.42,0,0,1-.4-.1.58.58,0,0,1-.07-.48c0-.44.09-.87.14-1.31Z" transform="translate(0.49 -150.95)"/><path class="cls-9" d="M413.79,221.59a1.69,1.69,0,0,0,1,.6c-.08.57-.14,1.32-.26,2.09a7.5,7.5,0,0,1-.74-2.69Z" transform="translate(0.49 -150.95)"/><path class="cls-13" d="M396.22,239.13c-.21.78-.41,1.56-.58,2.33a51.24,51.24,0,0,0-4.25,19.87,10,10,0,0,1-4.6-4.86,12.25,12.25,0,0,1-4.44,1.4,5.21,5.21,0,0,1-2.34-.43c0-.28,0-.55,0-.83.06-3.39,1.82-6.5,3.79-9.27a53.87,53.87,0,0,1,16.39-15,14.26,14.26,0,0,0-3.86,6.83Z" transform="translate(0.49 -150.95)"/><path class="cls-25" d="M399.14,282.88l-.06-.19h0a.9.9,0,0,1,0,.19Z" transform="translate(0.49 -150.95)"/><path class="cls-17" d="M415.36,218.87a1,1,0,0,1,.52.45c-.05.44-.1.87-.14,1.31a.58.58,0,0,0,.07.48.42.42,0,0,0,.4.1,1.09,1.09,0,0,0,.38-.21,9.59,9.59,0,0,0,1.4-1.3,3.48,3.48,0,0,0,.83.26,11.17,11.17,0,0,0,7.89-1.35,11.28,11.28,0,0,0,.23,3.12,4.52,4.52,0,0,0,1.58,2.52,21.5,21.5,0,0,1-2.72,4.84,5.08,5.08,0,0,1-.47.57,5.78,5.78,0,0,1-1.17,1,3.15,3.15,0,0,1-2.2.54,9.07,9.07,0,0,0-2.14-.49,1.57,1.57,0,0,0-1.13.71,6,6,0,0,0,2.15,3.37c.24.22.49.42.74.61a9.35,9.35,0,0,1-14.48-6l0-.11c.55-.09,1.09-.19,1.63-.3,1.86-.39,4-.89,5.49-3.21a11.19,11.19,0,0,0,.32-1.57c.12-.77.18-1.52.26-2.09a1.69,1.69,0,0,1-1-.6,1.44,1.44,0,0,1-.34-.6,1.77,1.77,0,0,1,.43-1.67,1.39,1.39,0,0,1,.54-.39,1.28,1.28,0,0,1,.94-.06Z" transform="translate(0.49 -150.95)"/><path class="cls-11" d="M405.7,263.28a13.82,13.82,0,0,0,6.5-2.64c.79.93,1.61,1.86,2.41,2.79,2.48,2.85,4.9,5.87,6.12,9.45,0,.18.11.34.16.53,1,3.64.37,9.48-3.13,10.53-3.57.53-7.16.95-10.76,1.29h0c-.36-.82-1-1.53-1.39-2.32v0c0-.19-.09-.39-.13-.58-.31-1.28-.56-2.56-.77-3.85.93-.55,1.85-1.1,2.77-1.63.43-.26.92-.59,1-1.08a1.63,1.63,0,0,0-.69-1.23,43.06,43.06,0,0,1-4-4.46q-.15-3.35,0-6.67a12.38,12.38,0,0,0,1.92-.12Z" transform="translate(0.49 -150.95)"/><path class="cls-9" d="M399.14,282.88a28.31,28.31,0,0,1,.3,2.92c-1.28.08-2.58.13-3.86.18h-.28a7.79,7.79,0,0,0,3.66-3.31h.12l.06.19Z" transform="translate(0.49 -150.95)"/><path class="cls-25" d="M399,282.55a.74.74,0,0,0,0,.14H399l.08-.13Z" transform="translate(0.49 -150.95)"/><path class="cls-14" d="M419.61,240.84A17,17,0,0,1,418,255.17c-.44-1.41-.9-2.82-1.37-4.21a7.08,7.08,0,0,0,1.39-2.5,36.76,36.76,0,0,0,.94-5.11,11,11,0,0,1,.7-2.51Z" transform="translate(0.49 -150.95)"/><path class="cls-9" d="M422,231.24a3.15,3.15,0,0,0,2.2-.54,5.78,5.78,0,0,0,1.17-1,5.08,5.08,0,0,0,.47-.57,21.5,21.5,0,0,0,2.72-4.84c.27-.61.51-1.24.75-1.86a11.91,11.91,0,0,0,.72,3.26,24,24,0,0,1,1.74,5.74,7.35,7.35,0,0,1-1.9,5.7,6.09,6.09,0,0,1-4.29,1.89,8.29,8.29,0,0,0-1-1.25,13,13,0,0,0-1.83-1.47l-1.15-.82c-.25-.19-.5-.39-.74-.61a6,6,0,0,1-2.15-3.37,1.57,1.57,0,0,1,1.13-.71,9.07,9.07,0,0,1,2.14.49Z" transform="translate(0.49 -150.95)"/><path class="cls-13" d="M405.35,282.34a30.31,30.31,0,0,1-6.25.35h0a.74.74,0,0,1,0-.14c-2.1-6.29-5.78-14.12-6.42-20.15,0-.18,0-.37,0-.55a38.8,38.8,0,0,1,.92-10.39q.94-5,2.14-10c.17-.77.37-1.55.58-2.33h.08a14.26,14.26,0,0,1,3.86-6.83l0,0a10.11,10.11,0,0,1,3-1.93,18.19,18.19,0,0,1,3.92-1l0,.11a9.35,9.35,0,0,0,14.48,6l1.15.82L421,238.69a6,6,0,0,0-1.41,2.14h0a11,11,0,0,0-.7,2.51,36.76,36.76,0,0,1-.94,5.11,7.08,7.08,0,0,1-1.39,2.5,4.32,4.32,0,0,1-1.88,1.3,16.92,16.92,0,0,1-3.09.44,7.19,7.19,0,0,0-3.74,1.81,32.53,32.53,0,0,0,4.33,6.13,13.82,13.82,0,0,1-6.5,2.64,69.92,69.92,0,0,1,.08-13.57,70.3,70.3,0,0,0-2,13.69q-.15,3.33,0,6.67a64.2,64.2,0,0,0,.91,8.4c.21,1.29.46,2.57.77,3.85l-.11,0Z" transform="translate(0.49 -150.95)"/><path class="cls-11" d="M577.65,435.58H536.19a1.72,1.72,0,0,1-1.72-1.72h0a1.72,1.72,0,0,1,1.72-1.73h41.46a1.72,1.72,0,0,1,1.72,1.73h0a1.72,1.72,0,0,1-1.72,1.72Z" transform="translate(0.49 -150.95)"/></svg>