<svg xmlns="http://www.w3.org/2000/svg" xmlns:xlink="http://www.w3.org/1999/xlink" viewBox="0 0 750 536.13"><defs><style>.cls-1,.cls-10,.cls-11,.cls-17,.cls-19,.cls-21,.cls-23,.cls-28,.cls-33,.cls-40,.cls-44,.cls-50,.cls-51,.cls-52,.cls-53{fill:none;}.cls-2{isolation:isolate;}.cls-3{clip-path:url(#clip-path);}.cls-4{fill:#fff;}.cls-5{opacity:0.45;}.cls-6{clip-path:url(#clip-path-4);}.cls-7{fill:#d2def9;}.cls-8{clip-path:url(#clip-path-5);}.cls-9{clip-path:url(#clip-path-6);}.cls-10,.cls-11,.cls-33{stroke:#fff;}.cls-10,.cls-23,.cls-28,.cls-33,.cls-44,.cls-50,.cls-51,.cls-52,.cls-53{stroke-miterlimit:10;}.cls-10,.cls-11,.cls-52,.cls-53{stroke-width:1.5px;}.cls-11,.cls-17,.cls-19,.cls-21,.cls-40{stroke-linejoin:round;}.cls-12{fill:#e9f1ff;}.cls-13{fill:#f777ba;}.cls-14{fill:#0b0b3a;}.cls-15{fill:#18277a;}.cls-16{fill:#212237;}.cls-17,.cls-19{stroke:#cc328a;}.cls-17,.cls-23,.cls-40,.cls-44,.cls-50,.cls-51{stroke-width:0.75px;}.cls-18{fill:#ff855a;}.cls-19,.cls-21{stroke-width:0.5px;}.cls-20{fill:#00276f;}.cls-21{stroke:#00276f;stroke-linecap:round;}.cls-22{fill:#17b7ff;}.cls-23{stroke:#a52f2d;}.cls-24{fill:#17b1ff;}.cls-25{clip-path:url(#clip-path-7);}.cls-26{opacity:0.19;mix-blend-mode:screen;}.cls-27{clip-path:url(#clip-path-8);}.cls-28,.cls-52{stroke:#91abe5;}.cls-28,.cls-33{stroke-width:11px;}.cls-29{fill:#2eebff;}.cls-30{clip-path:url(#clip-path-10);}.cls-31{opacity:0.25;}.cls-32{clip-path:url(#clip-path-11);}.cls-34{fill:#a000ff;}.cls-35{clip-path:url(#clip-path-13);}.cls-36{fill:#d0b9ff;}.cls-37{clip-path:url(#clip-path-15);}.cls-38{opacity:0.35;}.cls-39{clip-path:url(#clip-path-16);}.cls-40{stroke:#1a3987;}.cls-41{fill:#ffe1ad;}.cls-42{fill:#cc328a;}.cls-43{fill:#2a2a68;}.cls-44{stroke:#5565aa;}.cls-45{fill:#8500e7;}.cls-46{fill:#4376cf;}.cls-47{fill:#9cd0ff;}.cls-48{fill:#2e7efa;}.cls-49{fill:#816fc2;}.cls-50{stroke:#4c3f89;}.cls-51{stroke:#d19b4b;}.cls-53{stroke:#ff9c94;}</style><clipPath id="clip-path" transform="translate(-25 -150)"><rect class="cls-1" x="25" y="150" width="750" height="500"/></clipPath><clipPath id="clip-path-4" transform="translate(-25 -150)"><rect class="cls-1" x="98.6" y="260.81" width="99.2" height="35.21"/></clipPath><clipPath id="clip-path-5" transform="translate(-25 -150)"><rect class="cls-1" x="553.17" y="199.47" width="80.52" height="33.71"/></clipPath><clipPath id="clip-path-6" transform="translate(-25 -150)"><rect class="cls-1" x="635.63" y="276.26" width="90.1" height="32.64"/></clipPath><clipPath id="clip-path-7" transform="translate(-25 -150)"><path class="cls-1" d="M423,467.42l-2.22,31.34a3,3,0,0,0,4.71,2.63,19.38,19.38,0,0,1,12.63-3.65c11.7.83,20.42,12.3,19.48,25.63S446.39,546.83,434.69,546a19.4,19.4,0,0,1-12-5.38,3,3,0,0,0-5,1.93l-2.21,31.35A12.29,12.29,0,0,0,426.84,587l106.48,7.53a12.29,12.29,0,0,0,13.13-11.4L554,476.68a12.29,12.29,0,0,0-11.39-13.13l-32.39-2.29a3,3,0,0,0-2.53,4.83,19.55,19.55,0,0,1,4.5,13.78c-.82,11.7-12.29,20.42-25.62,19.48s-23.46-11.19-22.63-22.89a19.55,19.55,0,0,1,6.4-13,3,3,0,0,0-1.83-5.14L436.11,456l-.88,0A12.29,12.29,0,0,0,423,467.42"/></clipPath><clipPath id="clip-path-8" transform="translate(-25 -150)"><rect class="cls-1" x="452.32" y="553.4" width="132.73" height="132.73"/></clipPath><clipPath id="clip-path-10" transform="translate(-25 -150)"><path class="cls-1" d="M278,319.32,264.64,425.24A12.3,12.3,0,0,0,275.3,439L307.66,443a3,3,0,0,0,2.78-4.71,19.64,19.64,0,0,1-3.86-14.18c1.46-11.63,13.39-19.71,26.65-18s22.81,12.45,21.35,24.09A19.67,19.67,0,0,1,347.33,443a3,3,0,0,0,1.52,5.24l32.36,4.07A12.3,12.3,0,0,0,395,441.62l4-31.83a3,3,0,0,0-4.63-2.84,19.47,19.47,0,0,1-13.59,3.46C369.09,409,361,397,362.67,383.77s12.45-22.82,24.09-21.36a19.56,19.56,0,0,1,12.32,6.73,3,3,0,0,0,5.18-1.61l4-31.83A12.3,12.3,0,0,0,397.6,322L291.68,308.66a11.63,11.63,0,0,0-1.55-.1A12.3,12.3,0,0,0,278,319.32"/></clipPath><clipPath id="clip-path-11" transform="translate(-25 -150)"><rect class="cls-1" x="211.19" y="254.22" width="132.72" height="132.72"/></clipPath><clipPath id="clip-path-13" transform="translate(-25 -150)"><path class="cls-1" d="M415.65,326.15l-.33,31.59a3,3,0,0,1-4.89,2.25,19.44,19.44,0,0,0-12.53-4.84c-11.73-.12-21.35,10.61-21.49,24s9.26,24.28,21,24.4A19.44,19.44,0,0,0,410,399a3,3,0,0,1,4.85,2.35l-.33,31.59a12.3,12.3,0,0,0,12.17,12.42l32.65.34a3,3,0,0,1,2.11,5,19.67,19.67,0,0,0-5.77,13.57c-.13,11.72,10.6,21.34,24,21.48s24.29-9.25,24.41-21a19.66,19.66,0,0,0-5.49-13.68,3,3,0,0,1,2.21-5l32.66.34a12.3,12.3,0,0,0,12.42-12.17L547,327.51a12.3,12.3,0,0,0-12.17-12.42L428.07,314h-.13a12.29,12.29,0,0,0-12.29,12.17"/></clipPath><clipPath id="clip-path-15" transform="translate(-25 -150)"><path class="cls-1" d="M328.89,420.29c-13.34.75-23.62,10.84-23,22.55A19.58,19.58,0,0,0,312.21,456a3,3,0,0,1-1.89,5.12L277.82,463a12.3,12.3,0,0,0-11.58,13l6,106.58a12.29,12.29,0,0,0,13,11.58l106.58-6a12.29,12.29,0,0,0,11.59-13l-1.79-31.91a3,3,0,0,1,4.79-2.52,19.53,19.53,0,0,0,13.2,4.29c11.71-.66,20.59-12,19.85-25.34s-10.85-23.62-22.56-23a19.46,19.46,0,0,0-12.63,5.73,3,3,0,0,1-5.05-2l-1.78-31.9a12.3,12.3,0,0,0-13-11.59l-32.49,1.82a3,3,0,0,1-2.45-4.88,19.63,19.63,0,0,0,4.77-13.8c-.63-11.24-11.13-19.89-23.78-19.89-.52,0-1,0-1.56.05"/></clipPath><clipPath id="clip-path-16" transform="translate(-25 -150)"><rect class="cls-1" x="205.91" y="505.83" width="201.42" height="196.42"/></clipPath></defs><title>puzzle</title><g class="cls-2"><g id="Layer_1" data-name="Layer 1"><g class="cls-3"><g class="cls-3"><rect class="cls-4" width="750" height="500"/><g class="cls-3"><g class="cls-5"><g class="cls-6"><path class="cls-7" d="M98.6,296s.14,0,.16,0h72.66c11.43,0,15-.37,26.37,0,.13-7-1.83-13.68-5.2-17.23a12.32,12.32,0,0,0-11.41-3.49c-4.92,1.3-8.26,4.6-11.45,7-1.13-9.7-5.13-18.53-9.44-20.46-7.41-3.32-15.16,1.94-18.64,7a31.89,31.89,0,0,0-5,14.28c-4.65-5.14-15.06-9.06-18.81-.91-1.47,3.21-1.35,6.89-1.2,10.41a21.63,21.63,0,0,0-18,3.34" transform="translate(-25 -150)"/></g></g><g class="cls-5"><g class="cls-8"><path class="cls-7" d="M633.69,233.18c-1.4-5.7-14.63-14-21.7-9-2.17-10.84-4.2-17.6-11.29-22.94s-18.92,1.65-20.82,16.26c-1.89-6-11.56-14.11-19.32-7.28-7.18,6.32-7.9,16.91-7.15,23Z" transform="translate(-25 -150)"/></g></g><g class="cls-5"><g class="cls-9"><path class="cls-7" d="M725.73,308.9c-2.18-5.39-6.32-8.28-11.2-8.83-6.17-.68-12.42,2.86-12.42,2.86s2.32-8.9-.83-15.91c-2.14-4.77-5.56-9.26-10.3-10.44-4.91-1.22-10.12,1.17-13.78,5s-6,8.81-8.12,13.82c-1.09-3.56-2.53-7.54-5.74-8.86s-7.16,1-8.9,4.37-1.82,7.46-1.59,11.33c-3.85-2.31-8.76-3-12.62-.68a10.26,10.26,0,0,0-4.6,7.38Z" transform="translate(-25 -150)"/></g></g><path class="cls-7" d="M280.07,430.56c-20.19-6.91-37.82-20.45-50.95-37.27s-27.92-53.74-25.38-84.89c58.18,17.26,81.79,71.29,85.31,104.06" transform="translate(-25 -150)"/><path class="cls-10" d="M203.74,308.4s9.58,75,76.84,116.37" transform="translate(-25 -150)"/><path class="cls-10" d="M203.74,308.4s39.69,71.11,83.19,114.36" transform="translate(-25 -150)"/><path class="cls-10" d="M203.74,308.4s58.6,46.53,85.91,110.22" transform="translate(-25 -150)"/><path class="cls-7" d="M280.27,554.4c-23,8.56-48.37,8.84-72,2.57s-62.84-30.58-82.41-62.41c56.19-19.13,123.59,6.86,149.76,35.68" transform="translate(-25 -150)"/><path class="cls-11" d="M125.88,494.56s61.24,64.79,150.78,53.89" transform="translate(-25 -150)"/><path class="cls-11" d="M125.88,494.56S211.48,533,281,541.74" transform="translate(-25 -150)"/><path class="cls-11" d="M125.88,494.56s85.35.55,154.62,41.15" transform="translate(-25 -150)"/><path class="cls-12" d="M301.84,396.65c-19.47-14.47-33.34-35.34-40.84-58.29s-8.44-68.55,7.42-101.89c46.08,36.3,60.78,106.15,51,143.35" transform="translate(-25 -150)"/><path class="cls-11" d="M268.42,236.47s-20.78,85.62,36.4,154" transform="translate(-25 -150)"/><path class="cls-11" d="M268.42,236.47s14.2,91.62,44.29,154" transform="translate(-25 -150)"/><path class="cls-11" d="M268.42,236.47s45.44,71.06,49,150.33" transform="translate(-25 -150)"/><path class="cls-7" d="M478.24,385.91c19.64-3.74,37.79-14,52.2-27.81s33-46.14,34.8-75.36C509,291,479.93,338,472.31,367.93" transform="translate(-25 -150)"/><path class="cls-11" d="M565.24,282.74s-18.83,68.25-86.7,97.73" transform="translate(-25 -150)"/><path class="cls-11" d="M565.24,282.74s-46.24,60.68-92.32,95" transform="translate(-25 -150)"/><path class="cls-11" d="M565.24,282.74s-60.52,35.38-94.3,90.82" transform="translate(-25 -150)"/><path class="cls-7" d="M533.21,544.55c28.73,5.45,58.9,1.29,85.95-9.83s69.7-45.05,87.79-83.86c-81-18.92-145.74,29.4-172.16,66" transform="translate(-25 -150)"/><path class="cls-11" d="M707,450.86s-62.25,82.77-170.41,86.45" transform="translate(-25 -150)"/><path class="cls-11" d="M707,450.86s-85.2,56.93-172.48,73" transform="translate(-25 -150)"/><path class="cls-11" d="M707,450.86s-101.33,15.66-177.05,73" transform="translate(-25 -150)"/><path class="cls-12" d="M452.86,378.26c24.73-10.64,45-29.63,59-52.48s26.65-71.85,18.06-111.91c-59,27.4-92.79,99.05-91.71,141.73" transform="translate(-25 -150)"/><path class="cls-11" d="M529.94,213.87s.52,97.76-78.72,156.94" transform="translate(-25 -150)"/><path class="cls-11" d="M529.94,213.87s-38.78,95.29-87.22,154.88" transform="translate(-25 -150)"/><path class="cls-11" d="M529.94,213.87S462.69,279,438.52,363.62" transform="translate(-25 -150)"/><path class="cls-12" d="M276.29,516.69c-13.39,2.08-36.17,5.19-48.77-3.22-7-4.65-8.24-13.24-11-20.8-4.66-12.95-14.23-20.56-26.92-22.77-5.08-.89-10.45-3.18-12.88-8-3.63-7.23.83-16.52-2.08-24.09-1.56-4.07-5-6.95-7.75-10.19-6.77-7.83-8.45-19.42-8.45-19.42a31.86,31.86,0,0,0,17.34-.27c5.88-1.84,12.26-3,18.44-2,4.84.76,8.46,3.29,11.65,7.13,3.75,4.52,6.9,7.93,12.32,9.81,8.37,2.9,29.12-4.11,31.39,7.9.62,3.27-.15,6.81,1.36,9.87,2.73,5.55,9.34,2.73,13.85,4.14,6.92,2.17,14.5,7.16,17.47,13.66,7.08,15.5,6.75,36.87,2.76,53.71" transform="translate(-25 -150)"/><path class="cls-11" d="M159.31,408.39C181.89,432.8,216.08,442,238.1,467c6.6,7.5,11.89,16.19,18.12,24.05s13.73,15.06,22.9,18.15" transform="translate(-25 -150)"/><path class="cls-11" d="M175,455.14c11.81,1.27,29.72,1,47.51-2.37,0,0-4.35-22.9-8-31.65" transform="translate(-25 -150)"/><path class="cls-11" d="M175.39,447.51c13,.94,23.87.17,39-.45" transform="translate(-25 -150)"/><path class="cls-11" d="M173.52,435.84a145.68,145.68,0,0,0,21.06-1" transform="translate(-25 -150)"/><path class="cls-11" d="M162.65,421.06c.08.16,3.54.57,11.49.45" transform="translate(-25 -150)"/><path class="cls-11" d="M190.12,432.14c.09.06-5.17-16.2-9.27-25.47" transform="translate(-25 -150)"/><path class="cls-11" d="M211.32,445.07c-.07-.05-5.2-25.77-10.26-36.52" transform="translate(-25 -150)"/><path class="cls-11" d="M201.13,473.86c.4.22,22.63,1.7,40.88-2.16" transform="translate(-25 -150)"/><path class="cls-11" d="M236.47,465.16s-2.27-27.5-5.83-41.55" transform="translate(-25 -150)"/><path class="cls-11" d="M254.11,441.44c2.59,16.95,2.95,50.6,2.95,50.6s-28.64,3.88-40.5.63" transform="translate(-25 -150)"/><path class="cls-11" d="M269.3,504s1-38.08-1.22-58" transform="translate(-25 -150)"/><path class="cls-11" d="M218.66,500.22s23.08,3.26,42.53-3.45" transform="translate(-25 -150)"/><path class="cls-11" d="M274,507s6.64-30.06,1.77-56.46" transform="translate(-25 -150)"/><path class="cls-12" d="M460.69,353c6.09-15.74,16-31.3,9.9-48.68-3.36-9.6-13.64-13.65-21.5-18.83-13.46-8.87-19.47-22.38-18.48-38.34.4-6.38-.71-13.47-5.57-17.64-7.22-6.19-19.05-3.09-26.87-8.5-4.21-2.91-6.55-7.74-9.46-11.94-7-10.16-19.79-15.08-19.79-15.08a42.09,42.09,0,0,1-5.12,21c-3.72,6.68-6.8,14.14-7.4,21.89-.47,6.06,1.41,11.09,4.9,15.91,4.11,5.68,7.12,10.36,7.76,17.4,1,10.88-12.77,34.33.29,40.07,3.55,1.57,7.8,1.51,10.87,4.1,5.55,4.7.51,12,.87,17.84.55,8.95,4.13,19.38,10.71,24.6,15.7,12.45,40.14,17.35,60.44,16.7" transform="translate(-25 -150)"/><path class="cls-11" d="M368.94,195.06c21.55,33.48,22.5,77.25,44.87,110.19,6.71,9.88,15.15,18.46,22.37,28s13.35,20.4,14.33,32.3" transform="translate(-25 -150)"/><path class="cls-11" d="M402,282.81s-24.89-11-33.85-17.6" transform="translate(-25 -150)"/><path class="cls-11" d="M409.06,224.3c-2.53,16-6.43,29-11.33,47.24" transform="translate(-25 -150)"/><path class="cls-11" d="M396.28,219.13a195.65,195.65,0,0,1-7,25.32" transform="translate(-25 -150)"/><path class="cls-11" d="M382.45,202.27c.16.13-.33,4.44-2.67,14" transform="translate(-25 -150)"/><path class="cls-11" d="M387.46,238.37c0,.12-17-10.3-26.45-17.59" transform="translate(-25 -150)"/><path class="cls-11" d="M396.3,267.32c0-.11-27.91-12.73-38.77-21.54" transform="translate(-25 -150)"/><path class="cls-11" d="M430,238.37c-2.42,9.24-7.08,33.17-20.95,57" transform="translate(-25 -150)"/><path class="cls-11" d="M412.22,302.83s-30.71-9.58-45.73-17.39" transform="translate(-25 -150)"/><path class="cls-11" d="M447.35,352.33s-43.69-8.22-65.78-15.9" transform="translate(-25 -150)"/><path class="cls-11" d="M457.12,289.92s-2.7,28.82-15.74,50.78" transform="translate(-25 -150)"/><path class="cls-12" d="M548.57,490.66c17.38-3.36,36.71-3.24,48.76-18.32,6.66-8.34,4.53-19.73,4.75-29.6.39-16.89,9-29.76,23.76-37.77,5.9-3.2,11.58-8.14,12.57-14.77,1.47-9.87-7.87-18.64-7.42-28.61.24-5.36,3.23-10.13,5.34-15.06,5.1-11.91,2.37-26,2.37-26a44.22,44.22,0,0,1-21.49,7.14c-8,.41-16.35,1.84-23.57,5.62-5.64,3-9.06,7.43-11.4,13.21-2.76,6.82-5.23,12.1-11.14,16.59-9.12,6.92-37.6,7.77-35.43,22.58.59,4,3,7.77,2.41,11.93-1.07,7.56-10.38,7.16-15.35,10.72-7.64,5.47-14.92,14.46-15.89,23.22-2.31,20.88,6.95,45.32,18.84,63" transform="translate(-25 -150)"/><path class="cls-11" d="M637.76,321.17C620,359,581.68,384.19,564.88,422.4c-5,11.47-8,23.74-12.39,35.46s-10.68,23.23-20.71,30.73" transform="translate(-25 -150)"/><path class="cls-11" d="M637.78,381.7c-14,6.54-36.23,13.92-59.55,17.69,0,0-4.13-28.22-3.23-39.87" transform="translate(-25 -150)"/><path class="cls-11" d="M634.15,373.09c-15.62,6.66-29.36,10.45-48.28,16.25" transform="translate(-25 -150)"/><path class="cls-11" d="M631.62,358.86a204.89,204.89,0,0,1-26.38,7.91" transform="translate(-25 -150)"/><path class="cls-11" d="M638.89,337.18c0,.22-4.13,2.18-14,5.45" transform="translate(-25 -150)"/><path class="cls-11" d="M609.61,361.74c-.08.1-.33-20.87.89-33.29" transform="translate(-25 -150)"/><path class="cls-11" d="M588.83,385.72c.07-.09-4.25-31.88-2.47-46.43" transform="translate(-25 -150)"/><path class="cls-11" d="M613.32,414.48c-.4.42-27.2,11.68-51.3,15.07" transform="translate(-25 -150)"/><path class="cls-11" d="M566.14,419.65s-8.59-32.62-10-50.31" transform="translate(-25 -150)"/><path class="cls-11" d="M534.57,399.94c3.83,20.61,17.32,59.47,17.32,59.47s36.92-7.84,50.19-16.67" transform="translate(-25 -150)"/><path class="cls-11" d="M541.75,478.42s-17-43.38-22.53-67.28" transform="translate(-25 -150)"/><path class="cls-11" d="M602.63,452.34s-27.11,13.65-53.88,14.3" transform="translate(-25 -150)"/><path class="cls-11" d="M537.15,483.94s-20.64-31.73-25.56-64.2" transform="translate(-25 -150)"/><path class="cls-13" d="M478.11,419.71c2.37,5,12,25.9,14.35,30.87-7.7,2.46-14.76,5.65-22.31,8.53-3.2,4.31,4-4.2,4.28-8.86" transform="translate(-25 -150)"/><path class="cls-14" d="M494.64,457.47,490.29,459a16,16,0,0,0-.77-2.12,19,19,0,0,0-2.73,1.2,3.31,3.31,0,0,0-.48,1.24,2.19,2.19,0,0,1-1.39,1.53l-17.32,6c-2.14.73-3.38-1.76-1.53-3.8,1.68-1.85,5.33-5.87,5.51-6,7.13-1.7,17.95-6.88,19.32-10,2.31,1.25,3.75,10.42,3.74,10.48" transform="translate(-25 -150)"/><path class="cls-13" d="M476.21,362.94c.38,11.32-.81,34,.73,43.65,1,6.06,11.88,36.19,11.88,36.19l-14.39,7.46s-12.33-19.05-19.36-41.57c-4.55-14.6-4.91-30.68-4.91-43.9" transform="translate(-25 -150)"/><path class="cls-13" d="M513.78,396.32c4,3.73,20.73,19.62,24.77,23.35-6.24,5.14-11.61,10.72-17.55,16.2-1.37,5.18,2.11-5.37.69-9.82" transform="translate(-25 -150)"/><path class="cls-14" d="M543.14,425.26l-3.49,3a15.31,15.31,0,0,0-1.5-1.68,18.81,18.81,0,0,0-2.09,2.13,3.46,3.46,0,0,0,0,1.33,2.18,2.18,0,0,1-.73,1.93l-13.86,12c-1.72,1.48-3.79-.38-2.83-3,.87-2.34,2.77-7.42,2.9-7.59,6-4.22,14.11-13.05,14.22-16.5,2.6.31,7.34,8.29,7.36,8.35" transform="translate(-25 -150)"/><path class="cls-13" d="M499.74,341.6s-.87,33.35,3.71,41.84c5.41,10,23,25,23,25l-4.73,17.58s-24.65-13.76-37.52-30.3c-9.77-12.55-10.23-52.21-10.23-52.21" transform="translate(-25 -150)"/><path class="cls-15" d="M498.38,313.73c17.37,13.4,16,67,16,67s-19.31,5.07-35.08,5.07a246.4,246.4,0,0,1-32.2-2.51c1-46.12,9.14-58.11,13.75-66" transform="translate(-25 -150)"/><path class="cls-16" d="M466,240.51s3.91,11.41,3.28,14.07-9.27,1.92-11.48,1.81c-.19-5.81,1.75-14,1.75-14" transform="translate(-25 -150)"/><path class="cls-13" d="M467.29,253.94l.92,6.35s4.63,3,8.51,1.41c4.09-1.66,3.87-3.89,3.87-3.89l-4.9-11.65" transform="translate(-25 -150)"/><path class="cls-13" d="M460.8,242.77c-.07,8.19,1.4,14.61,6.8,14.19,5.7-.43,9.93-5.12,7.89-11.51-2.15-6.71-14.21-7.41-14.69-2.68" transform="translate(-25 -150)"/><path class="cls-17" d="M467.8,257.43a9.35,9.35,0,0,0,7.61-5.7" transform="translate(-25 -150)"/><path class="cls-18" d="M474.62,245.11h0s0,0,0,0" transform="translate(-25 -150)"/><path class="cls-18" d="M474.58,245.11s0,0,0,.07.07,0,.08,0v-.07c0-.05-.07-.05-.07,0" transform="translate(-25 -150)"/><path class="cls-16" d="M469.3,242.17c-4.63,1.22-7.91,1.05-11-.08.49-2.77,2.18-6.72,7.34-6.84a8.94,8.94,0,0,1,8.93-1.75,11.58,11.58,0,0,1,6.62,5.54c2.61,4.41,3.16,11.09,3.11,14.79a50.32,50.32,0,0,1-10,1.83c.11,0-1.59-11.08-5-13.49" transform="translate(-25 -150)"/><path class="cls-13" d="M472,247.64a1.43,1.43,0,0,1,.73-1.3c1.14-.68,2.23.67,2.34,1.9a3.35,3.35,0,0,1-.46,2.13c-.52.92-1.39,1.28-2.09.44" transform="translate(-25 -150)"/><path class="cls-19" d="M465.06,247.14s-.95,3.12-.58,3.81,2.14.27,2.14.27" transform="translate(-25 -150)"/><path class="cls-4" d="M465,252.67l4.95-.71a3.18,3.18,0,0,1-2.94,2.92c-2,.15-2-2.21-2-2.21" transform="translate(-25 -150)"/><path class="cls-20" d="M462.85,246.78a4.77,4.77,0,0,0-.06.76.4.4,0,0,0,.79,0,6.31,6.31,0,0,0-.07-.76c-.05-.32-.62-.33-.66,0" transform="translate(-25 -150)"/><path class="cls-21" d="M464.08,245.31a1.28,1.28,0,0,0-1.84.3" transform="translate(-25 -150)"/><path class="cls-20" d="M468.61,246.57c0,.22,0,.44,0,.67,0,.5.83.5.79,0a6.32,6.32,0,0,0-.11-.76c-.09-.4-.65-.27-.68.09" transform="translate(-25 -150)"/><path class="cls-21" d="M467.9,244.8a2.39,2.39,0,0,1,2.65.29" transform="translate(-25 -150)"/><path class="cls-13" d="M463,288.05c-15.72,21.84-47.81,41.46-47.81,41.46l-6.62-8.39s24.05-20.15,38.5-43.29" transform="translate(-25 -150)"/><path class="cls-13" d="M411.4,318.9c-2.94,2.56-12.81,8.64-12.6,9.4s3.72-1.32,3.77-.66-5.09,4.22-4.66,4.94c.58,1,5.64-2.95,5.64-2.95s-5.3,4.57-4.54,5.28c.54.51,4.76-2.8,6.55-3.87-1.78,1.4-4.36,4-3.79,4.5s3.5-1.68,5.84-3.25c-1.36,1.11-3.72,3.26-3.21,3.76s8-4.36,14.91-9.2" transform="translate(-25 -150)"/><path class="cls-17" d="M403.84,327.55s3.82.1,5.43-.7" transform="translate(-25 -150)"/><path class="cls-22" d="M466.39,260.36c-6.86-1.24-13,3.67-15.66,7.94a128.78,128.78,0,0,0-8.34,15.36l16.16,9.73,9.2-28.91" transform="translate(-25 -150)"/><path class="cls-22" d="M466.39,260.36c3.21.59,4,1.73,6.25,1a31.46,31.46,0,0,0,7.19-3.37c-2.67.18,8.73,2.26,17.45,11.46,2.93,10.09,3.27,20.12,4.12,46.75a73.33,73.33,0,0,1-40.6,1.12s-2.46-11.61-5.29-20.21c-3.93-7.93-2.22-16.81,2.16-24.06.15-4.41,8.72-12.7,8.72-12.7" transform="translate(-25 -150)"/><polygon class="cls-4" points="454.52 105.26 447.11 111.54 451.85 116.58 456.76 109.13 454.52 105.26"/><polygon class="cls-4" points="447.11 111.54 442.92 108.25 441.39 110.36 443.4 116.43 447.11 111.54"/><path class="cls-23" d="M453.31,288.11c-.26-5.14,2.78-13.12,2.78-13.12" transform="translate(-25 -150)"/><path class="cls-24" d="M534.2,595.34q-.47,0-.93,0l-106.48-7.53a13.06,13.06,0,0,1-12.09-13.93l2.22-31.35a3.73,3.73,0,0,1,6.29-2.43,18.58,18.58,0,0,0,11.53,5.18c.43,0,.86,0,1.28,0,10.8,0,19.94-9.66,20.81-22,.91-12.89-7.51-24-18.78-24.83-.43,0-.86,0-1.28,0A18.83,18.83,0,0,0,425.9,502a3.71,3.71,0,0,1-2.16.7,3.8,3.8,0,0,1-2.76-1.2,3.68,3.68,0,0,1-1-2.79l2.22-31.35a13.08,13.08,0,0,1,13-12.12c.31,0,.63,0,.94,0l32.39,2.29a3.73,3.73,0,0,1,2.28,6.44,19,19,0,0,0-6.16,12.51c-.8,11.27,9,21.18,21.93,22.09.64,0,1.28.07,1.92.07,12.1,0,22.16-8.28,22.91-18.85a19,19,0,0,0-4.35-13.26A3.73,3.73,0,0,1,510,460.5h.28l32.39,2.29a13.06,13.06,0,0,1,12.09,13.93L547.2,583.22a13.08,13.08,0,0,1-13,12.12Z" transform="translate(-25 -150)"/><path class="cls-4" d="M435.23,456l.88,0,32.38,2.29a3,3,0,0,1,1.83,5.14,19.62,19.62,0,0,0-6.4,13c-.83,11.7,9.3,22,22.63,22.89.66,0,1.32.07,2,.07,12.47,0,22.87-8.43,23.66-19.55a19.6,19.6,0,0,0-4.51-13.78,3,3,0,0,1,2.3-4.84h.23l32.39,2.29A12.29,12.29,0,0,1,554,476.68l-7.53,106.48a12.29,12.29,0,0,1-12.25,11.43l-.88,0L426.84,587a12.29,12.29,0,0,1-11.39-13.13l2.21-31.35a3,3,0,0,1,5-1.93,19.4,19.4,0,0,0,12,5.38c.45,0,.89,0,1.33,0,11.14,0,20.65-9.86,21.56-22.68.94-13.32-7.78-24.8-19.48-25.63-.44,0-.89,0-1.33,0a19.51,19.51,0,0,0-11.3,3.69,3,3,0,0,1-1.73.56,3,3,0,0,1-3-3.19L423,467.42A12.29,12.29,0,0,1,435.23,456m0-1.5h0a13.84,13.84,0,0,0-13.75,12.82l-2.22,31.35a4.42,4.42,0,0,0,1.17,3.35,4.53,4.53,0,0,0,3.31,1.44,4.45,4.45,0,0,0,2.59-.84,18.07,18.07,0,0,1,10.44-3.41c.41,0,.82,0,1.23,0,10.85.77,19,11.55,18.08,24-.84,11.94-9.65,21.29-20.06,21.29-.4,0-.82,0-1.23,0a17.91,17.91,0,0,1-11.07-5,4.47,4.47,0,0,0-7.55,2.92L414,573.79a13.81,13.81,0,0,0,12.79,14.74l106.48,7.52c.33,0,.66,0,1,0A13.84,13.84,0,0,0,548,583.27l7.53-106.48a13.81,13.81,0,0,0-12.79-14.74l-32.38-2.29H510A4.47,4.47,0,0,0,506.5,467a18,18,0,0,1,4.18,12.74c-.72,10.18-10.45,18.15-22.16,18.15-.62,0-1.25,0-1.86-.07a24.34,24.34,0,0,1-15.67-7,18.44,18.44,0,0,1-5.58-14.32,18,18,0,0,1,5.93-12,4.47,4.47,0,0,0-2.74-7.73l-32.39-2.29c-.33,0-.66,0-1,0" transform="translate(-25 -150)"/></g><g class="cls-25"><g class="cls-26"><g class="cls-27"><path class="cls-28" d="M579.06,627.41a60.86,60.86,0,1,1-52.73-68A60.86,60.86,0,0,1,579.06,627.41Z" transform="translate(-25 -150)"/><path class="cls-28" d="M555.73,623.17a38.45,38.45,0,1,1-33.31-43A38.46,38.46,0,0,1,555.73,623.17Z" transform="translate(-25 -150)"/><path class="cls-28" d="M538.66,622.29a20.13,20.13,0,1,1-17.44-22.5A20.13,20.13,0,0,1,538.66,622.29Z" transform="translate(-25 -150)"/></g></g></g><g class="cls-3"><path class="cls-29" d="M382.76,453.13a13,13,0,0,1-1.64-.11L348.76,449a3.73,3.73,0,0,1-1.91-6.57,18.64,18.64,0,0,0,2-27.49,25.07,25.07,0,0,0-15.73-8,27.08,27.08,0,0,0-3.36-.22c-11.54,0-21.19,7.58-22.45,17.62A19,19,0,0,0,311,437.88a3.64,3.64,0,0,1,.33,3.87,3.7,3.7,0,0,1-3.31,2.06l-.49,0-32.36-4.07a13,13,0,0,1-11.32-14.57l13.32-105.91a13,13,0,0,1,12.92-11.42,15.22,15.22,0,0,1,1.65.1l105.91,13.32A13,13,0,0,1,409,335.8l-4,31.83a3.71,3.71,0,0,1-3.72,3.27,3.62,3.62,0,0,1-2.77-1.27,18.64,18.64,0,0,0-11.84-6.47,17.14,17.14,0,0,0-2.26-.14c-10.48,0-19.5,9-21,20.84-1.61,12.82,6.19,24.4,17.4,25.81a18.52,18.52,0,0,0,13.08-3.34,3.67,3.67,0,0,1,2.09-.66A3.77,3.77,0,0,1,398.8,407a3.67,3.67,0,0,1,.89,2.93l-4,31.83a13.06,13.06,0,0,1-12.93,11.42" transform="translate(-25 -150)"/><path class="cls-4" d="M290.13,308.56a11.63,11.63,0,0,1,1.55.1L397.6,322a12.3,12.3,0,0,1,10.66,13.73l-4,31.83a3,3,0,0,1-3,2.62,2.86,2.86,0,0,1-2.2-1,19.56,19.56,0,0,0-12.32-6.73,20.72,20.72,0,0,0-2.35-.14c-10.71,0-20.18,9.14-21.74,21.5C361,397,369.09,409,380.73,410.42a20.54,20.54,0,0,0,2.34.14A19.76,19.76,0,0,0,394.32,407a2.89,2.89,0,0,1,1.67-.53,3,3,0,0,1,3,3.36l-4,31.84a12.3,12.3,0,0,1-12.19,10.76,11.48,11.48,0,0,1-1.54-.1l-32.37-4.07a3,3,0,0,1-1.52-5.24,19.67,19.67,0,0,0,7.25-12.78c1.46-11.64-8.1-22.42-21.35-24.09a29.06,29.06,0,0,0-3.46-.21c-11.81,0-21.86,7.65-23.19,18.27a19.62,19.62,0,0,0,3.86,14.17,3,3,0,0,1-2.38,4.73l-.4,0L275.3,439a12.3,12.3,0,0,1-10.66-13.73L278,319.32a12.3,12.3,0,0,1,12.18-10.76m0-1.5v0a13.81,13.81,0,0,0-13.67,12.08L263.15,425.05a13.81,13.81,0,0,0,12,15.41l32.37,4.06a3.77,3.77,0,0,0,.58,0,4.48,4.48,0,0,0,3.59-7.12,18.24,18.24,0,0,1-3.58-13.1c1.21-9.66,10.54-16.95,21.7-16.95a25.74,25.74,0,0,1,3.27.2c12.41,1.56,21.41,11.62,20,22.41a18.25,18.25,0,0,1-6.71,11.81,4.47,4.47,0,0,0,2.29,7.89L381,453.77a14.35,14.35,0,0,0,1.73.11,13.8,13.8,0,0,0,13.67-12.08l4-31.83a4.39,4.39,0,0,0-1.08-3.51,4.49,4.49,0,0,0-3.37-1.54,4.4,4.4,0,0,0-2.52.79,18.29,18.29,0,0,1-10.4,3.35,17.51,17.51,0,0,1-2.16-.13,18.45,18.45,0,0,1-13-8.26A24.36,24.36,0,0,1,364.16,384c1.45-11.5,10.15-20.18,20.25-20.18a17.28,17.28,0,0,1,2.16.13A17.94,17.94,0,0,1,398,370.12a4.34,4.34,0,0,0,3.33,1.53,4.51,4.51,0,0,0,4.47-3.93l4-31.83a13.8,13.8,0,0,0-12-15.41L291.87,307.17a14.52,14.52,0,0,0-1.74-.11" transform="translate(-25 -150)"/></g><g class="cls-30"><g class="cls-31"><g class="cls-32"><path class="cls-33" d="M338.41,320.58a60.86,60.86,0,1,1-60.86-60.86A60.86,60.86,0,0,1,338.41,320.58Z" transform="translate(-25 -150)"/><path class="cls-33" d="M317.74,319.31a41.47,41.47,0,1,1-41.47-41.47A41.46,41.46,0,0,1,317.74,319.31Z" transform="translate(-25 -150)"/><path class="cls-33" d="M297.68,320.58a20.13,20.13,0,1,1-20.13-20.13A20.13,20.13,0,0,1,297.68,320.58Z" transform="translate(-25 -150)"/></g></g></g><g class="cls-3"><path class="cls-34" d="M479.66,486.49a26.6,26.6,0,0,1-17.54-6.59,20.14,20.14,0,0,1-1.19-29.73,2.22,2.22,0,0,0-1.58-3.77l-32.65-.34a13,13,0,0,1-12.91-13.18l.33-31.59a2.16,2.16,0,0,0-.64-1.59,2.27,2.27,0,0,0-1.61-.68,2.13,2.13,0,0,0-1.37.51,20.21,20.21,0,0,1-12.91,4.75h-.2a20.6,20.6,0,0,1-15.5-7.51,26.51,26.51,0,0,1-6.23-17.66c.14-13.63,10-24.71,22-24.71h.21a20.17,20.17,0,0,1,13,5,2.11,2.11,0,0,0,1.4.53,2.26,2.26,0,0,0,2.25-2.22l.33-31.59a13.08,13.08,0,0,1,13-12.91l106.88,1.11a13.06,13.06,0,0,1,12.91,13.18l-1.11,106.74a13.09,13.09,0,0,1-13,12.91l-32.8-.34a2.22,2.22,0,0,0-2.07,1.34,2.18,2.18,0,0,0,.42,2.4,20.48,20.48,0,0,1,5.69,14.2c-.12,12-11.28,21.72-24.86,21.72Z" transform="translate(-25 -150)"/><path class="cls-4" d="M427.94,314h.13l106.74,1.11A12.3,12.3,0,0,1,547,327.51l-1.11,106.74a12.29,12.29,0,0,1-12.29,12.17h-.13l-32.66-.34h0a3,3,0,0,0-2.18,5,19.62,19.62,0,0,1,5.49,13.68c-.12,11.64-10.89,21-24.12,21h-.29c-13.36-.14-24.09-9.76-24-21.48a19.67,19.67,0,0,1,5.77-13.57,3,3,0,0,0-2.11-5l-32.65-.34a12.3,12.3,0,0,1-12.17-12.42l.33-31.59a3,3,0,0,0-3-3A2.89,2.89,0,0,0,410,399a19.47,19.47,0,0,1-12.43,4.58h-.19c-11.73-.12-21.13-11-21-24.4s9.65-24,21.29-24h.2A19.44,19.44,0,0,1,410.43,360a2.88,2.88,0,0,0,1.89.71,3,3,0,0,0,3-3l.33-31.59A12.29,12.29,0,0,1,427.94,314m0-1.5a13.84,13.84,0,0,0-13.79,13.65l-.33,31.59a1.48,1.48,0,0,1-1.5,1.48,1.41,1.41,0,0,1-.92-.35,20.86,20.86,0,0,0-13.49-5.2h-.21c-12.42,0-22.64,11.42-22.79,25.45s9.93,25.8,22.47,25.92h.21A20.92,20.92,0,0,0,411,400.1a1.36,1.36,0,0,1,.89-.33,1.54,1.54,0,0,1,1.08.46,1.47,1.47,0,0,1,.42,1L413,432.87a13.81,13.81,0,0,0,13.65,13.94l32.65.34a1.47,1.47,0,0,1,1.36.91,1.45,1.45,0,0,1-.3,1.59,21.17,21.17,0,0,0-6.2,14.59c-.13,12.54,11.28,22.85,25.45,23h.3c14,0,25.49-10.08,25.62-22.47a21.23,21.23,0,0,0-5.9-14.72,1.47,1.47,0,0,1,1.09-2.47l32.67.34h.15a13.84,13.84,0,0,0,13.79-13.65l1.11-106.74a13.82,13.82,0,0,0-13.65-13.94l-106.75-1.11Z" transform="translate(-25 -150)"/></g><g class="cls-35"><path class="cls-4" d="M379.7,333.66a2.88,2.88,0,1,1,2.36-3.31,2.86,2.86,0,0,1-2.36,3.31" transform="translate(-25 -150)"/><path class="cls-4" d="M406.45,329.15a2.88,2.88,0,1,1,2.36-3.31,2.87,2.87,0,0,1-2.36,3.31" transform="translate(-25 -150)"/><path class="cls-4" d="M433.2,324.64a2.88,2.88,0,1,1,2.36-3.32,2.87,2.87,0,0,1-2.36,3.32" transform="translate(-25 -150)"/><path class="cls-4" d="M460,320.13a2.88,2.88,0,1,1,2.36-3.32,2.88,2.88,0,0,1-2.36,3.32" transform="translate(-25 -150)"/><path class="cls-4" d="M486.7,315.61a2.88,2.88,0,1,1,2.36-3.31,2.86,2.86,0,0,1-2.36,3.31" transform="translate(-25 -150)"/><path class="cls-4" d="M513.45,311.1a2.88,2.88,0,1,1,2.36-3.31,2.86,2.86,0,0,1-2.36,3.31" transform="translate(-25 -150)"/><path class="cls-4" d="M540.2,306.59a2.88,2.88,0,1,1,2.36-3.32,2.87,2.87,0,0,1-2.36,3.32" transform="translate(-25 -150)"/><path class="cls-4" d="M383.41,355.62a2.88,2.88,0,1,1,2.35-3.31,2.88,2.88,0,0,1-2.35,3.31" transform="translate(-25 -150)"/><path class="cls-4" d="M410.16,351.11a2.88,2.88,0,1,1,2.35-3.31,2.87,2.87,0,0,1-2.35,3.31" transform="translate(-25 -150)"/><path class="cls-4" d="M436.91,346.6a2.88,2.88,0,1,1,2.35-3.31,2.87,2.87,0,0,1-2.35,3.31" transform="translate(-25 -150)"/><path class="cls-4" d="M463.66,342.09a2.88,2.88,0,1,1,2.35-3.32,2.88,2.88,0,0,1-2.35,3.32" transform="translate(-25 -150)"/><path class="cls-4" d="M490.41,337.58a2.88,2.88,0,1,1,2.35-3.32,2.89,2.89,0,0,1-2.35,3.32" transform="translate(-25 -150)"/><path class="cls-4" d="M517.16,333.06a2.88,2.88,0,1,1,2.35-3.31,2.87,2.87,0,0,1-2.35,3.31" transform="translate(-25 -150)"/><path class="cls-4" d="M543.91,328.55a2.88,2.88,0,1,1,2.35-3.31,2.87,2.87,0,0,1-2.35,3.31" transform="translate(-25 -150)"/><path class="cls-4" d="M387.11,377.59a2.88,2.88,0,1,1,2.36-3.32,2.88,2.88,0,0,1-2.36,3.32" transform="translate(-25 -150)"/><path class="cls-4" d="M413.86,373.07a2.88,2.88,0,1,1,2.36-3.31,2.86,2.86,0,0,1-2.36,3.31" transform="translate(-25 -150)"/><path class="cls-4" d="M440.61,368.56a2.88,2.88,0,1,1,2.36-3.31,2.86,2.86,0,0,1-2.36,3.31" transform="translate(-25 -150)"/><path class="cls-4" d="M467.36,364.05a2.88,2.88,0,1,1,2.36-3.31,2.87,2.87,0,0,1-2.36,3.31" transform="translate(-25 -150)"/><path class="cls-4" d="M494.11,359.54a2.88,2.88,0,1,1,2.36-3.32,2.87,2.87,0,0,1-2.36,3.32" transform="translate(-25 -150)"/><path class="cls-4" d="M520.86,355a2.88,2.88,0,1,1,2.36-3.32,2.88,2.88,0,0,1-2.36,3.32" transform="translate(-25 -150)"/><path class="cls-4" d="M547.61,350.51A2.88,2.88,0,1,1,550,347.2a2.86,2.86,0,0,1-2.36,3.31" transform="translate(-25 -150)"/><path class="cls-4" d="M390.81,399.55a2.87,2.87,0,1,1,2.36-3.32,2.87,2.87,0,0,1-2.36,3.32" transform="translate(-25 -150)"/><path class="cls-4" d="M417.56,395a2.88,2.88,0,1,1,2.36-3.32,2.88,2.88,0,0,1-2.36,3.32" transform="translate(-25 -150)"/><path class="cls-4" d="M444.31,390.52a2.87,2.87,0,1,1,2.36-3.31,2.87,2.87,0,0,1-2.36,3.31" transform="translate(-25 -150)"/><path class="cls-4" d="M471.06,386a2.87,2.87,0,1,1,2.36-3.31,2.87,2.87,0,0,1-2.36,3.31" transform="translate(-25 -150)"/><path class="cls-4" d="M497.81,381.5a2.87,2.87,0,1,1,2.36-3.32,2.87,2.87,0,0,1-2.36,3.32" transform="translate(-25 -150)"/><path class="cls-4" d="M524.56,377a2.87,2.87,0,1,1,2.36-3.32,2.87,2.87,0,0,1-2.36,3.32" transform="translate(-25 -150)"/><path class="cls-4" d="M551.31,372.48a2.88,2.88,0,1,1,2.36-3.32,2.88,2.88,0,0,1-2.36,3.32" transform="translate(-25 -150)"/><path class="cls-4" d="M394.52,421.51a2.88,2.88,0,1,1,2.36-3.31,2.88,2.88,0,0,1-2.36,3.31" transform="translate(-25 -150)"/><path class="cls-4" d="M421.27,417a2.88,2.88,0,1,1,2.36-3.32,2.88,2.88,0,0,1-2.36,3.32" transform="translate(-25 -150)"/><path class="cls-4" d="M448,412.49a2.88,2.88,0,1,1,2.36-3.32,2.89,2.89,0,0,1-2.36,3.32" transform="translate(-25 -150)"/><path class="cls-4" d="M474.77,408a2.88,2.88,0,1,1,2.36-3.31,2.88,2.88,0,0,1-2.36,3.31" transform="translate(-25 -150)"/><path class="cls-4" d="M501.52,403.46a2.88,2.88,0,1,1,2.36-3.31,2.88,2.88,0,0,1-2.36,3.31" transform="translate(-25 -150)"/><path class="cls-4" d="M528.27,399a2.88,2.88,0,1,1,2.36-3.32,2.88,2.88,0,0,1-2.36,3.32" transform="translate(-25 -150)"/><path class="cls-4" d="M555,394.44a2.88,2.88,0,1,1,2.36-3.32,2.88,2.88,0,0,1-2.36,3.32" transform="translate(-25 -150)"/><path class="cls-4" d="M398.22,443.47a2.87,2.87,0,1,1,2.36-3.31,2.87,2.87,0,0,1-2.36,3.31" transform="translate(-25 -150)"/><path class="cls-4" d="M425,439a2.87,2.87,0,1,1,2.36-3.31A2.87,2.87,0,0,1,425,439" transform="translate(-25 -150)"/><path class="cls-4" d="M451.72,434.45a2.88,2.88,0,1,1,2.36-3.32,2.87,2.87,0,0,1-2.36,3.32" transform="translate(-25 -150)"/><path class="cls-4" d="M478.47,429.94a2.88,2.88,0,1,1,2.36-3.32,2.88,2.88,0,0,1-2.36,3.32" transform="translate(-25 -150)"/><path class="cls-4" d="M505.22,425.42a2.87,2.87,0,1,1,2.36-3.31,2.87,2.87,0,0,1-2.36,3.31" transform="translate(-25 -150)"/><path class="cls-4" d="M532,420.91a2.87,2.87,0,1,1,2.36-3.31,2.87,2.87,0,0,1-2.36,3.31" transform="translate(-25 -150)"/><path class="cls-4" d="M558.72,416.4a2.87,2.87,0,1,1,2.36-3.32,2.87,2.87,0,0,1-2.36,3.32" transform="translate(-25 -150)"/><path class="cls-4" d="M401.93,465.43a2.88,2.88,0,1,1,2.36-3.31,2.88,2.88,0,0,1-2.36,3.31" transform="translate(-25 -150)"/><path class="cls-4" d="M428.68,460.92a2.88,2.88,0,1,1,2.36-3.31,2.88,2.88,0,0,1-2.36,3.31" transform="translate(-25 -150)"/><path class="cls-4" d="M455.43,456.41a2.88,2.88,0,1,1,2.36-3.31,2.88,2.88,0,0,1-2.36,3.31" transform="translate(-25 -150)"/><path class="cls-4" d="M482.18,451.9a2.88,2.88,0,1,1,2.36-3.32,2.88,2.88,0,0,1-2.36,3.32" transform="translate(-25 -150)"/><path class="cls-4" d="M508.93,447.38a2.88,2.88,0,1,1,2.36-3.31,2.88,2.88,0,0,1-2.36,3.31" transform="translate(-25 -150)"/><path class="cls-4" d="M535.68,442.87a2.88,2.88,0,1,1,2.36-3.31,2.88,2.88,0,0,1-2.36,3.31" transform="translate(-25 -150)"/><path class="cls-4" d="M562.43,438.36a2.88,2.88,0,1,1,2.35-3.31,2.88,2.88,0,0,1-2.35,3.31" transform="translate(-25 -150)"/><path class="cls-4" d="M405.63,487.4a2.88,2.88,0,1,1,2.36-3.32,2.88,2.88,0,0,1-2.36,3.32" transform="translate(-25 -150)"/><path class="cls-4" d="M432.38,482.88a2.87,2.87,0,1,1,2.36-3.31,2.87,2.87,0,0,1-2.36,3.31" transform="translate(-25 -150)"/><path class="cls-4" d="M459.13,478.37a2.87,2.87,0,1,1,2.36-3.31,2.87,2.87,0,0,1-2.36,3.31" transform="translate(-25 -150)"/><path class="cls-4" d="M485.88,473.86a2.87,2.87,0,1,1,2.36-3.32,2.87,2.87,0,0,1-2.36,3.32" transform="translate(-25 -150)"/><path class="cls-4" d="M512.63,469.35A2.88,2.88,0,1,1,515,466a2.87,2.87,0,0,1-2.36,3.32" transform="translate(-25 -150)"/><path class="cls-4" d="M539.38,464.84a2.88,2.88,0,1,1,2.36-3.32,2.88,2.88,0,0,1-2.36,3.32" transform="translate(-25 -150)"/><path class="cls-4" d="M566.13,460.32a2.87,2.87,0,1,1,2.36-3.31,2.87,2.87,0,0,1-2.36,3.31" transform="translate(-25 -150)"/></g><g class="cls-3"><path class="cls-36" d="M284.47,594.86a13.05,13.05,0,0,1-13-12.31l-6-106.58a13.05,13.05,0,0,1,12.29-13.75l32.5-1.83a2.21,2.21,0,0,0,2-1.46,2.15,2.15,0,0,0-.55-2.36,20.45,20.45,0,0,1-6.52-13.68c-.68-12.11,9.94-22.58,23.67-23.35.54,0,1.07-.05,1.6-.05,13.11,0,23.88,9.05,24.53,20.6a20.45,20.45,0,0,1-5,14.33,2.15,2.15,0,0,0-.31,2.35,2.2,2.2,0,0,0,2,1.3h.14l32.49-1.82.74,0a13.05,13.05,0,0,1,13,12.31l1.78,31.9a2.26,2.26,0,0,0,2.25,2.12,2.14,2.14,0,0,0,1.52-.63A20.1,20.1,0,0,1,416.79,496c.37,0,.73,0,1.1,0,11.73,0,21.5,10.41,22.24,23.7a26.54,26.54,0,0,1-5.41,17.93,20.61,20.61,0,0,1-15.14,8.2l-1.1,0a20.29,20.29,0,0,1-12.6-4.48,2.17,2.17,0,0,0-1.34-.47,2.29,2.29,0,0,0-1.64.71,2.19,2.19,0,0,0-.6,1.65l1.79,31.91a13,13,0,0,1-12.29,13.75l-106.58,6c-.25,0-.5,0-.75,0" transform="translate(-25 -150)"/><path class="cls-4" d="M330.46,420.24c12.64,0,23.14,8.65,23.77,19.9a19.62,19.62,0,0,1-4.77,13.79,3,3,0,0,0,2.27,4.89h.18l32.5-1.82.69,0a12.3,12.3,0,0,1,12.27,11.61l1.79,31.9a3,3,0,0,0,3,2.82,2.88,2.88,0,0,0,2.05-.85,19.46,19.46,0,0,1,12.63-5.73c.35,0,.71,0,1.06,0,11.25,0,20.77,10.06,21.5,23,.74,13.34-8.14,24.68-19.85,25.34l-1.06,0a19.6,19.6,0,0,1-12.14-4.32,2.86,2.86,0,0,0-1.8-.63,3,3,0,0,0-3,3.16l1.79,31.9a12.29,12.29,0,0,1-11.58,13l-106.58,6c-.24,0-.47,0-.7,0a12.3,12.3,0,0,1-12.27-11.6l-6-106.58a12.3,12.3,0,0,1,11.59-13l32.49-1.82a3,3,0,0,0,1.89-5.12,19.58,19.58,0,0,1-6.28-13.18c-.66-11.71,9.62-21.8,23-22.55.53,0,1.05-.05,1.57-.05m0-1.5h0c-.55,0-1.11,0-1.65.05a27.3,27.3,0,0,0-17.7,7.6,20.85,20.85,0,0,0,.07,30.72,1.44,1.44,0,0,1,.37,1.56,1.46,1.46,0,0,1-1.31,1l-32.5,1.82a13.81,13.81,0,0,0-13,14.54l6,106.58a13.79,13.79,0,0,0,13.76,13c.26,0,.52,0,.78,0l106.58-6a13.8,13.8,0,0,0,13-14.55l-1.79-31.9a1.43,1.43,0,0,1,.39-1.09,1.56,1.56,0,0,1,1.1-.48,1.39,1.39,0,0,1,.88.31,21,21,0,0,0,13.06,4.64l1.14,0A21.39,21.39,0,0,0,435.31,538a27.24,27.24,0,0,0,5.57-18.43c-.76-13.69-10.86-24.41-23-24.41q-.57,0-1.14,0a20.9,20.9,0,0,0-13.61,6.16,1.37,1.37,0,0,1-1,.42,1.48,1.48,0,0,1-1.5-1.41l-1.78-31.9a13.8,13.8,0,0,0-13.77-13l-.78,0-32.49,1.82h-.1a1.46,1.46,0,0,1-1.33-.86,1.42,1.42,0,0,1,.2-1.56,21.22,21.22,0,0,0,5.13-14.85C355.06,428.1,344,418.74,330.46,418.74Z" transform="translate(-25 -150)"/></g><g class="cls-37"><g class="cls-38"><g class="cls-39"><path class="cls-4" d="M209.48,550.89a2.88,2.88,0,1,1,2.1-3.49,2.88,2.88,0,0,1-2.1,3.49" transform="translate(-25 -150)"/><path class="cls-4" d="M235.8,544.32a2.88,2.88,0,0,1-1.39-5.58,2.88,2.88,0,1,1,1.39,5.58" transform="translate(-25 -150)"/><path class="cls-4" d="M262.12,537.76a2.88,2.88,0,1,1,2.1-3.49,2.88,2.88,0,0,1-2.1,3.49" transform="translate(-25 -150)"/><path class="cls-4" d="M288.44,531.19a2.88,2.88,0,1,1,2.1-3.48,2.86,2.86,0,0,1-2.1,3.48" transform="translate(-25 -150)"/><path class="cls-4" d="M314.77,524.63a2.88,2.88,0,1,1,2.09-3.49,2.88,2.88,0,0,1-2.09,3.49" transform="translate(-25 -150)"/><path class="cls-4" d="M341.09,518.06a2.88,2.88,0,1,1,2.09-3.49,2.87,2.87,0,0,1-2.09,3.49" transform="translate(-25 -150)"/><path class="cls-4" d="M367.41,511.49A2.88,2.88,0,1,1,369.5,508a2.88,2.88,0,0,1-2.09,3.48" transform="translate(-25 -150)"/><path class="cls-4" d="M214.87,572.5A2.88,2.88,0,1,1,217,569a2.86,2.86,0,0,1-2.1,3.49" transform="translate(-25 -150)"/><path class="cls-4" d="M241.19,565.93a2.88,2.88,0,0,1-1.39-5.58,2.88,2.88,0,1,1,1.39,5.58" transform="translate(-25 -150)"/><path class="cls-4" d="M267.51,559.37a2.88,2.88,0,1,1,2.1-3.49,2.87,2.87,0,0,1-2.1,3.49" transform="translate(-25 -150)"/><path class="cls-4" d="M293.84,552.8a2.88,2.88,0,1,1,2.09-3.48,2.87,2.87,0,0,1-2.09,3.48" transform="translate(-25 -150)"/><path class="cls-4" d="M320.16,546.24a2.88,2.88,0,1,1,2.09-3.49,2.88,2.88,0,0,1-2.09,3.49" transform="translate(-25 -150)"/><path class="cls-4" d="M346.48,539.67a2.88,2.88,0,1,1,2.09-3.49,2.88,2.88,0,0,1-2.09,3.49" transform="translate(-25 -150)"/><path class="cls-4" d="M372.8,533.1a2.88,2.88,0,1,1,2.09-3.48,2.88,2.88,0,0,1-2.09,3.48" transform="translate(-25 -150)"/><path class="cls-4" d="M220.26,594.11a2.88,2.88,0,1,1,2.1-3.49,2.86,2.86,0,0,1-2.1,3.49" transform="translate(-25 -150)"/><path class="cls-4" d="M246.58,587.54a2.88,2.88,0,0,1-1.39-5.58,2.88,2.88,0,1,1,1.39,5.58" transform="translate(-25 -150)"/><path class="cls-4" d="M272.91,581a2.88,2.88,0,1,1,2.09-3.49,2.88,2.88,0,0,1-2.09,3.49" transform="translate(-25 -150)"/><path class="cls-4" d="M299.23,574.41a2.88,2.88,0,1,1,2.09-3.48,2.87,2.87,0,0,1-2.09,3.48" transform="translate(-25 -150)"/><path class="cls-4" d="M325.55,567.85a2.88,2.88,0,1,1,2.09-3.49,2.89,2.89,0,0,1-2.09,3.49" transform="translate(-25 -150)"/><path class="cls-4" d="M351.87,561.28a2.88,2.88,0,1,1,2.09-3.49,2.88,2.88,0,0,1-2.09,3.49" transform="translate(-25 -150)"/><path class="cls-4" d="M378.19,554.71a2.88,2.88,0,1,1,2.09-3.48,2.88,2.88,0,0,1-2.09,3.48" transform="translate(-25 -150)"/><path class="cls-4" d="M225.65,615.72a2.88,2.88,0,1,1,2.1-3.49,2.87,2.87,0,0,1-2.1,3.49" transform="translate(-25 -150)"/><path class="cls-4" d="M252,609.15a2.88,2.88,0,1,1,2.09-3.48,2.87,2.87,0,0,1-2.09,3.48" transform="translate(-25 -150)"/><path class="cls-4" d="M278.3,602.59a2.88,2.88,0,1,1,2.09-3.49,2.88,2.88,0,0,1-2.09,3.49" transform="translate(-25 -150)"/><path class="cls-4" d="M304.62,596a2.88,2.88,0,1,1,2.09-3.49,2.87,2.87,0,0,1-2.09,3.49" transform="translate(-25 -150)"/><path class="cls-4" d="M330.94,589.46A2.88,2.88,0,1,1,333,586a2.89,2.89,0,0,1-2.09,3.49" transform="translate(-25 -150)"/><path class="cls-4" d="M357.26,582.89a2.88,2.88,0,1,1,2.09-3.49,2.88,2.88,0,0,1-2.09,3.49" transform="translate(-25 -150)"/><path class="cls-4" d="M383.58,576.32a2.88,2.88,0,1,1,2.1-3.48,2.88,2.88,0,0,1-2.1,3.48" transform="translate(-25 -150)"/><path class="cls-4" d="M310,617.63a2.88,2.88,0,1,1,2.09-3.49,2.88,2.88,0,0,1-2.09,3.49" transform="translate(-25 -150)"/><path class="cls-4" d="M336.33,611.07a2.88,2.88,0,1,1,2.09-3.49,2.89,2.89,0,0,1-2.09,3.49" transform="translate(-25 -150)"/><path class="cls-4" d="M362.65,604.5a2.88,2.88,0,1,1,2.1-3.49,2.88,2.88,0,0,1-2.1,3.49" transform="translate(-25 -150)"/><path class="cls-4" d="M389,597.93a2.88,2.88,0,1,1,2.1-3.48,2.88,2.88,0,0,1-2.1,3.48" transform="translate(-25 -150)"/></g></g></g><g class="cls-3"><path class="cls-13" d="M140.33,442.34s-1,43.69-3.66,58.67c-3,16.8-28,50.68-28,50.68l5.79,5.73,8.58,4.09s21.87-20.91,34.2-47.07c10.69-22.69,11.17-69.8,11.17-69.8" transform="translate(-25 -150)"/><path class="cls-20" d="M134.11,575.51a4.3,4.3,0,0,0,0-2.87l-8.92-13.12c-8.52-1.57-16-9.26-16-9.26l-7.46,8.26a.66.66,0,0,0,.21.91l30,18.91c.61.38,2.09-2.8,2.09-2.83" transform="translate(-25 -150)"/><path class="cls-40" d="M127.53,561.74a17.19,17.19,0,0,0-3.58,1.81" transform="translate(-25 -150)"/><path class="cls-40" d="M128.49,563.65a15.82,15.82,0,0,0-3,1.57" transform="translate(-25 -150)"/><path class="cls-40" d="M129.37,565.16a22,22,0,0,0-2.78,1.42" transform="translate(-25 -150)"/><line class="cls-40" x1="77.87" y1="407.18" x2="108.63" y2="426.55"/><path class="cls-40" d="M106.61,553.19s7.11,4.74,5,9.47" transform="translate(-25 -150)"/><path class="cls-40" d="M132.3,570a27.77,27.77,0,0,0-5,2.61" transform="translate(-25 -150)"/><path class="cls-13" d="M172.43,460.47s1.68,25.54,2.84,45.07,3.45,64.12,3.45,64.12l8.45,2,9.38-1.56s2.43-38.5,2.43-64c0-26.38-1-63.76-1-63.76" transform="translate(-25 -150)"/><path class="cls-20" d="M213.17,577a4.39,4.39,0,0,0-1.53-2.43l-14.57-6.27c-8,3.25-18.43.76-18.43.76l-1.86,11a.66.66,0,0,0,.66.65l35.48-.18c.72,0,.26-3.48.25-3.51" transform="translate(-25 -150)"/><path class="cls-40" d="M200.22,568.9a17.45,17.45,0,0,0-2.05,3.45" transform="translate(-25 -150)"/><path class="cls-40" d="M202.06,570a14.55,14.55,0,0,0-1.69,2.94" transform="translate(-25 -150)"/><path class="cls-40" d="M203.61,570.8a21.35,21.35,0,0,0-1.59,2.69" transform="translate(-25 -150)"/><line class="cls-40" x1="151.97" y1="428.3" x2="188.32" y2="428.11"/><path class="cls-40" d="M178,572.93s8.54.18,9.27,5.32" transform="translate(-25 -150)"/><path class="cls-40" d="M208.65,573.27a27.42,27.42,0,0,0-2.81,4.88" transform="translate(-25 -150)"/><path class="cls-41" d="M171.81,316c-4.58-1-8.93,2-11,5.21-.64,1-1.14,2.11-1.86,3.07-4.57,6-23,4.17-19.34,16.07.42,1.37,1.22,2.64,1.34,4.06.15,1.79-.79,3.46-1.28,5.18a11.09,11.09,0,0,0,8,13.34c2.55.54,5.38.18,7.59,1.57,2.05,1.3,3,3.76,4.44,5.7,4,5.32,11.88,6.36,18.12,4.1,2.36-.86,4.72-2.27,5.73-4.57.58-1.31.67-2.82,1.42-4,1.45-2.36,4.64-2.75,7-4.12,3.45-2,5.48-6.57,3.9-10.29s-5-7.31-5.78-11.4c-.43-2.27.19-4.65-.27-6.92a7.43,7.43,0,0,0-2.64-4.32c-.93-.73-2-1.23-2.94-2-1.93-1.58-2.18-4.4-4.16-6s-4.62-2.15-6.75-3.53" transform="translate(-25 -150)"/><path class="cls-13" d="M180.18,344.07c11.62-3.25,28.67-2.57,42.29-16s19.43-23.7,19.43-23.7l10.49,8.27s-13.77,26.41-26,35.29c-16.14,11.67-27.1,13.48-36.37,15.15" transform="translate(-25 -150)"/><path class="cls-13" d="M239,308.73c2.86-4.39,9.8-17,10.76-16.83s-1.25,4.54-.43,4.5,4.69-6.58,5.62-6.18c1.26.53-3.07,7-3.07,7s1.13-1.16,2.09-.38c.68.56-.13,2.52-.13,2.52s1.3-1.3,2-.71-.24,2.92-.24,2.92a1.69,1.69,0,0,1,1.64,0c.66.51-2.74,8.35-9.07,18.51" transform="translate(-25 -150)"/><path class="cls-17" d="M248.44,298.11a25,25,0,0,0,0,3.85,6.5,6.5,0,0,1-.45,3.79" transform="translate(-25 -150)"/><path class="cls-42" d="M251.55,297.77c-.27.74-.53,1.48-.75,2.23a10.92,10.92,0,0,0-.27,1.13,2.85,2.85,0,0,0-.07,1.07c.06.17.06.18.19.18a.74.74,0,0,0,.41-.14,4,4,0,0,0,.85-.71,19,19,0,0,0,1.47-1.76.33.33,0,0,1,.56.35h0c-.36.67-.7,1.37-1,2.07a11.13,11.13,0,0,0-.37,1.06,2.81,2.81,0,0,0-.14,1c.05.11,0,.06.08.08a.58.58,0,0,0,.36-.08,2.92,2.92,0,0,0,.81-.63,10.47,10.47,0,0,0,1.34-1.81h0a.32.32,0,0,1,.45-.1.32.32,0,0,1,.12.41c-.3.63-.61,1.27-.87,1.92a8.14,8.14,0,0,0-.61,2,.85.85,0,0,0,0,.41c0,.08.1.11.25.09a2.24,2.24,0,0,0,.83-.53,12.47,12.47,0,0,0,1.39-1.59,10.52,10.52,0,0,1-1.22,1.77,2.45,2.45,0,0,1-.91.68.71.71,0,0,1-.36,0,.5.5,0,0,1-.32-.25,1.22,1.22,0,0,1-.11-.63,8.37,8.37,0,0,1,.51-2.14,20.4,20.4,0,0,1,.81-2l.57.3a11.07,11.07,0,0,1-1.39,2,3.71,3.71,0,0,1-1,.81,1.32,1.32,0,0,1-.76.16.77.77,0,0,1-.47-.2.84.84,0,0,1-.24-.44,2.72,2.72,0,0,1,.15-1.34,10,10,0,0,1,.43-1.12,23.28,23.28,0,0,1,1.06-2.12l.56.36a13.64,13.64,0,0,1-1.6,1.8,5.16,5.16,0,0,1-1,.74,1.3,1.3,0,0,1-.7.16.58.58,0,0,1-.42-.19.72.72,0,0,1-.17-.37,5.34,5.34,0,0,1,.53-2.39,23.16,23.16,0,0,1,1-2.14" transform="translate(-25 -150)"/><path class="cls-41" d="M169.1,317c-.55-.3-1.28-.21-1.75-.62a2.57,2.57,0,0,1-.46-2.79c.53-1.46,2.41-2.1,3.84-1.89,3.42.51,2.89,3.8.8,5" transform="translate(-25 -150)"/><path class="cls-43" d="M150.2,400.13s-12.27,13.09-14.61,30.92-2.37,46.85-2.37,46.85,35.36,6.48,67.5-.69c-1.23-14.83,0-56.32-11.22-77.08" transform="translate(-25 -150)"/><path class="cls-44" d="M139.69,478.86s-1.11-44.78,4.08-59.9c4.08-11.87,13-23.34,13-23.34" transform="translate(-25 -150)"/><path class="cls-45" d="M201.23,340.78l4.19,20a59.85,59.85,0,0,1-16.67,3.8c-4.57-.08-11.49-17.87-8.88-21.29,7.63-2.27,21.36-2.48,21.36-2.48" transform="translate(-25 -150)"/><path class="cls-45" d="M149.35,363.2s-.55,23.4.85,36.93c19.74,4.37,39.3,0,39.3,0l1.36-21.26c9.86-10.12,1.22-23.23,1.22-23.23l-12.21-12.38-12.2-.68Z" transform="translate(-25 -150)"/><path class="cls-45" d="M167.67,342.58s-10.86-1.72-21.35,6.91c-2.37,1.94-5.31,6-7.74,10.91l16.91,11.14,10-11.14" transform="translate(-25 -150)"/><path class="cls-40" d="M195.21,363.7c-.83-3.12-3.14-8.06-3.14-11.07" transform="translate(-25 -150)"/><line class="cls-40" x1="173.04" y1="190.89" x2="177.82" y2="211.68"/><line class="cls-40" x1="115.05" y1="207.64" x2="127.31" y2="215.26"/><path class="cls-13" d="M180.78,320.85s4.49,11.66,1.12,15.21c-1.74,1.85-7.81.82-10.09-.92-1.7-1.3-3.94-9.05-3-10.52,3.49-5.58,12-3.77,12-3.77" transform="translate(-25 -150)"/><path class="cls-13" d="M168.12,331.11l-.45,11.47c.9,2.89,10.65,5.64,12.2.68l-1-8.61Z" transform="translate(-25 -150)"/><path class="cls-41" d="M163,329.8a9.37,9.37,0,0,1-.48-3.41,13.17,13.17,0,0,1,.66-4.32,9.56,9.56,0,0,1,4.89-5.39c2.26-1.07,6.56-2.08,10.06,0a6.51,6.51,0,0,1,5,1.53,5,5,0,0,1,1.51,4.89l-10-1.14a9.56,9.56,0,0,1-3.5,4.46c-1.54,1.05-3.23,2.36-2.59,4.51.26.89-.7,1.06-.7,2.79-1.79-.19-4.44-2.75-4.85-3.79a.36.36,0,0,1,0-.11" transform="translate(-25 -150)"/><path class="cls-13" d="M169.64,329.26c-1.06-1.64-2-1.49-2.66-.7-.82,1.05.39,3.5,1,4,1.26.93,2.36.94,2.56-.14" transform="translate(-25 -150)"/><path class="cls-17" d="M179.17,337.36a12.07,12.07,0,0,1-7.36-2.22" transform="translate(-25 -150)"/><path class="cls-19" d="M178.32,326.75s2.86,2.48,2.79,3.26-1.85,1.11-1.85,1.11" transform="translate(-25 -150)"/><path class="cls-4" d="M181.35,331.79l-4.81,1.33a3.18,3.18,0,0,0,3.86,1.5c1.85-.66.95-2.83.95-2.83" transform="translate(-25 -150)"/><path class="cls-20" d="M180.34,325.85a3.48,3.48,0,0,0,.21.62.39.39,0,1,0,.72-.3,4.75,4.75,0,0,0-.31-.59.34.34,0,0,0-.62.27" transform="translate(-25 -150)"/><path class="cls-21" d="M179.21,324.68a1.29,1.29,0,0,1,1.81-.46" transform="translate(-25 -150)"/><path class="cls-20" d="M174.92,327.89c.05.22.11.43.18.64.16.48.94.27.76-.21a5.37,5.37,0,0,0-.31-.69c-.19-.36-.7-.11-.63.26" transform="translate(-25 -150)"/><path class="cls-21" d="M175.51,325.75a2.41,2.41,0,0,0-2.31,1.33" transform="translate(-25 -150)"/><path class="cls-13" d="M138.58,360.4c-5.28,10.64-8.55,26.14,2.57,30.86,11.6,4.93,42-32.29,42-32.29l-9.39-8.09L148.66,367" transform="translate(-25 -150)"/><line class="cls-17" x1="123.66" y1="217.04" x2="116.15" y2="222.89"/><path class="cls-43" d="M183.21,354h0a2.79,2.79,0,0,1-2.22-3.26L183,340l5.49,1-2,10.78a2.8,2.8,0,0,1-3.26,2.23" transform="translate(-25 -150)"/><path class="cls-46" d="M189.32,343.33l-4.41-1.08a5.84,5.84,0,0,1,2.76-11.34l4.41,1.07a.48.48,0,0,1,.36.59L189.92,343a.5.5,0,0,1-.6.36" transform="translate(-25 -150)"/><path class="cls-47" d="M192.64,338.13c-.76,3.13-2.24,5.46-3.3,5.2s-1.31-3-.54-6.14,2.24-5.46,3.3-5.21,1.3,3,.54,6.15" transform="translate(-25 -150)"/><path class="cls-43" d="M203.06,353.14s-8.09-6.94-12.88-9.81c-1.5-1.22-1-4.1-.58-5.67,1.08-4.06,2.48-4.59,2.48-4.59,6.5.45,16.71-2.65,16.71-2.65" transform="translate(-25 -150)"/><path class="cls-47" d="M203.59,340.76c-1.79,7.07-1.59,13.22.43,13.73s5.11-4.81,6.89-11.89,1.59-13.22-.43-13.73-5.11,4.81-6.89,11.89" transform="translate(-25 -150)"/><path class="cls-46" d="M204.78,341.08c-1.5,6-1.49,11.15,0,11.53s4-4.15,5.5-10.13,1.49-11.15,0-11.53-4,4.15-5.49,10.13" transform="translate(-25 -150)"/><path class="cls-43" d="M207.46,344.5a7.61,7.61,0,0,0-3.38-.07c.18-1.07.41-2.19.7-3.35s.62-2.25,1-3.27a7.63,7.63,0,0,0,3,1.54Z" transform="translate(-25 -150)"/><path class="cls-41" d="M207.4,341.74c-.36,1.44-.34,2.69,0,2.78s1-1,1.36-2.42.34-2.68-.05-2.78-1,1-1.36,2.42" transform="translate(-25 -150)"/><path class="cls-13" d="M169.22,353.81A124.56,124.56,0,0,1,180.64,347a9.55,9.55,0,0,1,7.21.15,4.18,4.18,0,0,1,1.74,1.21,3.72,3.72,0,0,1,.72,2.46.5.5,0,0,1-.17.44c-.31.21-.6-.27-.79-.6a2.5,2.5,0,0,0-2.27-1.15c.48,0,.7.48.9.92a.8.8,0,0,1-.51,1.13,1.06,1.06,0,0,1,.25,2,.74.74,0,0,1,.41.79,1.91,1.91,0,0,1-.43.85,20.26,20.26,0,0,1-3,3c-3.37,2.9-10.34,10.76-10.34,10.76" transform="translate(-25 -150)"/><path class="cls-13" d="M207.44,575.38l-28.32-2.11-9.29,1,.18,35.21a1.61,1.61,0,0,0,3.12.57l7.22-15.72,29.52,3.55" transform="translate(-25 -150)"/><path class="cls-48" d="M170.41,612.64c1.16-.37,2.47-1.06,2.77-1.75l7.17-16.65c-3.72-9.19-.87-21.07-.87-21.07l-12.55-.91a.75.75,0,0,0-.74.75l.2,39.35c0,.81,4,.29,4,.28" transform="translate(-25 -150)"/><path class="cls-40" d="M179.64,597.84a20.19,20.19,0,0,0-3.95-2.35" transform="translate(-25 -150)"/><path class="cls-40" d="M178.38,599.94A16.8,16.8,0,0,0,175,598" transform="translate(-25 -150)"/><path class="cls-40" d="M177.47,601.71a25.08,25.08,0,0,0-3.08-1.81" transform="translate(-25 -150)"/><line class="cls-40" x1="143.89" y1="422.47" x2="144.11" y2="462.81"/><path class="cls-40" d="M174.9,572.84s-.07,9.34-6,10.18" transform="translate(-25 -150)"/><path class="cls-40" d="M174.65,607.48s-3.82-2.69-5.59-3.22" transform="translate(-25 -150)"/><path class="cls-49" d="M256.91,517.26c.42.87,5.69,38.24,9.47,64.31,2.36,16.31,2.65,26.61-21.1,24.66-32.71-2.68-55.5-4.16-55.5-4.16L189,572.74,234,574.88l-5.86-29s-10.87-14.5-2.86-31.09" transform="translate(-25 -150)"/><line class="cls-50" x1="168.87" y1="422.97" x2="170.05" y2="452.07"/><path class="cls-50" d="M249,536.63l7.91,45.91a2,2,0,0,1-2.13,2.27l-65.58-4" transform="translate(-25 -150)"/><path class="cls-13" d="M290.81,571.56l-6,28.32-.25,9.29L321,609a1.61,1.61,0,0,0,.56-3.12l-15.71-7.22,7.42-29.52" transform="translate(-25 -150)"/><path class="cls-48" d="M324.2,608.6c-.37-1.17-1.05-2.48-1.74-2.78l-16.66-7.17c-9.18,3.72-21.07.88-21.07.88l-2.12,12.54a.76.76,0,0,0,.76.75l40.55-.21c.82,0,.3-4,.28-4" transform="translate(-25 -150)"/><path class="cls-40" d="M309.41,599.37a18.92,18.92,0,0,0-2.35,3.94" transform="translate(-25 -150)"/><path class="cls-40" d="M311.5,600.62a17.84,17.84,0,0,0-1.93,3.35" transform="translate(-25 -150)"/><path class="cls-40" d="M313.28,601.54a24.24,24.24,0,0,0-1.81,3.07" transform="translate(-25 -150)"/><line class="cls-40" x1="257.83" y1="460.11" x2="299.38" y2="459.9"/><path class="cls-40" d="M284,604s9.76.2,10.6,6.08" transform="translate(-25 -150)"/><path class="cls-40" d="M319,604.35s-2.69,3.83-3.22,5.59" transform="translate(-25 -150)"/><path class="cls-49" d="M272.06,508.72l2.08,8.16a2.63,2.63,0,0,0,2.55,2h28.2c6.9,0,14.18.18,18.12,6.17,3.23,4.9,2.09,13.06-.6,22.45-2.31,8-10.47,44.74-10.47,44.74h-29l8.2-43.8H257.64S236,548.6,239,526.88" transform="translate(-25 -150)"/><line class="cls-50" x1="258.7" y1="437.69" x2="287.76" y2="437.69"/><path class="cls-50" d="M261.61,548.42h-4s-20.75,0-21-21.54" transform="translate(-25 -150)"/><path class="cls-50" d="M259.31,515.71s.53,24.3,21,24.3h15.38a3,3,0,0,1,2.95,3.62l-10.15,48.52" transform="translate(-25 -150)"/><path class="cls-50" d="M261.31,525.79c.16.44,8.59-1.93,8.43-10.08" transform="translate(-25 -150)"/><path class="cls-50" d="M243.6,529.23a35,35,0,0,0,8.44-1.16" transform="translate(-25 -150)"/><path class="cls-50" d="M222.36,529.23s4.08.12,7.17,0" transform="translate(-25 -150)"/><path class="cls-13" d="M247.12,427.69s10-31.15,28.73-56.22l-12.78-7.8c-20.22,21.94-33.54,58.63-33.54,58.63" transform="translate(-25 -150)"/><path class="cls-22" d="M221.7,480.59s-4.18-38.43,11.65-70.66L252,416l-4.92,24.64" transform="translate(-25 -150)"/><line class="cls-51" x1="206.95" y1="263.55" x2="225.37" y2="269.92"/><path class="cls-13" d="M273.17,375.06c3-4.61,13.94-16.52,13.41-17.52s-4.43,3.15-4.71,2.25,5.29-7.68,4.49-8.53c-1.07-1.16-6.4,6.09-6.4,6.09s5.44-8.23,4.21-9c-.86-.52-5.31,5.57-7.29,7.68,1.86-2.57,4.39-7.08,3.48-7.6s-4,3.56-6.57,6.56c1.42-2,3.8-5.83,3-6.35s-11.19,10.49-19.37,21.67" transform="translate(-25 -150)"/><path class="cls-13" d="M259.48,470.83s19.12,7.32,33.15,8.24c18.39,1.19,39.77-5.66,39.77-5.66s2.82-15.11-4.54-14.39c-9.07,1.65-24.75,2.81-36.54,1.38-7.36-.89-23-9.27-23-9.27" transform="translate(-25 -150)"/><path class="cls-13" d="M323.69,459.83c5.46-.73,20.93-5.42,21.6-4.52s-4.75,2.64-4.06,3.28,9.2-1.44,9.63-.36c.58,1.47-8.26,3.14-8.26,3.14s9.77-1.34,9.9.08c.09,1-7.32,2.37-10.08,3.25,3.12-.57,8.28-.89,8.36.15s-5,2.08-8.76,3.08c2.43-.4,6.9-.9,7,.07s-11.94,4.34-23.4,7.08" transform="translate(-25 -150)"/><path class="cls-13" d="M239.71,434.74l-2.62,13.14s7.36,7.45,15.07.51l-.09-8.8Z" transform="translate(-25 -150)"/><path class="cls-13" d="M253.63,422.36s6.28,12.56,2.39,16.71c-2,2.16-5,3-7.65,1-2-1.49-9.57-10.5-8.51-12.21,4-6.52,13.77-5.47,13.77-5.47" transform="translate(-25 -150)"/><path class="cls-13" d="M256.13,429.44s2.32,2.3,2.32,3.83c0,.68-2.32.78-2.32.78" transform="translate(-25 -150)"/><path class="cls-4" d="M256,435.34l-4.08-.6c-.2,1.55,2.84,5.41,4.08.6" transform="translate(-25 -150)"/><path class="cls-20" d="M253,429.23a1.13,1.13,0,0,0,.38,1.19.28.28,0,0,0,.41-.24,4.51,4.51,0,0,0-.22-.95.3.3,0,0,0-.57,0" transform="translate(-25 -150)"/><path class="cls-21" d="M251.08,428.47a2.65,2.65,0,0,1,1.94-1.15,1.39,1.39,0,0,1,1,.23" transform="translate(-25 -150)"/><path class="cls-14" d="M238.39,423.3c.68-4.46,5.22-5.38,13.66-4.13,1.13.17,3.21-.42,3.65.63.57,1.39.46,4.09-1,5.18-1.26.95-3,.45-4.44.95-2.27.82-1.15,3-2.35,4.61-2,2.67-.68,6.59-4,8.63-1.88,1.16-4.29.83-6.46.42a1.61,1.61,0,0,1-.75-.27c-.75-.58-.45-2.62-.67-3.5a27,27,0,0,1-.84-8.72c.21-2.53,2.24-4.06,3.17-3.8" transform="translate(-25 -150)"/><path class="cls-13" d="M248,431.17c-.44-2.62-2.4-1.71-3.1-.8-.94,1.23.47,4.07,1.2,4.6,1.48,1.07,2.75,1.09,3-.17" transform="translate(-25 -150)"/><path class="cls-17" d="M251.94,441.37a15.31,15.31,0,0,1-4.63-2.3" transform="translate(-25 -150)"/><path class="cls-22" d="M237,443.86s-11.42,4.84-14.94,22.86c-1.56,8,1.45,51.15,1.45,51.11,24.7,4.82,51.29-2.3,51.29-2.3s-3-28.11-4.43-38.7c-3.2-24.43-20-32.19-20-32.19Z" transform="translate(-25 -150)"/><path class="cls-22" d="M250.37,444.64S259.86,446.1,266,449s19.84,9.59,19.84,9.59l-7.06,19.52-24.92-7.88" transform="translate(-25 -150)"/><line class="cls-51" x1="245.14" y1="325.08" x2="231.14" y2="320.98"/><line class="cls-51" x1="256.52" y1="306.52" x2="249.83" y2="326.59"/><path class="cls-51" d="M223.3,514.78a163.1,163.1,0,0,0,51.06-1.87" transform="translate(-25 -150)"/><path class="cls-13" d="M606.66,569l6,28.33-1,9.29-35.22-.19a1.61,1.61,0,0,1-.56-3.11l15.71-7.23-7.42-29.52" transform="translate(-25 -150)"/><path class="cls-15" d="M573.27,606.05c.37-1.17,1.05-2.48,1.74-2.77l16.66-7.18c9.18,3.72,21.06.88,21.06.88l.92,12.54a.76.76,0,0,1-.76.75l-39.35-.21c-.81,0-.29-4-.27-4" transform="translate(-25 -150)"/><path class="cls-44" d="M588.06,596.82a19.18,19.18,0,0,1,2.35,3.94" transform="translate(-25 -150)"/><path class="cls-44" d="M586,598.07a17.44,17.44,0,0,1,1.94,3.36" transform="translate(-25 -150)"/><path class="cls-44" d="M584.19,599a23.67,23.67,0,0,1,1.81,3.08" transform="translate(-25 -150)"/><line class="cls-44" x1="588.43" y1="457.56" x2="548.09" y2="457.35"/><path class="cls-44" d="M613.07,601.56s-9.34.06-10.18,5.94" transform="translate(-25 -150)"/><path class="cls-44" d="M578.42,601.81s2.69,3.82,3.23,5.58" transform="translate(-25 -150)"/><path class="cls-48" d="M594,466.16s-22.54,50.39-21.35,68.24c1.11,16.62,13.71,58.71,13.71,58.71l27-5s-12.92-52-12.25-57.36,17.17-42.39,17.17-42.39,6.38-8.72,4.19-23.71" transform="translate(-25 -150)"/><path class="cls-40" d="M608.9,589S596.3,536.51,597,531.13s16.29-41.7,16.29-41.7" transform="translate(-25 -150)"/><line class="cls-40" x1="587.2" y1="433.2" x2="560.1" y2="438.66"/><path class="cls-13" d="M645.72,555.78l12.6,26.36,3.07,8.82-32,14.77a1.62,1.62,0,0,1-2.14-.78,1.64,1.64,0,0,1,.31-1.8l11.16-13.21-14.41-26.83" transform="translate(-25 -150)"/><path class="cls-15" d="M626.36,606.73c-.16-1.21-.09-2.69.41-3.25l12-13.56c9.89-.52,19.45-8.14,19.45-8.14l6.14,11a.75.75,0,0,1-.36,1l-35.72,16.5c-.74.34-2-3.48-2-3.52" transform="translate(-25 -150)"/><path class="cls-44" d="M635.85,592.1a19.52,19.52,0,0,1,3.8,2.57" transform="translate(-25 -150)"/><path class="cls-44" d="M634.48,594.12a17.76,17.76,0,0,1,3.17,2.22" transform="translate(-25 -150)"/><path class="cls-44" d="M633.26,595.7a27,27,0,0,1,3,2" transform="translate(-25 -150)"/><line class="cls-44" x1="638.38" y1="441.07" x2="601.76" y2="457.98"/><path class="cls-44" d="M660.5,585.79s-8.43,4-6.7,9.7" transform="translate(-25 -150)"/><path class="cls-44" d="M629.23,600.7s4.06,2.32,5.29,3.69" transform="translate(-25 -150)"/><path class="cls-48" d="M611.85,467.69s-8.59,47.58-4.53,65c4.53,19.49,24.08,52.51,24.08,52.51l24.35-12.1s-21-40.14-21-48.81c0-5.42,4.81-38.81,4.81-38.81s4.81-9.68.11-24.09" transform="translate(-25 -150)"/><path class="cls-40" d="M650.14,575.9s-21-39.24-21-50.41c0-5.42,3.33-30.69,4.81-38.82s4.38-17.52.11-24.08" transform="translate(-25 -150)"/><path class="cls-40" d="M606.28,516.53c1.28-13.37,2.79-31.32,4.83-47.31" transform="translate(-25 -150)"/><path class="cls-40" d="M625.41,469.22s1.65,4.1,10.59,6.48" transform="translate(-25 -150)"/><path class="cls-40" d="M607.21,470.19s-1.35,9.81-.56,11.1c.36.6,3.19,1.13,3.19,1.13" transform="translate(-25 -150)"/><path class="cls-40" d="M590.65,474s5.4.14,8.5-3.32" transform="translate(-25 -150)"/><line class="cls-40" x1="628.57" y1="418.88" x2="603.88" y2="430.83"/><path class="cls-45" d="M601.54,394.73s-10.24,2.94-11.71,22.56c-1.39,8,1.95,52.8,1.95,52.76,24.8,4.28,51.23-3.4,51.23-3.4s-4.63-28-6.39-38.57C632.2,401.64,613.91,396,613.91,396Z" transform="translate(-25 -150)"/><path class="cls-13" d="M605.84,394.91a135.73,135.73,0,0,0-15.42-21.08c-12.32-13.71-30.92-25.22-30.92-25.22s-12.57,8.84-6.81,13.46c7.64,5.16,17.41,15.41,24.85,24.67,4.64,5.78,14,23.5,14,23.5" transform="translate(-25 -150)"/><path class="cls-13" d="M556.24,364.41c-4.41-3.3-18.76-10.75-18.6-11.87s5.23,1.44,5.19.5-7.59-5.4-7.14-6.48c.61-1.45,8.11,3.53,8.11,3.53s-7.94-5.87-7-7c.64-.79,6.9,3.41,9.49,4.71-2.63-1.77-6.55-5.14-5.87-5.94s5,2,8.42,3.91c-2-1.41-5.57-4.18-5-4.95s11.61,4.8,22,12" transform="translate(-25 -150)"/><path class="cls-13" d="M624.63,427.59s-9.2,18.3-19,28.42c-12.79,13.27-33.21,22.6-33.21,22.6s-12.26-9.27-6.34-13.69c7.82-4.88,20.19-14.59,28-23.59,4.84-5.62,12.58-23.19,12.58-23.19" transform="translate(-25 -150)"/><path class="cls-13" d="M569.76,462.71c-4.52,3.14-19.12,10.09-19,11.21s5.29-1.25,5.21-.31-7.77,5.13-7.36,6.22c.57,1.47,8.23-3.24,8.23-3.24s-8.14,5.58-7.28,6.72c.61.81,7-3.17,9.65-4.38-2.69,1.68-6.73,4.91-6.08,5.74s5.06-1.8,8.56-3.63c-2.08,1.35-5.72,4-5.15,4.78s11.75-4.82,22.06-10.52" transform="translate(-25 -150)"/><path class="cls-45" d="M606.27,413.41c-2.56,8.61-9.33,22.87-9.33,22.87L615.31,446s9.47-11.56,13.05-25.44" transform="translate(-25 -150)"/><path class="cls-44" d="M615.31,446s10.28-14.36,12.07-22.12" transform="translate(-25 -150)"/><path class="cls-44" d="M596.94,436.28s6.84-13.23,8.27-19.64" transform="translate(-25 -150)"/><path class="cls-45" d="M589.49,423.12c-.22-7.19-3.69-22.22-14-36l16.24-13s14.27,11.42,18.34,21.5" transform="translate(-25 -150)"/><path class="cls-13" d="M598.34,374s-4.15,11.49-.46,15.23c1.92,1.94,7.58,2.27,10,.35,1.79-1.43,4.43-10.26,3.42-11.81-3.87-5.91-12.95-3.77-12.95-3.77" transform="translate(-25 -150)"/><path class="cls-19" d="M600.65,379.41s-2.22,2.71-2.13,3.55,2,1.14,2,1.14" transform="translate(-25 -150)"/><path class="cls-4" d="M598.3,384.87l5.2,1.32a3.41,3.41,0,0,1-4.11,1.69c-2-.66-1.09-3-1.09-3" transform="translate(-25 -150)"/><path class="cls-20" d="M598.6,378.21a4.89,4.89,0,0,0-.35.73c-.19.46.58.68.76.21a5.39,5.39,0,0,0,.22-.68.35.35,0,0,0-.63-.26" transform="translate(-25 -150)"/><path class="cls-21" d="M600.44,377.2a1.38,1.38,0,0,0-2-.45" transform="translate(-25 -150)"/><path class="cls-20" d="M604.45,380.28a6.81,6.81,0,0,0-.31.74c-.16.48.61.7.76.21a4.12,4.12,0,0,0,.18-.69c.07-.36-.44-.64-.63-.26" transform="translate(-25 -150)"/><path class="cls-21" d="M604.43,378.25a2.58,2.58,0,0,1,2.51,1.38" transform="translate(-25 -150)"/><path class="cls-13" d="M611.64,384.5,613.91,396s-8.69,6.52-13.5-.42l-.14-7.53Z" transform="translate(-25 -150)"/><path class="cls-16" d="M615.79,382.52a11.42,11.42,0,0,1,.36-1.23c.35-1,.88-1.83,1.26-2.79a5,5,0,0,0-1.48-5.56,8.12,8.12,0,0,1-.86-.69,7,7,0,0,1-1.1-2.18,3,3,0,0,0-1.25-1.52c-1.36-.73-3.18.25-4.54-.47a6.6,6.6,0,0,1-.8-.59c-2-1.47-4.17-1.13-6.29-.36a6.85,6.85,0,0,0-2.15,1.39c-.9.71-2.16.66-3.06,1.35a4,4,0,0,0-1.21,3.25,3,3,0,0,0,.2,1.27,2.39,2.39,0,0,0,1.23,1.09,7.79,7.79,0,0,0,3.87.25c1.27-.1,2.73-1,4-.53s1.51,1.93,3,2c.59.05,1.3-.06,1.65.41s.19,1.41.5,2a13.22,13.22,0,0,0,1.18,1.63c.75,1.07,1.81,1.8,1.43,3.19-.26,1-1.33,2.51-.89,3.53.29.67,1.77.66,2.89-.19s1.5-2.55,1.79-3.89c.1-.49.2-1,.31-1.43" transform="translate(-25 -150)"/><path class="cls-13" d="M610.48,382.75c1.1-1.78,2.17-1.64,2.84-.81.9,1.11-.33,3.76-1,4.27-1.34,1-2.51,1.07-2.75-.08" transform="translate(-25 -150)"/><path class="cls-17" d="M600.72,391a15.85,15.85,0,0,0,7.57-1.84" transform="translate(-25 -150)"/><path class="cls-44" d="M589.29,420.47s.28-11.23-1-14.66" transform="translate(-25 -150)"/><path class="cls-44" d="M599.3,397.65s2,3.55,7.57,3.43c6.26-.13,8.85-4.33,8.85-4.33" transform="translate(-25 -150)"/><path class="cls-13" d="M490.58,338.18c-.62,5.31-4.56,17.62-3.79,18.12s2.63-4.23,3.18-3.7-1.53,7.67-.61,8c1.24.42,2.88-6.66,2.88-6.66s-1.35,7.8-.16,7.87c.84,0,2.27-5.58,2.94-7.76-.41,2.44-1,6.3-.14,6.34s1.86-3.3,2.61-6.29c-.28,1.91-1.17,5.7-.36,5.76s3.74-8.54,5.61-19.27" transform="translate(-25 -150)"/><path class="cls-13" d="M506.1,284.22c3.81,28.06-4.55,61.76-4.55,61.76L490,343.49s4.35-30.43-.54-57.17" transform="translate(-25 -150)"/><path class="cls-22" d="M481.68,259.22A26.18,26.18,0,0,1,497.91,265c7.73,6.07,9.67,20.07,9.67,20.07l-18.28,3.65s-1-11.8-1.1-15.84" transform="translate(-25 -150)"/><path class="cls-23" d="M488.64,288.67a52.74,52.74,0,0,0-2.24-10.28" transform="translate(-25 -150)"/><rect class="cls-52" x="606.24" y="253.52" width="23.04" height="23.04" transform="translate(-72.92 21.55) rotate(-15.23)"/><rect class="cls-52" x="100.94" y="510.3" width="11.33" height="11.33" transform="translate(-443.63 407.24) rotate(-82.82)"/><path class="cls-53" d="M677.73,530.09a9.12,9.12,0,1,1-9.11-9.11A9.11,9.11,0,0,1,677.73,530.09Z" transform="translate(-25 -150)"/><path class="cls-52" d="M310.82,218.43a4.56,4.56,0,1,1-4.56-4.56A4.56,4.56,0,0,1,310.82,218.43Z" transform="translate(-25 -150)"/><path class="cls-52" d="M688.42,419.13a4.56,4.56,0,1,1-4.56-4.55A4.56,4.56,0,0,1,688.42,419.13Z" transform="translate(-25 -150)"/><path class="cls-52" d="M693,513.14a4.56,4.56,0,1,1-4.56-4.55A4.56,4.56,0,0,1,693,513.14Z" transform="translate(-25 -150)"/><path class="cls-53" d="M95.8,480.08a4.56,4.56,0,1,1-4.56-4.55A4.56,4.56,0,0,1,95.8,480.08Z" transform="translate(-25 -150)"/><path class="cls-52" d="M205.91,235.24l.48,3a2.73,2.73,0,0,0,2.76,2.3l2,0a2.73,2.73,0,0,1,2.75,2.3l.32,2a2.75,2.75,0,0,0,2.76,2.3l2,0a2.74,2.74,0,0,1,2.76,2.29l.32,2a2.74,2.74,0,0,0,2.75,2.3l2.38,0" transform="translate(-25 -150)"/><path class="cls-52" d="M118.54,434.48l-.94-2.93a2.73,2.73,0,0,0-3.08-1.84l-2,.35a2.74,2.74,0,0,1-3.07-1.85l-.62-1.92a2.75,2.75,0,0,0-3.08-1.85l-2,.35a2.74,2.74,0,0,1-3.08-1.84l-.62-1.93A2.73,2.73,0,0,0,97,419.18l-2.35.41" transform="translate(-25 -150)"/><path class="cls-52" d="M585.64,313.78l3.06-.26a2.72,2.72,0,0,0,2.5-2.57l.1-2a2.73,2.73,0,0,1,2.5-2.57l2-.17a2.74,2.74,0,0,0,2.5-2.58l.11-2A2.72,2.72,0,0,1,600.9,299l2-.18a2.72,2.72,0,0,0,2.5-2.57l.13-2.38" transform="translate(-25 -150)"/><path class="cls-52" d="M680.1,358.05l-2.92.94a2.73,2.73,0,0,0-1.86,3.07l.34,2a2.73,2.73,0,0,1-1.86,3.07l-1.91.61a2.73,2.73,0,0,0-1.86,3.07l.34,2a2.74,2.74,0,0,1-1.86,3.07l-1.92.61a2.74,2.74,0,0,0-1.86,3.07l.41,2.35" transform="translate(-25 -150)"/><path class="cls-52" d="M696.71,491l2.55,1.71a2.72,2.72,0,0,0,3.56-.44l1.34-1.5a2.74,2.74,0,0,1,3.56-.44l1.67,1.12A2.72,2.72,0,0,0,713,491l1.35-1.5a2.74,2.74,0,0,1,3.56-.44l1.68,1.13a2.73,2.73,0,0,0,3.55-.44l1.6-1.78" transform="translate(-25 -150)"/><line class="cls-53" x1="645.04" y1="245.67" x2="634.5" y2="252.17"/><line class="cls-53" x1="538.7" y1="109.06" x2="529.02" y2="116.78"/><line class="cls-53" x1="323.37" y1="126.97" x2="311.32" y2="124.14"/><line class="cls-53" x1="95.1" y1="179.39" x2="85.93" y2="171.07"/></g></g></g></g></g></svg>