<?xml version="1.0" encoding="utf-8"?>
<!-- Generator: Adobe Illustrator 15.0.0, SVG Export Plug-In . SVG Version: 6.00 Build 0)  -->
<!DOCTYPE svg PUBLIC "-//W3C//DTD SVG 1.1//EN" "http://www.w3.org/Graphics/SVG/1.1/DTD/svg11.dtd">
<svg version="1.1" id="Layer_1" xmlns="http://www.w3.org/2000/svg" xmlns:xlink="http://www.w3.org/1999/xlink" x="0px" y="0px"
	 width="221.808px" height="143.859px" viewBox="0 0 221.808 143.859" enable-background="new 0 0 221.808 143.859"
	 xml:space="preserve">
<circle fill="#39B54A" stroke="#39B54A" stroke-miterlimit="10" cx="28.901" cy="111.233" r="19.298"/>
<line fill="none" stroke="#39B54A" stroke-miterlimit="10" x1="41.027" y1="96.225" x2="101.416" y2="37.549"/>
<circle fill="#39B54A" stroke="#39B54A" stroke-miterlimit="10" cx="190.111" cy="114.79" r="19.298"/>
<circle fill="#39B54A" stroke="#39B54A" stroke-miterlimit="10" cx="111.356" cy="34.59" r="19.298"/>
<line fill="none" stroke="#39B54A" stroke-miterlimit="10" x1="48.199" y1="111.233" x2="173.93" y2="111.233"/>
<line fill="none" stroke="#39B54A" stroke-miterlimit="10" x1="186.942" y1="102.823" x2="127.231" y2="45.436"/>
<text transform="matrix(1 0 0 1 106.521 40.4727)" fill="#FFFFFF" font-family="'Candara'" font-size="24">1</text>
<text transform="matrix(1 0 0 1 22.082 117.8525)" fill="#FFFFFF" font-family="'Candara'" font-size="24">2</text>
<text transform="matrix(1 0 0 1 182.9009 117.8525)" fill="#FFFFFF" font-family="'Candara'" font-size="24">3</text>
<text transform="matrix(1 0 0 1 78.0234 6.5547)" font-family="'Candara'" font-size="8">Choose a Service</text>
<text transform="matrix(1 0 0 1 0 141.5898)" font-family="'Candara'" font-size="8">Select a Service Provider</text>
<text transform="matrix(1 0 0 1 170.812 141.5898)" font-family="'Candara'" font-size="8">Book a Service </text>
</svg>
