<svg xmlns="http://www.w3.org/2000/svg" xmlns:xlink="http://www.w3.org/1999/xlink" width="124.839" height="82.246" viewBox="0 0 124.839 82.246">
  <defs>
    <linearGradient id="linear-gradient" x1="0.5" x2="0.5" y2="1" gradientUnits="objectBoundingBox">
      <stop offset="0" stop-color="#399bdb"/>
      <stop offset="1" stop-color="#6e329b"/>
    </linearGradient>
  </defs>
  <path id="traffic" d="M123.974,91.907a2.537,2.537,0,0,0-2.227-1.536H110.34a2.539,2.539,0,0,0-2.227,1.536,18.475,18.475,0,0,0-.652,2.31l-7.62-21.081a8.83,8.83,0,0,0-8.281-5.812H33.282A8.831,8.831,0,0,0,25,73.136L17.38,94.219a18.529,18.529,0,0,0-.652-2.312A2.538,2.538,0,0,0,14.5,90.371H3.094A2.538,2.538,0,0,0,.867,91.907a11.237,11.237,0,0,0,0,8.653A2.538,2.538,0,0,0,3.094,102.1H14.5c.011,0,.022,0,.033,0l-.172.477a5.848,5.848,0,0,0-4.005,5.548v38.642a2.811,2.811,0,0,0,2.811,2.811H27.317a2.811,2.811,0,0,0,2.811-2.811V133.074H94.713v13.685a2.811,2.811,0,0,0,2.811,2.811h14.149a2.811,2.811,0,0,0,2.811-2.811V108.117a5.849,5.849,0,0,0-4-5.548l-.172-.477.032,0h11.407a2.537,2.537,0,0,0,2.227-1.536A11.239,11.239,0,0,0,123.974,91.907ZM34.358,77.669H90.476l8.891,24.6h-73.9ZM35.923,119.6H24.087a4.6,4.6,0,1,1,0-9.2H35.923a4.6,4.6,0,1,1,0,9.2Zm64.831,0H88.917a4.6,4.6,0,1,1,0-9.2h11.836a4.6,4.6,0,1,1,0,9.2Z" transform="translate(-0.001 -67.324)" stroke="#000" stroke-linecap="round" stroke-linejoin="round" stroke-width="0" fill="url(#linear-gradient)"/>
</svg>
