<svg xmlns="http://www.w3.org/2000/svg" xmlns:xlink="http://www.w3.org/1999/xlink" width="85.353" height="82.02" viewBox="0 0 85.353 82.02">
  <defs>
    <linearGradient id="linear-gradient" x1="0.5" x2="0.5" y2="1" gradientUnits="objectBoundingBox">
      <stop offset="0" stop-color="#399bdb"/>
      <stop offset="1" stop-color="#6e329b"/>
    </linearGradient>
  </defs>
  <g id="awareness" transform="translate(0 -9.998)">
    <path id="Path_5" data-name="Path 5" d="M35.866,155.366v-3.335c0-.013,0-.026,0-.039a33.316,33.316,0,0,0-.864-8.03c-1.688-6.322-5.348-9.812-12.237-11.671a2.641,2.641,0,0,1-.605-.174c-.143-.082-.243-.308-.325-.443l-4.341-7.045a5.726,5.726,0,0,0-3.576-2.59L12.876,108.6a5.767,5.767,0,0,0-5.619-5.51H7.245A5.717,5.717,0,0,0,1.616,108.6l-.595,8.853a1.667,1.667,0,1,0,3.327.224l.6-8.853a2.421,2.421,0,0,1,2.3-2.4h0a2.45,2.45,0,0,1,2.3,2.435l1.036,13.371a5.781,5.781,0,0,0-2.929,8.449L14.7,142.1a1.667,1.667,0,1,0,2.839-1.749L10.5,128.93a2.437,2.437,0,0,1,2.643-3.65,2.415,2.415,0,0,1,1.512,1.093l4.341,7.046a3.826,3.826,0,0,0,2.791,2.059l.11.03c6.618,1.786,8.738,5.015,9.886,9.312a30.659,30.659,0,0,1,.752,7.229v3.113H17.456v-.251c0-5.152-5.083-9.5-8.447-12.372-.5-.431-.98-.837-1.362-1.184l-.064-.058c-3.117-2.827-4.407-4-4.234-8.737a1.667,1.667,0,1,0-3.332-.122c-.23,6.289,1.98,8.294,5.325,11.328l.065.059c.419.38.913.8,1.435,1.248,2.9,2.477,7.279,6.221,7.279,9.837v.453a4.192,4.192,0,0,0-2.9,3.983V165.4a4.19,4.19,0,0,0,4.186,4.185H34.582a4.19,4.19,0,0,0,4.186-4.185v-6.056a4.192,4.192,0,0,0-2.9-3.983ZM35.434,165.4a.852.852,0,0,1-.852.851H15.406a.863.863,0,0,1-.852-.851v-6.056a.863.863,0,0,1,.852-.851H34.582a.863.863,0,0,1,.852.851Z" transform="translate(0 -77.572)" fill="url(#linear-gradient)"/>
    <path id="Path_6" data-name="Path 6" d="M318.2,132.44c0-.017,0-.034,0-.051L316.6,108.6a5.716,5.716,0,0,0-5.629-5.514h-.012a5.768,5.768,0,0,0-5.618,5.511L304.3,122.039a5.723,5.723,0,0,0-3.574,2.587l-4.344,7.051c-.082.134-.182.359-.324.441a2.657,2.657,0,0,1-.6.173c-6.89,1.86-10.551,5.35-12.239,11.673a33.319,33.319,0,0,0-.864,8.029c0,.013,0,.026,0,.039v3.335a4.192,4.192,0,0,0-2.9,3.983V165.4a4.19,4.19,0,0,0,4.186,4.185h19.176a4.19,4.19,0,0,0,4.186-4.185v-6.056a4.192,4.192,0,0,0-2.9-3.983v-.453c0-3.616,4.38-7.36,7.279-9.837.522-.446,1.016-.868,1.436-1.249l.064-.058c3.346-3.034,5.556-5.039,5.326-11.328ZM303.66,165.4a.863.863,0,0,1-.852.851H283.632a.863.863,0,0,1-.852-.851v-6.056a.863.863,0,0,1,.852-.851h19.176a.863.863,0,0,1,.852.851Zm6.972-24.106-.063.057c-.384.348-.86.754-1.364,1.185-3.364,2.875-8.447,7.219-8.447,12.371v.251H285.682V152.05a30.665,30.665,0,0,1,.752-7.229c1.148-4.3,3.268-7.527,9.888-9.313l.108-.029a3.823,3.823,0,0,0,2.789-2.057l4.345-7.052a2.413,2.413,0,0,1,1.51-1.09,2.469,2.469,0,0,1,.7-.064h.026a2.443,2.443,0,0,1,1.922,3.712l-7.036,11.423a1.667,1.667,0,1,0,2.839,1.749l7.036-11.422a5.781,5.781,0,0,0-1.891-7.944,5.794,5.794,0,0,0-1.038-.505l1.036-13.37a2.45,2.45,0,0,1,2.3-2.436h0a2.421,2.421,0,0,1,2.3,2.4l1.6,23.76C315.034,137.305,313.743,138.477,310.632,141.3Z" transform="translate(-232.86 -77.572)" fill="url(#linear-gradient)"/>
    <path id="Path_7" data-name="Path 7" d="M115.088,43.69h7.359a14.883,14.883,0,0,0-.284,2.882v2.636a1.667,1.667,0,0,0,1.667,1.667h26.718a1.667,1.667,0,0,0,1.667-1.667V46.572a14.869,14.869,0,0,0-.284-2.882H159.3a1.667,1.667,0,0,0,1.667-1.667V39.386a15.068,15.068,0,0,0-6.835-12.578,10.407,10.407,0,1,0-16.937-12.065,10.409,10.409,0,1,0-16.94,12.065,15.068,15.068,0,0,0-6.83,12.578v2.636a1.667,1.667,0,0,0,1.667,1.667Zm33.794,3.851H125.5v-.969a11.733,11.733,0,0,1,6.064-10.235,10.37,10.37,0,0,0,11.257,0,11.733,11.733,0,0,1,6.064,10.235v.969Zm8.747-8.154v.969h-6.772a15.129,15.129,0,0,0-5.472-6.362,10.393,10.393,0,0,0,1.724-3.251,10.34,10.34,0,0,0,4.453-1.592,11.734,11.734,0,0,1,6.068,10.235Zm-11.7-26.054a7.072,7.072,0,0,1,1.659,13.947,10.423,10.423,0,0,0-8.086-9.838,7.072,7.072,0,0,1,6.427-4.109Zm-8.742,7.181a7.075,7.075,0,1,1-7.075,7.073A7.082,7.082,0,0,1,137.19,20.513Zm-8.742-7.181a7.068,7.068,0,0,1,6.429,4.109,10.423,10.423,0,0,0-8.088,9.838,7.072,7.072,0,0,1,1.659-13.947ZM116.755,39.386a11.733,11.733,0,0,1,6.063-10.235,10.34,10.34,0,0,0,4.453,1.592,10.393,10.393,0,0,0,1.724,3.251,15.128,15.128,0,0,0-5.472,6.362h-6.767Z" transform="translate(-94.513)" fill="url(#linear-gradient)"/>
    <path id="Path_8" data-name="Path 8" d="M4.763,228.055A1.669,1.669,0,1,0,3.1,226.383v.01a1.663,1.663,0,0,0,1.667,1.662Z" transform="translate(-2.58 -178.923)" fill="url(#linear-gradient)"/>
  </g>
</svg>
