<svg xmlns="http://www.w3.org/2000/svg" xmlns:xlink="http://www.w3.org/1999/xlink" width="87.733" height="87.728" viewBox="0 0 87.733 87.728">
  <defs>
    <linearGradient id="linear-gradient" x1="0.5" x2="0.5" y2="1" gradientUnits="objectBoundingBox">
      <stop offset="0" stop-color="#399bdb"/>
      <stop offset="1" stop-color="#6e329b"/>
    </linearGradient>
  </defs>
  <g id="handyman" transform="translate(0 -0.012)">
    <path id="Path_37" data-name="Path 37" d="M182.785,222.558h3.341a1.285,1.285,0,1,0,2.57,0v-1.285a1.285,1.285,0,0,0-1.285-1.285h-4.627a1.285,1.285,0,1,0,0,2.57Z" transform="translate(-150.4 -182.283)" fill="url(#linear-gradient)"/>
    <path id="Path_38" data-name="Path 38" d="M289.785,223.843a1.285,1.285,0,0,0,1.285-1.285h3.341a1.285,1.285,0,0,0,0-2.57h-4.627a1.285,1.285,0,0,0-1.285,1.285v1.285A1.285,1.285,0,0,0,289.785,223.843Z" transform="translate(-239.065 -182.283)" fill="url(#linear-gradient)"/>
    <path id="Path_39" data-name="Path 39" d="M99.528,46.163a21.847,21.847,0,0,0,43.631,0,7.277,7.277,0,0,0,3.912-12.3,3.854,3.854,0,0,0-1.314-7.271,24.18,24.18,0,0,0-4.995-14.4,24.624,24.624,0,0,0-11.708-8.369V2.1A1.285,1.285,0,0,0,128.09.858a27.315,27.315,0,0,0-13.492,0,1.285,1.285,0,0,0-.965,1.245v1.72a24.627,24.627,0,0,0-11.708,8.369,24.181,24.181,0,0,0-4.995,14.4,3.854,3.854,0,0,0-1.314,7.271,7.276,7.276,0,0,0,3.912,12.3ZM129.055,6.551a21.961,21.961,0,0,1,14.128,20.017H129.055Zm-15.422,0v6.737a1.285,1.285,0,0,0,2.57,0V3.12a24.755,24.755,0,0,1,10.281,0V26.568H116.2V18.428a1.285,1.285,0,1,0-2.57,0v8.139H99.505A21.961,21.961,0,0,1,113.633,6.551ZM97.355,29.138h47.979a1.285,1.285,0,0,1,0,2.57H97.355a1.285,1.285,0,1,1,0-2.57ZM99.5,34.456V36.42a1.285,1.285,0,0,0,2.57,0V34.278h38.554V36.42a1.285,1.285,0,1,0,2.57,0V34.456a4.712,4.712,0,0,1,0,9.067V41.561a1.285,1.285,0,1,0-2.57,0v3.427a19.277,19.277,0,0,1-38.554,0V41.561a1.285,1.285,0,0,0-2.57,0v1.962a4.712,4.712,0,0,1,0-9.067Z" transform="translate(-77.478 0)" fill="url(#linear-gradient)"/>
    <path id="Path_40" data-name="Path 40" d="M223.877,276.826a7.343,7.343,0,0,0,10.385,0,1.285,1.285,0,1,0-1.818-1.818,4.773,4.773,0,0,1-6.75,0,1.285,1.285,0,1,0-1.818,1.817Z" transform="translate(-185.203 -227.564)" fill="url(#linear-gradient)"/>
    <path id="Path_41" data-name="Path 41" d="M76.166,293.121H28.052a3.852,3.852,0,0,0-6.2-1.585,3.846,3.846,0,0,0-5.141,0,3.846,3.846,0,0,0-3.855-.764v-4.078a6.449,6.449,0,0,0,2.57-5.139v-5.141a1.285,1.285,0,0,0-1.285-1.285H12.851v-3.855a1.285,1.285,0,1,0-2.57,0v3.855H7.711v-3.855a1.285,1.285,0,1,0-2.57,0v3.855H3.855a1.285,1.285,0,0,0-1.285,1.285v5.141a6.449,6.449,0,0,0,2.57,5.139v4.078A3.854,3.854,0,0,0,0,294.406V310.17a1.285,1.285,0,0,0,1.285,1.285H86.447a1.285,1.285,0,0,0,1.285-1.285v-5.483A11.579,11.579,0,0,0,76.166,293.121ZM5.141,308.885H2.57V294.406a1.285,1.285,0,1,1,2.57,0Zm5.782-23.992a1.285,1.285,0,0,0-.642,1.112v22.88H7.711V286.006a1.285,1.285,0,0,0-.642-1.112,3.871,3.871,0,0,1-1.929-3.339V277.7h7.711v3.855A3.87,3.87,0,0,1,10.923,284.893Zm4.5,23.992h-2.57V294.406a1.285,1.285,0,1,1,2.57,0Zm5.141,0h-2.57V294.406a1.285,1.285,0,1,1,2.57,0Zm5.141,0h-2.57V294.406a1.285,1.285,0,1,1,2.57,0Zm16.878,0H28.273V295.691h7.17l7.138,7.293ZM39.04,295.691h9.652l-4.826,4.931Zm46.122,13.194H45.151v-5.9l7.138-7.293H76.166a9.006,9.006,0,0,1,9,9Z" transform="translate(0 -223.715)" fill="url(#linear-gradient)"/>
  </g>
</svg>
