<svg id="Page-1" xmlns="http://www.w3.org/2000/svg" xmlns:xlink="http://www.w3.org/1999/xlink" width="86" height="86" viewBox="0 0 86 86">
  <defs>
    <linearGradient id="linear-gradient" x1="0.5" x2="0.5" y2="1" gradientUnits="objectBoundingBox">
      <stop offset="0" stop-color="#399bdb"/>
      <stop offset="1" stop-color="#6e329b"/>
    </linearGradient>
  </defs>
  <g id="_007---Pipe" data-name="007---Pipe">
    <path id="Shape" d="M32.714,56.214a6.143,6.143,0,0,1-12.286,0V4H2V56.214a24.571,24.571,0,0,0,49.143,0V53.143H32.714ZM8.143,39.321a1.536,1.536,0,0,1-3.071,0v-21.5a1.536,1.536,0,0,1,3.071,0Zm0-27.643a1.536,1.536,0,1,1-3.071,0V8.607a1.536,1.536,0,0,1,3.071,0Z" transform="translate(1.071 2.143)" fill="url(#linear-gradient)"/>
    <path id="Shape-2" data-name="Shape" d="M24.571,1.536A1.536,1.536,0,0,0,23.036,0H1.536a1.536,1.536,0,0,0,0,3.071h21.5A1.536,1.536,0,0,0,24.571,1.536Z" fill="url(#linear-gradient)"/>
    <rect id="Rectangle-path" width="25" height="18" rx="1" transform="translate(31 34)" fill="url(#linear-gradient)"/>
    <path id="Shape-3" data-name="Shape" d="M63.036,54h-21.5a1.536,1.536,0,0,0,0,3.071h21.5a1.536,1.536,0,0,0,0-3.071Z" transform="translate(21.429 28.929)" fill="url(#linear-gradient)"/>
    <path id="Shape-4" data-name="Shape" d="M52.714,26.571V78.786H71.143V26.571a24.571,24.571,0,0,0-49.143,0v3.071H40.429V26.571a6.143,6.143,0,1,1,12.286,0Z" transform="translate(11.786 1.071)" fill="url(#linear-gradient)"/>
  </g>
</svg>
