<svg xmlns="http://www.w3.org/2000/svg" xmlns:xlink="http://www.w3.org/1999/xlink" width="89.812" height="82.767" viewBox="0 0 89.812 82.767">
  <defs>
    <linearGradient id="linear-gradient" x1="0.5" x2="0.5" y2="1" gradientUnits="objectBoundingBox">
      <stop offset="0" stop-color="#399bdb"/>
      <stop offset="1" stop-color="#6e329b"/>
    </linearGradient>
  </defs>
  <g id="garden" transform="translate(0 -20.08)">
    <g id="Group_71" data-name="Group 71" transform="translate(71.218 51.632)">
      <g id="Group_70" data-name="Group 70">
        <path id="Path_34" data-name="Path 34" d="M409.475,201.366a1.779,1.779,0,0,0-.1-.328,1.741,1.741,0,0,0-.161-.3,1.764,1.764,0,0,0-.218-.267,1.679,1.679,0,0,0-.267-.217,1.78,1.78,0,0,0-.3-.161,1.857,1.857,0,0,0-.328-.1,1.736,1.736,0,0,0-.686,0,1.773,1.773,0,0,0-.328.1,1.732,1.732,0,0,0-.3.161,1.681,1.681,0,0,0-.267.217,1.761,1.761,0,0,0-.217.267,1.867,1.867,0,0,0-.161.3,1.769,1.769,0,0,0-.1.328,1.693,1.693,0,0,0,0,.686,1.769,1.769,0,0,0,.1.328,1.762,1.762,0,0,0,.379.57,1.784,1.784,0,0,0,.267.218,1.733,1.733,0,0,0,.3.161,1.772,1.772,0,0,0,.328.1,1.725,1.725,0,0,0,.342.033,1.756,1.756,0,0,0,.344-.033,1.856,1.856,0,0,0,.328-.1,1.779,1.779,0,0,0,.568-.379,1.855,1.855,0,0,0,.218-.267,1.741,1.741,0,0,0,.161-.3,1.779,1.779,0,0,0,.1-.328,1.781,1.781,0,0,0,0-.686Z" transform="translate(-406 -199.955)" fill="url(#linear-gradient)"/>
      </g>
    </g>
    <g id="Group_73" data-name="Group 73" transform="translate(15.263 78.12)">
      <g id="Group_72" data-name="Group 72">
        <path id="Path_35" data-name="Path 35" d="M90.483,352.366a1.683,1.683,0,0,0-.1-.328,1.78,1.78,0,0,0-.161-.3A1.679,1.679,0,0,0,90,351.47a1.793,1.793,0,0,0-.267-.219,1.734,1.734,0,0,0-.3-.161,1.773,1.773,0,0,0-.328-.1,1.728,1.728,0,0,0-.684,0,1.833,1.833,0,0,0-.33.1,1.758,1.758,0,0,0-.949.949,1.813,1.813,0,0,0-.1.328,1.744,1.744,0,0,0-.033.344,1.726,1.726,0,0,0,.033.342,1.772,1.772,0,0,0,.1.328,1.732,1.732,0,0,0,.161.3,1.794,1.794,0,0,0,.219.267,1.679,1.679,0,0,0,.267.217,1.78,1.78,0,0,0,.3.161,1.828,1.828,0,0,0,.33.1,1.685,1.685,0,0,0,.684,0,1.769,1.769,0,0,0,.328-.1,1.732,1.732,0,0,0,.3-.161,1.7,1.7,0,0,0,.484-.484,1.731,1.731,0,0,0,.161-.3,1.648,1.648,0,0,0,.1-.328,1.728,1.728,0,0,0,.035-.342A1.745,1.745,0,0,0,90.483,352.366Z" transform="translate(-87.01 -350.955)" fill="url(#linear-gradient)"/>
      </g>
    </g>
    <g id="Group_75" data-name="Group 75" transform="translate(0 20.08)">
      <g id="Group_74" data-name="Group 74" transform="translate(0 0)">
        <path id="Path_36" data-name="Path 36" d="M88.058,61.543a1.754,1.754,0,0,0,1.754-1.754V46.984a1.754,1.754,0,0,0-1.754-1.754H84.549V30.605a1.754,1.754,0,0,0-.619-1.338L73.592,20.5a1.754,1.754,0,0,0-2.27,0L60.984,29.268a1.754,1.754,0,0,0-.619,1.338V45.23H57V30.605a1.754,1.754,0,0,0-.619-1.338L46.041,20.5a1.754,1.754,0,0,0-2.27,0L33.433,29.268a1.754,1.754,0,0,0-.619,1.338V45.23H27.693V30.605a1.754,1.754,0,0,0-.619-1.338L16.736,20.5a1.754,1.754,0,0,0-2.27,0L4.128,29.268a1.754,1.754,0,0,0-.619,1.338V45.23H1.754A1.754,1.754,0,0,0,0,46.984V59.789a1.754,1.754,0,0,0,1.754,1.754H3.509V71.717H1.754A1.754,1.754,0,0,0,0,73.471V86.277a1.754,1.754,0,0,0,1.754,1.754H3.509v13.062a1.754,1.754,0,0,0,1.754,1.754H25.939a1.754,1.754,0,0,0,1.754-1.754V88.031h5.121v13.062a1.754,1.754,0,0,0,1.754,1.754H55.244A1.754,1.754,0,0,0,57,101.093V88.031h3.366v13.062a1.754,1.754,0,0,0,1.754,1.754H82.795a1.754,1.754,0,0,0,1.754-1.754V88.031h3.509a1.754,1.754,0,0,0,1.754-1.754V73.471a1.754,1.754,0,0,0-1.754-1.754H84.549V61.543Zm-15.6-37.409,8.584,7.283V45.23H63.873V31.418h0ZM36.322,31.418l8.584-7.283,8.584,7.283V45.229H36.322Zm-29.3,0L15.6,24.134l8.584,7.283V45.23H7.017ZM24.185,99.339H7.017V88.031H24.185Zm29.3,0H36.322V88.031H53.49Zm27.551,0H63.873V88.031H81.041ZM86.3,75.226V78.12H24.384a1.754,1.754,0,1,0,0,3.508H86.3v2.895H3.508v-9.3ZM7.017,71.717V61.543H24.185V71.717Zm20.676,0V61.543h5.121V71.717Zm8.629,0V61.543H53.49V71.717Zm20.676,0V61.543h3.366V71.717Zm6.875,0V61.543H81.041V71.717ZM3.508,58.035V55.141H65.6a1.754,1.754,0,0,0,0-3.508H3.508V48.738H86.3v9.3H3.508Z" transform="translate(0 -20.08)" fill="url(#linear-gradient)"/>
      </g>
    </g>
  </g>
</svg>
