<svg xmlns="http://www.w3.org/2000/svg" xmlns:xlink="http://www.w3.org/1999/xlink" width="70" height="70" viewBox="0 0 70 70">
  <defs>
    <linearGradient id="linear-gradient" x1="0.042" x2="1" y2="1.084" gradientUnits="objectBoundingBox">
      <stop offset="0" stop-color="#007bff"/>
      <stop offset="0.368" stop-color="#5a62bb"/>
      <stop offset="1" stop-color="#6b5eae"/>
    </linearGradient>
  </defs>
  <g id="tiles" transform="translate(0)">
    <path id="Path_1" data-name="Path 1" d="M1.943,65.821H31.993a1.945,1.945,0,0,0,1.943-1.943V40.507a1.025,1.025,0,1,0-2.051,0v1.245a8.918,8.918,0,0,1-7.816-7.816h7.816v1.786a1.025,1.025,0,0,0,2.051,0V33.936H63.878a1.945,1.945,0,0,0,1.943-1.943V1.943A1.945,1.945,0,0,0,63.878,0H33.828a1.93,1.93,0,0,0-.918.231A1.93,1.93,0,0,0,31.993,0H1.943A1.945,1.945,0,0,0,0,1.943V31.993a1.93,1.93,0,0,0,.231.918A1.93,1.93,0,0,0,0,33.828V63.878a1.945,1.945,0,0,0,1.943,1.943Zm.108-22.007a10.97,10.97,0,0,0,9.878-9.878h3.979A14.939,14.939,0,0,1,2.051,47.793Zm0-19.745a8.918,8.918,0,0,1,7.816,7.816H2.051Zm29.834,7.816H24.069a8.918,8.918,0,0,1,7.816-7.816Zm0-9.878a10.97,10.97,0,0,0-9.878,9.878H18.028A14.939,14.939,0,0,1,31.885,18.028ZM11.929,31.885a10.97,10.97,0,0,0-9.878-9.878V18.028A14.939,14.939,0,0,1,15.908,31.885ZM9.867,33.936a8.918,8.918,0,0,1-7.816,7.816V33.936Zm7.1,4.787A17.056,17.056,0,0,0,27.1,48.853,17.056,17.056,0,0,0,16.968,58.984,17.056,17.056,0,0,0,6.837,48.853,17.056,17.056,0,0,0,16.968,38.722Zm0-11.624A17.056,17.056,0,0,0,6.837,16.968,17.056,17.056,0,0,0,16.968,6.837,17.056,17.056,0,0,0,27.1,16.968,17.057,17.057,0,0,0,16.968,27.1ZM2.051,55.954A8.918,8.918,0,0,1,9.867,63.77H2.051Zm9.878,7.816a10.97,10.97,0,0,0-9.878-9.878V49.913A14.939,14.939,0,0,1,15.908,63.77H11.929ZM31.885,49.913v3.979a10.97,10.97,0,0,0-9.878,9.878H18.028A14.939,14.939,0,0,1,31.885,49.913Zm0,13.857H24.069a8.919,8.919,0,0,1,7.816-7.816Zm0-19.956v3.979A14.939,14.939,0,0,1,18.028,33.936h3.979A10.97,10.97,0,0,0,31.885,43.814Zm2.051-19.745a8.918,8.918,0,0,1,7.816,7.816H33.936Zm9.878,7.816a10.97,10.97,0,0,0-9.878-9.878V18.028A14.939,14.939,0,0,1,47.793,31.885ZM63.77,22.007a10.97,10.97,0,0,0-9.878,9.878H49.913A14.939,14.939,0,0,1,63.77,18.028v3.979Zm-7.816,9.878a8.918,8.918,0,0,1,7.816-7.816v7.816ZM63.77,9.867a8.918,8.918,0,0,1-7.816-7.816H63.77ZM53.892,2.051a10.97,10.97,0,0,0,9.878,9.878v3.979A14.939,14.939,0,0,1,49.913,2.051ZM42.337,13.924a1.025,1.025,0,0,0,1.444.13,16.956,16.956,0,0,0,5.073-7.212A17.056,17.056,0,0,0,58.983,16.968,17.056,17.056,0,0,0,48.853,27.1,17.056,17.056,0,0,0,38.727,16.97q.323-.118.643-.25a1.025,1.025,0,0,0-.781-1.9,14.786,14.786,0,0,1-4.653,1.084V11.929a10.97,10.97,0,0,0,9.878-9.878h3.979A14.885,14.885,0,0,1,42.467,12.48a1.025,1.025,0,0,0-.13,1.444Zm-8.4-4.057V2.051h7.816A8.918,8.918,0,0,1,33.936,9.867Zm-2.051,0a8.918,8.918,0,0,1-7.816-7.816h7.816ZM22.007,2.051a10.97,10.97,0,0,0,9.878,9.878v3.979A14.939,14.939,0,0,1,18.028,2.051ZM2.051,15.908V11.929a10.97,10.97,0,0,0,9.878-9.878h3.979A14.939,14.939,0,0,1,2.051,15.908ZM9.867,2.051A8.918,8.918,0,0,1,2.051,9.867V2.051Z" transform="translate(0 0)" fill="url(#linear-gradient)"/>
    <path id="Path_2" data-name="Path 2" d="M295.776,263.783H265.727a1.945,1.945,0,0,0-1.943,1.943v30.049a1.945,1.945,0,0,0,1.943,1.943h30.049a1.945,1.945,0,0,0,1.943-1.943V265.726a1.946,1.946,0,0,0-1.943-1.943Zm-.108,9.867a8.918,8.918,0,0,1-7.816-7.816h7.816Zm-9.878-7.816a10.971,10.971,0,0,0,9.878,9.878v3.979a14.939,14.939,0,0,1-13.857-13.857Zm5.092,14.917a17.056,17.056,0,0,0-10.131,10.131,17.056,17.056,0,0,0-10.131-10.131,17.056,17.056,0,0,0,10.131-10.131A17.057,17.057,0,0,0,290.882,280.751Zm-25.048-1.06v-3.979a10.97,10.97,0,0,0,9.878-9.878h3.979A14.939,14.939,0,0,1,265.835,279.691Zm7.816-13.857a8.918,8.918,0,0,1-7.816,7.816v-7.816Zm-7.816,22.018a8.918,8.918,0,0,1,7.816,7.816h-7.816Zm9.878,7.816a10.97,10.97,0,0,0-9.878-9.878v-3.979a14.939,14.939,0,0,1,13.857,13.857Zm12.14,0a8.884,8.884,0,0,1,2.182-4.879,1.025,1.025,0,1,0-1.534-1.361,10.934,10.934,0,0,0-2.71,6.241h-3.979a14.939,14.939,0,0,1,13.857-13.857v3.979a10.882,10.882,0,0,0-2.743.618,1.025,1.025,0,0,0,.706,1.926,8.831,8.831,0,0,1,2.037-.482v7.817Z" transform="translate(-227.72 -227.719)" fill="url(#linear-gradient)"/>
    <path id="Path_3" data-name="Path 3" d="M92.108,88.27l-3.84,3.84a1.107,1.107,0,0,0,0,1.563l3.839,3.839a1.106,1.106,0,0,0,1.564,0l3.838-3.838a1.105,1.105,0,0,0,0-1.565L93.672,88.27A1.107,1.107,0,0,0,92.108,88.27Zm.782,7.123-2.5-2.5,2.5-2.5,2.5,2.5Z" transform="translate(-75.922 -75.923)" fill="url(#linear-gradient)"/>
    <path id="Path_4" data-name="Path 4" d="M324.606,97.5a1.105,1.105,0,0,0,1.565,0l3.839-3.839a1.107,1.107,0,0,0,0-1.564l-3.839-3.839a1.105,1.105,0,0,0-1.564,0L320.768,92.1a1.105,1.105,0,0,0,0,1.564Zm.783-7.122,2.5,2.5-2.5,2.5-2.5-2.5Z" transform="translate(-276.633 -75.915)" fill="url(#linear-gradient)"/>
    <path id="Path_5" data-name="Path 5" d="M355.891,352.052l-3.839,3.839a1.107,1.107,0,0,0,0,1.564l3.839,3.84a1.108,1.108,0,0,0,1.563,0l3.84-3.84a1.108,1.108,0,0,0,0-1.563l-3.839-3.839A1.107,1.107,0,0,0,355.891,352.052Zm.782,7.123-2.5-2.5,2.5-2.5,2.5,2.5Z" transform="translate(-303.641 -303.641)" fill="url(#linear-gradient)"/>
    <path id="Path_6" data-name="Path 6" d="M92.1,330.728a1.108,1.108,0,0,0,1.563,0l3.838-3.838a1.105,1.105,0,0,0,0-1.565l-3.839-3.839a1.107,1.107,0,0,0-1.564,0l-3.839,3.839a1.105,1.105,0,0,0,0,1.564C91.882,330.507,92.093,330.714,92.1,330.728Zm.781-7.124,2.5,2.5-2.5,2.5-2.5-2.5Z" transform="translate(-75.916 -277.253)" fill="url(#linear-gradient)"/>
  </g>
</svg>
