<svg xmlns="http://www.w3.org/2000/svg" xmlns:xlink="http://www.w3.org/1999/xlink" width="83" height="83" viewBox="0 0 83 83">
  <defs>
    <linearGradient id="linear-gradient" x1="0.5" x2="0.5" y2="1" gradientUnits="objectBoundingBox">
      <stop offset="0" stop-color="#399bdb"/>
      <stop offset="1" stop-color="#6e329b"/>
    </linearGradient>
  </defs>
  <g id="maintenance_1_" data-name="maintenance (1)" transform="translate(-1 -1)">
    <path id="Path_59" data-name="Path 59" d="M29.016,21.006a4.021,4.021,0,0,0,4.016-4.016H30.355a1.339,1.339,0,1,1-2.677,0H25A4.021,4.021,0,0,0,29.016,21.006Z" transform="translate(8.129 5.416)" fill="url(#linear-gradient)"/>
    <path id="Path_60" data-name="Path 60" d="M81.323,1H73.29a2.68,2.68,0,0,0-2.677,2.677h-.728a5.32,5.32,0,0,0-9.271.063,6.676,6.676,0,1,0,2.553,13.032A5.275,5.275,0,0,0,70.613,19v8.777H67.935A2.654,2.654,0,0,0,67.249,26a4.014,4.014,0,0,0-3.329-6.26H58.565a4,4,0,0,0-3.722,5.51,3.993,3.993,0,0,0-.295,7.631v13.56l-8.817-.478a2.666,2.666,0,0,0-1.893-.787V42.5H41.161v2.677a2.654,2.654,0,0,0-1.481.45l-6.552-.375V42.5l2.669,0h.008a8.033,8.033,0,0,0,8.032-8.032V31.279l2.677-1.339v-.827a26.962,26.962,0,0,0-1.98-9.371h1.98a2.68,2.68,0,0,0,2.677-2.677V14.4a2.681,2.681,0,0,0-2.676-2.677l-4.353,0A15.447,15.447,0,0,0,27.446,1H26.434a17.4,17.4,0,0,0-17.4,17.4v4.449a21.961,21.961,0,0,0,8.743,17.489l1.967,1.486v3.5l-.194.023a3.978,3.978,0,0,0-6.5-1.8,4,4,0,0,0-6.694,2.972v1.917c-.356.24-.718.467-1.052.74A11.716,11.716,0,0,0,4.4,66.5c.592.6,1.254,1.261,1.957,1.967v.811A14.743,14.743,0,0,0,21.081,84H54.548V81.323H49.194v-20.7a6.057,6.057,0,0,0-.072-.718h9.443a9.382,9.382,0,0,0,9.371-9.371V30.452h2.677V59.9a2.68,2.68,0,0,0,2.677,2.677h8.032A2.68,2.68,0,0,0,84,59.9V3.677A2.68,2.68,0,0,0,81.323,1ZM58.565,22.419h5.355a1.339,1.339,0,0,1,0,2.677H58.565a1.339,1.339,0,0,1,0-2.677ZM43.839,47.855v6.771a6.3,6.3,0,0,0-.784-.078,5.906,5.906,0,0,0-1.893.317V47.855ZM43.816,28.3l-2.655,1.328v4.843H38.8a3.487,3.487,0,0,1-3.135-1.937l-2.395,1.2a6.155,6.155,0,0,0,5.53,3.416h1.62a5.216,5.216,0,0,1-4.613,2.677H35.8l-8.026-.008,0,2.677,2.679,0v3.467l-.392.392a5.126,5.126,0,0,1-7.248,0l-.392-.392V32.46l-4.1-3.079a3.123,3.123,0,0,1,1.873-5.623h1.858l1.339-4.016H41.641A26.478,26.478,0,0,1,43.816,28.3Zm2.7-11.232h-24.1V14.387l24.1.013ZM26.245,3.687l.178.059a9.778,9.778,0,0,1,6.6,7.969H30.354a12.457,12.457,0,0,0-4.143-8.026.154.154,0,0,0,.035,0Zm13.073,8.032h-3.59A12.447,12.447,0,0,0,32.685,4.8,12.766,12.766,0,0,1,39.318,11.719ZM16.023,7.991a14.633,14.633,0,0,1,6.271-3.718,9.782,9.782,0,0,1,5.383,7.441l-5.256,0h0a2.676,2.676,0,0,0-2.676,2.677v2.677H17.065V14.387H14.387v2.677H11.775a14.609,14.609,0,0,1,4.248-9.074ZM19.385,38.2A19.284,19.284,0,0,1,11.71,22.852v-3.11h8.853l-.447,1.339a5.8,5.8,0,0,0-3.408,10.441L19.742,33.8v4.673Zm1.208,9.718.327.327a7.8,7.8,0,0,0,11.034,0l.36-.36,6.171.353v7.647a5.36,5.36,0,0,0-5.355,5.355v.784L26.435,68.72l-6.694-6.694V48.018Zm-4.866-2.743a1.34,1.34,0,0,1,1.339,1.339V59.349l-.23-.23a11.1,11.1,0,0,0-2.447-1.842V46.516A1.34,1.34,0,0,1,15.726,45.177ZM9.032,46.516a1.34,1.34,0,0,1,1.339-1.339,1.321,1.321,0,0,1,1.292,1.11,13.813,13.813,0,0,0-2.631.726ZM3.677,58.247a9,9,0,0,1,3.319-7,11.192,11.192,0,0,1,4.714-2.256v7.233a11.074,11.074,0,0,0-2.677-.339v2.677a8.3,8.3,0,0,1,5.909,2.447l9.6,9.6-3.07,3.07,1.893,1.893,11.1-11.1,4.8,4.8L28.721,79.822a5.164,5.164,0,0,1-3.624,1.5,5.09,5.09,0,0,1-3.624-1.5C17.982,76.327,10.494,68.834,6.3,64.609a8.968,8.968,0,0,1-2.621-6.362Zm36.93,13.474a13.429,13.429,0,0,1-9.048,9.047Zm-31.385-.38c3.483,3.494,7.333,7.348,9.773,9.787A12.061,12.061,0,0,1,9.222,71.341Zm27.413,9.981a16.053,16.053,0,0,0,7.174-12.8l2.707-2.707V81.323Zm8.888-18.3-4.362,4.36-5.355-5.355v-.784a2.68,2.68,0,0,1,2.677-2.677h1.893l.392-.391a3.251,3.251,0,0,1,2.353-.948,3.4,3.4,0,0,1,2.4,5.8ZM65.258,50.532a6.7,6.7,0,0,1-6.694,6.694H48.151A6.1,6.1,0,0,0,46.516,55.6V48.688l8.787.477,2.315,2.315,1.893-1.893L57.226,47.3V33.129h8.032Zm0-20.081H55.887a1.339,1.339,0,0,1,0-2.677h9.371ZM70.613,11.71H67.935V6.355h2.677ZM65.258,3.677a2.636,2.636,0,0,1,1.323.382,2.669,2.669,0,0,0-1.323,2.3V9.032a2.677,2.677,0,0,1,0-5.355Zm-8.032,6.694a4.007,4.007,0,0,1,2.7-3.777,5.336,5.336,0,0,0,3.58,4.8,5.328,5.328,0,0,0-.9,2.727,3.946,3.946,0,0,1-5.376-3.748Zm10.71,6.694a2.637,2.637,0,0,1-2.3-4,2.671,2.671,0,0,0,2.3,1.324h2.677A2.68,2.68,0,0,1,67.935,17.065ZM73.29,59.9V3.677h8.032V19.742H78.645a2.68,2.68,0,0,0-2.677,2.677V35.806a2.68,2.68,0,0,0,2.677,2.677h2.677V59.9Zm5.355-29.452h2.677v5.355H78.645Zm0-2.677V22.419h2.677v5.355Z" fill="url(#linear-gradient)"/>
    <path id="Path_61" data-name="Path 61" d="M57,5h2.677V15.71H57Z" transform="translate(18.968 1.355)" fill="url(#linear-gradient)"/>
  </g>
</svg>
