<svg xmlns="http://www.w3.org/2000/svg" xmlns:xlink="http://www.w3.org/1999/xlink" width="97.257" height="98" viewBox="0 0 97.257 98">
  <defs>
    <linearGradient id="linear-gradient" x1="0.5" x2="0.5" y2="1" gradientUnits="objectBoundingBox">
      <stop offset="0" stop-color="#399bdb"/>
      <stop offset="1" stop-color="#6e329b"/>
    </linearGradient>
  </defs>
  <g id="art" transform="translate(-1.94)">
    <g id="Group_37" data-name="Group 37" transform="translate(64.335 43.258)">
      <g id="Group_36" data-name="Group 36">
        <circle id="Ellipse_11" data-name="Ellipse 11" cx="1.914" cy="1.914" r="1.914" fill="url(#linear-gradient)"/>
      </g>
    </g>
    <g id="Group_39" data-name="Group 39" transform="translate(37.609 53.352)">
      <g id="Group_38" data-name="Group 38">
        <path id="Path_9" data-name="Path 9" d="M217.261,278.759a1.914,1.914,0,0,0-2.174,1.613c-.523,3.532-3.509,6.462-7.987,7.837-4.786,1.47-11.43.977-15.483-3.437a1.914,1.914,0,1,0-2.82,2.589,16.866,16.866,0,0,0,9.216,5.036,20.408,20.408,0,0,0,4.007.391,21.265,21.265,0,0,0,6.2-.92c5.924-1.819,9.905-5.907,10.65-10.936A1.914,1.914,0,0,0,217.261,278.759Z" transform="translate(-188.293 -278.738)" fill="url(#linear-gradient)"/>
      </g>
    </g>
    <g id="Group_41" data-name="Group 41" transform="translate(1.94)">
      <g id="Group_40" data-name="Group 40">
        <path id="Path_10" data-name="Path 10" d="M93.181,36.446a23.7,23.7,0,0,0-14.06-7.7A108.593,108.593,0,0,0,92.83,18.054c5.189-4.944,6.929-8.419,5.476-10.934-1.617-2.8-6.283-2.782-14.687.061A146.989,146.989,0,0,0,58.712,18.93c-1.548.893-3.081,1.808-4.582,2.73-1.113-3.142-.379-6.732,2.076-9.844a7.316,7.316,0,0,0,1.072-7.728C56.043,1.535,53.334.007,50.025,0h-.09a47.51,47.51,0,0,0-32.16,12.973A48.239,48.239,0,0,0,2.135,44.2,49.164,49.164,0,0,0,50.938,98a52.219,52.219,0,0,0,20.5-4,46.126,46.126,0,0,0,15.1-10.288,45.466,45.466,0,0,0,9.337-13.969,40.508,40.508,0,0,0,3.325-15.124C99.3,47.412,97.218,41.126,93.181,36.446ZM54.354,26.029c2.026-1.278,4.136-2.551,6.272-3.784A147.566,147.566,0,0,1,83.857,11.151c7.371-2.61,10.389-2.439,11.093-2.1-.061.445-.614,2.427-5.451,6.881A121.787,121.787,0,0,1,72.89,28.246c-2.109,1.335-4.3,2.663-6.523,3.944-3.06,1.766-6.117,3.417-9.118,4.929a28.678,28.678,0,0,0-5.428-9.462Q53.067,26.841,54.354,26.029Zm-.572,12.789a98.151,98.151,0,0,1-14.324,5.651,9.551,9.551,0,0,0-2.889-5.091,98.43,98.43,0,0,1,12.052-9.568,24.955,24.955,0,0,1,5.162,9.008ZM95.366,54.568c-.273,19.046-17.336,39.6-44.427,39.6A45.336,45.336,0,0,1,5.949,44.525c1.933-22.44,21.665-40.7,43.987-40.7h.086c1.831,0,3.22.706,3.81,1.927A3.488,3.488,0,0,1,53.2,9.445c-3.45,4.374-4.315,9.753-2.366,14.288-1.026.661-2.035,1.325-3.009,1.984l-.014.009a101.953,101.953,0,0,0-14.646,11.63,9.519,9.519,0,0,0-7.865.77c-3.977,2.3-9.2,13-10.2,15.124a1.914,1.914,0,0,0,1.575,2.728c1.058.086,4.062.3,7.406.3,4.057,0,8.614-.319,10.795-1.579a9.548,9.548,0,0,0,4.565-6.259,101.255,101.255,0,0,0,17.469-6.879c3.722-1.811,7.549-3.85,11.376-6.058,1.941-1.121,3.861-2.277,5.726-3.443l.034,0C90,32.523,95.517,43.99,95.366,54.568ZM35.819,46.774a5.735,5.735,0,0,1-2.862,4.613c-1.81,1.046-8.029,1.187-13.134.953,2.35-4.537,5.58-9.852,7.392-10.9a5.744,5.744,0,0,1,8.6,5.332Z" transform="translate(-1.94)" fill="url(#linear-gradient)"/>
      </g>
    </g>
    <g id="Group_43" data-name="Group 43" transform="translate(27.968 11.837)">
      <g id="Group_42" data-name="Group 42">
        <path id="Path_11" data-name="Path 11" d="M145.578,61.84a7.656,7.656,0,1,0,7.656,7.656A7.665,7.665,0,0,0,145.578,61.84Zm0,11.484a3.828,3.828,0,1,1,3.828-3.828A3.832,3.832,0,0,1,145.578,73.324Z" transform="translate(-137.922 -61.84)" fill="url(#linear-gradient)"/>
      </g>
    </g>
    <g id="Group_45" data-name="Group 45" transform="translate(18.397 63.269)">
      <g id="Group_44" data-name="Group 44">
        <path id="Path_12" data-name="Path 12" d="M95.578,330.55a7.656,7.656,0,1,0,7.656,7.656A7.665,7.665,0,0,0,95.578,330.55Zm0,11.484a3.828,3.828,0,1,1,3.828-3.828A3.832,3.832,0,0,1,95.578,342.034Z" transform="translate(-87.922 -330.55)" fill="url(#linear-gradient)"/>
      </g>
    </g>
    <g id="Group_47" data-name="Group 47" transform="translate(37.538 74.754)">
      <g id="Group_46" data-name="Group 46">
        <path id="Path_13" data-name="Path 13" d="M195.578,390.55a7.656,7.656,0,1,0,7.656,7.656A7.665,7.665,0,0,0,195.578,390.55Zm0,11.484a3.828,3.828,0,1,1,3.828-3.828A3.832,3.832,0,0,1,195.578,402.034Z" transform="translate(-187.922 -390.55)" fill="url(#linear-gradient)"/>
      </g>
    </g>
    <g id="Group_49" data-name="Group 49" transform="translate(60.507 70.926)">
      <g id="Group_48" data-name="Group 48">
        <path id="Path_14" data-name="Path 14" d="M315.578,370.55a7.656,7.656,0,1,0,7.656,7.656A7.665,7.665,0,0,0,315.578,370.55Zm0,11.484a3.828,3.828,0,1,1,3.828-3.828A3.833,3.833,0,0,1,315.578,382.034Z" transform="translate(-307.922 -370.55)" fill="url(#linear-gradient)"/>
      </g>
    </g>
    <g id="Group_51" data-name="Group 51" transform="translate(75.819 51.785)">
      <g id="Group_50" data-name="Group 50">
        <path id="Path_15" data-name="Path 15" d="M395.578,270.55a7.656,7.656,0,1,0,7.656,7.656A7.665,7.665,0,0,0,395.578,270.55Zm0,11.484a3.828,3.828,0,1,1,3.828-3.828A3.833,3.833,0,0,1,395.578,282.034Z" transform="translate(-387.922 -270.55)" fill="url(#linear-gradient)"/>
      </g>
    </g>
  </g>
</svg>
