<svg xmlns="http://www.w3.org/2000/svg" xmlns:xlink="http://www.w3.org/1999/xlink" width="88.122" height="97.238" viewBox="0 0 88.122 97.238">
  <defs>
    <linearGradient id="linear-gradient" x1="0.5" x2="0.5" y2="1" gradientUnits="objectBoundingBox">
      <stop offset="0" stop-color="#399bdb"/>
      <stop offset="1" stop-color="#6e329b"/>
    </linearGradient>
  </defs>
  <g id="carpenter" transform="translate(-3)">
    <g id="Group_52" data-name="Group 52" transform="translate(3.003 30.388)">
      <path id="Path_16" data-name="Path 16" d="M42.5,44.312H9.079A6.084,6.084,0,0,1,3,38.235V26.078A6.084,6.084,0,0,1,9.079,20H42.5a1.519,1.519,0,0,1,0,3.039H9.079a3.042,3.042,0,0,0-3.039,3.039V38.235a3.042,3.042,0,0,0,3.039,3.039H42.5a1.519,1.519,0,0,1,0,3.039Z" transform="translate(-3.002 -20.001)" fill="url(#linear-gradient)"/>
    </g>
    <g id="Group_53" data-name="Group 53" transform="translate(40.984 30.388)">
      <path id="Path_17" data-name="Path 17" d="M29.519,44.312A1.518,1.518,0,0,1,28,42.793V21.52a1.519,1.519,0,0,1,3.039,0V42.793A1.518,1.518,0,0,1,29.519,44.312Z" transform="translate(-28 -20.001)" fill="url(#linear-gradient)"/>
    </g>
    <g id="Group_54" data-name="Group 54" transform="translate(40.984 48.619)">
      <path id="Path_18" data-name="Path 18" d="M29.519,38.081a1.52,1.52,0,0,1-.48-2.961l9.119-3.04a1.519,1.519,0,0,1,.962,2.882L30,38a1.537,1.537,0,0,1-.482.079Z" transform="translate(-28 -32)" fill="url(#linear-gradient)"/>
    </g>
    <g id="Group_55" data-name="Group 55" transform="translate(40.984 30.384)">
      <path id="Path_19" data-name="Path 19" d="M38.638,26.078a1.521,1.521,0,0,1-.48-.079l-9.119-3.04A1.519,1.519,0,1,1,30,20.077l9.119,3.04a1.52,1.52,0,0,1-.482,2.961Z" transform="translate(-28 -19.998)" fill="url(#linear-gradient)"/>
    </g>
    <g id="Group_56" data-name="Group 56" transform="translate(50.103 33.426)">
      <path id="Path_20" data-name="Path 20" d="M35.521,40.234A1.518,1.518,0,0,1,34,38.714V23.519a1.519,1.519,0,0,1,3.039,0V38.714A1.518,1.518,0,0,1,35.521,40.234Z" transform="translate(-34.002 -22)" fill="url(#linear-gradient)"/>
    </g>
    <g id="Group_57" data-name="Group 57" transform="translate(50.103 36.466)">
      <path id="Path_21" data-name="Path 21" d="M41.6,36.159H35.521A1.518,1.518,0,0,1,34,34.639V25.52A1.518,1.518,0,0,1,35.521,24H41.6a1.518,1.518,0,0,1,1.519,1.519v9.119A1.518,1.518,0,0,1,41.6,36.159ZM37.041,33.12h3.036V27.04H37.041Z" transform="translate(-34.002 -24.001)" fill="url(#linear-gradient)"/>
    </g>
    <g id="Group_58" data-name="Group 58" transform="translate(56.177 41.025)">
      <path id="Path_22" data-name="Path 22" d="M54.722,30.041h-15.2a1.519,1.519,0,0,1,0-3.039h15.2a1.519,1.519,0,1,1,0,3.039Z" transform="translate(-38 -27.002)" fill="url(#linear-gradient)"/>
    </g>
    <g id="Group_59" data-name="Group 59" transform="translate(7.561 51.661)">
      <path id="Path_23" data-name="Path 23" d="M18.151,58.309H7.521a1.519,1.519,0,0,1-1.5-1.735L9.059,35.306a1.519,1.519,0,0,1,1.5-1.3H21.192a1.519,1.519,0,0,1,1.5,1.735L19.655,57A1.519,1.519,0,0,1,18.151,58.309ZM9.273,55.27h7.56l2.607-18.229H11.88Z" transform="translate(-6.002 -34.002)" fill="url(#linear-gradient)"/>
    </g>
    <g id="Group_60" data-name="Group 60" transform="translate(3 72.929)">
      <path id="Path_24" data-name="Path 24" d="M25.787,64.714H4.519A1.518,1.518,0,0,1,3,63.195V49.519A1.518,1.518,0,0,1,4.519,48H25.787a1.518,1.518,0,0,1,1.519,1.519V63.195A1.518,1.518,0,0,1,25.787,64.714ZM6.039,61.676H24.268V51.039H6.039Z" transform="translate(-3 -48)" fill="url(#linear-gradient)"/>
    </g>
    <g id="Group_61" data-name="Group 61" transform="translate(27.31 51.661)">
      <path id="Path_25" data-name="Path 25" d="M20.519,41.6A1.518,1.518,0,0,1,19,40.079V35.521a1.519,1.519,0,0,1,3.039,0v4.558A1.518,1.518,0,0,1,20.519,41.6Z" transform="translate(-19 -34.002)" fill="url(#linear-gradient)"/>
    </g>
    <g id="Group_62" data-name="Group 62" transform="translate(20.662 56.219)">
      <path id="Path_26" data-name="Path 26" d="M22.791,40.041H16.144a1.519,1.519,0,0,1,0-3.039h6.647a1.519,1.519,0,0,1,0,3.039Z" transform="translate(-14.625 -37.002)" fill="url(#linear-gradient)"/>
    </g>
    <g id="Group_63" data-name="Group 63" transform="translate(3 77.49)">
      <path id="Path_27" data-name="Path 27" d="M25.787,54.041H4.519a1.519,1.519,0,0,1,0-3.039H25.787a1.519,1.519,0,0,1,0,3.039Z" transform="translate(-3 -51.002)" fill="url(#linear-gradient)"/>
    </g>
    <g id="Group_64" data-name="Group 64" transform="translate(25.805 37.988)">
      <path id="Path_28" data-name="Path 28" d="M34.708,34.119H19.529A1.518,1.518,0,0,1,18.01,32.6V26.522A1.518,1.518,0,0,1,19.529,25H34.708a1.518,1.518,0,0,1,1.519,1.519V32.6A1.518,1.518,0,0,1,34.708,34.119ZM21.049,31.08h12.14V28.042H21.049Z" transform="translate(-18.01 -25.003)" fill="url(#linear-gradient)"/>
    </g>
    <g id="Group_65" data-name="Group 65" transform="translate(60.732)">
      <path id="Path_29" data-name="Path 29" d="M63.791,97.238H42.517A1.518,1.518,0,0,1,41,95.719V1.519A1.518,1.518,0,0,1,42.517,0H63.791a1.518,1.518,0,0,1,1.519,1.519v94.2A1.518,1.518,0,0,1,63.791,97.238ZM44.037,94.2H62.272V3.039H44.037Z" transform="translate(-40.998)" fill="url(#linear-gradient)"/>
    </g>
    <g id="Group_66" data-name="Group 66" transform="translate(82.006)">
      <path id="Path_30" data-name="Path 30" d="M62.6,97.238H56.519A1.518,1.518,0,0,1,55,95.719V1.519A1.518,1.518,0,0,1,56.519,0H62.6a1.518,1.518,0,0,1,1.519,1.519v94.2A1.518,1.518,0,0,1,62.6,97.238ZM58.039,94.2h3.039V3.039H58.039Z" transform="translate(-55)" fill="url(#linear-gradient)"/>
    </g>
    <g id="Group_67" data-name="Group 67" transform="translate(74.403)">
      <path id="Path_31" data-name="Path 31" d="M51.515,31.914A1.518,1.518,0,0,1,50,30.395V1.519a1.519,1.519,0,0,1,3.039,0V30.395A1.518,1.518,0,0,1,51.515,31.914Z" transform="translate(-49.996)" fill="url(#linear-gradient)"/>
    </g>
    <g id="Group_68" data-name="Group 68" transform="translate(66.804 66.844)">
      <path id="Path_32" data-name="Path 32" d="M46.513,74.39a1.518,1.518,0,0,1-1.519-1.519V45.514a1.519,1.519,0,0,1,3.039,0V72.87A1.518,1.518,0,0,1,46.513,74.39Z" transform="translate(-44.994 -43.995)" fill="url(#linear-gradient)"/>
    </g>
    <g id="Group_69" data-name="Group 69" transform="translate(60.726 60.766)">
      <path id="Path_33" data-name="Path 33" d="M48.591,49.111a1.518,1.518,0,0,1-1.519-1.519,4.564,4.564,0,0,0-4.558-4.558,1.519,1.519,0,0,1,0-3.039,7.605,7.605,0,0,1,7.6,7.6A1.518,1.518,0,0,1,48.591,49.111Z" transform="translate(-40.994 -39.995)" fill="url(#linear-gradient)"/>
    </g>
  </g>
</svg>
