<svg xmlns="http://www.w3.org/2000/svg" xmlns:xlink="http://www.w3.org/1999/xlink" width="100.061" height="100.061" viewBox="0 0 100.061 100.061">
  <defs>
    <linearGradient id="linear-gradient" x1="0.5" x2="0.5" y2="1" gradientUnits="objectBoundingBox">
      <stop offset="0" stop-color="#399bdb"/>
      <stop offset="1" stop-color="#6e329b"/>
    </linearGradient>
  </defs>
  <g id="tutor" transform="translate(-1 -1)">
    <path id="Path_53" data-name="Path 53" d="M101.061,70.4V57.486A14.538,14.538,0,0,0,91.683,43.92a11.292,11.292,0,1,0-13.247.207,28.815,28.815,0,0,0-4.851,1.893A17,17,0,0,1,66.027,47.8h-.471v-11.3H62.328V30.05h-11.3a4.848,4.848,0,0,0-4.842,4.842V52.644H31.664V37.929A21.022,21.022,0,0,0,49.417,17.066V6.649a5.649,5.649,0,0,0-11.3,0v8.876a9.693,9.693,0,0,1-9.683,9.683h-.179a11.3,11.3,0,1,0-14.836.821A17.782,17.782,0,0,0,1,42.961v9.654a8,8,0,0,0,2.377,5.718,7.909,7.909,0,0,0,5.692,2.35V84.922a6.429,6.429,0,0,0,11.3,4.225,6.327,6.327,0,0,0,8.069,1.333v10.581h9.683V65.556H73.625v3.228h-1.8A8.058,8.058,0,0,0,64.168,74.3L57.785,93.453a5.775,5.775,0,0,0,5.481,7.608h.9a5.765,5.765,0,0,0,5.481-3.951l3.977-11.927v15.877h9.683V88.15H97.833a3.231,3.231,0,0,0,3.228-3.228V81.694a3.231,3.231,0,0,0-3.228-3.228h-.179a11.254,11.254,0,0,0,3.407-8.069ZM76.853,34.892a8.069,8.069,0,1,1,8.069,8.069A8.079,8.079,0,0,1,76.853,34.892ZM62.328,47.8H58.293a5.655,5.655,0,0,0-5.649,5.649,5.591,5.591,0,0,0,.566,2.421h-2.18a1.614,1.614,0,0,1-1.614-1.614V39.436a4.787,4.787,0,0,0,1.614.3h11.3Zm-11.3-14.525H59.1v3.228H51.031a1.614,1.614,0,1,1,0-3.228ZM41.347,15.525V6.649a2.421,2.421,0,1,1,4.842,0V17.066A17.819,17.819,0,0,1,29.9,34.9l-1.467.134V47.506a4.835,4.835,0,0,1-3.228-4.545V28.436h3.228A12.926,12.926,0,0,0,41.347,15.525ZM12.3,17.139a8.069,8.069,0,1,1,8.069,8.069A8.079,8.079,0,0,1,12.3,17.139ZM5.654,56.047a4.8,4.8,0,0,1-1.427-3.431V42.961a14.54,14.54,0,0,1,11.3-14.151V42.961A4.835,4.835,0,0,1,12.3,47.506V38.119H9.069V57.457a4.805,4.805,0,0,1-3.415-1.411Zm19.554,32.1a3.231,3.231,0,0,1-3.228-3.228V54.258H18.753V84.922a3.228,3.228,0,1,1-6.456,0V50.868a8.083,8.083,0,0,0,6.456-7.906V28.436h3.228V42.961a8.085,8.085,0,0,0,6.456,7.906V84.922A3.231,3.231,0,0,1,25.208,88.15Zm9.683,9.683H31.664V65.556h3.228Zm3.228-35.506H31.664V55.872H46.486A4.835,4.835,0,0,0,51.031,59.1H70.868a20.241,20.241,0,0,0,9-2.124l.211-.107v5.458H38.119ZM71.727,80.673,66.585,96.09a2.545,2.545,0,0,1-2.418,1.743h-.9a2.552,2.552,0,0,1-2.421-3.359l6.383-19.152a4.838,4.838,0,0,1,4.595-3.312h1.8v6.7A3.2,3.2,0,0,0,71.727,80.673Zm8.353,17.16H76.853V65.556h3.228V97.833ZM97.833,81.694v3.228H83.308V81.694H97.833ZM83.308,78.467V55.256l2.335-1.168L84.2,51.2l-5.774,2.887a16.972,16.972,0,0,1-7.556,1.785H58.293a2.421,2.421,0,0,1,0-4.842h7.734a20.241,20.241,0,0,0,9-2.124,25.856,25.856,0,0,1,11.509-2.718,11.312,11.312,0,0,1,11.3,11.3V70.4a8.079,8.079,0,0,1-8.069,8.069Z" fill="url(#linear-gradient)"/>
    <path id="Path_54" data-name="Path 54" d="M39.842,20.367H42.4l3.7,3.7a3.9,3.9,0,0,0,6.651-2.755v-.946H65.664a4.848,4.848,0,0,0,4.842-4.842V5.842A4.848,4.848,0,0,0,65.664,1H39.842A4.848,4.848,0,0,0,35,5.842v9.683A4.848,4.848,0,0,0,39.842,20.367ZM38.228,5.842a1.614,1.614,0,0,1,1.614-1.614H65.664a1.614,1.614,0,0,1,1.614,1.614v9.683a1.614,1.614,0,0,1-1.614,1.614H49.525v4.174a.694.694,0,0,1-1.141.473l-4.646-4.646h-3.9a1.614,1.614,0,0,1-1.614-1.614Z" transform="translate(20.872)" fill="url(#linear-gradient)"/>
    <path id="Path_55" data-name="Path 55" d="M45,6h3.228V9.228H45Z" transform="translate(27.011 3.069)" fill="url(#linear-gradient)"/>
    <path id="Path_56" data-name="Path 56" d="M49,6h3.228V9.228H49Z" transform="translate(29.467 3.069)" fill="url(#linear-gradient)"/>
    <path id="Path_57" data-name="Path 57" d="M41,6h3.228V9.228H41Z" transform="translate(24.556 3.069)" fill="url(#linear-gradient)"/>
  </g>
</svg>
