<svg width="2300" height="2300" xmlns="http://www.w3.org/2000/svg" preserveAspectRatio="xMidYMid meet">
 <metadata>Created by potrace 1.15, written by Peter Selinger 2001-2017</metadata>

 <g>
  <title>background</title>
  <rect fill="none" id="canvas_background" height="602" width="802" y="-1" x="-1"/>
 </g>
 <g>
  <title>Layer 1</title>
  <g id="svg_1" fill="#000000" transform="translate(0,2300) scale(0.10000000149011612,-0.10000000149011612) ">
   <path id="svg_2" d="m10975,22739c-2427,-117 -4736,-1004 -6610,-2540c-463,-379 -940,-841 -1336,-1294c-1793,-2053 -2779,-4680 -2779,-7405c0,-2051 555,-4048 1613,-5805c867,-1440 2038,-2660 3447,-3590c691,-457 1482,-858 2260,-1147c2536,-944 5324,-944 7860,0c908,338 1810,816 2595,1377c1496,1068 2689,2456 3515,4090c1416,2801 1598,6059 502,9005c-884,2377 -2568,4405 -4742,5710c-597,358 -1233,666 -1870,902c-1101,410 -2239,641 -3435,698c-237,11 -780,11 -1020,-1zm663,-1679c393,-42 743,-187 1052,-437c97,-79 270,-257 341,-353c153,-205 262,-435 329,-697c17,-64 29,-118 26,-120c-2,-2 -332,-16 -732,-31l-728,-27l-71,70c-147,147 -341,204 -546,161c-197,-42 -367,-210 -414,-407c-17,-75 -19,-206 -4,-281c6,-29 29,-90 50,-135c72,-151 208,-260 375,-303c270,-69 494,40 625,304l53,106l45,0c25,0 334,11 686,25c352,14 652,25 668,25c33,0 34,-14 12,-169c-78,-531 -312,-963 -700,-1289c-380,-319 -829,-468 -1350,-449c-188,7 -317,26 -475,68c-691,184 -1259,779 -1413,1480c-40,179 -51,289 -51,494c0,269 33,460 120,692c199,533 691,1002 1241,1183c262,86 584,119 861,90zm-5374,-3135c352,-46 696,-196 977,-426c452,-369 695,-839 741,-1432c44,-578 -155,-1117 -577,-1556c-294,-307 -646,-496 -1070,-577c-188,-35 -500,-45 -678,-20c-442,62 -840,272 -1173,618c-343,358 -515,779 -531,1298c-10,337 48,626 186,915c305,638 828,1050 1481,1164c188,33 462,40 644,16zm11131,-116c553,-47 1038,-293 1374,-694c171,-205 357,-533 440,-777c139,-407 144,-792 17,-1173c-120,-357 -373,-689 -725,-951c-147,-109 -1783,-1156 -1792,-1146c-4,4 -181,278 -392,610l-386,602l52,33c1161,742 1482,948 1528,983c90,69 186,179 224,258c45,94 58,160 53,267c-4,81 -8,96 -50,181c-103,206 -289,322 -518,321c-149,-1 -278,-58 -397,-175c-175,-173 -203,-424 -73,-643c44,-73 150,-180 218,-220c28,-16 52,-33 52,-37c0,-13 -1242,-799 -1255,-794c-35,13 -175,203 -265,359c-251,439 -331,915 -234,1397c111,554 422,987 936,1306c261,161 566,266 853,293c130,12 204,12 340,0zm-5435,-1614c1365,-150 2558,-854 3344,-1975c595,-848 891,-1904 826,-2945c-57,-900 -369,-1763 -896,-2475c-218,-294 -559,-650 -829,-865c-725,-578 -1523,-907 -2456,-1012c-216,-24 -722,-24 -938,0c-814,92 -1536,359 -2183,807c-400,277 -808,673 -1102,1070c-642,868 -965,1967 -896,3045c68,1049 462,2003 1155,2795c51,58 166,177 257,266c796,776 1831,1231 2973,1308c129,8 606,-4 745,-19zm10000,-4700l0,-725l-2640,0l-2640,0l0,725l0,725l2640,0l2640,0l0,-725zm-15540,-20l0,-725l-2640,0l-2640,0l0,725l0,725l2640,0l2640,0l0,-725zm11148,-2915c525,-55 983,-333 1338,-809c109,-147 1156,-1783 1146,-1792c-4,-4 -278,-181 -610,-392l-602,-386l-33,52c-742,1161 -948,1482 -983,1528c-69,90 -179,186 -258,224c-100,47 -151,58 -260,53c-89,-4 -101,-7 -188,-50c-206,-103 -322,-289 -321,-518c1,-149 58,-278 175,-397c173,-175 424,-203 643,-73c73,44 180,150 220,218c17,28 33,52 37,52c13,0 799,-1242 794,-1255c-13,-35 -203,-175 -359,-265c-357,-205 -752,-299 -1134,-270c-591,45 -1092,316 -1436,778c-380,511 -509,1048 -391,1630c132,656 518,1137 1169,1457c362,178 716,250 1053,215zm-11547,-115c360,-47 688,-186 999,-421c522,-396 790,-944 790,-1621c0,-454 -152,-880 -441,-1234c-369,-452 -839,-695 -1432,-741c-578,-44 -1117,155 -1556,577c-344,330 -547,746 -600,1227c-16,141 -13,399 5,529c57,409 246,785 559,1108c320,330 683,512 1153,576c130,17 393,18 523,0zm5617,-2685c393,-42 743,-187 1052,-437c97,-79 270,-257 341,-353c153,-205 262,-435 329,-697c17,-64 29,-118 26,-120c-2,-2 -332,-16 -732,-31l-728,-27l-71,70c-147,147 -341,204 -546,161c-197,-42 -367,-210 -414,-407c-17,-75 -19,-206 -4,-281c6,-29 29,-90 50,-135c72,-151 208,-260 375,-303c270,-69 494,40 625,304l53,106l45,0c25,0 334,11 686,25c352,14 652,25 668,25c33,0 34,-14 12,-169c-78,-531 -312,-963 -700,-1289c-380,-319 -829,-468 -1350,-449c-188,7 -317,26 -475,68c-691,184 -1259,779 -1413,1480c-40,179 -51,289 -51,494c0,269 33,460 120,692c199,533 691,1002 1241,1183c262,86 584,119 861,90z"/>
   <path id="svg_3" d="m5862,16479c-199,-30 -369,-173 -439,-369c-28,-79 -31,-224 -8,-314c47,-181 194,-340 380,-412c62,-25 84,-28 190,-28c101,-1 131,3 187,22c392,136 495,627 193,927c-139,138 -322,201 -503,174z"/>
   <path id="svg_4" d="m11210,14436c-412,-59 -763,-242 -1058,-551c-203,-212 -338,-431 -422,-684c-208,-625 -75,-1314 349,-1798c134,-153 418,-380 443,-355c6,6 160,277 343,603l332,594l-38,44c-62,70 -92,141 -97,230c-5,102 20,171 93,249c91,99 194,134 336,114c143,-21 216,-67 260,-167c30,-66 31,-193 2,-280c-11,-33 -419,-808 -906,-1723c-488,-914 -887,-1664 -887,-1667c0,-3 767,-5 1705,-5l1705,0l0,765l0,765l-439,2l-439,3l149,290c514,993 570,1112 619,1306c66,258 67,617 1,890c-78,329 -237,604 -502,867c-267,265 -582,430 -949,497c-128,23 -470,29 -600,11z"/>
   <path id="svg_5" d="m5661,6994c-177,-48 -336,-195 -407,-379c-25,-62 -28,-84 -28,-190c-1,-101 3,-131 22,-187c136,-392 627,-495 927,-193c76,77 131,170 161,270c20,69 22,205 5,280c-41,172 -186,330 -360,391c-79,28 -232,32 -320,8z"/>
  </g>
  <text font-weight="bold" xml:space="preserve" text-anchor="start" font-family="Helvetica, Arial, sans-serif" font-size="250" id="svg_6" y="262.26574" x="1837.49975" stroke-width="0" stroke="#000" fill="#000000">TM</text>
 </g>
</svg>